%TF.GenerationSoftware,KiCad,Pcbnew,9.0.1*%
%TF.CreationDate,2025-06-24T16:04:44-04:00*%
%TF.ProjectId,-Z,2d5a2e6b-6963-4616-945f-706362585858,rev?*%
%TF.SameCoordinates,Original*%
%TF.FileFunction,Copper,L1,Top*%
%TF.FilePolarity,Positive*%
%FSLAX46Y46*%
G04 Gerber Fmt 4.6, Leading zero omitted, Abs format (unit mm)*
G04 Created by KiCad (PCBNEW 9.0.1) date 2025-06-24 16:04:44*
%MOMM*%
%LPD*%
G01*
G04 APERTURE LIST*
G04 Aperture macros list*
%AMRoundRect*
0 Rectangle with rounded corners*
0 $1 Rounding radius*
0 $2 $3 $4 $5 $6 $7 $8 $9 X,Y pos of 4 corners*
0 Add a 4 corners polygon primitive as box body*
4,1,4,$2,$3,$4,$5,$6,$7,$8,$9,$2,$3,0*
0 Add four circle primitives for the rounded corners*
1,1,$1+$1,$2,$3*
1,1,$1+$1,$4,$5*
1,1,$1+$1,$6,$7*
1,1,$1+$1,$8,$9*
0 Add four rect primitives between the rounded corners*
20,1,$1+$1,$2,$3,$4,$5,0*
20,1,$1+$1,$4,$5,$6,$7,0*
20,1,$1+$1,$6,$7,$8,$9,0*
20,1,$1+$1,$8,$9,$2,$3,0*%
G04 Aperture macros list end*
%TA.AperFunction,ComponentPad*%
%ADD10C,0.762000*%
%TD*%
%TA.AperFunction,ComponentPad*%
%ADD11C,3.800000*%
%TD*%
%TA.AperFunction,ConnectorPad*%
%ADD12C,5.600000*%
%TD*%
%TA.AperFunction,SMDPad,CuDef*%
%ADD13RoundRect,0.200000X0.275000X-0.200000X0.275000X0.200000X-0.275000X0.200000X-0.275000X-0.200000X0*%
%TD*%
%TA.AperFunction,ComponentPad*%
%ADD14C,1.500000*%
%TD*%
%TA.AperFunction,SMDPad,CuDef*%
%ADD15R,0.660400X0.254000*%
%TD*%
%TA.AperFunction,SMDPad,CuDef*%
%ADD16R,0.762000X1.447800*%
%TD*%
%TA.AperFunction,ComponentPad*%
%ADD17C,1.727200*%
%TD*%
%TA.AperFunction,SMDPad,CuDef*%
%ADD18RoundRect,0.225000X-0.250000X0.225000X-0.250000X-0.225000X0.250000X-0.225000X0.250000X0.225000X0*%
%TD*%
%TA.AperFunction,SMDPad,CuDef*%
%ADD19RoundRect,0.250000X-0.362500X-1.425000X0.362500X-1.425000X0.362500X1.425000X-0.362500X1.425000X0*%
%TD*%
%TA.AperFunction,ComponentPad*%
%ADD20C,2.100000*%
%TD*%
%TA.AperFunction,ViaPad*%
%ADD21C,0.609600*%
%TD*%
%TA.AperFunction,ViaPad*%
%ADD22C,0.939800*%
%TD*%
%TA.AperFunction,ViaPad*%
%ADD23C,0.762000*%
%TD*%
%TA.AperFunction,Conductor*%
%ADD24C,2.032000*%
%TD*%
%TA.AperFunction,Conductor*%
%ADD25C,0.635000*%
%TD*%
%TA.AperFunction,Conductor*%
%ADD26C,0.254000*%
%TD*%
%TA.AperFunction,Conductor*%
%ADD27C,1.143000*%
%TD*%
%TA.AperFunction,Conductor*%
%ADD28C,0.203200*%
%TD*%
G04 APERTURE END LIST*
D10*
%TO.P,H2,1,1*%
%TO.N,GND*%
X144200001Y-145800000D03*
X143555751Y-147355750D03*
X143555751Y-144244250D03*
X142000001Y-148000000D03*
D11*
X142000001Y-145800000D03*
D12*
X142000001Y-145800000D03*
D10*
X142000001Y-143600000D03*
X140444251Y-147355750D03*
X140444251Y-144244250D03*
X139800001Y-145800000D03*
%TD*%
D13*
%TO.P,R1,1*%
%TO.N,/Light Sensor/ADDR*%
X166692401Y-71399600D03*
%TO.P,R1,2*%
%TO.N,/Light Sensor/I2C Protection/DEVICE*%
X166692401Y-69749600D03*
%TD*%
%TO.P,R2,1*%
%TO.N,/Light Sensor/I2C Protection1/DEVICE*%
X166692400Y-73050600D03*
%TO.P,R2,2*%
%TO.N,/Light Sensor/ADDR*%
X166692400Y-71400600D03*
%TD*%
D14*
%TO.P,JP5,1,A*%
%TO.N,/Burn Wires/VBURN3*%
X164000001Y-96100000D03*
X164000001Y-97499999D03*
%TO.P,JP5,2,B*%
%TO.N,Net-(JP5-B)*%
X164000001Y-102499999D03*
X164000001Y-103899998D03*
%TD*%
D10*
%TO.P,H8,1,1*%
%TO.N,GND*%
X212000000Y-121999999D03*
X211355750Y-123555749D03*
X211355750Y-120444249D03*
X209800000Y-124199999D03*
D11*
X209800000Y-121999999D03*
D12*
X209800000Y-121999999D03*
D10*
X209800000Y-119799999D03*
X208244250Y-123555749D03*
X208244250Y-120444249D03*
X207600000Y-121999999D03*
%TD*%
%TO.P,H5,1,1*%
%TO.N,GND*%
X144200001Y-54200000D03*
X143555751Y-55755750D03*
X143555751Y-52644250D03*
X142000001Y-56400000D03*
D11*
X142000001Y-54200000D03*
D12*
X142000001Y-54200000D03*
D10*
X142000001Y-52000000D03*
X140444251Y-55755750D03*
X140444251Y-52644250D03*
X139800001Y-54200000D03*
%TD*%
D15*
%TO.P,U1,1,VDD*%
%TO.N,/Light Sensor/LS_3V3*%
X162971301Y-70749601D03*
%TO.P,U1,2,ADDR*%
%TO.N,/Light Sensor/ADDR*%
X162971301Y-71399600D03*
%TO.P,U1,3,GND*%
%TO.N,GND*%
X162971301Y-72049599D03*
%TO.P,U1,4,SCL*%
%TO.N,/Light Sensor/I2C Protection1/DEVICE*%
X165028701Y-72049599D03*
%TO.P,U1,5,INT*%
%TO.N,unconnected-(U1-INT-Pad5)*%
X165028701Y-71399600D03*
%TO.P,U1,6,SDA*%
%TO.N,/Light Sensor/I2C Protection/DEVICE*%
X165028701Y-70749601D03*
D16*
%TO.P,U1,7,EPAD*%
%TO.N,GND*%
X164000001Y-71399600D03*
%TD*%
D10*
%TO.P,H7,1,1*%
%TO.N,GND*%
X212000000Y-78000000D03*
X211355750Y-79555750D03*
X211355750Y-76444250D03*
X209800000Y-80200000D03*
D11*
X209800000Y-78000000D03*
D12*
X209800000Y-78000000D03*
D10*
X209800000Y-75800000D03*
X208244250Y-79555750D03*
X208244250Y-76444250D03*
X207600000Y-78000000D03*
%TD*%
D17*
%TO.P,AE3,1,A*%
%TO.N,/Interfaces/GPS*%
X164000000Y-120400000D03*
%TD*%
D18*
%TO.P,C1,1*%
%TO.N,/Light Sensor/LS_3V3*%
X161307600Y-70624599D03*
%TO.P,C1,2*%
%TO.N,GND*%
X161307600Y-72174599D03*
%TD*%
D14*
%TO.P,JP1,1,A*%
%TO.N,/Burn Wires/VBURN1*%
X167900000Y-62789000D03*
X166500001Y-62789000D03*
%TO.P,JP1,2,B*%
%TO.N,Net-(JP1-B)*%
X161500001Y-62789000D03*
X160100002Y-62789000D03*
%TD*%
D10*
%TO.P,H4,1,1*%
%TO.N,GND*%
X120400001Y-78000000D03*
X119755751Y-79555750D03*
X119755751Y-76444250D03*
X118200001Y-80200000D03*
D11*
X118200001Y-78000000D03*
D12*
X118200001Y-78000000D03*
D10*
X118200001Y-75800000D03*
X116644251Y-79555750D03*
X116644251Y-76444250D03*
X116000001Y-78000000D03*
%TD*%
D19*
%TO.P,R36,1*%
%TO.N,GND*%
X161037501Y-108788400D03*
%TO.P,R36,2*%
%TO.N,Net-(JP5-B)*%
X166962501Y-108788400D03*
%TD*%
D10*
%TO.P,H3,1,1*%
%TO.N,GND*%
X120400001Y-121999999D03*
X119755751Y-123555749D03*
X119755751Y-120444249D03*
X118200001Y-124199999D03*
D11*
X118200001Y-121999999D03*
D12*
X118200001Y-121999999D03*
D10*
X118200001Y-119799999D03*
X116644251Y-123555749D03*
X116644251Y-120444249D03*
X116000001Y-121999999D03*
%TD*%
D14*
%TO.P,JP4,1,A*%
%TO.N,Net-(JP3-B)*%
X126789000Y-103899999D03*
X126789000Y-102500000D03*
%TO.P,JP4,2,B*%
%TO.N,Net-(JP4-B)*%
X126789000Y-97500000D03*
X126789000Y-96100001D03*
%TD*%
D10*
%TO.P,H1,1,1*%
%TO.N,GND*%
X188200000Y-145800000D03*
X187555750Y-147355750D03*
X187555750Y-144244250D03*
X186000000Y-148000000D03*
D11*
X186000000Y-145800000D03*
D12*
X186000000Y-145800000D03*
D10*
X186000000Y-143600000D03*
X184444250Y-147355750D03*
X184444250Y-144244250D03*
X183800000Y-145800000D03*
%TD*%
%TO.P,H6,1,1*%
%TO.N,GND*%
X188200000Y-54200000D03*
X187555750Y-55755750D03*
X187555750Y-52644250D03*
X186000000Y-56400000D03*
D11*
X186000000Y-54200000D03*
D12*
X186000000Y-54200000D03*
D10*
X186000000Y-52000000D03*
X184444250Y-55755750D03*
X184444250Y-52644250D03*
X183800000Y-54200000D03*
%TD*%
D20*
%TO.P,U2,11,11*%
%TO.N,/Burn Wires/VBURN_A_IN*%
X146793600Y-88417600D03*
%TO.P,U2,12,12*%
%TO.N,GND*%
X139173600Y-80797600D03*
%TO.P,U2,14,14*%
%TO.N,VBATT*%
X139173600Y-88417600D03*
%TO.P,U2,A1,A1*%
X156953600Y-88417600D03*
%TO.P,U2,A2,A2*%
%TO.N,Net-(D1-A)*%
X156953600Y-80797600D03*
%TD*%
D14*
%TO.P,JP3,1,A*%
%TO.N,/Burn Wires/VBURN2*%
X201211001Y-97500000D03*
X201211001Y-96100001D03*
%TO.P,JP3,2,B*%
%TO.N,Net-(JP3-B)*%
X201211001Y-103899999D03*
X201211001Y-102500000D03*
%TD*%
%TO.P,JP2,1,A*%
%TO.N,Net-(JP1-B)*%
X161500001Y-137211000D03*
X160100002Y-137211000D03*
%TO.P,JP2,2,B*%
%TO.N,Net-(JP2-B)*%
X167900000Y-137211000D03*
X166500001Y-137211000D03*
%TD*%
D21*
%TO.N,GND*%
X161400000Y-128372600D03*
X165100000Y-110900000D03*
X162900000Y-113000000D03*
X163600000Y-111600000D03*
X162200000Y-125972600D03*
X162200000Y-129172600D03*
X165100000Y-115900000D03*
X165000001Y-125972600D03*
X185670201Y-121018798D03*
X165800000Y-125972600D03*
X165500000Y-121200000D03*
X162500000Y-119600000D03*
X163000001Y-121968599D03*
X166600000Y-126772600D03*
X166600000Y-128372600D03*
X164400000Y-115900000D03*
X163000001Y-125171799D03*
X152888399Y-123395400D03*
X163000001Y-125972600D03*
X165000001Y-122769399D03*
X162900000Y-110900000D03*
X164000000Y-118600000D03*
X162925001Y-113756200D03*
X184243801Y-80213400D03*
X165100000Y-111600000D03*
X163000000Y-118900000D03*
X165000001Y-124370999D03*
X165000000Y-118900000D03*
X162900000Y-111600000D03*
X164000000Y-129172600D03*
X161400000Y-125972600D03*
X163600000Y-110900000D03*
X165875001Y-114391200D03*
X165875001Y-115026200D03*
X163000001Y-122769399D03*
X148920200Y-118719600D03*
X165800000Y-112300000D03*
X165800000Y-111600000D03*
X162925001Y-114391200D03*
X165000001Y-121968599D03*
X162200000Y-120400000D03*
X163000001Y-123570199D03*
X166600000Y-127572600D03*
X162925001Y-115026200D03*
X165000001Y-125171799D03*
X161400000Y-127572600D03*
X162900000Y-115900000D03*
X163000000Y-129172600D03*
X162500000Y-121200000D03*
X162900000Y-110200000D03*
X166600000Y-125972600D03*
X165500000Y-119600000D03*
X165000000Y-129172600D03*
X179265400Y-84379000D03*
X165800000Y-120400000D03*
X165000001Y-123570199D03*
X182165000Y-120497799D03*
X163000001Y-124370999D03*
X161400000Y-129172600D03*
X161400000Y-126772600D03*
X165875001Y-113756200D03*
X165900000Y-115900000D03*
X162900000Y-112300000D03*
X163703000Y-115900000D03*
X165800000Y-113000000D03*
X184228800Y-88820999D03*
X165800000Y-129172600D03*
X180281401Y-75514399D03*
X166600000Y-129172600D03*
D22*
%TO.N,Net-(AE1-Pad1)*%
X167300000Y-99999800D03*
%TO.N,Net-(AE2-Pad1)*%
X160700000Y-99999800D03*
D21*
%TO.N,BURN_RELAY_A*%
X148556800Y-112852399D03*
X152798600Y-77380800D03*
%TO.N,SDA*%
X182237201Y-89661200D03*
X182252200Y-74699600D03*
X141114601Y-119796799D03*
X150917600Y-124230600D03*
%TO.N,SCL*%
X150917599Y-117907000D03*
X182252201Y-81023200D03*
X141114601Y-117896800D03*
%TO.N,/Burn Wires/VBURN1*%
X173042401Y-74955600D03*
X173779001Y-74955600D03*
X173779000Y-76378000D03*
X173779001Y-75666799D03*
X173042400Y-76378000D03*
X173042401Y-75666799D03*
%TO.N,/Burn Wires/VBURN2*%
X173042400Y-83566200D03*
X173779001Y-82143800D03*
X173779000Y-83566200D03*
X173042401Y-82143800D03*
X173779001Y-82854999D03*
X173042401Y-82854999D03*
%TO.N,/Burn Wires/VBURN3*%
X173042400Y-90805200D03*
X173042401Y-89382800D03*
X173779000Y-89382799D03*
X173779001Y-90093999D03*
X173779000Y-90805200D03*
X173042401Y-90093999D03*
%TO.N,SCL_M*%
X182237200Y-84987599D03*
X179625001Y-120370803D03*
%TO.N,SDA_M*%
X182237200Y-88011199D03*
X179625001Y-121209000D03*
%TO.N,SCL_IO*%
X150926600Y-119565999D03*
X152925600Y-113258796D03*
%TO.N,BURN_EN1*%
X162984001Y-73660200D03*
X148048800Y-114554200D03*
%TO.N,BURN_EN2*%
X162984001Y-79743000D03*
X148559567Y-113977544D03*
%TO.N,SDA_IO*%
X152925600Y-114020800D03*
X150917599Y-122580599D03*
%TO.N,BURN_EN3*%
X148044222Y-113416236D03*
X162984001Y-86982000D03*
%TO.N,/Light Sensor/LS_3V3*%
X182262601Y-77861400D03*
X187687802Y-74699600D03*
X187750800Y-77861400D03*
X176753600Y-77861399D03*
X159529601Y-76885999D03*
X176816600Y-81023200D03*
X175353801Y-80985701D03*
%TO.N,COIL_DRIVER_EN*%
X141114601Y-120751799D03*
X173812200Y-117589800D03*
%TO.N,/GPIO Expander/GE_3V3*%
X145418999Y-121068800D03*
X157802401Y-114173301D03*
X156416200Y-121068800D03*
X156353200Y-117907000D03*
X150907199Y-121068799D03*
X145482000Y-124230600D03*
%TO.N,/Burn Wires/VBURN_A_IN*%
X151300001Y-77355399D03*
X173779001Y-71348799D03*
X173779000Y-78511599D03*
X173779000Y-87173000D03*
X173779000Y-72771199D03*
X173779001Y-79222800D03*
X173779000Y-79934000D03*
X173042401Y-71348799D03*
X173779001Y-86461800D03*
X173042401Y-86461800D03*
X173042400Y-72060000D03*
X173042401Y-87172999D03*
X173042401Y-79933999D03*
X173779000Y-72060000D03*
X173042400Y-78511599D03*
X173042401Y-72771200D03*
X173779000Y-85750600D03*
X173042400Y-85750600D03*
X173042401Y-79222800D03*
%TO.N,3V3_P*%
X175353801Y-79410698D03*
X138398801Y-122359991D03*
X180945800Y-125590000D03*
X138398801Y-121359989D03*
X177085200Y-121234401D03*
X181340000Y-116992600D03*
X176738601Y-86499399D03*
X140873001Y-121869400D03*
X157802401Y-112598298D03*
X187735801Y-86499399D03*
X143389601Y-118846800D03*
X176801600Y-89661200D03*
X182247600Y-86499399D03*
%TO.N,VBATT_M*%
X175308401Y-116306800D03*
X175308400Y-115375902D03*
X140835201Y-124612600D03*
X175308401Y-117246600D03*
X141546400Y-125323799D03*
X141546400Y-124612600D03*
X140835201Y-125323799D03*
%TO.N,/Light Sensor/I2C Protection/DEVICE*%
X182252201Y-76349600D03*
X169384801Y-77419400D03*
%TO.N,/Light Sensor/I2C Protection1/DEVICE*%
X182252201Y-79373200D03*
X168191001Y-77419400D03*
%TO.N,/Light Sensor/ADDR*%
X162118879Y-71401124D03*
X167454400Y-71399599D03*
D23*
%TO.N,/Coil Driver/coil*%
X188438800Y-123164801D03*
X188438801Y-117830802D03*
D21*
X212285401Y-66599000D03*
%TD*%
D24*
%TO.N,Net-(JP1-B)*%
X131742000Y-62789000D02*
X130218001Y-62789000D01*
X130218001Y-62789000D02*
X130218001Y-137211000D01*
X161500000Y-62789000D02*
X131742000Y-62789000D01*
X130218001Y-137211000D02*
X161500000Y-137211000D01*
%TO.N,/Burn Wires/VBURN1*%
X175912600Y-62789000D02*
X175912601Y-75666799D01*
X166500001Y-62789000D02*
X175912600Y-62789000D01*
X175912601Y-75666799D02*
X173042401Y-75666799D01*
%TO.N,/Burn Wires/VBURN2*%
X173042401Y-82854999D02*
X201211001Y-82854999D01*
X201211001Y-82854999D02*
X201211001Y-97500000D01*
%TO.N,Net-(JP2-B)*%
X166500001Y-137211000D02*
X167900000Y-137211000D01*
%TO.N,Net-(JP3-B)*%
X201211000Y-140640000D02*
X201211001Y-102500000D01*
X126789001Y-140640000D02*
X201211000Y-140640000D01*
X126789000Y-102500000D02*
X126789001Y-140640000D01*
%TO.N,/Burn Wires/VBURN3*%
X164000001Y-90094000D02*
X164000001Y-97499999D01*
X173779001Y-90093999D02*
X164000001Y-90094000D01*
%TO.N,Net-(JP4-B)*%
X126789000Y-97500000D02*
X126789000Y-96100000D01*
%TO.N,Net-(JP5-B)*%
X164000000Y-102500000D02*
X164000000Y-108788400D01*
X164000001Y-102499999D02*
X164000000Y-102500000D01*
X164000000Y-108788400D02*
X166400000Y-108788400D01*
D25*
%TO.N,/Light Sensor/LS_3V3*%
X159529600Y-71145600D02*
X160050601Y-70624599D01*
D26*
X161432602Y-70749601D02*
X161307601Y-70624600D01*
X162996701Y-70749601D02*
X161432602Y-70749601D01*
D25*
X160050601Y-70624599D02*
X161307601Y-70624600D01*
X159529601Y-76885999D02*
X159529600Y-71145600D01*
D27*
%TO.N,VBATT_M*%
X141546400Y-125323799D02*
X140835201Y-125323799D01*
X140835201Y-132969199D02*
X140835201Y-124612600D01*
X175308401Y-117246600D02*
X175308401Y-116306800D01*
X175308401Y-116306800D02*
X175308400Y-115375902D01*
X141546400Y-124612600D02*
X140835201Y-124612600D01*
X141546400Y-124612600D02*
X141546400Y-125323799D01*
X175308401Y-132969200D02*
X140835201Y-132969199D01*
X175308401Y-117246600D02*
X175308401Y-132969200D01*
D28*
%TO.N,/Light Sensor/I2C Protection/DEVICE*%
X165064502Y-70739199D02*
X165054100Y-70749601D01*
X169384800Y-71831400D02*
X168292600Y-70739200D01*
X166692400Y-70383599D02*
X166692401Y-69749600D01*
X168292600Y-70739200D02*
X165064502Y-70739199D01*
X166336800Y-70739199D02*
X166692400Y-70383599D01*
X169384801Y-77419400D02*
X169384800Y-71831400D01*
%TO.N,/Light Sensor/I2C Protection1/DEVICE*%
X168191001Y-72517200D02*
X167729400Y-72055600D01*
X166357801Y-72055599D02*
X166692401Y-72390199D01*
X165060101Y-72055599D02*
X165054101Y-72049599D01*
X167729400Y-72055600D02*
X165060101Y-72055599D01*
X166692401Y-72390199D02*
X166692400Y-73050600D01*
X168191001Y-77419400D02*
X168191001Y-72517200D01*
%TO.N,/Light Sensor/ADDR*%
X162118879Y-71401124D02*
X162128065Y-71391939D01*
X162989039Y-71391939D02*
X162996700Y-71399599D01*
X166692401Y-71399599D02*
X167454400Y-71399599D01*
X162128065Y-71391939D02*
X162989039Y-71391939D01*
%TD*%
%TA.AperFunction,Conductor*%
%TO.N,GND*%
G36*
X204882111Y-51395632D02*
G01*
X204918656Y-51445932D01*
X204923580Y-51477019D01*
X204923580Y-58749558D01*
X204949233Y-58845294D01*
X204998787Y-58931123D01*
X204998789Y-58931126D01*
X205068873Y-59001210D01*
X205068875Y-59001211D01*
X205154704Y-59050765D01*
X205154706Y-59050765D01*
X205154707Y-59050766D01*
X205250443Y-59076419D01*
X212522981Y-59076419D01*
X212582112Y-59095632D01*
X212618657Y-59145932D01*
X212623581Y-59177019D01*
X212623581Y-66033373D01*
X212604368Y-66092504D01*
X212554068Y-66129049D01*
X212491894Y-66129049D01*
X212484488Y-66126317D01*
X212481678Y-66125153D01*
X212352351Y-66090500D01*
X212352346Y-66090500D01*
X212218456Y-66090500D01*
X212218450Y-66090500D01*
X212089130Y-66125151D01*
X212089129Y-66125151D01*
X211973174Y-66192099D01*
X211878500Y-66286773D01*
X211811552Y-66402728D01*
X211811552Y-66402729D01*
X211776901Y-66532049D01*
X211776901Y-66665950D01*
X211811552Y-66795270D01*
X211811552Y-66795271D01*
X211811554Y-66795274D01*
X211878500Y-66911226D01*
X211973175Y-67005901D01*
X212086172Y-67071141D01*
X212089129Y-67072848D01*
X212218450Y-67107499D01*
X212218454Y-67107499D01*
X212218456Y-67107500D01*
X212218458Y-67107500D01*
X212352344Y-67107500D01*
X212352346Y-67107500D01*
X212352348Y-67107499D01*
X212352351Y-67107499D01*
X212481675Y-67072847D01*
X212484479Y-67071686D01*
X212486647Y-67071515D01*
X212488044Y-67071141D01*
X212488113Y-67071399D01*
X212546461Y-67066804D01*
X212599475Y-67099288D01*
X212623271Y-67156728D01*
X212623581Y-67164626D01*
X212623581Y-140822980D01*
X212604368Y-140882111D01*
X212554068Y-140918656D01*
X212522981Y-140923580D01*
X205250441Y-140923580D01*
X205154705Y-140949233D01*
X205068876Y-140998787D01*
X205068875Y-140998788D01*
X205068874Y-140998789D01*
X204998790Y-141068873D01*
X204998789Y-141068874D01*
X204998788Y-141068875D01*
X204949234Y-141154704D01*
X204923581Y-141250440D01*
X204923580Y-141250443D01*
X204923580Y-148522980D01*
X204904367Y-148582111D01*
X204854067Y-148618656D01*
X204822980Y-148623580D01*
X123177021Y-148623580D01*
X123117890Y-148604367D01*
X123081345Y-148554067D01*
X123076421Y-148522980D01*
X123076420Y-141250443D01*
X123076419Y-141250440D01*
X123050766Y-141154704D01*
X123001212Y-141068875D01*
X123001211Y-141068873D01*
X122931127Y-140998789D01*
X122931124Y-140998787D01*
X122845295Y-140949233D01*
X122749559Y-140923580D01*
X122749557Y-140923580D01*
X115477020Y-140923580D01*
X115417889Y-140904367D01*
X115381344Y-140854067D01*
X115376420Y-140822980D01*
X115376420Y-102404000D01*
X125569300Y-102404000D01*
X125569300Y-140735994D01*
X125569301Y-140735999D01*
X125599332Y-140925607D01*
X125599336Y-140925623D01*
X125658659Y-141108202D01*
X125745815Y-141279253D01*
X125745820Y-141279262D01*
X125796892Y-141349557D01*
X125858664Y-141434580D01*
X125858666Y-141434582D01*
X125994419Y-141570335D01*
X126149739Y-141683181D01*
X126149747Y-141683185D01*
X126320798Y-141770341D01*
X126503377Y-141829664D01*
X126503380Y-141829664D01*
X126503387Y-141829667D01*
X126503392Y-141829667D01*
X126503393Y-141829668D01*
X126693001Y-141859699D01*
X126693006Y-141859700D01*
X126693008Y-141859700D01*
X201306995Y-141859700D01*
X201306999Y-141859699D01*
X201496614Y-141829667D01*
X201679202Y-141770341D01*
X201850262Y-141683181D01*
X202005582Y-141570335D01*
X202141335Y-141434582D01*
X202254181Y-141279262D01*
X202341341Y-141108202D01*
X202400667Y-140925614D01*
X202430700Y-140735993D01*
X202430701Y-102404007D01*
X202400668Y-102214386D01*
X202400665Y-102214376D01*
X202341342Y-102031797D01*
X202254186Y-101860746D01*
X202254182Y-101860738D01*
X202141336Y-101705418D01*
X202005583Y-101569665D01*
X202005582Y-101569664D01*
X202005581Y-101569663D01*
X201927923Y-101513242D01*
X201850263Y-101456819D01*
X201850257Y-101456816D01*
X201850254Y-101456814D01*
X201679203Y-101369658D01*
X201496624Y-101310335D01*
X201496608Y-101310331D01*
X201307000Y-101280300D01*
X201306994Y-101280300D01*
X201115008Y-101280300D01*
X201115001Y-101280300D01*
X200925393Y-101310331D01*
X200925377Y-101310335D01*
X200742798Y-101369658D01*
X200571747Y-101456814D01*
X200571736Y-101456821D01*
X200416420Y-101569663D01*
X200280664Y-101705419D01*
X200167822Y-101860735D01*
X200167815Y-101860746D01*
X200080659Y-102031797D01*
X200021336Y-102214376D01*
X200021332Y-102214392D01*
X199991301Y-102404000D01*
X199991300Y-102404005D01*
X199991300Y-139319700D01*
X199972087Y-139378831D01*
X199921787Y-139415376D01*
X199890700Y-139420300D01*
X128109301Y-139420300D01*
X128050170Y-139401087D01*
X128013625Y-139350787D01*
X128008701Y-139319700D01*
X128008700Y-102404005D01*
X128008699Y-102404000D01*
X127978668Y-102214392D01*
X127978668Y-102214390D01*
X127978667Y-102214386D01*
X127978664Y-102214376D01*
X127919341Y-102031797D01*
X127832185Y-101860746D01*
X127832181Y-101860738D01*
X127719335Y-101705418D01*
X127583582Y-101569665D01*
X127583581Y-101569664D01*
X127583580Y-101569663D01*
X127505922Y-101513242D01*
X127428262Y-101456819D01*
X127428256Y-101456816D01*
X127428253Y-101456814D01*
X127257202Y-101369658D01*
X127074623Y-101310335D01*
X127074607Y-101310331D01*
X126884999Y-101280300D01*
X126884993Y-101280300D01*
X126693007Y-101280300D01*
X126693000Y-101280300D01*
X126503392Y-101310331D01*
X126503376Y-101310335D01*
X126320797Y-101369658D01*
X126149746Y-101456814D01*
X126149735Y-101456821D01*
X125994419Y-101569663D01*
X125858663Y-101705419D01*
X125745821Y-101860735D01*
X125745814Y-101860746D01*
X125658658Y-102031797D01*
X125599335Y-102214376D01*
X125599331Y-102214392D01*
X125569300Y-102404000D01*
X115376420Y-102404000D01*
X115376420Y-96004000D01*
X125569300Y-96004000D01*
X125569300Y-97595999D01*
X125599331Y-97785607D01*
X125599335Y-97785623D01*
X125658658Y-97968202D01*
X125745814Y-98139253D01*
X125745819Y-98139262D01*
X125802242Y-98216922D01*
X125858663Y-98294580D01*
X125858664Y-98294581D01*
X125858665Y-98294582D01*
X125994418Y-98430335D01*
X126149738Y-98543181D01*
X126149744Y-98543184D01*
X126149746Y-98543185D01*
X126320797Y-98630341D01*
X126503376Y-98689664D01*
X126503379Y-98689664D01*
X126503386Y-98689667D01*
X126503391Y-98689667D01*
X126503392Y-98689668D01*
X126693000Y-98719699D01*
X126693005Y-98719700D01*
X126693007Y-98719700D01*
X126884995Y-98719700D01*
X126884999Y-98719699D01*
X127074614Y-98689667D01*
X127257202Y-98630341D01*
X127428262Y-98543181D01*
X127583582Y-98430335D01*
X127719335Y-98294582D01*
X127832181Y-98139262D01*
X127919341Y-97968202D01*
X127978667Y-97785614D01*
X128008700Y-97595993D01*
X128008700Y-96004007D01*
X127978667Y-95814386D01*
X127919341Y-95631798D01*
X127919341Y-95631797D01*
X127832185Y-95460746D01*
X127832181Y-95460738D01*
X127719335Y-95305418D01*
X127583582Y-95169665D01*
X127583580Y-95169663D01*
X127505922Y-95113242D01*
X127428262Y-95056819D01*
X127428256Y-95056816D01*
X127428253Y-95056814D01*
X127257202Y-94969658D01*
X127074623Y-94910335D01*
X127074607Y-94910331D01*
X126884999Y-94880300D01*
X126884993Y-94880300D01*
X126693007Y-94880300D01*
X126693000Y-94880300D01*
X126503392Y-94910331D01*
X126503376Y-94910335D01*
X126320797Y-94969658D01*
X126149746Y-95056814D01*
X126149735Y-95056821D01*
X125994419Y-95169663D01*
X125858663Y-95305419D01*
X125745821Y-95460735D01*
X125745814Y-95460746D01*
X125658658Y-95631797D01*
X125599335Y-95814376D01*
X125599331Y-95814392D01*
X125569300Y-96004000D01*
X115376420Y-96004000D01*
X115376420Y-62693000D01*
X128998301Y-62693000D01*
X128998301Y-137306999D01*
X129028332Y-137496607D01*
X129028336Y-137496623D01*
X129087659Y-137679202D01*
X129174815Y-137850253D01*
X129174820Y-137850262D01*
X129231243Y-137927922D01*
X129287664Y-138005580D01*
X129287666Y-138005582D01*
X129423419Y-138141335D01*
X129578739Y-138254181D01*
X129578747Y-138254185D01*
X129749798Y-138341341D01*
X129932377Y-138400664D01*
X129932380Y-138400664D01*
X129932387Y-138400667D01*
X129932392Y-138400667D01*
X129932393Y-138400668D01*
X130122001Y-138430699D01*
X130122006Y-138430700D01*
X130122008Y-138430700D01*
X161595995Y-138430700D01*
X161595999Y-138430699D01*
X161785614Y-138400667D01*
X161968202Y-138341341D01*
X162139262Y-138254181D01*
X162294582Y-138141335D01*
X162430335Y-138005582D01*
X162543181Y-137850262D01*
X162630341Y-137679202D01*
X162689667Y-137496614D01*
X162719700Y-137306993D01*
X162719700Y-137115007D01*
X162719699Y-137115000D01*
X165280301Y-137115000D01*
X165280301Y-137306999D01*
X165310332Y-137496607D01*
X165310336Y-137496623D01*
X165369659Y-137679202D01*
X165456815Y-137850253D01*
X165456820Y-137850262D01*
X165513243Y-137927922D01*
X165569664Y-138005580D01*
X165569666Y-138005582D01*
X165705419Y-138141335D01*
X165860739Y-138254181D01*
X165860747Y-138254185D01*
X166031798Y-138341341D01*
X166214377Y-138400664D01*
X166214380Y-138400664D01*
X166214387Y-138400667D01*
X166214392Y-138400667D01*
X166214393Y-138400668D01*
X166404001Y-138430699D01*
X166404006Y-138430700D01*
X166404008Y-138430700D01*
X167995995Y-138430700D01*
X167995999Y-138430699D01*
X168185614Y-138400667D01*
X168368202Y-138341341D01*
X168539262Y-138254181D01*
X168694582Y-138141335D01*
X168830335Y-138005582D01*
X168943181Y-137850262D01*
X169030341Y-137679202D01*
X169089667Y-137496614D01*
X169119700Y-137306993D01*
X169119700Y-137115007D01*
X169089667Y-136925386D01*
X169030341Y-136742798D01*
X169030341Y-136742797D01*
X168943185Y-136571746D01*
X168943181Y-136571738D01*
X168830335Y-136416418D01*
X168694582Y-136280665D01*
X168694580Y-136280663D01*
X168616922Y-136224242D01*
X168539262Y-136167819D01*
X168539256Y-136167816D01*
X168539253Y-136167814D01*
X168368202Y-136080658D01*
X168185623Y-136021335D01*
X168185607Y-136021331D01*
X167995999Y-135991300D01*
X167995993Y-135991300D01*
X166404008Y-135991300D01*
X166404001Y-135991300D01*
X166214393Y-136021331D01*
X166214377Y-136021335D01*
X166031798Y-136080658D01*
X165860747Y-136167814D01*
X165860736Y-136167821D01*
X165705420Y-136280663D01*
X165569664Y-136416419D01*
X165456822Y-136571735D01*
X165456815Y-136571746D01*
X165369659Y-136742797D01*
X165310336Y-136925376D01*
X165310332Y-136925392D01*
X165280301Y-137115000D01*
X162719699Y-137115000D01*
X162689667Y-136925386D01*
X162630341Y-136742798D01*
X162630341Y-136742797D01*
X162543185Y-136571746D01*
X162543181Y-136571738D01*
X162430335Y-136416418D01*
X162294582Y-136280665D01*
X162294580Y-136280663D01*
X162216922Y-136224242D01*
X162139262Y-136167819D01*
X162139256Y-136167816D01*
X162139253Y-136167814D01*
X161968202Y-136080658D01*
X161785623Y-136021335D01*
X161785607Y-136021331D01*
X161595999Y-135991300D01*
X161595993Y-135991300D01*
X131538301Y-135991300D01*
X131479170Y-135972087D01*
X131442625Y-135921787D01*
X131437701Y-135890700D01*
X131437701Y-124536249D01*
X140060001Y-124536249D01*
X140060001Y-133045549D01*
X140089790Y-133195315D01*
X140089791Y-133195317D01*
X140148228Y-133336394D01*
X140148229Y-133336395D01*
X140233062Y-133463358D01*
X140341041Y-133571337D01*
X140372567Y-133592402D01*
X140468006Y-133656172D01*
X140609083Y-133714609D01*
X140758850Y-133744399D01*
X175212037Y-133744399D01*
X175212041Y-133744400D01*
X175232050Y-133744400D01*
X175384751Y-133744400D01*
X175384752Y-133744400D01*
X175534519Y-133714610D01*
X175675596Y-133656173D01*
X175802562Y-133571337D01*
X175910538Y-133463361D01*
X175995374Y-133336395D01*
X176053811Y-133195318D01*
X176083601Y-133045551D01*
X176083601Y-132892849D01*
X176083601Y-132892848D01*
X176083601Y-125523049D01*
X180437300Y-125523049D01*
X180437300Y-125656950D01*
X180471951Y-125786270D01*
X180471951Y-125786271D01*
X180471953Y-125786274D01*
X180538899Y-125902226D01*
X180633574Y-125996901D01*
X180657601Y-126010773D01*
X180749528Y-126063848D01*
X180878849Y-126098499D01*
X180878853Y-126098499D01*
X180878855Y-126098500D01*
X180878857Y-126098500D01*
X181012743Y-126098500D01*
X181012745Y-126098500D01*
X181012747Y-126098499D01*
X181012750Y-126098499D01*
X181142070Y-126063848D01*
X181142071Y-126063848D01*
X181142071Y-126063847D01*
X181142074Y-126063847D01*
X181258026Y-125996901D01*
X181352701Y-125902226D01*
X181419647Y-125786274D01*
X181454300Y-125656945D01*
X181454300Y-125523055D01*
X181454299Y-125523053D01*
X181454299Y-125523049D01*
X181419648Y-125393729D01*
X181419648Y-125393728D01*
X181352700Y-125277773D01*
X181258026Y-125183099D01*
X181142071Y-125116151D01*
X181012750Y-125081500D01*
X181012745Y-125081500D01*
X180878855Y-125081500D01*
X180878849Y-125081500D01*
X180749529Y-125116151D01*
X180749528Y-125116151D01*
X180633573Y-125183099D01*
X180538899Y-125277773D01*
X180471951Y-125393728D01*
X180471951Y-125393729D01*
X180437300Y-125523049D01*
X176083601Y-125523049D01*
X176083601Y-123087821D01*
X187854100Y-123087821D01*
X187854100Y-123241780D01*
X187893948Y-123390490D01*
X187970924Y-123523815D01*
X188079785Y-123632676D01*
X188079784Y-123632676D01*
X188213110Y-123709652D01*
X188213111Y-123709652D01*
X188213114Y-123709654D01*
X188361823Y-123749501D01*
X188361825Y-123749501D01*
X188515775Y-123749501D01*
X188515777Y-123749501D01*
X188664486Y-123709654D01*
X188797814Y-123632677D01*
X188906676Y-123523815D01*
X188983653Y-123390487D01*
X189023500Y-123241778D01*
X189023500Y-123087824D01*
X188983653Y-122939115D01*
X188906676Y-122805787D01*
X188797814Y-122696925D01*
X188797815Y-122696925D01*
X188664489Y-122619949D01*
X188664486Y-122619948D01*
X188624644Y-122609272D01*
X188515779Y-122580101D01*
X188515777Y-122580101D01*
X188361823Y-122580101D01*
X188361820Y-122580101D01*
X188213110Y-122619949D01*
X188079785Y-122696925D01*
X187970924Y-122805786D01*
X187893948Y-122939111D01*
X187854100Y-123087821D01*
X176083601Y-123087821D01*
X176083601Y-121167450D01*
X176576700Y-121167450D01*
X176576700Y-121301351D01*
X176611351Y-121430671D01*
X176611351Y-121430672D01*
X176637349Y-121475701D01*
X176678299Y-121546627D01*
X176772974Y-121641302D01*
X176844931Y-121682847D01*
X176888928Y-121708249D01*
X177018249Y-121742900D01*
X177018253Y-121742900D01*
X177018255Y-121742901D01*
X177018257Y-121742901D01*
X177152143Y-121742901D01*
X177152145Y-121742901D01*
X177152147Y-121742900D01*
X177152150Y-121742900D01*
X177281470Y-121708249D01*
X177281471Y-121708249D01*
X177281471Y-121708248D01*
X177281474Y-121708248D01*
X177397426Y-121641302D01*
X177492101Y-121546627D01*
X177559047Y-121430675D01*
X177572350Y-121381026D01*
X177593699Y-121301351D01*
X177593700Y-121301344D01*
X177593700Y-121167457D01*
X177593699Y-121167450D01*
X177559048Y-121038130D01*
X177559048Y-121038129D01*
X177544383Y-121012729D01*
X177492101Y-120922175D01*
X177397426Y-120827500D01*
X177332304Y-120789901D01*
X177281471Y-120760552D01*
X177152150Y-120725901D01*
X177152145Y-120725901D01*
X177018255Y-120725901D01*
X177018249Y-120725901D01*
X176888929Y-120760552D01*
X176888928Y-120760552D01*
X176772973Y-120827500D01*
X176678299Y-120922174D01*
X176611351Y-121038129D01*
X176611351Y-121038130D01*
X176576700Y-121167450D01*
X176083601Y-121167450D01*
X176083601Y-120303852D01*
X179116501Y-120303852D01*
X179116501Y-120437753D01*
X179151152Y-120567073D01*
X179151152Y-120567074D01*
X179218100Y-120683029D01*
X179253837Y-120718766D01*
X179282063Y-120774164D01*
X179272337Y-120835572D01*
X179253838Y-120861035D01*
X179218100Y-120896773D01*
X179151152Y-121012728D01*
X179151152Y-121012729D01*
X179116501Y-121142049D01*
X179116501Y-121275950D01*
X179151152Y-121405270D01*
X179151152Y-121405271D01*
X179191815Y-121475700D01*
X179218100Y-121521226D01*
X179312775Y-121615901D01*
X179428727Y-121682847D01*
X179428729Y-121682848D01*
X179558050Y-121717499D01*
X179558054Y-121717499D01*
X179558056Y-121717500D01*
X179558058Y-121717500D01*
X179691944Y-121717500D01*
X179691946Y-121717500D01*
X179691948Y-121717499D01*
X179691951Y-121717499D01*
X179821271Y-121682848D01*
X179821272Y-121682848D01*
X179821272Y-121682847D01*
X179821275Y-121682847D01*
X179937227Y-121615901D01*
X180031902Y-121521226D01*
X180098848Y-121405274D01*
X180126695Y-121301346D01*
X180133500Y-121275950D01*
X180133501Y-121275943D01*
X180133501Y-121142056D01*
X180133500Y-121142049D01*
X180098849Y-121012729D01*
X180098849Y-121012728D01*
X180092572Y-121001856D01*
X180031902Y-120896774D01*
X179996163Y-120861035D01*
X179967938Y-120805638D01*
X179977664Y-120744230D01*
X179996162Y-120718768D01*
X180031902Y-120683029D01*
X180098848Y-120567077D01*
X180133012Y-120439573D01*
X180133500Y-120437753D01*
X180133501Y-120437746D01*
X180133501Y-120303859D01*
X180133500Y-120303852D01*
X180098849Y-120174532D01*
X180098849Y-120174531D01*
X180098848Y-120174529D01*
X180031902Y-120058577D01*
X179937227Y-119963902D01*
X179821275Y-119896956D01*
X179821272Y-119896954D01*
X179691951Y-119862303D01*
X179691946Y-119862303D01*
X179558056Y-119862303D01*
X179558050Y-119862303D01*
X179428730Y-119896954D01*
X179428729Y-119896954D01*
X179312774Y-119963902D01*
X179218100Y-120058576D01*
X179151152Y-120174531D01*
X179151152Y-120174532D01*
X179116501Y-120303852D01*
X176083601Y-120303852D01*
X176083601Y-117753822D01*
X187854101Y-117753822D01*
X187854101Y-117907781D01*
X187893949Y-118056491D01*
X187970925Y-118189816D01*
X188079786Y-118298677D01*
X188079785Y-118298677D01*
X188213111Y-118375653D01*
X188213112Y-118375653D01*
X188213115Y-118375655D01*
X188361824Y-118415502D01*
X188361826Y-118415502D01*
X188515776Y-118415502D01*
X188515778Y-118415502D01*
X188664487Y-118375655D01*
X188797815Y-118298678D01*
X188906677Y-118189816D01*
X188983654Y-118056488D01*
X189023501Y-117907779D01*
X189023501Y-117753825D01*
X188983654Y-117605116D01*
X188977682Y-117594773D01*
X188936161Y-117522856D01*
X188906677Y-117471788D01*
X188797815Y-117362926D01*
X188797816Y-117362926D01*
X188664490Y-117285950D01*
X188664487Y-117285949D01*
X188624645Y-117275273D01*
X188515780Y-117246102D01*
X188515778Y-117246102D01*
X188361824Y-117246102D01*
X188361821Y-117246102D01*
X188213111Y-117285950D01*
X188079786Y-117362926D01*
X187970925Y-117471787D01*
X187893949Y-117605112D01*
X187854101Y-117753822D01*
X176083601Y-117753822D01*
X176083601Y-117170249D01*
X176083601Y-116925649D01*
X180831500Y-116925649D01*
X180831500Y-117059550D01*
X180866151Y-117188870D01*
X180866151Y-117188871D01*
X180866153Y-117188874D01*
X180933099Y-117304826D01*
X181027774Y-117399501D01*
X181143726Y-117466447D01*
X181143728Y-117466448D01*
X181273049Y-117501099D01*
X181273053Y-117501099D01*
X181273055Y-117501100D01*
X181273057Y-117501100D01*
X181406943Y-117501100D01*
X181406945Y-117501100D01*
X181406947Y-117501099D01*
X181406950Y-117501099D01*
X181516341Y-117471788D01*
X181536270Y-117466448D01*
X181536271Y-117466448D01*
X181536271Y-117466447D01*
X181536274Y-117466447D01*
X181652226Y-117399501D01*
X181746901Y-117304826D01*
X181813847Y-117188874D01*
X181848500Y-117059545D01*
X181848500Y-116925655D01*
X181848499Y-116925653D01*
X181848499Y-116925649D01*
X181813848Y-116796329D01*
X181813848Y-116796328D01*
X181746900Y-116680373D01*
X181652226Y-116585699D01*
X181536271Y-116518751D01*
X181406950Y-116484100D01*
X181406945Y-116484100D01*
X181273055Y-116484100D01*
X181273049Y-116484100D01*
X181143729Y-116518751D01*
X181143728Y-116518751D01*
X181027773Y-116585699D01*
X180933099Y-116680373D01*
X180866151Y-116796328D01*
X180866151Y-116796329D01*
X180831500Y-116925649D01*
X176083601Y-116925649D01*
X176083601Y-116230449D01*
X176083601Y-116210441D01*
X176083600Y-116210435D01*
X176083600Y-115299550D01*
X176053810Y-115149783D01*
X175995373Y-115008706D01*
X175910536Y-114881740D01*
X175802560Y-114773764D01*
X175760620Y-114745741D01*
X175675598Y-114688931D01*
X175675590Y-114688927D01*
X175627184Y-114668876D01*
X175534517Y-114630492D01*
X175534513Y-114630491D01*
X175534516Y-114630491D01*
X175414539Y-114606627D01*
X175384750Y-114600702D01*
X175232048Y-114600702D01*
X175202259Y-114606627D01*
X175082282Y-114630491D01*
X174941211Y-114688925D01*
X174941204Y-114688929D01*
X174814239Y-114773765D01*
X174706263Y-114881740D01*
X174706263Y-114881741D01*
X174621429Y-115008703D01*
X174621425Y-115008711D01*
X174562989Y-115149786D01*
X174533200Y-115299552D01*
X174533201Y-116230449D01*
X174533201Y-132093399D01*
X174513988Y-132152530D01*
X174463688Y-132189075D01*
X174432601Y-132193999D01*
X141711001Y-132193999D01*
X141651870Y-132174786D01*
X141615325Y-132124486D01*
X141610401Y-132093399D01*
X141610401Y-128597599D01*
X163050001Y-128597599D01*
X164950001Y-128597599D01*
X164950001Y-126507599D01*
X163050001Y-126507599D01*
X163050001Y-128597599D01*
X141610401Y-128597599D01*
X141610401Y-126184016D01*
X141629614Y-126124885D01*
X141679914Y-126088340D01*
X141691375Y-126085349D01*
X141772518Y-126069209D01*
X141913595Y-126010772D01*
X142040561Y-125925936D01*
X142148537Y-125817960D01*
X142233373Y-125690994D01*
X142291810Y-125549917D01*
X142321600Y-125400150D01*
X142321600Y-124536249D01*
X142291810Y-124386482D01*
X142233373Y-124245405D01*
X142226666Y-124235367D01*
X142211690Y-124212953D01*
X142211688Y-124212951D01*
X142178746Y-124163649D01*
X144973500Y-124163649D01*
X144973500Y-124297550D01*
X145008151Y-124426870D01*
X145008151Y-124426871D01*
X145008153Y-124426874D01*
X145075099Y-124542826D01*
X145169774Y-124637501D01*
X145285726Y-124704447D01*
X145285728Y-124704448D01*
X145415049Y-124739099D01*
X145415053Y-124739099D01*
X145415055Y-124739100D01*
X145415057Y-124739100D01*
X145548943Y-124739100D01*
X145548945Y-124739100D01*
X145548947Y-124739099D01*
X145548950Y-124739099D01*
X145678270Y-124704448D01*
X145678271Y-124704448D01*
X145678271Y-124704447D01*
X145678274Y-124704447D01*
X145794226Y-124637501D01*
X145888901Y-124542826D01*
X145955847Y-124426874D01*
X145990500Y-124297545D01*
X145990500Y-124163655D01*
X145990499Y-124163653D01*
X145990499Y-124163649D01*
X150409100Y-124163649D01*
X150409100Y-124297550D01*
X150443751Y-124426870D01*
X150443751Y-124426871D01*
X150443753Y-124426874D01*
X150510699Y-124542826D01*
X150605374Y-124637501D01*
X150721326Y-124704447D01*
X150721328Y-124704448D01*
X150850649Y-124739099D01*
X150850653Y-124739099D01*
X150850655Y-124739100D01*
X150850657Y-124739100D01*
X150984543Y-124739100D01*
X150984545Y-124739100D01*
X150984547Y-124739099D01*
X150984550Y-124739099D01*
X151113870Y-124704448D01*
X151113871Y-124704448D01*
X151113871Y-124704447D01*
X151113874Y-124704447D01*
X151229826Y-124637501D01*
X151324501Y-124542826D01*
X151391447Y-124426874D01*
X151426100Y-124297545D01*
X151426100Y-124163655D01*
X151426099Y-124163653D01*
X151426099Y-124163649D01*
X151391448Y-124034329D01*
X151391448Y-124034328D01*
X151377668Y-124010461D01*
X151324501Y-123918374D01*
X151229826Y-123823699D01*
X151113874Y-123756753D01*
X151113871Y-123756751D01*
X150984550Y-123722100D01*
X150984545Y-123722100D01*
X150850655Y-123722100D01*
X150850649Y-123722100D01*
X150721329Y-123756751D01*
X150721328Y-123756751D01*
X150605373Y-123823699D01*
X150510699Y-123918373D01*
X150443751Y-124034328D01*
X150443751Y-124034329D01*
X150409100Y-124163649D01*
X145990499Y-124163649D01*
X145955848Y-124034329D01*
X145955848Y-124034328D01*
X145942068Y-124010461D01*
X145888901Y-123918374D01*
X145794226Y-123823699D01*
X145678274Y-123756753D01*
X145678271Y-123756751D01*
X145548950Y-123722100D01*
X145548945Y-123722100D01*
X145415055Y-123722100D01*
X145415049Y-123722100D01*
X145285729Y-123756751D01*
X145285728Y-123756751D01*
X145169773Y-123823699D01*
X145075099Y-123918373D01*
X145008151Y-124034328D01*
X145008151Y-124034329D01*
X144973500Y-124163649D01*
X142178746Y-124163649D01*
X142148538Y-124118440D01*
X142040559Y-124010461D01*
X141977506Y-123968331D01*
X141913595Y-123925627D01*
X141913592Y-123925625D01*
X141913591Y-123925625D01*
X141865185Y-123905574D01*
X141772518Y-123867190D01*
X141772514Y-123867189D01*
X141772517Y-123867189D01*
X141652540Y-123843325D01*
X141622751Y-123837400D01*
X140911552Y-123837400D01*
X140758850Y-123837400D01*
X140729061Y-123843325D01*
X140609084Y-123867189D01*
X140468009Y-123925625D01*
X140341041Y-124010461D01*
X140341040Y-124010463D01*
X140233064Y-124118439D01*
X140233062Y-124118440D01*
X140148226Y-124245408D01*
X140089790Y-124386483D01*
X140060001Y-124536249D01*
X131437701Y-124536249D01*
X131437701Y-121293038D01*
X137890301Y-121293038D01*
X137890301Y-121426939D01*
X137924952Y-121556259D01*
X137924952Y-121556260D01*
X137991900Y-121672215D01*
X138086576Y-121766891D01*
X138096930Y-121772869D01*
X138138532Y-121819074D01*
X138145029Y-121880908D01*
X138113941Y-121934752D01*
X138096930Y-121947111D01*
X138086576Y-121953088D01*
X138086575Y-121953090D01*
X137991900Y-122047764D01*
X137924952Y-122163719D01*
X137924952Y-122163720D01*
X137890301Y-122293040D01*
X137890301Y-122426941D01*
X137924952Y-122556261D01*
X137924952Y-122556262D01*
X137977654Y-122647542D01*
X137991900Y-122672217D01*
X138086575Y-122766892D01*
X138153942Y-122805787D01*
X138202529Y-122833839D01*
X138331850Y-122868490D01*
X138331854Y-122868490D01*
X138331856Y-122868491D01*
X138331858Y-122868491D01*
X138465744Y-122868491D01*
X138465746Y-122868491D01*
X138465748Y-122868490D01*
X138465751Y-122868490D01*
X138595071Y-122833839D01*
X138595072Y-122833839D01*
X138595072Y-122833838D01*
X138595075Y-122833838D01*
X138711027Y-122766892D01*
X138805702Y-122672217D01*
X138872648Y-122556265D01*
X138884065Y-122513655D01*
X138884067Y-122513648D01*
X150409099Y-122513648D01*
X150409099Y-122647549D01*
X150443750Y-122776869D01*
X150443750Y-122776870D01*
X150510698Y-122892825D01*
X150605373Y-122987500D01*
X150721325Y-123054446D01*
X150721327Y-123054447D01*
X150850648Y-123089098D01*
X150850652Y-123089098D01*
X150850654Y-123089099D01*
X150850656Y-123089099D01*
X150984542Y-123089099D01*
X150984544Y-123089099D01*
X150984546Y-123089098D01*
X150984549Y-123089098D01*
X151113869Y-123054447D01*
X151113870Y-123054447D01*
X151113870Y-123054446D01*
X151113873Y-123054446D01*
X151229825Y-122987500D01*
X151324500Y-122892825D01*
X151391446Y-122776873D01*
X151426099Y-122647544D01*
X151426099Y-122513654D01*
X151426098Y-122513652D01*
X151426098Y-122513648D01*
X151391447Y-122384328D01*
X151391447Y-122384327D01*
X151367729Y-122343247D01*
X151324500Y-122268373D01*
X151229825Y-122173698D01*
X151113873Y-122106752D01*
X151113870Y-122106750D01*
X150984549Y-122072099D01*
X150984544Y-122072099D01*
X150850654Y-122072099D01*
X150850648Y-122072099D01*
X150721328Y-122106750D01*
X150721327Y-122106750D01*
X150605372Y-122173698D01*
X150510698Y-122268372D01*
X150443750Y-122384327D01*
X150443750Y-122384328D01*
X150409099Y-122513648D01*
X138884067Y-122513648D01*
X138892809Y-122481023D01*
X138907300Y-122426941D01*
X138907301Y-122426934D01*
X138907301Y-122293047D01*
X138907300Y-122293040D01*
X138872649Y-122163720D01*
X138872649Y-122163719D01*
X138872648Y-122163717D01*
X138805702Y-122047765D01*
X138711027Y-121953090D01*
X138711022Y-121953086D01*
X138700674Y-121947112D01*
X138659071Y-121900908D01*
X138652571Y-121839075D01*
X138673717Y-121802449D01*
X140364501Y-121802449D01*
X140364501Y-121936350D01*
X140399152Y-122065670D01*
X140399152Y-122065671D01*
X140422871Y-122106752D01*
X140466100Y-122181626D01*
X140560775Y-122276301D01*
X140676727Y-122343247D01*
X140676729Y-122343248D01*
X140806050Y-122377899D01*
X140806054Y-122377899D01*
X140806056Y-122377900D01*
X140806058Y-122377900D01*
X140939944Y-122377900D01*
X140939946Y-122377900D01*
X140939948Y-122377899D01*
X140939951Y-122377899D01*
X141069271Y-122343248D01*
X141069272Y-122343248D01*
X141069272Y-122343247D01*
X141069275Y-122343247D01*
X141185227Y-122276301D01*
X141279902Y-122181626D01*
X141346848Y-122065674D01*
X141352893Y-122043112D01*
X141381500Y-121936350D01*
X141381501Y-121936343D01*
X141381501Y-121802456D01*
X141381500Y-121802449D01*
X141346849Y-121673129D01*
X141346849Y-121673128D01*
X141328474Y-121641302D01*
X141279902Y-121557174D01*
X141185227Y-121462499D01*
X141185225Y-121462497D01*
X141155185Y-121445153D01*
X141113583Y-121398947D01*
X141107086Y-121337114D01*
X141138174Y-121283270D01*
X141179451Y-121260860D01*
X141181545Y-121260299D01*
X141181546Y-121260299D01*
X141310871Y-121225647D01*
X141310872Y-121225647D01*
X141310872Y-121225646D01*
X141310875Y-121225646D01*
X141426827Y-121158700D01*
X141521502Y-121064025D01*
X141557400Y-121001849D01*
X144910499Y-121001849D01*
X144910499Y-121135750D01*
X144945150Y-121265070D01*
X144945150Y-121265071D01*
X144956127Y-121284083D01*
X145012098Y-121381026D01*
X145106773Y-121475701D01*
X145222725Y-121542647D01*
X145222727Y-121542648D01*
X145352048Y-121577299D01*
X145352052Y-121577299D01*
X145352054Y-121577300D01*
X145352056Y-121577300D01*
X145485942Y-121577300D01*
X145485944Y-121577300D01*
X145485946Y-121577299D01*
X145485949Y-121577299D01*
X145615269Y-121542648D01*
X145615270Y-121542648D01*
X145615270Y-121542647D01*
X145615273Y-121542647D01*
X145731225Y-121475701D01*
X145825900Y-121381026D01*
X145892846Y-121265074D01*
X145903411Y-121225646D01*
X145927498Y-121135750D01*
X145927499Y-121135743D01*
X145927499Y-121001853D01*
X145927498Y-121001848D01*
X150398699Y-121001848D01*
X150398699Y-121135749D01*
X150433350Y-121265069D01*
X150433350Y-121265070D01*
X150479977Y-121345829D01*
X150500298Y-121381025D01*
X150594973Y-121475700D01*
X150594975Y-121475701D01*
X150710927Y-121542647D01*
X150840248Y-121577298D01*
X150840252Y-121577298D01*
X150840254Y-121577299D01*
X150840256Y-121577299D01*
X150974142Y-121577299D01*
X150974144Y-121577299D01*
X150974146Y-121577298D01*
X150974149Y-121577298D01*
X151088615Y-121546627D01*
X151103469Y-121542647D01*
X151103470Y-121542647D01*
X151103470Y-121542646D01*
X151103473Y-121542646D01*
X151219425Y-121475700D01*
X151314100Y-121381025D01*
X151381046Y-121265073D01*
X151408204Y-121163717D01*
X151415698Y-121135749D01*
X151415699Y-121135742D01*
X151415699Y-121001855D01*
X151415698Y-121001849D01*
X155907700Y-121001849D01*
X155907700Y-121135750D01*
X155942351Y-121265070D01*
X155942351Y-121265071D01*
X155953328Y-121284083D01*
X156009299Y-121381026D01*
X156103974Y-121475701D01*
X156219926Y-121542647D01*
X156219928Y-121542648D01*
X156349249Y-121577299D01*
X156349253Y-121577299D01*
X156349255Y-121577300D01*
X156349257Y-121577300D01*
X156483143Y-121577300D01*
X156483145Y-121577300D01*
X156483147Y-121577299D01*
X156483150Y-121577299D01*
X156612470Y-121542648D01*
X156612471Y-121542648D01*
X156612471Y-121542647D01*
X156612474Y-121542647D01*
X156728426Y-121475701D01*
X156823101Y-121381026D01*
X156890047Y-121265074D01*
X156900612Y-121225646D01*
X156924699Y-121135750D01*
X156924700Y-121135743D01*
X156924700Y-121001856D01*
X156924699Y-121001849D01*
X156890048Y-120872529D01*
X156890048Y-120872528D01*
X156883413Y-120861036D01*
X156823101Y-120756574D01*
X156728426Y-120661899D01*
X156612474Y-120594953D01*
X156612471Y-120594951D01*
X156483150Y-120560300D01*
X156483145Y-120560300D01*
X156349255Y-120560300D01*
X156349249Y-120560300D01*
X156219929Y-120594951D01*
X156219928Y-120594951D01*
X156103973Y-120661899D01*
X156009299Y-120756573D01*
X155942351Y-120872528D01*
X155942351Y-120872529D01*
X155907700Y-121001849D01*
X151415698Y-121001849D01*
X151415698Y-121001848D01*
X151381047Y-120872528D01*
X151381047Y-120872527D01*
X151374412Y-120861035D01*
X151314100Y-120756573D01*
X151219425Y-120661898D01*
X151103473Y-120594952D01*
X151103470Y-120594950D01*
X150974149Y-120560299D01*
X150974144Y-120560299D01*
X150840254Y-120560299D01*
X150840248Y-120560299D01*
X150710928Y-120594950D01*
X150710927Y-120594950D01*
X150594972Y-120661898D01*
X150500298Y-120756572D01*
X150433350Y-120872527D01*
X150433350Y-120872528D01*
X150398699Y-121001848D01*
X145927498Y-121001848D01*
X145892847Y-120872529D01*
X145892847Y-120872528D01*
X145886212Y-120861036D01*
X145825900Y-120756574D01*
X145731225Y-120661899D01*
X145615273Y-120594953D01*
X145615270Y-120594951D01*
X145485949Y-120560300D01*
X145485944Y-120560300D01*
X145352054Y-120560300D01*
X145352048Y-120560300D01*
X145222728Y-120594951D01*
X145222727Y-120594951D01*
X145106772Y-120661899D01*
X145012098Y-120756573D01*
X144945150Y-120872528D01*
X144945150Y-120872529D01*
X144910499Y-121001849D01*
X141557400Y-121001849D01*
X141588448Y-120948073D01*
X141595387Y-120922175D01*
X141623100Y-120818749D01*
X141623101Y-120818742D01*
X141623101Y-120684855D01*
X141623100Y-120684848D01*
X141588449Y-120555528D01*
X141588449Y-120555527D01*
X141559346Y-120505120D01*
X141521502Y-120439573D01*
X141427363Y-120345434D01*
X141401605Y-120294880D01*
X162932700Y-120294880D01*
X162932700Y-120505120D01*
X162945024Y-120567077D01*
X162973716Y-120711322D01*
X163054169Y-120905552D01*
X163054173Y-120905560D01*
X163170972Y-121080362D01*
X163319637Y-121229027D01*
X163494439Y-121345826D01*
X163494441Y-121345827D01*
X163494444Y-121345829D01*
X163529472Y-121360338D01*
X163688677Y-121426283D01*
X163688678Y-121426283D01*
X163688680Y-121426284D01*
X163894880Y-121467300D01*
X163894881Y-121467300D01*
X164105119Y-121467300D01*
X164105120Y-121467300D01*
X164311320Y-121426284D01*
X164505556Y-121345829D01*
X164680364Y-121229026D01*
X164829026Y-121080364D01*
X164945829Y-120905556D01*
X165026284Y-120711320D01*
X165067300Y-120505120D01*
X165067300Y-120294880D01*
X165026284Y-120088680D01*
X164945829Y-119894444D01*
X164925319Y-119863749D01*
X164829027Y-119719637D01*
X164680362Y-119570972D01*
X164505560Y-119454173D01*
X164505552Y-119454169D01*
X164311322Y-119373716D01*
X164173853Y-119346372D01*
X164105120Y-119332700D01*
X163894880Y-119332700D01*
X163843330Y-119342954D01*
X163688677Y-119373716D01*
X163494447Y-119454169D01*
X163494439Y-119454173D01*
X163319637Y-119570972D01*
X163319636Y-119570974D01*
X163170974Y-119719636D01*
X163170972Y-119719637D01*
X163054173Y-119894439D01*
X163054169Y-119894447D01*
X162973716Y-120088677D01*
X162950837Y-120203700D01*
X162932700Y-120294880D01*
X141401605Y-120294880D01*
X141399137Y-120290036D01*
X141408863Y-120228628D01*
X141427363Y-120203164D01*
X141455998Y-120174529D01*
X141521502Y-120109025D01*
X141588448Y-119993073D01*
X141614203Y-119896954D01*
X141623100Y-119863749D01*
X141623101Y-119863742D01*
X141623101Y-119729855D01*
X141623100Y-119729848D01*
X141588449Y-119600528D01*
X141588449Y-119600527D01*
X141555097Y-119542761D01*
X141555096Y-119542759D01*
X141529860Y-119499048D01*
X150418100Y-119499048D01*
X150418100Y-119632949D01*
X150452751Y-119762269D01*
X150452751Y-119762270D01*
X150452753Y-119762273D01*
X150519699Y-119878225D01*
X150614374Y-119972900D01*
X150730326Y-120039846D01*
X150730328Y-120039847D01*
X150859649Y-120074498D01*
X150859653Y-120074498D01*
X150859655Y-120074499D01*
X150859657Y-120074499D01*
X150993543Y-120074499D01*
X150993545Y-120074499D01*
X150993547Y-120074498D01*
X150993550Y-120074498D01*
X151122870Y-120039847D01*
X151122871Y-120039847D01*
X151122871Y-120039846D01*
X151122874Y-120039846D01*
X151238826Y-119972900D01*
X151333501Y-119878225D01*
X151400447Y-119762273D01*
X151409133Y-119729855D01*
X151435099Y-119632949D01*
X151435100Y-119632942D01*
X151435100Y-119499055D01*
X151435099Y-119499048D01*
X151400448Y-119369728D01*
X151400448Y-119369727D01*
X151400447Y-119369725D01*
X151333501Y-119253773D01*
X151238826Y-119159098D01*
X151122874Y-119092152D01*
X151122871Y-119092150D01*
X150993550Y-119057499D01*
X150993545Y-119057499D01*
X150859655Y-119057499D01*
X150859649Y-119057499D01*
X150730329Y-119092150D01*
X150730328Y-119092150D01*
X150614373Y-119159098D01*
X150519699Y-119253772D01*
X150452751Y-119369727D01*
X150452751Y-119369728D01*
X150418100Y-119499048D01*
X141529860Y-119499048D01*
X141521503Y-119484574D01*
X141426827Y-119389898D01*
X141310872Y-119322950D01*
X141181551Y-119288299D01*
X141181546Y-119288299D01*
X141047656Y-119288299D01*
X141047650Y-119288299D01*
X140918330Y-119322950D01*
X140918329Y-119322950D01*
X140802374Y-119389898D01*
X140707700Y-119484572D01*
X140640752Y-119600527D01*
X140640752Y-119600528D01*
X140606101Y-119729848D01*
X140606101Y-119863749D01*
X140640752Y-119993069D01*
X140640752Y-119993070D01*
X140707700Y-120109025D01*
X140801839Y-120203164D01*
X140830065Y-120258562D01*
X140820339Y-120319970D01*
X140801839Y-120345434D01*
X140707700Y-120439572D01*
X140640752Y-120555527D01*
X140640752Y-120555528D01*
X140606101Y-120684848D01*
X140606101Y-120818749D01*
X140640752Y-120948069D01*
X140640752Y-120948070D01*
X140707700Y-121064025D01*
X140802375Y-121158700D01*
X140802379Y-121158703D01*
X140832415Y-121176045D01*
X140874017Y-121222250D01*
X140880515Y-121284083D01*
X140849427Y-121337927D01*
X140808151Y-121360338D01*
X140676730Y-121395551D01*
X140676729Y-121395551D01*
X140560774Y-121462499D01*
X140466100Y-121557173D01*
X140399152Y-121673128D01*
X140399152Y-121673129D01*
X140364501Y-121802449D01*
X138673717Y-121802449D01*
X138683658Y-121785230D01*
X138684760Y-121784253D01*
X138692161Y-121777782D01*
X138711027Y-121766890D01*
X138805702Y-121672215D01*
X138872648Y-121556263D01*
X138894234Y-121475701D01*
X138907300Y-121426939D01*
X138907301Y-121426932D01*
X138907301Y-121293045D01*
X138907300Y-121293038D01*
X138872649Y-121163718D01*
X138872649Y-121163717D01*
X138869754Y-121158703D01*
X138805702Y-121047763D01*
X138711027Y-120953088D01*
X138657483Y-120922174D01*
X138595072Y-120886140D01*
X138465751Y-120851489D01*
X138465746Y-120851489D01*
X138331856Y-120851489D01*
X138331850Y-120851489D01*
X138202530Y-120886140D01*
X138202529Y-120886140D01*
X138086574Y-120953088D01*
X137991900Y-121047762D01*
X137924952Y-121163717D01*
X137924952Y-121163718D01*
X137890301Y-121293038D01*
X131437701Y-121293038D01*
X131437701Y-118779849D01*
X142881101Y-118779849D01*
X142881101Y-118913750D01*
X142915752Y-119043070D01*
X142915752Y-119043071D01*
X142982700Y-119159026D01*
X143077375Y-119253701D01*
X143077500Y-119253773D01*
X143193329Y-119320648D01*
X143322650Y-119355299D01*
X143322654Y-119355299D01*
X143322656Y-119355300D01*
X143322658Y-119355300D01*
X143456544Y-119355300D01*
X143456546Y-119355300D01*
X143456548Y-119355299D01*
X143456551Y-119355299D01*
X143585871Y-119320648D01*
X143585872Y-119320648D01*
X143585872Y-119320647D01*
X143585875Y-119320647D01*
X143701827Y-119253701D01*
X143796502Y-119159026D01*
X143863448Y-119043074D01*
X143898101Y-118913745D01*
X143898101Y-118779855D01*
X143898100Y-118779853D01*
X143898100Y-118779849D01*
X143863449Y-118650529D01*
X143863449Y-118650528D01*
X143796501Y-118534573D01*
X143701827Y-118439899D01*
X143585872Y-118372951D01*
X143456551Y-118338300D01*
X143456546Y-118338300D01*
X143322656Y-118338300D01*
X143322650Y-118338300D01*
X143193330Y-118372951D01*
X143193329Y-118372951D01*
X143077374Y-118439899D01*
X142982700Y-118534573D01*
X142915752Y-118650528D01*
X142915752Y-118650529D01*
X142881101Y-118779849D01*
X131437701Y-118779849D01*
X131437701Y-117829849D01*
X140606101Y-117829849D01*
X140606101Y-117963750D01*
X140640752Y-118093070D01*
X140640752Y-118093071D01*
X140643771Y-118098300D01*
X140707700Y-118209026D01*
X140802375Y-118303701D01*
X140918327Y-118370647D01*
X140918329Y-118370648D01*
X141047650Y-118405299D01*
X141047654Y-118405299D01*
X141047656Y-118405300D01*
X141047658Y-118405300D01*
X141181544Y-118405300D01*
X141181546Y-118405300D01*
X141181548Y-118405299D01*
X141181551Y-118405299D01*
X141310871Y-118370648D01*
X141310872Y-118370648D01*
X141310872Y-118370647D01*
X141310875Y-118370647D01*
X141426827Y-118303701D01*
X141521502Y-118209026D01*
X141588448Y-118093074D01*
X141623101Y-117963745D01*
X141623101Y-117840049D01*
X150409099Y-117840049D01*
X150409099Y-117973950D01*
X150443750Y-118103270D01*
X150443750Y-118103271D01*
X150443752Y-118103274D01*
X150510698Y-118219226D01*
X150605373Y-118313901D01*
X150721325Y-118380847D01*
X150721327Y-118380848D01*
X150850648Y-118415499D01*
X150850652Y-118415499D01*
X150850654Y-118415500D01*
X150850656Y-118415500D01*
X150984542Y-118415500D01*
X150984544Y-118415500D01*
X150984546Y-118415499D01*
X150984549Y-118415499D01*
X151113869Y-118380848D01*
X151113870Y-118380848D01*
X151113870Y-118380847D01*
X151113873Y-118380847D01*
X151229825Y-118313901D01*
X151324500Y-118219226D01*
X151391446Y-118103274D01*
X151426099Y-117973945D01*
X151426099Y-117840055D01*
X151426098Y-117840053D01*
X151426098Y-117840049D01*
X155844700Y-117840049D01*
X155844700Y-117973950D01*
X155879351Y-118103270D01*
X155879351Y-118103271D01*
X155879353Y-118103274D01*
X155946299Y-118219226D01*
X156040974Y-118313901D01*
X156156926Y-118380847D01*
X156156928Y-118380848D01*
X156286249Y-118415499D01*
X156286253Y-118415499D01*
X156286255Y-118415500D01*
X156286257Y-118415500D01*
X156420143Y-118415500D01*
X156420145Y-118415500D01*
X156420147Y-118415499D01*
X156420150Y-118415499D01*
X156549470Y-118380848D01*
X156549471Y-118380848D01*
X156549471Y-118380847D01*
X156549474Y-118380847D01*
X156665426Y-118313901D01*
X156760101Y-118219226D01*
X156827047Y-118103274D01*
X156861700Y-117973945D01*
X156861700Y-117840055D01*
X156861699Y-117840053D01*
X156861699Y-117840049D01*
X156827048Y-117710729D01*
X156827048Y-117710728D01*
X156827047Y-117710726D01*
X156760101Y-117594774D01*
X156688176Y-117522849D01*
X173303700Y-117522849D01*
X173303700Y-117656750D01*
X173338351Y-117786070D01*
X173338351Y-117786071D01*
X173338353Y-117786074D01*
X173405299Y-117902026D01*
X173499974Y-117996701D01*
X173603532Y-118056491D01*
X173615928Y-118063648D01*
X173745249Y-118098299D01*
X173745253Y-118098299D01*
X173745255Y-118098300D01*
X173745257Y-118098300D01*
X173879143Y-118098300D01*
X173879145Y-118098300D01*
X173879147Y-118098299D01*
X173879150Y-118098299D01*
X174008470Y-118063648D01*
X174008471Y-118063648D01*
X174008471Y-118063647D01*
X174008474Y-118063647D01*
X174124426Y-117996701D01*
X174219101Y-117902026D01*
X174286047Y-117786074D01*
X174306236Y-117710726D01*
X174320699Y-117656750D01*
X174320700Y-117656743D01*
X174320700Y-117522856D01*
X174320699Y-117522849D01*
X174286048Y-117393529D01*
X174286048Y-117393528D01*
X174219100Y-117277573D01*
X174124426Y-117182899D01*
X174008471Y-117115951D01*
X173879150Y-117081300D01*
X173879145Y-117081300D01*
X173745255Y-117081300D01*
X173745249Y-117081300D01*
X173615929Y-117115951D01*
X173615928Y-117115951D01*
X173499973Y-117182899D01*
X173405299Y-117277573D01*
X173338351Y-117393528D01*
X173338351Y-117393529D01*
X173303700Y-117522849D01*
X156688176Y-117522849D01*
X156665426Y-117500099D01*
X156549474Y-117433153D01*
X156549471Y-117433151D01*
X156420150Y-117398500D01*
X156420145Y-117398500D01*
X156286255Y-117398500D01*
X156286249Y-117398500D01*
X156156929Y-117433151D01*
X156156928Y-117433151D01*
X156040973Y-117500099D01*
X155946299Y-117594773D01*
X155879351Y-117710728D01*
X155879351Y-117710729D01*
X155844700Y-117840049D01*
X151426098Y-117840049D01*
X151391447Y-117710729D01*
X151391447Y-117710728D01*
X151391446Y-117710726D01*
X151324500Y-117594774D01*
X151229825Y-117500099D01*
X151113873Y-117433153D01*
X151113870Y-117433151D01*
X150984549Y-117398500D01*
X150984544Y-117398500D01*
X150850654Y-117398500D01*
X150850648Y-117398500D01*
X150721328Y-117433151D01*
X150721327Y-117433151D01*
X150605372Y-117500099D01*
X150510698Y-117594773D01*
X150443750Y-117710728D01*
X150443750Y-117710729D01*
X150409099Y-117840049D01*
X141623101Y-117840049D01*
X141623101Y-117829855D01*
X141623100Y-117829853D01*
X141623100Y-117829849D01*
X141588449Y-117700529D01*
X141588449Y-117700528D01*
X141588448Y-117700526D01*
X141521502Y-117584574D01*
X141426827Y-117489899D01*
X141328542Y-117433153D01*
X141310872Y-117422951D01*
X141181551Y-117388300D01*
X141181546Y-117388300D01*
X141047656Y-117388300D01*
X141047650Y-117388300D01*
X140918330Y-117422951D01*
X140918329Y-117422951D01*
X140802374Y-117489899D01*
X140707700Y-117584573D01*
X140640752Y-117700528D01*
X140640752Y-117700529D01*
X140606101Y-117829849D01*
X131437701Y-117829849D01*
X131437701Y-115491200D01*
X163450001Y-115491200D01*
X165350001Y-115491200D01*
X165350001Y-113401200D01*
X163450001Y-113401200D01*
X163450001Y-115491200D01*
X131437701Y-115491200D01*
X131437701Y-113349285D01*
X147535722Y-113349285D01*
X147535722Y-113483186D01*
X147570373Y-113612506D01*
X147570373Y-113612507D01*
X147622818Y-113703343D01*
X147637321Y-113728462D01*
X147731996Y-113823137D01*
X147847948Y-113890083D01*
X147847950Y-113890084D01*
X147854041Y-113892607D01*
X147853002Y-113895113D01*
X147895508Y-113922694D01*
X147917811Y-113980731D01*
X147901742Y-114040792D01*
X147858212Y-114077012D01*
X147858237Y-114077056D01*
X147857986Y-114077200D01*
X147855859Y-114078971D01*
X147852534Y-114080348D01*
X147736573Y-114147299D01*
X147641899Y-114241973D01*
X147574951Y-114357928D01*
X147574951Y-114357929D01*
X147540300Y-114487249D01*
X147540300Y-114621150D01*
X147574951Y-114750470D01*
X147574951Y-114750471D01*
X147588400Y-114773765D01*
X147641899Y-114866426D01*
X147736574Y-114961101D01*
X147819036Y-115008711D01*
X147852528Y-115028048D01*
X147981849Y-115062699D01*
X147981853Y-115062699D01*
X147981855Y-115062700D01*
X147981857Y-115062700D01*
X148115743Y-115062700D01*
X148115745Y-115062700D01*
X148115747Y-115062699D01*
X148115750Y-115062699D01*
X148245070Y-115028048D01*
X148245071Y-115028048D01*
X148245071Y-115028047D01*
X148245074Y-115028047D01*
X148361026Y-114961101D01*
X148455701Y-114866426D01*
X148522647Y-114750474D01*
X148541048Y-114681800D01*
X148557299Y-114621150D01*
X148557300Y-114621143D01*
X148557300Y-114581782D01*
X148576513Y-114522651D01*
X148626813Y-114486106D01*
X148631864Y-114484610D01*
X148755836Y-114451393D01*
X148755838Y-114451392D01*
X148755838Y-114451391D01*
X148755841Y-114451391D01*
X148871793Y-114384445D01*
X148966468Y-114289770D01*
X149033414Y-114173818D01*
X149051492Y-114106350D01*
X149068066Y-114044494D01*
X149068067Y-114044487D01*
X149068067Y-113910600D01*
X149068066Y-113910593D01*
X149033415Y-113781273D01*
X149033415Y-113781272D01*
X149033414Y-113781270D01*
X148966468Y-113665318D01*
X148871793Y-113570643D01*
X148755841Y-113503697D01*
X148751679Y-113501294D01*
X148710077Y-113455089D01*
X148703579Y-113393255D01*
X148734666Y-113339411D01*
X148751680Y-113327050D01*
X148753071Y-113326246D01*
X148753074Y-113326246D01*
X148869026Y-113259300D01*
X148936481Y-113191845D01*
X152417100Y-113191845D01*
X152417100Y-113325746D01*
X152451751Y-113455066D01*
X152451751Y-113455067D01*
X152451753Y-113455070D01*
X152518480Y-113570643D01*
X152518700Y-113571023D01*
X152522713Y-113576253D01*
X152520911Y-113577635D01*
X152544566Y-113624061D01*
X152534840Y-113685469D01*
X152522161Y-113702919D01*
X152522713Y-113703343D01*
X152518700Y-113708572D01*
X152451751Y-113824528D01*
X152451751Y-113824529D01*
X152417100Y-113953849D01*
X152417100Y-114087750D01*
X152451751Y-114217070D01*
X152451751Y-114217071D01*
X152466129Y-114241974D01*
X152518699Y-114333026D01*
X152613374Y-114427701D01*
X152716523Y-114487255D01*
X152729328Y-114494648D01*
X152858649Y-114529299D01*
X152858653Y-114529299D01*
X152858655Y-114529300D01*
X152858657Y-114529300D01*
X152992543Y-114529300D01*
X152992545Y-114529300D01*
X152992547Y-114529299D01*
X152992550Y-114529299D01*
X153121870Y-114494648D01*
X153121871Y-114494648D01*
X153121871Y-114494647D01*
X153121874Y-114494647D01*
X153237826Y-114427701D01*
X153332501Y-114333026D01*
X153399447Y-114217074D01*
X153429115Y-114106350D01*
X157293901Y-114106350D01*
X157293901Y-114240251D01*
X157328552Y-114369571D01*
X157328552Y-114369572D01*
X157375791Y-114451391D01*
X157395500Y-114485527D01*
X157490175Y-114580202D01*
X157606127Y-114647148D01*
X157606129Y-114647149D01*
X157735450Y-114681800D01*
X157735454Y-114681800D01*
X157735456Y-114681801D01*
X157735458Y-114681801D01*
X157869344Y-114681801D01*
X157869346Y-114681801D01*
X157869348Y-114681800D01*
X157869351Y-114681800D01*
X157998671Y-114647149D01*
X157998672Y-114647149D01*
X157998672Y-114647148D01*
X157998675Y-114647148D01*
X158114627Y-114580202D01*
X158209302Y-114485527D01*
X158276248Y-114369575D01*
X158310438Y-114241974D01*
X158310900Y-114240251D01*
X158310901Y-114240244D01*
X158310901Y-114106357D01*
X158310900Y-114106350D01*
X158276249Y-113977030D01*
X158276249Y-113977029D01*
X158244878Y-113922694D01*
X158209302Y-113861075D01*
X158114627Y-113766400D01*
X158005411Y-113703343D01*
X157998672Y-113699452D01*
X157869351Y-113664801D01*
X157869346Y-113664801D01*
X157735456Y-113664801D01*
X157735450Y-113664801D01*
X157606130Y-113699452D01*
X157606129Y-113699452D01*
X157490174Y-113766400D01*
X157395500Y-113861074D01*
X157328552Y-113977029D01*
X157328552Y-113977030D01*
X157293901Y-114106350D01*
X153429115Y-114106350D01*
X153434100Y-114087745D01*
X153434100Y-113953855D01*
X153434099Y-113953853D01*
X153434099Y-113953849D01*
X153399448Y-113824529D01*
X153399448Y-113824528D01*
X153374474Y-113781273D01*
X153332501Y-113708574D01*
X153332499Y-113708572D01*
X153328487Y-113703343D01*
X153330288Y-113701960D01*
X153306634Y-113655535D01*
X153316360Y-113594127D01*
X153329038Y-113576676D01*
X153328487Y-113576253D01*
X153332495Y-113571027D01*
X153332501Y-113571022D01*
X153399447Y-113455070D01*
X153399448Y-113455066D01*
X153399449Y-113455065D01*
X153432023Y-113333494D01*
X153432023Y-113333491D01*
X153434100Y-113325741D01*
X153434100Y-113191851D01*
X153434099Y-113191849D01*
X153434099Y-113191845D01*
X153399448Y-113062525D01*
X153399448Y-113062524D01*
X153332500Y-112946569D01*
X153237826Y-112851895D01*
X153121871Y-112784947D01*
X152992550Y-112750296D01*
X152992545Y-112750296D01*
X152858655Y-112750296D01*
X152858649Y-112750296D01*
X152729329Y-112784947D01*
X152729328Y-112784947D01*
X152613373Y-112851895D01*
X152518699Y-112946569D01*
X152451751Y-113062524D01*
X152451751Y-113062525D01*
X152417100Y-113191845D01*
X148936481Y-113191845D01*
X148963701Y-113164625D01*
X149030647Y-113048673D01*
X149065300Y-112919344D01*
X149065300Y-112785454D01*
X149065299Y-112785452D01*
X149065299Y-112785448D01*
X149030648Y-112656128D01*
X149030648Y-112656127D01*
X148983843Y-112575060D01*
X148963700Y-112540172D01*
X148954875Y-112531347D01*
X157293901Y-112531347D01*
X157293901Y-112665248D01*
X157328552Y-112794568D01*
X157328552Y-112794569D01*
X157328554Y-112794572D01*
X157395500Y-112910524D01*
X157490175Y-113005199D01*
X157589465Y-113062525D01*
X157606129Y-113072146D01*
X157735450Y-113106797D01*
X157735454Y-113106797D01*
X157735456Y-113106798D01*
X157735458Y-113106798D01*
X157869344Y-113106798D01*
X157869346Y-113106798D01*
X157869348Y-113106797D01*
X157869351Y-113106797D01*
X157998671Y-113072146D01*
X157998672Y-113072146D01*
X157998672Y-113072145D01*
X157998675Y-113072145D01*
X158114627Y-113005199D01*
X158209302Y-112910524D01*
X158276248Y-112794572D01*
X158310901Y-112665243D01*
X158310901Y-112531353D01*
X158310900Y-112531351D01*
X158310900Y-112531347D01*
X158276249Y-112402027D01*
X158276249Y-112402026D01*
X158209301Y-112286071D01*
X158114627Y-112191397D01*
X157998672Y-112124449D01*
X157869351Y-112089798D01*
X157869346Y-112089798D01*
X157735456Y-112089798D01*
X157735450Y-112089798D01*
X157606130Y-112124449D01*
X157606129Y-112124449D01*
X157490174Y-112191397D01*
X157395500Y-112286071D01*
X157328552Y-112402026D01*
X157328552Y-112402027D01*
X157293901Y-112531347D01*
X148954875Y-112531347D01*
X148869026Y-112445498D01*
X148753071Y-112378550D01*
X148623750Y-112343899D01*
X148623745Y-112343899D01*
X148489855Y-112343899D01*
X148489849Y-112343899D01*
X148360529Y-112378550D01*
X148360528Y-112378550D01*
X148244573Y-112445498D01*
X148149899Y-112540172D01*
X148082951Y-112656127D01*
X148082951Y-112656128D01*
X148048300Y-112785448D01*
X148048300Y-112811512D01*
X148029087Y-112870643D01*
X147978787Y-112907188D01*
X147973737Y-112908684D01*
X147847951Y-112942387D01*
X147847950Y-112942387D01*
X147731995Y-113009335D01*
X147637321Y-113104009D01*
X147570373Y-113219964D01*
X147570373Y-113219965D01*
X147535722Y-113349285D01*
X131437701Y-113349285D01*
X131437701Y-94450240D01*
X142023580Y-94450240D01*
X142023580Y-105549359D01*
X142049233Y-105645095D01*
X142098787Y-105730924D01*
X142098789Y-105730927D01*
X142168873Y-105801011D01*
X142168875Y-105801012D01*
X142254704Y-105850566D01*
X142254706Y-105850566D01*
X142254707Y-105850567D01*
X142350443Y-105876220D01*
X157449557Y-105876220D01*
X157545293Y-105850567D01*
X157631127Y-105801011D01*
X157701211Y-105730927D01*
X157750767Y-105645093D01*
X157776420Y-105549357D01*
X157776420Y-102404003D01*
X162780299Y-102404003D01*
X162780299Y-102404004D01*
X162780299Y-102404005D01*
X162780299Y-102404008D01*
X162780299Y-102595992D01*
X162780299Y-102595997D01*
X162780300Y-102600148D01*
X162780300Y-108884399D01*
X162810331Y-109074007D01*
X162810335Y-109074023D01*
X162869658Y-109256602D01*
X162956814Y-109427653D01*
X162956819Y-109427662D01*
X163013242Y-109505322D01*
X163069663Y-109582980D01*
X163069665Y-109582982D01*
X163205418Y-109718735D01*
X163360738Y-109831581D01*
X163360746Y-109831585D01*
X163531797Y-109918741D01*
X163714376Y-109978064D01*
X163714379Y-109978064D01*
X163714386Y-109978067D01*
X163714391Y-109978067D01*
X163714392Y-109978068D01*
X163904000Y-110008099D01*
X163904005Y-110008100D01*
X163904007Y-110008100D01*
X166045702Y-110008100D01*
X166104833Y-110027313D01*
X166141378Y-110077613D01*
X166146302Y-110108700D01*
X166146302Y-110268055D01*
X166149174Y-110298698D01*
X166149174Y-110298700D01*
X166149175Y-110298701D01*
X166194347Y-110427795D01*
X166275563Y-110537838D01*
X166385606Y-110619054D01*
X166514700Y-110664226D01*
X166545348Y-110667100D01*
X167379653Y-110667099D01*
X167410302Y-110664226D01*
X167539396Y-110619054D01*
X167649439Y-110537838D01*
X167730655Y-110427795D01*
X167775827Y-110298701D01*
X167778701Y-110268053D01*
X167778700Y-107308748D01*
X167775827Y-107278099D01*
X167730655Y-107149005D01*
X167649439Y-107038962D01*
X167539396Y-106957746D01*
X167410302Y-106912574D01*
X167379654Y-106909700D01*
X167379648Y-106909700D01*
X166545356Y-106909700D01*
X166545345Y-106909701D01*
X166514702Y-106912573D01*
X166385605Y-106957746D01*
X166275563Y-107038961D01*
X166275562Y-107038962D01*
X166194347Y-107149004D01*
X166194347Y-107149005D01*
X166149175Y-107278099D01*
X166146302Y-107308744D01*
X166146301Y-107308752D01*
X166146301Y-107468100D01*
X166127088Y-107527231D01*
X166076788Y-107563776D01*
X166045701Y-107568700D01*
X165320300Y-107568700D01*
X165261169Y-107549487D01*
X165224624Y-107499187D01*
X165219700Y-107468100D01*
X165219700Y-102600159D01*
X165219701Y-102600134D01*
X165219701Y-102404005D01*
X165219700Y-102404000D01*
X165189669Y-102214391D01*
X165189668Y-102214386D01*
X165189668Y-102214385D01*
X165130342Y-102031798D01*
X165130341Y-102031795D01*
X165085930Y-101944636D01*
X165043182Y-101860737D01*
X164930336Y-101705418D01*
X164794582Y-101569664D01*
X164794581Y-101569663D01*
X164794580Y-101569662D01*
X164639263Y-101456818D01*
X164639264Y-101456818D01*
X164468204Y-101369658D01*
X164285624Y-101310334D01*
X164285608Y-101310330D01*
X164095999Y-101280299D01*
X164095993Y-101280299D01*
X163904009Y-101280299D01*
X163904002Y-101280299D01*
X163714393Y-101310330D01*
X163714377Y-101310334D01*
X163531797Y-101369658D01*
X163360737Y-101456818D01*
X163354334Y-101461471D01*
X163354330Y-101461472D01*
X163354331Y-101461473D01*
X163205419Y-101569663D01*
X163069668Y-101705414D01*
X163030581Y-101759213D01*
X163030580Y-101759212D01*
X162956821Y-101860734D01*
X162956814Y-101860745D01*
X162869658Y-102031796D01*
X162810335Y-102214376D01*
X162810332Y-102214390D01*
X162780299Y-102404003D01*
X157776420Y-102404003D01*
X157776420Y-99933456D01*
X160026400Y-99933456D01*
X160026400Y-100066143D01*
X160052285Y-100196280D01*
X160103062Y-100318865D01*
X160103063Y-100318868D01*
X160103064Y-100318869D01*
X160176781Y-100429195D01*
X160270605Y-100523019D01*
X160380931Y-100596736D01*
X160503518Y-100647514D01*
X160633656Y-100673400D01*
X160633657Y-100673400D01*
X160766343Y-100673400D01*
X160766344Y-100673400D01*
X160896482Y-100647514D01*
X161019069Y-100596736D01*
X161129395Y-100523019D01*
X161223219Y-100429195D01*
X161296936Y-100318869D01*
X161347714Y-100196282D01*
X161373600Y-100066144D01*
X161373600Y-99933456D01*
X166626400Y-99933456D01*
X166626400Y-100066143D01*
X166652285Y-100196280D01*
X166703062Y-100318865D01*
X166703063Y-100318868D01*
X166703064Y-100318869D01*
X166776781Y-100429195D01*
X166870605Y-100523019D01*
X166980931Y-100596736D01*
X167103518Y-100647514D01*
X167233656Y-100673400D01*
X167233657Y-100673400D01*
X167366343Y-100673400D01*
X167366344Y-100673400D01*
X167496482Y-100647514D01*
X167619069Y-100596736D01*
X167729395Y-100523019D01*
X167823219Y-100429195D01*
X167896936Y-100318869D01*
X167947714Y-100196282D01*
X167973600Y-100066144D01*
X167973600Y-99933456D01*
X167947714Y-99803318D01*
X167896936Y-99680731D01*
X167823219Y-99570405D01*
X167729395Y-99476581D01*
X167619069Y-99402864D01*
X167619070Y-99402864D01*
X167619068Y-99402863D01*
X167619065Y-99402862D01*
X167577003Y-99385439D01*
X167496482Y-99352086D01*
X167496478Y-99352085D01*
X167496481Y-99352085D01*
X167392229Y-99331348D01*
X167366344Y-99326200D01*
X167233656Y-99326200D01*
X167207771Y-99331348D01*
X167103519Y-99352085D01*
X166980934Y-99402862D01*
X166980931Y-99402863D01*
X166870601Y-99476584D01*
X166776784Y-99570401D01*
X166703063Y-99680731D01*
X166703062Y-99680734D01*
X166652285Y-99803319D01*
X166626400Y-99933456D01*
X161373600Y-99933456D01*
X161347714Y-99803318D01*
X161296936Y-99680731D01*
X161223219Y-99570405D01*
X161129395Y-99476581D01*
X161019069Y-99402864D01*
X161019070Y-99402864D01*
X161019068Y-99402863D01*
X161019065Y-99402862D01*
X160977003Y-99385439D01*
X160896482Y-99352086D01*
X160896478Y-99352085D01*
X160896481Y-99352085D01*
X160792229Y-99331348D01*
X160766344Y-99326200D01*
X160633656Y-99326200D01*
X160607771Y-99331348D01*
X160503519Y-99352085D01*
X160380934Y-99402862D01*
X160380931Y-99402863D01*
X160270601Y-99476584D01*
X160176784Y-99570401D01*
X160103063Y-99680731D01*
X160103062Y-99680734D01*
X160052285Y-99803319D01*
X160026400Y-99933456D01*
X157776420Y-99933456D01*
X157776420Y-94450243D01*
X157750767Y-94354507D01*
X157750766Y-94354506D01*
X157750766Y-94354504D01*
X157701212Y-94268675D01*
X157701211Y-94268673D01*
X157631127Y-94198589D01*
X157631124Y-94198587D01*
X157545295Y-94149033D01*
X157449559Y-94123380D01*
X157449557Y-94123380D01*
X142449557Y-94123380D01*
X142350443Y-94123380D01*
X142350440Y-94123380D01*
X142254704Y-94149033D01*
X142168875Y-94198587D01*
X142168874Y-94198588D01*
X142168873Y-94198589D01*
X142098789Y-94268673D01*
X142098788Y-94268674D01*
X142098787Y-94268675D01*
X142049233Y-94354504D01*
X142023580Y-94450240D01*
X131437701Y-94450240D01*
X131437701Y-89998000D01*
X162780301Y-89998000D01*
X162780301Y-97595998D01*
X162810332Y-97785606D01*
X162810336Y-97785622D01*
X162869659Y-97968201D01*
X162956815Y-98139252D01*
X162956820Y-98139261D01*
X163013243Y-98216921D01*
X163069664Y-98294579D01*
X163205420Y-98430335D01*
X163244249Y-98458545D01*
X163360739Y-98543180D01*
X163360747Y-98543184D01*
X163531798Y-98630340D01*
X163714377Y-98689663D01*
X163714380Y-98689663D01*
X163714387Y-98689666D01*
X163714392Y-98689666D01*
X163714393Y-98689667D01*
X163904001Y-98719698D01*
X163904006Y-98719699D01*
X163904008Y-98719699D01*
X164095996Y-98719699D01*
X164096000Y-98719698D01*
X164285602Y-98689668D01*
X164285615Y-98689666D01*
X164468203Y-98630340D01*
X164639263Y-98543180D01*
X164794583Y-98430334D01*
X164930336Y-98294581D01*
X165043182Y-98139261D01*
X165130342Y-97968201D01*
X165189668Y-97785613D01*
X165219701Y-97595992D01*
X165219701Y-94450240D01*
X170223580Y-94450240D01*
X170223580Y-105549359D01*
X170249233Y-105645095D01*
X170298787Y-105730924D01*
X170298789Y-105730927D01*
X170368873Y-105801011D01*
X170368875Y-105801012D01*
X170454704Y-105850566D01*
X170454706Y-105850566D01*
X170454707Y-105850567D01*
X170550443Y-105876220D01*
X185649557Y-105876220D01*
X185745293Y-105850567D01*
X185831127Y-105801011D01*
X185901211Y-105730927D01*
X185950767Y-105645093D01*
X185976420Y-105549357D01*
X185976420Y-94450243D01*
X185950767Y-94354507D01*
X185950766Y-94354506D01*
X185950766Y-94354504D01*
X185901212Y-94268675D01*
X185901211Y-94268673D01*
X185831127Y-94198589D01*
X185831124Y-94198587D01*
X185745295Y-94149033D01*
X185649559Y-94123380D01*
X185649557Y-94123380D01*
X170649557Y-94123380D01*
X170550443Y-94123380D01*
X170550440Y-94123380D01*
X170454704Y-94149033D01*
X170368875Y-94198587D01*
X170368874Y-94198588D01*
X170368873Y-94198589D01*
X170298789Y-94268673D01*
X170298788Y-94268674D01*
X170298787Y-94268675D01*
X170249233Y-94354504D01*
X170223580Y-94450240D01*
X165219701Y-94450240D01*
X165219701Y-91414299D01*
X165238914Y-91355168D01*
X165289214Y-91318623D01*
X165320301Y-91313699D01*
X172975451Y-91313699D01*
X172975455Y-91313700D01*
X173109345Y-91313700D01*
X173109348Y-91313699D01*
X173705878Y-91313699D01*
X173705894Y-91313700D01*
X173712055Y-91313700D01*
X173854049Y-91313700D01*
X173854061Y-91313699D01*
X173874996Y-91313699D01*
X173875000Y-91313698D01*
X174064615Y-91283666D01*
X174247203Y-91224340D01*
X174418263Y-91137180D01*
X174573583Y-91024334D01*
X174709336Y-90888581D01*
X174822182Y-90733261D01*
X174909342Y-90562201D01*
X174968668Y-90379613D01*
X174998701Y-90189992D01*
X174998701Y-89998006D01*
X174976442Y-89857471D01*
X174968669Y-89808391D01*
X174968668Y-89808386D01*
X174968668Y-89808385D01*
X174924126Y-89671299D01*
X174909345Y-89625806D01*
X174909342Y-89625798D01*
X174909342Y-89625797D01*
X174893270Y-89594255D01*
X174893267Y-89594249D01*
X176293100Y-89594249D01*
X176293100Y-89728150D01*
X176327751Y-89857470D01*
X176327751Y-89857471D01*
X176327753Y-89857474D01*
X176394699Y-89973426D01*
X176489374Y-90068101D01*
X176605326Y-90135047D01*
X176605328Y-90135048D01*
X176734649Y-90169699D01*
X176734653Y-90169699D01*
X176734655Y-90169700D01*
X176734657Y-90169700D01*
X176868543Y-90169700D01*
X176868545Y-90169700D01*
X176868547Y-90169699D01*
X176868550Y-90169699D01*
X176997870Y-90135048D01*
X176997871Y-90135048D01*
X176997871Y-90135047D01*
X176997874Y-90135047D01*
X177113826Y-90068101D01*
X177208501Y-89973426D01*
X177275447Y-89857474D01*
X177310100Y-89728145D01*
X177310100Y-89594255D01*
X177310099Y-89594253D01*
X177310099Y-89594249D01*
X181728701Y-89594249D01*
X181728701Y-89728150D01*
X181763352Y-89857470D01*
X181763352Y-89857471D01*
X181763354Y-89857474D01*
X181830300Y-89973426D01*
X181924975Y-90068101D01*
X182040927Y-90135047D01*
X182040929Y-90135048D01*
X182170250Y-90169699D01*
X182170254Y-90169699D01*
X182170256Y-90169700D01*
X182170258Y-90169700D01*
X182304144Y-90169700D01*
X182304146Y-90169700D01*
X182304148Y-90169699D01*
X182304151Y-90169699D01*
X182433471Y-90135048D01*
X182433472Y-90135048D01*
X182433472Y-90135047D01*
X182433475Y-90135047D01*
X182549427Y-90068101D01*
X182644102Y-89973426D01*
X182711048Y-89857474D01*
X182745701Y-89728145D01*
X182745701Y-89594255D01*
X182745700Y-89594253D01*
X182745700Y-89594249D01*
X182711049Y-89464929D01*
X182711049Y-89464928D01*
X182705164Y-89454735D01*
X182644102Y-89348974D01*
X182549427Y-89254299D01*
X182433475Y-89187353D01*
X182433472Y-89187351D01*
X182304151Y-89152700D01*
X182304146Y-89152700D01*
X182170256Y-89152700D01*
X182170250Y-89152700D01*
X182040930Y-89187351D01*
X182040929Y-89187351D01*
X181924974Y-89254299D01*
X181830300Y-89348973D01*
X181763352Y-89464928D01*
X181763352Y-89464929D01*
X181728701Y-89594249D01*
X177310099Y-89594249D01*
X177275448Y-89464929D01*
X177275448Y-89464928D01*
X177269563Y-89454735D01*
X177208501Y-89348974D01*
X177113826Y-89254299D01*
X176997874Y-89187353D01*
X176997871Y-89187351D01*
X176868550Y-89152700D01*
X176868545Y-89152700D01*
X176734655Y-89152700D01*
X176734649Y-89152700D01*
X176605329Y-89187351D01*
X176605328Y-89187351D01*
X176489373Y-89254299D01*
X176394699Y-89348973D01*
X176327751Y-89464928D01*
X176327751Y-89464929D01*
X176293100Y-89594249D01*
X174893267Y-89594249D01*
X174822186Y-89454745D01*
X174822182Y-89454737D01*
X174737547Y-89338247D01*
X174709337Y-89299418D01*
X174573581Y-89163662D01*
X174451109Y-89074682D01*
X174418263Y-89050818D01*
X174418257Y-89050815D01*
X174418254Y-89050813D01*
X174247203Y-88963657D01*
X174064624Y-88904334D01*
X174064608Y-88904330D01*
X173875000Y-88874299D01*
X173874994Y-88874299D01*
X173845945Y-88874299D01*
X173712055Y-88874299D01*
X173712054Y-88874299D01*
X163904006Y-88874299D01*
X163904001Y-88874300D01*
X163714393Y-88904331D01*
X163714377Y-88904335D01*
X163531798Y-88963658D01*
X163360747Y-89050814D01*
X163360736Y-89050821D01*
X163205420Y-89163663D01*
X163069664Y-89299419D01*
X162956822Y-89454735D01*
X162956815Y-89454746D01*
X162869659Y-89625797D01*
X162810336Y-89808376D01*
X162810332Y-89808392D01*
X162780301Y-89998000D01*
X131437701Y-89998000D01*
X131437701Y-88318925D01*
X137919900Y-88318925D01*
X137919900Y-88516274D01*
X137950768Y-88711169D01*
X137950772Y-88711185D01*
X138011749Y-88898854D01*
X138101339Y-89074682D01*
X138217329Y-89234329D01*
X138217331Y-89234331D01*
X138356869Y-89373869D01*
X138468186Y-89454746D01*
X138516517Y-89489860D01*
X138516516Y-89489860D01*
X138692345Y-89579450D01*
X138880014Y-89640427D01*
X138880017Y-89640427D01*
X138880024Y-89640430D01*
X138880029Y-89640430D01*
X138880030Y-89640431D01*
X139074925Y-89671299D01*
X139074930Y-89671300D01*
X139074932Y-89671300D01*
X139272270Y-89671300D01*
X139272274Y-89671299D01*
X139467176Y-89640430D01*
X139654854Y-89579450D01*
X139830682Y-89489861D01*
X139990331Y-89373869D01*
X140129869Y-89234331D01*
X140245861Y-89074682D01*
X140335450Y-88898854D01*
X140396430Y-88711176D01*
X140427300Y-88516268D01*
X140427300Y-88318932D01*
X140427299Y-88318925D01*
X145539900Y-88318925D01*
X145539900Y-88516274D01*
X145570768Y-88711169D01*
X145570772Y-88711185D01*
X145631749Y-88898854D01*
X145721339Y-89074682D01*
X145837329Y-89234329D01*
X145837331Y-89234331D01*
X145976869Y-89373869D01*
X146088186Y-89454746D01*
X146136517Y-89489860D01*
X146136516Y-89489860D01*
X146312345Y-89579450D01*
X146500014Y-89640427D01*
X146500017Y-89640427D01*
X146500024Y-89640430D01*
X146500029Y-89640430D01*
X146500030Y-89640431D01*
X146694925Y-89671299D01*
X146694930Y-89671300D01*
X146694932Y-89671300D01*
X146892270Y-89671300D01*
X146892274Y-89671299D01*
X147087176Y-89640430D01*
X147274854Y-89579450D01*
X147450682Y-89489861D01*
X147610331Y-89373869D01*
X147749869Y-89234331D01*
X147865861Y-89074682D01*
X147955450Y-88898854D01*
X148016430Y-88711176D01*
X148047300Y-88516268D01*
X148047300Y-88318932D01*
X148047299Y-88318925D01*
X155699900Y-88318925D01*
X155699900Y-88516274D01*
X155730768Y-88711169D01*
X155730772Y-88711185D01*
X155791749Y-88898854D01*
X155881339Y-89074682D01*
X155997329Y-89234329D01*
X155997331Y-89234331D01*
X156136869Y-89373869D01*
X156248186Y-89454746D01*
X156296517Y-89489860D01*
X156296516Y-89489860D01*
X156472345Y-89579450D01*
X156660014Y-89640427D01*
X156660017Y-89640427D01*
X156660024Y-89640430D01*
X156660029Y-89640430D01*
X156660030Y-89640431D01*
X156854925Y-89671299D01*
X156854930Y-89671300D01*
X156854932Y-89671300D01*
X157052270Y-89671300D01*
X157052274Y-89671299D01*
X157247176Y-89640430D01*
X157434854Y-89579450D01*
X157610682Y-89489861D01*
X157770331Y-89373869D01*
X157909869Y-89234331D01*
X158025861Y-89074682D01*
X158115450Y-88898854D01*
X158176430Y-88711176D01*
X158207300Y-88516268D01*
X158207300Y-88318932D01*
X158176430Y-88124024D01*
X158176427Y-88124014D01*
X158125978Y-87968747D01*
X158118018Y-87944248D01*
X181728700Y-87944248D01*
X181728700Y-88078149D01*
X181763351Y-88207469D01*
X181763351Y-88207470D01*
X181763353Y-88207473D01*
X181830299Y-88323425D01*
X181924974Y-88418100D01*
X182040926Y-88485046D01*
X182040928Y-88485047D01*
X182170249Y-88519698D01*
X182170253Y-88519698D01*
X182170255Y-88519699D01*
X182170257Y-88519699D01*
X182304143Y-88519699D01*
X182304145Y-88519699D01*
X182304147Y-88519698D01*
X182304150Y-88519698D01*
X182433470Y-88485047D01*
X182433471Y-88485047D01*
X182433471Y-88485046D01*
X182433474Y-88485046D01*
X182549426Y-88418100D01*
X182644101Y-88323425D01*
X182711047Y-88207473D01*
X182733407Y-88124024D01*
X182745699Y-88078149D01*
X182745700Y-88078142D01*
X182745700Y-87944255D01*
X182745699Y-87944248D01*
X182711048Y-87814928D01*
X182711048Y-87814927D01*
X182711047Y-87814925D01*
X182644101Y-87698973D01*
X182549426Y-87604298D01*
X182507168Y-87579900D01*
X182433471Y-87537350D01*
X182304150Y-87502699D01*
X182304145Y-87502699D01*
X182170255Y-87502699D01*
X182170249Y-87502699D01*
X182040929Y-87537350D01*
X182040928Y-87537350D01*
X181924973Y-87604298D01*
X181830299Y-87698972D01*
X181763351Y-87814927D01*
X181763351Y-87814928D01*
X181728700Y-87944248D01*
X158118018Y-87944248D01*
X158115450Y-87936345D01*
X158025860Y-87760517D01*
X157909870Y-87600870D01*
X157770329Y-87461329D01*
X157610682Y-87345339D01*
X157610683Y-87345339D01*
X157434854Y-87255749D01*
X157247185Y-87194772D01*
X157247169Y-87194768D01*
X157052274Y-87163900D01*
X157052268Y-87163900D01*
X156854932Y-87163900D01*
X156854925Y-87163900D01*
X156660030Y-87194768D01*
X156660014Y-87194772D01*
X156472345Y-87255749D01*
X156296517Y-87345339D01*
X156136870Y-87461329D01*
X155997329Y-87600870D01*
X155881339Y-87760517D01*
X155791749Y-87936345D01*
X155730772Y-88124014D01*
X155730768Y-88124030D01*
X155699900Y-88318925D01*
X148047299Y-88318925D01*
X148016430Y-88124024D01*
X148016427Y-88124014D01*
X147955450Y-87936345D01*
X147865860Y-87760517D01*
X147749870Y-87600870D01*
X147610329Y-87461329D01*
X147450682Y-87345339D01*
X147450683Y-87345339D01*
X147274854Y-87255749D01*
X147087185Y-87194772D01*
X147087169Y-87194768D01*
X146892274Y-87163900D01*
X146892268Y-87163900D01*
X146694932Y-87163900D01*
X146694925Y-87163900D01*
X146500030Y-87194768D01*
X146500014Y-87194772D01*
X146312345Y-87255749D01*
X146136517Y-87345339D01*
X145976870Y-87461329D01*
X145837329Y-87600870D01*
X145721339Y-87760517D01*
X145631749Y-87936345D01*
X145570772Y-88124014D01*
X145570768Y-88124030D01*
X145539900Y-88318925D01*
X140427299Y-88318925D01*
X140396430Y-88124024D01*
X140396427Y-88124014D01*
X140335450Y-87936345D01*
X140245860Y-87760517D01*
X140129870Y-87600870D01*
X139990329Y-87461329D01*
X139830682Y-87345339D01*
X139830683Y-87345339D01*
X139654854Y-87255749D01*
X139467185Y-87194772D01*
X139467169Y-87194768D01*
X139272274Y-87163900D01*
X139272268Y-87163900D01*
X139074932Y-87163900D01*
X139074925Y-87163900D01*
X138880030Y-87194768D01*
X138880014Y-87194772D01*
X138692345Y-87255749D01*
X138516517Y-87345339D01*
X138356870Y-87461329D01*
X138217329Y-87600870D01*
X138101339Y-87760517D01*
X138011749Y-87936345D01*
X137950772Y-88124014D01*
X137950768Y-88124030D01*
X137919900Y-88318925D01*
X131437701Y-88318925D01*
X131437701Y-86915049D01*
X162475501Y-86915049D01*
X162475501Y-87048950D01*
X162510152Y-87178270D01*
X162510152Y-87178271D01*
X162577100Y-87294226D01*
X162671775Y-87388901D01*
X162787727Y-87455847D01*
X162787729Y-87455848D01*
X162917050Y-87490499D01*
X162917054Y-87490499D01*
X162917056Y-87490500D01*
X162917058Y-87490500D01*
X163050944Y-87490500D01*
X163050946Y-87490500D01*
X163050948Y-87490499D01*
X163050951Y-87490499D01*
X163180271Y-87455848D01*
X163180272Y-87455848D01*
X163180272Y-87455847D01*
X163180275Y-87455847D01*
X163296227Y-87388901D01*
X163390902Y-87294226D01*
X163457848Y-87178274D01*
X163463893Y-87155712D01*
X163492500Y-87048950D01*
X163492501Y-87048943D01*
X163492501Y-86915056D01*
X163492500Y-86915049D01*
X163457849Y-86785729D01*
X163457849Y-86785728D01*
X163451093Y-86774026D01*
X163390902Y-86669774D01*
X163296227Y-86575099D01*
X163281060Y-86566342D01*
X163180272Y-86508151D01*
X163050951Y-86473500D01*
X163050946Y-86473500D01*
X162917056Y-86473500D01*
X162917050Y-86473500D01*
X162787730Y-86508151D01*
X162787729Y-86508151D01*
X162671774Y-86575099D01*
X162577100Y-86669773D01*
X162510152Y-86785728D01*
X162510152Y-86785729D01*
X162475501Y-86915049D01*
X131437701Y-86915049D01*
X131437701Y-85683649D01*
X172533900Y-85683649D01*
X172533900Y-85817550D01*
X172568551Y-85946870D01*
X172568553Y-85946875D01*
X172631500Y-86055901D01*
X172644427Y-86116716D01*
X172631500Y-86156501D01*
X172568554Y-86265524D01*
X172568552Y-86265529D01*
X172533901Y-86394849D01*
X172533901Y-86528750D01*
X172568552Y-86658070D01*
X172568554Y-86658075D01*
X172631500Y-86767099D01*
X172644427Y-86827914D01*
X172631500Y-86867699D01*
X172568554Y-86976723D01*
X172568552Y-86976728D01*
X172533901Y-87106048D01*
X172533901Y-87239949D01*
X172568552Y-87369269D01*
X172568552Y-87369270D01*
X172579886Y-87388900D01*
X172635500Y-87485225D01*
X172730175Y-87579900D01*
X172730177Y-87579901D01*
X172846129Y-87646847D01*
X172975450Y-87681498D01*
X172975454Y-87681498D01*
X172975456Y-87681499D01*
X172975458Y-87681499D01*
X173109344Y-87681499D01*
X173109346Y-87681499D01*
X173109348Y-87681498D01*
X173109351Y-87681498D01*
X173216113Y-87652891D01*
X173238671Y-87646847D01*
X173238672Y-87646847D01*
X173238672Y-87646846D01*
X173238675Y-87646846D01*
X173354627Y-87579900D01*
X173354627Y-87579899D01*
X173360337Y-87576603D01*
X173362078Y-87579618D01*
X173406839Y-87563151D01*
X173460124Y-87578230D01*
X173461064Y-87576604D01*
X173466773Y-87579900D01*
X173466774Y-87579901D01*
X173582726Y-87646847D01*
X173582728Y-87646848D01*
X173712049Y-87681499D01*
X173712053Y-87681499D01*
X173712055Y-87681500D01*
X173712057Y-87681500D01*
X173845943Y-87681500D01*
X173845945Y-87681500D01*
X173845947Y-87681499D01*
X173845950Y-87681499D01*
X173975270Y-87646848D01*
X173975271Y-87646848D01*
X173975271Y-87646847D01*
X173975274Y-87646847D01*
X174091226Y-87579901D01*
X174185901Y-87485226D01*
X174252847Y-87369274D01*
X174283265Y-87255750D01*
X174287499Y-87239950D01*
X174287500Y-87239943D01*
X174287500Y-87106056D01*
X174287499Y-87106049D01*
X174252848Y-86976729D01*
X174252848Y-86976728D01*
X174217241Y-86915056D01*
X174189899Y-86867699D01*
X174176973Y-86806885D01*
X174189901Y-86767099D01*
X174231142Y-86695670D01*
X174252848Y-86658074D01*
X174287501Y-86528745D01*
X174287501Y-86432448D01*
X176230101Y-86432448D01*
X176230101Y-86566349D01*
X176264752Y-86695669D01*
X176264752Y-86695670D01*
X176264754Y-86695673D01*
X176331700Y-86811625D01*
X176426375Y-86906300D01*
X176441541Y-86915056D01*
X176542329Y-86973247D01*
X176671650Y-87007898D01*
X176671654Y-87007898D01*
X176671656Y-87007899D01*
X176671658Y-87007899D01*
X176805544Y-87007899D01*
X176805546Y-87007899D01*
X176805548Y-87007898D01*
X176805551Y-87007898D01*
X176934871Y-86973247D01*
X176934872Y-86973247D01*
X176934872Y-86973246D01*
X176934875Y-86973246D01*
X177050827Y-86906300D01*
X177145502Y-86811625D01*
X177212448Y-86695673D01*
X177218493Y-86673111D01*
X177247100Y-86566349D01*
X177247101Y-86566342D01*
X177247101Y-86432455D01*
X177247100Y-86432448D01*
X181739100Y-86432448D01*
X181739100Y-86566349D01*
X181773751Y-86695669D01*
X181773751Y-86695670D01*
X181773753Y-86695673D01*
X181840699Y-86811625D01*
X181935374Y-86906300D01*
X181950540Y-86915056D01*
X182051328Y-86973247D01*
X182180649Y-87007898D01*
X182180653Y-87007898D01*
X182180655Y-87007899D01*
X182180657Y-87007899D01*
X182314543Y-87007899D01*
X182314545Y-87007899D01*
X182314547Y-87007898D01*
X182314550Y-87007898D01*
X182443870Y-86973247D01*
X182443871Y-86973247D01*
X182443871Y-86973246D01*
X182443874Y-86973246D01*
X182559826Y-86906300D01*
X182654501Y-86811625D01*
X182721447Y-86695673D01*
X182727492Y-86673111D01*
X182756099Y-86566349D01*
X182756100Y-86566342D01*
X182756100Y-86432455D01*
X182756099Y-86432448D01*
X187227301Y-86432448D01*
X187227301Y-86566349D01*
X187261952Y-86695669D01*
X187261952Y-86695670D01*
X187261954Y-86695673D01*
X187328900Y-86811625D01*
X187423575Y-86906300D01*
X187438741Y-86915056D01*
X187539529Y-86973247D01*
X187668850Y-87007898D01*
X187668854Y-87007898D01*
X187668856Y-87007899D01*
X187668858Y-87007899D01*
X187802744Y-87007899D01*
X187802746Y-87007899D01*
X187802748Y-87007898D01*
X187802751Y-87007898D01*
X187932071Y-86973247D01*
X187932072Y-86973247D01*
X187932072Y-86973246D01*
X187932075Y-86973246D01*
X188048027Y-86906300D01*
X188142702Y-86811625D01*
X188209648Y-86695673D01*
X188215693Y-86673111D01*
X188244300Y-86566349D01*
X188244301Y-86566342D01*
X188244301Y-86432455D01*
X188244300Y-86432448D01*
X188209649Y-86303128D01*
X188209649Y-86303127D01*
X188209648Y-86303125D01*
X188142702Y-86187173D01*
X188048027Y-86092498D01*
X187932072Y-86025550D01*
X187802751Y-85990899D01*
X187802746Y-85990899D01*
X187668856Y-85990899D01*
X187668850Y-85990899D01*
X187539530Y-86025550D01*
X187539529Y-86025550D01*
X187423574Y-86092498D01*
X187328900Y-86187172D01*
X187261952Y-86303127D01*
X187261952Y-86303128D01*
X187227301Y-86432448D01*
X182756099Y-86432448D01*
X182721448Y-86303128D01*
X182721448Y-86303127D01*
X182721447Y-86303125D01*
X182654501Y-86187173D01*
X182559826Y-86092498D01*
X182443871Y-86025550D01*
X182314550Y-85990899D01*
X182314545Y-85990899D01*
X182180655Y-85990899D01*
X182180649Y-85990899D01*
X182051329Y-86025550D01*
X182051328Y-86025550D01*
X181935373Y-86092498D01*
X181840699Y-86187172D01*
X181773751Y-86303127D01*
X181773751Y-86303128D01*
X181739100Y-86432448D01*
X177247100Y-86432448D01*
X177212449Y-86303128D01*
X177212449Y-86303127D01*
X177212448Y-86303125D01*
X177145502Y-86187173D01*
X177050827Y-86092498D01*
X176934872Y-86025550D01*
X176805551Y-85990899D01*
X176805546Y-85990899D01*
X176671656Y-85990899D01*
X176671650Y-85990899D01*
X176542330Y-86025550D01*
X176542329Y-86025550D01*
X176426374Y-86092498D01*
X176331700Y-86187172D01*
X176264752Y-86303127D01*
X176264752Y-86303128D01*
X176230101Y-86432448D01*
X174287501Y-86432448D01*
X174287501Y-86394855D01*
X174287500Y-86394853D01*
X174287500Y-86394849D01*
X174252849Y-86265529D01*
X174252849Y-86265528D01*
X174207610Y-86187173D01*
X174189899Y-86156497D01*
X174176973Y-86095684D01*
X174189898Y-86055901D01*
X174252847Y-85946874D01*
X174287500Y-85817545D01*
X174287500Y-85683655D01*
X174287499Y-85683653D01*
X174287499Y-85683649D01*
X174252848Y-85554329D01*
X174252848Y-85554328D01*
X174219229Y-85496099D01*
X174185901Y-85438374D01*
X174091226Y-85343699D01*
X173975271Y-85276751D01*
X173845950Y-85242100D01*
X173845945Y-85242100D01*
X173712055Y-85242100D01*
X173712049Y-85242100D01*
X173582729Y-85276751D01*
X173582728Y-85276751D01*
X173461064Y-85346996D01*
X173459460Y-85344218D01*
X173412989Y-85360496D01*
X173361464Y-85345041D01*
X173360336Y-85346996D01*
X173238671Y-85276751D01*
X173109350Y-85242100D01*
X173109345Y-85242100D01*
X172975455Y-85242100D01*
X172975449Y-85242100D01*
X172846129Y-85276751D01*
X172846128Y-85276751D01*
X172730173Y-85343699D01*
X172635499Y-85438373D01*
X172568551Y-85554328D01*
X172568551Y-85554329D01*
X172533900Y-85683649D01*
X131437701Y-85683649D01*
X131437701Y-84920648D01*
X181728700Y-84920648D01*
X181728700Y-85054549D01*
X181763351Y-85183869D01*
X181763351Y-85183870D01*
X181763353Y-85183873D01*
X181830299Y-85299825D01*
X181924974Y-85394500D01*
X182000963Y-85438373D01*
X182040928Y-85461447D01*
X182170249Y-85496098D01*
X182170253Y-85496098D01*
X182170255Y-85496099D01*
X182170257Y-85496099D01*
X182304143Y-85496099D01*
X182304145Y-85496099D01*
X182304147Y-85496098D01*
X182304150Y-85496098D01*
X182433470Y-85461447D01*
X182433471Y-85461447D01*
X182433471Y-85461446D01*
X182433474Y-85461446D01*
X182549426Y-85394500D01*
X182644101Y-85299825D01*
X182711047Y-85183873D01*
X182745700Y-85054544D01*
X182745700Y-84920654D01*
X182745699Y-84920652D01*
X182745699Y-84920648D01*
X182711048Y-84791328D01*
X182711048Y-84791327D01*
X182644100Y-84675372D01*
X182549426Y-84580698D01*
X182433471Y-84513750D01*
X182304150Y-84479099D01*
X182304145Y-84479099D01*
X182170255Y-84479099D01*
X182170249Y-84479099D01*
X182040929Y-84513750D01*
X182040928Y-84513750D01*
X181924973Y-84580698D01*
X181830299Y-84675372D01*
X181763351Y-84791327D01*
X181763351Y-84791328D01*
X181728700Y-84920648D01*
X131437701Y-84920648D01*
X131437701Y-82758999D01*
X171822701Y-82758999D01*
X171822701Y-82950998D01*
X171852732Y-83140606D01*
X171852736Y-83140622D01*
X171912059Y-83323201D01*
X171999215Y-83494252D01*
X171999220Y-83494261D01*
X172055643Y-83571921D01*
X172112064Y-83649579D01*
X172112066Y-83649581D01*
X172247819Y-83785334D01*
X172403139Y-83898180D01*
X172403147Y-83898184D01*
X172574198Y-83985340D01*
X172756777Y-84044663D01*
X172756780Y-84044663D01*
X172756787Y-84044666D01*
X172756792Y-84044666D01*
X172756793Y-84044667D01*
X172946401Y-84074698D01*
X172946406Y-84074699D01*
X172975451Y-84074699D01*
X172975455Y-84074700D01*
X173109345Y-84074700D01*
X173109349Y-84074699D01*
X173705878Y-84074699D01*
X173705894Y-84074700D01*
X173712055Y-84074700D01*
X173852106Y-84074700D01*
X173852122Y-84074699D01*
X199890701Y-84074699D01*
X199949832Y-84093912D01*
X199986377Y-84144212D01*
X199991301Y-84175299D01*
X199991301Y-97595999D01*
X200021332Y-97785607D01*
X200021336Y-97785623D01*
X200080659Y-97968202D01*
X200167815Y-98139253D01*
X200167820Y-98139262D01*
X200224243Y-98216922D01*
X200280664Y-98294580D01*
X200280665Y-98294581D01*
X200280666Y-98294582D01*
X200416419Y-98430335D01*
X200571739Y-98543181D01*
X200571745Y-98543184D01*
X200571747Y-98543185D01*
X200742798Y-98630341D01*
X200925377Y-98689664D01*
X200925380Y-98689664D01*
X200925387Y-98689667D01*
X200925392Y-98689667D01*
X200925393Y-98689668D01*
X201115001Y-98719699D01*
X201115006Y-98719700D01*
X201115008Y-98719700D01*
X201306996Y-98719700D01*
X201307000Y-98719699D01*
X201496615Y-98689667D01*
X201679203Y-98630341D01*
X201850263Y-98543181D01*
X202005583Y-98430335D01*
X202141336Y-98294582D01*
X202254182Y-98139262D01*
X202341342Y-97968202D01*
X202400668Y-97785614D01*
X202430701Y-97595993D01*
X202430701Y-82759006D01*
X202400668Y-82569385D01*
X202341342Y-82386797D01*
X202341342Y-82386796D01*
X202254186Y-82215745D01*
X202254182Y-82215737D01*
X202141336Y-82060417D01*
X202005583Y-81924664D01*
X202005581Y-81924662D01*
X201927923Y-81868241D01*
X201850263Y-81811818D01*
X201850257Y-81811815D01*
X201850254Y-81811813D01*
X201679203Y-81724657D01*
X201496624Y-81665334D01*
X201496608Y-81665330D01*
X201307000Y-81635299D01*
X201306994Y-81635299D01*
X182584459Y-81635299D01*
X182525328Y-81616086D01*
X182488783Y-81565786D01*
X182488783Y-81503612D01*
X182525328Y-81453312D01*
X182534158Y-81447577D01*
X182564427Y-81430101D01*
X182659102Y-81335426D01*
X182726048Y-81219474D01*
X182736096Y-81181975D01*
X182760700Y-81090150D01*
X182760701Y-81090143D01*
X182760701Y-80956256D01*
X182760700Y-80956249D01*
X182726049Y-80826929D01*
X182726049Y-80826928D01*
X182704399Y-80789429D01*
X182659102Y-80710974D01*
X182564427Y-80616299D01*
X182448475Y-80549353D01*
X182448472Y-80549351D01*
X182319151Y-80514700D01*
X182319146Y-80514700D01*
X182185256Y-80514700D01*
X182185250Y-80514700D01*
X182055930Y-80549351D01*
X182055929Y-80549351D01*
X181939974Y-80616299D01*
X181845300Y-80710973D01*
X181778352Y-80826928D01*
X181778352Y-80826929D01*
X181743701Y-80956249D01*
X181743701Y-81090150D01*
X181778352Y-81219470D01*
X181778352Y-81219471D01*
X181823650Y-81297927D01*
X181845300Y-81335426D01*
X181939975Y-81430101D01*
X181970244Y-81447577D01*
X182011846Y-81493782D01*
X182018344Y-81555616D01*
X181987257Y-81609460D01*
X181930457Y-81634748D01*
X181919943Y-81635299D01*
X177148858Y-81635299D01*
X177089727Y-81616086D01*
X177053182Y-81565786D01*
X177053182Y-81503612D01*
X177089727Y-81453312D01*
X177098557Y-81447577D01*
X177128826Y-81430101D01*
X177223501Y-81335426D01*
X177290447Y-81219474D01*
X177300495Y-81181975D01*
X177325099Y-81090150D01*
X177325100Y-81090143D01*
X177325100Y-80956256D01*
X177325099Y-80956249D01*
X177290448Y-80826929D01*
X177290448Y-80826928D01*
X177268798Y-80789429D01*
X177223501Y-80710974D01*
X177128826Y-80616299D01*
X177012874Y-80549353D01*
X177012871Y-80549351D01*
X176883550Y-80514700D01*
X176883545Y-80514700D01*
X176749655Y-80514700D01*
X176749649Y-80514700D01*
X176620329Y-80549351D01*
X176620328Y-80549351D01*
X176504373Y-80616299D01*
X176409699Y-80710973D01*
X176342751Y-80826928D01*
X176342751Y-80826929D01*
X176308100Y-80956249D01*
X176308100Y-81090150D01*
X176342751Y-81219470D01*
X176342751Y-81219471D01*
X176388049Y-81297927D01*
X176409699Y-81335426D01*
X176504374Y-81430101D01*
X176534643Y-81447577D01*
X176576245Y-81493782D01*
X176582743Y-81555616D01*
X176551656Y-81609460D01*
X176494856Y-81634748D01*
X176484342Y-81635299D01*
X175621110Y-81635299D01*
X175561979Y-81616086D01*
X175525434Y-81565786D01*
X175525434Y-81503612D01*
X175561979Y-81453312D01*
X175570809Y-81447577D01*
X175666027Y-81392602D01*
X175760702Y-81297927D01*
X175827648Y-81181975D01*
X175852252Y-81090150D01*
X175862300Y-81052651D01*
X175862301Y-81052644D01*
X175862301Y-80918757D01*
X175862300Y-80918750D01*
X175827649Y-80789430D01*
X175827649Y-80789429D01*
X175782352Y-80710974D01*
X175760702Y-80673475D01*
X175666027Y-80578800D01*
X175615021Y-80549351D01*
X175550072Y-80511852D01*
X175420751Y-80477201D01*
X175420746Y-80477201D01*
X175286856Y-80477201D01*
X175286850Y-80477201D01*
X175157530Y-80511852D01*
X175157529Y-80511852D01*
X175041574Y-80578800D01*
X174946900Y-80673474D01*
X174879952Y-80789429D01*
X174879952Y-80789430D01*
X174845301Y-80918750D01*
X174845301Y-81052651D01*
X174879952Y-81181971D01*
X174879952Y-81181972D01*
X174901604Y-81219474D01*
X174946900Y-81297927D01*
X175041575Y-81392602D01*
X175106524Y-81430101D01*
X175136793Y-81447577D01*
X175178395Y-81493782D01*
X175184893Y-81555616D01*
X175153806Y-81609460D01*
X175097007Y-81634748D01*
X175086492Y-81635299D01*
X172946401Y-81635299D01*
X172756793Y-81665330D01*
X172756777Y-81665334D01*
X172574198Y-81724657D01*
X172403147Y-81811813D01*
X172403136Y-81811820D01*
X172247820Y-81924662D01*
X172112064Y-82060418D01*
X171999222Y-82215734D01*
X171999215Y-82215745D01*
X171912059Y-82386796D01*
X171852736Y-82569375D01*
X171852732Y-82569391D01*
X171822701Y-82758999D01*
X131437701Y-82758999D01*
X131437701Y-80698925D01*
X155699900Y-80698925D01*
X155699900Y-80896274D01*
X155730768Y-81091169D01*
X155730772Y-81091185D01*
X155791749Y-81278854D01*
X155881339Y-81454682D01*
X155997329Y-81614329D01*
X156136870Y-81753870D01*
X156296517Y-81869860D01*
X156296516Y-81869860D01*
X156472345Y-81959450D01*
X156660014Y-82020427D01*
X156660017Y-82020427D01*
X156660024Y-82020430D01*
X156660029Y-82020430D01*
X156660030Y-82020431D01*
X156854925Y-82051299D01*
X156854930Y-82051300D01*
X156854932Y-82051300D01*
X157052270Y-82051300D01*
X157052274Y-82051299D01*
X157247176Y-82020430D01*
X157434854Y-81959450D01*
X157610682Y-81869861D01*
X157770331Y-81753869D01*
X157909869Y-81614331D01*
X158025861Y-81454682D01*
X158115450Y-81278854D01*
X158176430Y-81091176D01*
X158207300Y-80896268D01*
X158207300Y-80698932D01*
X158176430Y-80504024D01*
X158156440Y-80442500D01*
X158115450Y-80316345D01*
X158064753Y-80216847D01*
X158025861Y-80140518D01*
X157924455Y-80000945D01*
X157909870Y-79980870D01*
X157770329Y-79841329D01*
X157645792Y-79750848D01*
X157610682Y-79725339D01*
X157610681Y-79725338D01*
X157610679Y-79725337D01*
X157513947Y-79676049D01*
X162475501Y-79676049D01*
X162475501Y-79809950D01*
X162510152Y-79939270D01*
X162510152Y-79939271D01*
X162510154Y-79939274D01*
X162577100Y-80055226D01*
X162671775Y-80149901D01*
X162787727Y-80216847D01*
X162787729Y-80216848D01*
X162917050Y-80251499D01*
X162917054Y-80251499D01*
X162917056Y-80251500D01*
X162917058Y-80251500D01*
X163050944Y-80251500D01*
X163050946Y-80251500D01*
X163050948Y-80251499D01*
X163050951Y-80251499D01*
X163180271Y-80216848D01*
X163180272Y-80216848D01*
X163180272Y-80216847D01*
X163180275Y-80216847D01*
X163296227Y-80149901D01*
X163390902Y-80055226D01*
X163457848Y-79939274D01*
X163473275Y-79881699D01*
X163492500Y-79809950D01*
X163492501Y-79809943D01*
X163492501Y-79676056D01*
X163492500Y-79676049D01*
X163457849Y-79546729D01*
X163457849Y-79546728D01*
X163451093Y-79535026D01*
X163390902Y-79430774D01*
X163296227Y-79336099D01*
X163180272Y-79269151D01*
X163050951Y-79234500D01*
X163050946Y-79234500D01*
X162917056Y-79234500D01*
X162917050Y-79234500D01*
X162787730Y-79269151D01*
X162787729Y-79269151D01*
X162671774Y-79336099D01*
X162577100Y-79430773D01*
X162510152Y-79546728D01*
X162510152Y-79546729D01*
X162475501Y-79676049D01*
X157513947Y-79676049D01*
X157434854Y-79635749D01*
X157247185Y-79574772D01*
X157247169Y-79574768D01*
X157052274Y-79543900D01*
X157052268Y-79543900D01*
X156854932Y-79543900D01*
X156854925Y-79543900D01*
X156660030Y-79574768D01*
X156660014Y-79574772D01*
X156472345Y-79635749D01*
X156296517Y-79725339D01*
X156136870Y-79841329D01*
X155997329Y-79980870D01*
X155881339Y-80140517D01*
X155791749Y-80316345D01*
X155730772Y-80504014D01*
X155730768Y-80504030D01*
X155699900Y-80698925D01*
X131437701Y-80698925D01*
X131437701Y-78444648D01*
X172533900Y-78444648D01*
X172533900Y-78578549D01*
X172568551Y-78707869D01*
X172568553Y-78707874D01*
X172631500Y-78816900D01*
X172644427Y-78877715D01*
X172631500Y-78917500D01*
X172568554Y-79026524D01*
X172568552Y-79026529D01*
X172533901Y-79155849D01*
X172533901Y-79289750D01*
X172568552Y-79419070D01*
X172568554Y-79419075D01*
X172631500Y-79528099D01*
X172644427Y-79588914D01*
X172631500Y-79628699D01*
X172568554Y-79737723D01*
X172568552Y-79737728D01*
X172533901Y-79867048D01*
X172533901Y-80000949D01*
X172568552Y-80130269D01*
X172568552Y-80130270D01*
X172574468Y-80140517D01*
X172635500Y-80246225D01*
X172730175Y-80340900D01*
X172730177Y-80340901D01*
X172846129Y-80407847D01*
X172975450Y-80442498D01*
X172975454Y-80442498D01*
X172975456Y-80442499D01*
X172975458Y-80442499D01*
X173109344Y-80442499D01*
X173109346Y-80442499D01*
X173109348Y-80442498D01*
X173109351Y-80442498D01*
X173216113Y-80413891D01*
X173238671Y-80407847D01*
X173238672Y-80407847D01*
X173238672Y-80407846D01*
X173238675Y-80407846D01*
X173354627Y-80340900D01*
X173354627Y-80340899D01*
X173360337Y-80337603D01*
X173362078Y-80340618D01*
X173406839Y-80324151D01*
X173460124Y-80339230D01*
X173461064Y-80337604D01*
X173466773Y-80340900D01*
X173466774Y-80340901D01*
X173582726Y-80407847D01*
X173582728Y-80407848D01*
X173712049Y-80442499D01*
X173712053Y-80442499D01*
X173712055Y-80442500D01*
X173712057Y-80442500D01*
X173845943Y-80442500D01*
X173845945Y-80442500D01*
X173845947Y-80442499D01*
X173845950Y-80442499D01*
X173975270Y-80407848D01*
X173975271Y-80407848D01*
X173975271Y-80407847D01*
X173975274Y-80407847D01*
X174091226Y-80340901D01*
X174185901Y-80246226D01*
X174252847Y-80130274D01*
X174287500Y-80000945D01*
X174287500Y-79867055D01*
X174287499Y-79867053D01*
X174287499Y-79867049D01*
X174252848Y-79737729D01*
X174252848Y-79737728D01*
X174217241Y-79676056D01*
X174189899Y-79628699D01*
X174176973Y-79567885D01*
X174189901Y-79528099D01*
X174219030Y-79477648D01*
X174252848Y-79419074D01*
X174273030Y-79343753D01*
X174273032Y-79343747D01*
X174845301Y-79343747D01*
X174845301Y-79477648D01*
X174879952Y-79606968D01*
X174879952Y-79606969D01*
X174896569Y-79635750D01*
X174946900Y-79722924D01*
X175041575Y-79817599D01*
X175157527Y-79884545D01*
X175157529Y-79884546D01*
X175286850Y-79919197D01*
X175286854Y-79919197D01*
X175286856Y-79919198D01*
X175286858Y-79919198D01*
X175420744Y-79919198D01*
X175420746Y-79919198D01*
X175420748Y-79919197D01*
X175420751Y-79919197D01*
X175550071Y-79884546D01*
X175550072Y-79884546D01*
X175550072Y-79884545D01*
X175550075Y-79884545D01*
X175666027Y-79817599D01*
X175760702Y-79722924D01*
X175827648Y-79606972D01*
X175837696Y-79569471D01*
X175862300Y-79477648D01*
X175862301Y-79477641D01*
X175862301Y-79343754D01*
X175862301Y-79343753D01*
X175857463Y-79325697D01*
X175857463Y-79325694D01*
X175852253Y-79306249D01*
X181743701Y-79306249D01*
X181743701Y-79440150D01*
X181778352Y-79569470D01*
X181778352Y-79569471D01*
X181816619Y-79635750D01*
X181845300Y-79685426D01*
X181939975Y-79780101D01*
X182046027Y-79841331D01*
X182055929Y-79847048D01*
X182185250Y-79881699D01*
X182185254Y-79881699D01*
X182185256Y-79881700D01*
X182185258Y-79881700D01*
X182319144Y-79881700D01*
X182319146Y-79881700D01*
X182319148Y-79881699D01*
X182319151Y-79881699D01*
X182448471Y-79847048D01*
X182448472Y-79847048D01*
X182448472Y-79847047D01*
X182448475Y-79847047D01*
X182564427Y-79780101D01*
X182659102Y-79685426D01*
X182726048Y-79569474D01*
X182760701Y-79440145D01*
X182760701Y-79306255D01*
X182760700Y-79306253D01*
X182760700Y-79306249D01*
X182726049Y-79176929D01*
X182726049Y-79176928D01*
X182713879Y-79155849D01*
X182659102Y-79060974D01*
X182564427Y-78966299D01*
X182448472Y-78899351D01*
X182319151Y-78864700D01*
X182319146Y-78864700D01*
X182185256Y-78864700D01*
X182185250Y-78864700D01*
X182055930Y-78899351D01*
X182055929Y-78899351D01*
X181939974Y-78966299D01*
X181845300Y-79060973D01*
X181778352Y-79176928D01*
X181778352Y-79176929D01*
X181743701Y-79306249D01*
X175852253Y-79306249D01*
X175827649Y-79214427D01*
X175827649Y-79214426D01*
X175793833Y-79155856D01*
X175760702Y-79098472D01*
X175666027Y-79003797D01*
X175550075Y-78936851D01*
X175550072Y-78936849D01*
X175420751Y-78902198D01*
X175420746Y-78902198D01*
X175286856Y-78902198D01*
X175286850Y-78902198D01*
X175157530Y-78936849D01*
X175157529Y-78936849D01*
X175041574Y-79003797D01*
X174946900Y-79098471D01*
X174879952Y-79214426D01*
X174879952Y-79214427D01*
X174845301Y-79343747D01*
X174273032Y-79343747D01*
X174281773Y-79311125D01*
X174281773Y-79311123D01*
X174283079Y-79306249D01*
X174287501Y-79289745D01*
X174287501Y-79155855D01*
X174287500Y-79155853D01*
X174287500Y-79155849D01*
X174252849Y-79026529D01*
X174252849Y-79026528D01*
X174189900Y-78917499D01*
X174176973Y-78856683D01*
X174189898Y-78816900D01*
X174252847Y-78707873D01*
X174287500Y-78578544D01*
X174287500Y-78444654D01*
X174287499Y-78444652D01*
X174287499Y-78444648D01*
X174252848Y-78315328D01*
X174252848Y-78315327D01*
X174225697Y-78268301D01*
X174185901Y-78199373D01*
X174091226Y-78104698D01*
X173975271Y-78037750D01*
X173845950Y-78003099D01*
X173845945Y-78003099D01*
X173712055Y-78003099D01*
X173712049Y-78003099D01*
X173582729Y-78037750D01*
X173582728Y-78037750D01*
X173461064Y-78107995D01*
X173459460Y-78105217D01*
X173412989Y-78121495D01*
X173361464Y-78106040D01*
X173360336Y-78107995D01*
X173238671Y-78037750D01*
X173109350Y-78003099D01*
X173109345Y-78003099D01*
X172975455Y-78003099D01*
X172975449Y-78003099D01*
X172846129Y-78037750D01*
X172846128Y-78037750D01*
X172730173Y-78104698D01*
X172635499Y-78199372D01*
X172568551Y-78315327D01*
X172568551Y-78315328D01*
X172533900Y-78444648D01*
X131437701Y-78444648D01*
X131437701Y-77288448D01*
X150791501Y-77288448D01*
X150791501Y-77422349D01*
X150826152Y-77551669D01*
X150826152Y-77551670D01*
X150891657Y-77665125D01*
X150893100Y-77667625D01*
X150987775Y-77762300D01*
X151098626Y-77826301D01*
X151103729Y-77829247D01*
X151233050Y-77863898D01*
X151233054Y-77863898D01*
X151233056Y-77863899D01*
X151233058Y-77863899D01*
X151366944Y-77863899D01*
X151366946Y-77863899D01*
X151366948Y-77863898D01*
X151366951Y-77863898D01*
X151496271Y-77829247D01*
X151496272Y-77829247D01*
X151496272Y-77829246D01*
X151496275Y-77829246D01*
X151612227Y-77762300D01*
X151706902Y-77667625D01*
X151773848Y-77551673D01*
X151791353Y-77486343D01*
X151808500Y-77422349D01*
X151808501Y-77422342D01*
X151808501Y-77313849D01*
X152290100Y-77313849D01*
X152290100Y-77447750D01*
X152324751Y-77577070D01*
X152324751Y-77577071D01*
X152324753Y-77577074D01*
X152391699Y-77693026D01*
X152486374Y-77787701D01*
X152558331Y-77829246D01*
X152602328Y-77854648D01*
X152731649Y-77889299D01*
X152731653Y-77889299D01*
X152731655Y-77889300D01*
X152731657Y-77889300D01*
X152865543Y-77889300D01*
X152865545Y-77889300D01*
X152865547Y-77889299D01*
X152865550Y-77889299D01*
X152994870Y-77854648D01*
X152994871Y-77854648D01*
X152994871Y-77854647D01*
X152994874Y-77854647D01*
X153110826Y-77787701D01*
X153205501Y-77693026D01*
X153272447Y-77577074D01*
X153296756Y-77486350D01*
X153307099Y-77447750D01*
X153307100Y-77447743D01*
X153307100Y-77313856D01*
X153307099Y-77313849D01*
X153272448Y-77184529D01*
X153272448Y-77184528D01*
X153257783Y-77159128D01*
X153205501Y-77068574D01*
X153110826Y-76973899D01*
X152994871Y-76906951D01*
X152865550Y-76872300D01*
X152865545Y-76872300D01*
X152731655Y-76872300D01*
X152731649Y-76872300D01*
X152602329Y-76906951D01*
X152602328Y-76906951D01*
X152486373Y-76973899D01*
X152391699Y-77068573D01*
X152324751Y-77184528D01*
X152324751Y-77184529D01*
X152290100Y-77313849D01*
X151808501Y-77313849D01*
X151808501Y-77288455D01*
X151808500Y-77288448D01*
X151773849Y-77159128D01*
X151773849Y-77159127D01*
X151773848Y-77159125D01*
X151706902Y-77043173D01*
X151612227Y-76948498D01*
X151504845Y-76886500D01*
X151496272Y-76881550D01*
X151366951Y-76846899D01*
X151366946Y-76846899D01*
X151233056Y-76846899D01*
X151233050Y-76846899D01*
X151103730Y-76881550D01*
X151103729Y-76881550D01*
X150987774Y-76948498D01*
X150893100Y-77043172D01*
X150826152Y-77159127D01*
X150826152Y-77159128D01*
X150791501Y-77288448D01*
X131437701Y-77288448D01*
X131437701Y-71076978D01*
X159008400Y-71076978D01*
X159008400Y-76954614D01*
X159008401Y-76954620D01*
X159043918Y-77087171D01*
X159043918Y-77087172D01*
X159100128Y-77184528D01*
X159112538Y-77206023D01*
X159209577Y-77303062D01*
X159295127Y-77352455D01*
X159328427Y-77371681D01*
X159460979Y-77407198D01*
X159460981Y-77407198D01*
X159460984Y-77407199D01*
X159460986Y-77407199D01*
X159598216Y-77407199D01*
X159598218Y-77407199D01*
X159730773Y-77371681D01*
X159730774Y-77371681D01*
X159730774Y-77371680D01*
X159730777Y-77371680D01*
X159849625Y-77303062D01*
X159946664Y-77206023D01*
X160015282Y-77087175D01*
X160050801Y-76954616D01*
X160050800Y-73593249D01*
X162475501Y-73593249D01*
X162475501Y-73727150D01*
X162510152Y-73856470D01*
X162510152Y-73856471D01*
X162510154Y-73856474D01*
X162577100Y-73972426D01*
X162671775Y-74067101D01*
X162787727Y-74134047D01*
X162787729Y-74134048D01*
X162917050Y-74168699D01*
X162917054Y-74168699D01*
X162917056Y-74168700D01*
X162917058Y-74168700D01*
X163050944Y-74168700D01*
X163050946Y-74168700D01*
X163050948Y-74168699D01*
X163050951Y-74168699D01*
X163180271Y-74134048D01*
X163180272Y-74134048D01*
X163180272Y-74134047D01*
X163180275Y-74134047D01*
X163296227Y-74067101D01*
X163390902Y-73972426D01*
X163457848Y-73856474D01*
X163492501Y-73727145D01*
X163492501Y-73593255D01*
X163492500Y-73593253D01*
X163492500Y-73593249D01*
X163457849Y-73463929D01*
X163457849Y-73463928D01*
X163407607Y-73376908D01*
X163390902Y-73347974D01*
X163296227Y-73253299D01*
X163180275Y-73186353D01*
X163180272Y-73186351D01*
X163050951Y-73151700D01*
X163050946Y-73151700D01*
X162917056Y-73151700D01*
X162917050Y-73151700D01*
X162787730Y-73186351D01*
X162787729Y-73186351D01*
X162671774Y-73253299D01*
X162577100Y-73347973D01*
X162510152Y-73463928D01*
X162510152Y-73463929D01*
X162475501Y-73593249D01*
X160050800Y-73593249D01*
X160050800Y-71403156D01*
X160070013Y-71344026D01*
X160080259Y-71332028D01*
X160237024Y-71175264D01*
X160292422Y-71147038D01*
X160308159Y-71145799D01*
X160703899Y-71145799D01*
X160763030Y-71165012D01*
X160763638Y-71165457D01*
X160776926Y-71175264D01*
X160855019Y-71232900D01*
X160977000Y-71275583D01*
X161005964Y-71278299D01*
X161005969Y-71278299D01*
X161509779Y-71278299D01*
X161568910Y-71297512D01*
X161605455Y-71347812D01*
X161610379Y-71378899D01*
X161610379Y-71468074D01*
X161645030Y-71597394D01*
X161645030Y-71597395D01*
X161688947Y-71673460D01*
X161711978Y-71713350D01*
X161806653Y-71808025D01*
X161903132Y-71863728D01*
X161922607Y-71874972D01*
X162051928Y-71909623D01*
X162051932Y-71909623D01*
X162051934Y-71909624D01*
X162051936Y-71909624D01*
X162185822Y-71909624D01*
X162185824Y-71909624D01*
X162185826Y-71909623D01*
X162185829Y-71909623D01*
X162315149Y-71874972D01*
X162315150Y-71874972D01*
X162315150Y-71874971D01*
X162315153Y-71874971D01*
X162431105Y-71808025D01*
X162489425Y-71749704D01*
X162544821Y-71721479D01*
X162580180Y-71722172D01*
X162621037Y-71730300D01*
X162621040Y-71730300D01*
X163321564Y-71730300D01*
X163321565Y-71730300D01*
X163380981Y-71718481D01*
X163448361Y-71673460D01*
X163493382Y-71606080D01*
X163505201Y-71546664D01*
X163505201Y-71252536D01*
X163493382Y-71193120D01*
X163451532Y-71130487D01*
X163434658Y-71070651D01*
X163451533Y-71018712D01*
X163493382Y-70956081D01*
X163505201Y-70896665D01*
X163505201Y-70602537D01*
X164494801Y-70602537D01*
X164494801Y-70896664D01*
X164506619Y-70956080D01*
X164516163Y-70970364D01*
X164548467Y-71018711D01*
X164565343Y-71078549D01*
X164548467Y-71130490D01*
X164506620Y-71193118D01*
X164494801Y-71252536D01*
X164494801Y-71546663D01*
X164506619Y-71606079D01*
X164506620Y-71606080D01*
X164548467Y-71668710D01*
X164565343Y-71728548D01*
X164548467Y-71780489D01*
X164506620Y-71843117D01*
X164494801Y-71902535D01*
X164494801Y-72196662D01*
X164506619Y-72256078D01*
X164506748Y-72256271D01*
X164551641Y-72323459D01*
X164619021Y-72368480D01*
X164678437Y-72380299D01*
X164678438Y-72380299D01*
X165378964Y-72380299D01*
X165378965Y-72380299D01*
X165406614Y-72374799D01*
X165448100Y-72366547D01*
X165448107Y-72366585D01*
X165476693Y-72360899D01*
X166093314Y-72360899D01*
X166152445Y-72380112D01*
X166188990Y-72430412D01*
X166188990Y-72492586D01*
X166164450Y-72532631D01*
X166122158Y-72574924D01*
X166086726Y-72610356D01*
X166028674Y-72724291D01*
X166028672Y-72724296D01*
X166013700Y-72818825D01*
X166013700Y-73282374D01*
X166028672Y-73376903D01*
X166028674Y-73376908D01*
X166086726Y-73490843D01*
X166086727Y-73490844D01*
X166086729Y-73490847D01*
X166177153Y-73581271D01*
X166177155Y-73581272D01*
X166177156Y-73581273D01*
X166291091Y-73639325D01*
X166291095Y-73639327D01*
X166385626Y-73654299D01*
X166385628Y-73654300D01*
X166385630Y-73654300D01*
X166999172Y-73654300D01*
X166999172Y-73654299D01*
X167093705Y-73639327D01*
X167207647Y-73581271D01*
X167298071Y-73490847D01*
X167356127Y-73376905D01*
X167371100Y-73282370D01*
X167371100Y-72818830D01*
X167356127Y-72724295D01*
X167315041Y-72643659D01*
X167298073Y-72610356D01*
X167298072Y-72610355D01*
X167298071Y-72610353D01*
X167220349Y-72532631D01*
X167192125Y-72477236D01*
X167201851Y-72415828D01*
X167245815Y-72371864D01*
X167291486Y-72360899D01*
X167561271Y-72360899D01*
X167620402Y-72380112D01*
X167632406Y-72390364D01*
X167856236Y-72614194D01*
X167884462Y-72669592D01*
X167885701Y-72685329D01*
X167885701Y-76963903D01*
X167866488Y-77023034D01*
X167856236Y-77035038D01*
X167784100Y-77107173D01*
X167717152Y-77223128D01*
X167717152Y-77223129D01*
X167682501Y-77352449D01*
X167682501Y-77486350D01*
X167717152Y-77615670D01*
X167717152Y-77615671D01*
X167745706Y-77665127D01*
X167784100Y-77731626D01*
X167878775Y-77826301D01*
X167883878Y-77829247D01*
X167994729Y-77893248D01*
X168124050Y-77927899D01*
X168124054Y-77927899D01*
X168124056Y-77927900D01*
X168124058Y-77927900D01*
X168257944Y-77927900D01*
X168257946Y-77927900D01*
X168257948Y-77927899D01*
X168257951Y-77927899D01*
X168387271Y-77893248D01*
X168387272Y-77893248D01*
X168387272Y-77893247D01*
X168387275Y-77893247D01*
X168503227Y-77826301D01*
X168597902Y-77731626D01*
X168664848Y-77615674D01*
X168675191Y-77577074D01*
X168690729Y-77519084D01*
X168724591Y-77466941D01*
X168782635Y-77444659D01*
X168842691Y-77460750D01*
X168881819Y-77509069D01*
X168885073Y-77519084D01*
X168910952Y-77615671D01*
X168939506Y-77665127D01*
X168977900Y-77731626D01*
X169072575Y-77826301D01*
X169077678Y-77829247D01*
X169188529Y-77893248D01*
X169317850Y-77927899D01*
X169317854Y-77927899D01*
X169317856Y-77927900D01*
X169317858Y-77927900D01*
X169451744Y-77927900D01*
X169451746Y-77927900D01*
X169451748Y-77927899D01*
X169451751Y-77927899D01*
X169581071Y-77893248D01*
X169581072Y-77893248D01*
X169581072Y-77893247D01*
X169581075Y-77893247D01*
X169697027Y-77826301D01*
X169728880Y-77794448D01*
X176245100Y-77794448D01*
X176245100Y-77928349D01*
X176279751Y-78057669D01*
X176279751Y-78057670D01*
X176306903Y-78104698D01*
X176346699Y-78173625D01*
X176441374Y-78268300D01*
X176522826Y-78315327D01*
X176557328Y-78335247D01*
X176686649Y-78369898D01*
X176686653Y-78369898D01*
X176686655Y-78369899D01*
X176686657Y-78369899D01*
X176820543Y-78369899D01*
X176820545Y-78369899D01*
X176820547Y-78369898D01*
X176820550Y-78369898D01*
X176927312Y-78341291D01*
X176949870Y-78335247D01*
X176949871Y-78335247D01*
X176949871Y-78335246D01*
X176949874Y-78335246D01*
X177065826Y-78268300D01*
X177160501Y-78173625D01*
X177227447Y-78057673D01*
X177242070Y-78003099D01*
X177262099Y-77928349D01*
X177262100Y-77928342D01*
X177262100Y-77794455D01*
X177262099Y-77794449D01*
X181754101Y-77794449D01*
X181754101Y-77928350D01*
X181788752Y-78057670D01*
X181788752Y-78057671D01*
X181817807Y-78107995D01*
X181855700Y-78173626D01*
X181950375Y-78268301D01*
X182066327Y-78335247D01*
X182066329Y-78335248D01*
X182195650Y-78369899D01*
X182195654Y-78369899D01*
X182195656Y-78369900D01*
X182195658Y-78369900D01*
X182329544Y-78369900D01*
X182329546Y-78369900D01*
X182329548Y-78369899D01*
X182329551Y-78369899D01*
X182458871Y-78335248D01*
X182458872Y-78335248D01*
X182458872Y-78335247D01*
X182458875Y-78335247D01*
X182574827Y-78268301D01*
X182669502Y-78173626D01*
X182736448Y-78057674D01*
X182771101Y-77928345D01*
X182771101Y-77794455D01*
X182771100Y-77794453D01*
X182771100Y-77794449D01*
X187242300Y-77794449D01*
X187242300Y-77928350D01*
X187276951Y-78057670D01*
X187276951Y-78057671D01*
X187306006Y-78107995D01*
X187343899Y-78173626D01*
X187438574Y-78268301D01*
X187554526Y-78335247D01*
X187554528Y-78335248D01*
X187683849Y-78369899D01*
X187683853Y-78369899D01*
X187683855Y-78369900D01*
X187683857Y-78369900D01*
X187817743Y-78369900D01*
X187817745Y-78369900D01*
X187817747Y-78369899D01*
X187817750Y-78369899D01*
X187947070Y-78335248D01*
X187947071Y-78335248D01*
X187947071Y-78335247D01*
X187947074Y-78335247D01*
X188063026Y-78268301D01*
X188157701Y-78173626D01*
X188224647Y-78057674D01*
X188259300Y-77928345D01*
X188259300Y-77794455D01*
X188259299Y-77794453D01*
X188259299Y-77794449D01*
X188224648Y-77665129D01*
X188224648Y-77665128D01*
X188196095Y-77615674D01*
X188157701Y-77549174D01*
X188063026Y-77454499D01*
X188051328Y-77447745D01*
X187947071Y-77387551D01*
X187817750Y-77352900D01*
X187817745Y-77352900D01*
X187683855Y-77352900D01*
X187683849Y-77352900D01*
X187554529Y-77387551D01*
X187554528Y-77387551D01*
X187438573Y-77454499D01*
X187343899Y-77549173D01*
X187276951Y-77665128D01*
X187276951Y-77665129D01*
X187242300Y-77794449D01*
X182771100Y-77794449D01*
X182736449Y-77665129D01*
X182736449Y-77665128D01*
X182707896Y-77615674D01*
X182669502Y-77549174D01*
X182574827Y-77454499D01*
X182563129Y-77447745D01*
X182458872Y-77387551D01*
X182329551Y-77352900D01*
X182329546Y-77352900D01*
X182195656Y-77352900D01*
X182195650Y-77352900D01*
X182066330Y-77387551D01*
X182066329Y-77387551D01*
X181950374Y-77454499D01*
X181855700Y-77549173D01*
X181788752Y-77665128D01*
X181788752Y-77665129D01*
X181754101Y-77794449D01*
X177262099Y-77794449D01*
X177262099Y-77794448D01*
X177227448Y-77665128D01*
X177227448Y-77665127D01*
X177198894Y-77615671D01*
X177160501Y-77549173D01*
X177065826Y-77454498D01*
X176983903Y-77407199D01*
X176949871Y-77387550D01*
X176820550Y-77352899D01*
X176820545Y-77352899D01*
X176686655Y-77352899D01*
X176686649Y-77352899D01*
X176557329Y-77387550D01*
X176557328Y-77387550D01*
X176441373Y-77454498D01*
X176346699Y-77549172D01*
X176279751Y-77665127D01*
X176279751Y-77665128D01*
X176245100Y-77794448D01*
X169728880Y-77794448D01*
X169791702Y-77731626D01*
X169858648Y-77615674D01*
X169868991Y-77577074D01*
X169893300Y-77486350D01*
X169893301Y-77486343D01*
X169893301Y-77352456D01*
X169893300Y-77352449D01*
X169858649Y-77223129D01*
X169858649Y-77223128D01*
X169848773Y-77206023D01*
X169791702Y-77107174D01*
X169719565Y-77035037D01*
X169691339Y-76979639D01*
X169690100Y-76963902D01*
X169690100Y-71993049D01*
X172533900Y-71993049D01*
X172533900Y-72126950D01*
X172568551Y-72256270D01*
X172568553Y-72256275D01*
X172631500Y-72365301D01*
X172644427Y-72426116D01*
X172631500Y-72465901D01*
X172568554Y-72574924D01*
X172568552Y-72574929D01*
X172533901Y-72704249D01*
X172533901Y-72838150D01*
X172568552Y-72967470D01*
X172568552Y-72967471D01*
X172568554Y-72967474D01*
X172635500Y-73083426D01*
X172730175Y-73178101D01*
X172846127Y-73245047D01*
X172846129Y-73245048D01*
X172975450Y-73279699D01*
X172975454Y-73279699D01*
X172975456Y-73279700D01*
X172975458Y-73279700D01*
X173109344Y-73279700D01*
X173109346Y-73279700D01*
X173109348Y-73279699D01*
X173109351Y-73279699D01*
X173238671Y-73245048D01*
X173238672Y-73245048D01*
X173238672Y-73245047D01*
X173238675Y-73245047D01*
X173354627Y-73178101D01*
X173354627Y-73178100D01*
X173360337Y-73174804D01*
X173362029Y-73177735D01*
X173407409Y-73161331D01*
X173460054Y-73176551D01*
X173461064Y-73174803D01*
X173466773Y-73178099D01*
X173466774Y-73178100D01*
X173582726Y-73245046D01*
X173582728Y-73245047D01*
X173712049Y-73279698D01*
X173712053Y-73279698D01*
X173712055Y-73279699D01*
X173712057Y-73279699D01*
X173845943Y-73279699D01*
X173845945Y-73279699D01*
X173845947Y-73279698D01*
X173845950Y-73279698D01*
X173952712Y-73251091D01*
X173975270Y-73245047D01*
X173975271Y-73245047D01*
X173975271Y-73245046D01*
X173975274Y-73245046D01*
X174091226Y-73178100D01*
X174185901Y-73083425D01*
X174252847Y-72967473D01*
X174258892Y-72944911D01*
X174287499Y-72838149D01*
X174287500Y-72838142D01*
X174287500Y-72704255D01*
X174287499Y-72704248D01*
X174252848Y-72574928D01*
X174252848Y-72574927D01*
X174228430Y-72532634D01*
X174189899Y-72465898D01*
X174176973Y-72405084D01*
X174189898Y-72365301D01*
X174252847Y-72256274D01*
X174258892Y-72233712D01*
X174287499Y-72126950D01*
X174287500Y-72126943D01*
X174287500Y-71993056D01*
X174287499Y-71993049D01*
X174252848Y-71863729D01*
X174252848Y-71863728D01*
X174220687Y-71808024D01*
X174189899Y-71754698D01*
X174176973Y-71693885D01*
X174189898Y-71654102D01*
X174252848Y-71545073D01*
X174258893Y-71522511D01*
X174287500Y-71415749D01*
X174287501Y-71415742D01*
X174287501Y-71281855D01*
X174287500Y-71281848D01*
X174252849Y-71152528D01*
X174252849Y-71152527D01*
X174212640Y-71082884D01*
X174185902Y-71036573D01*
X174091227Y-70941898D01*
X174040444Y-70912578D01*
X173975272Y-70874950D01*
X173845951Y-70840299D01*
X173845946Y-70840299D01*
X173712056Y-70840299D01*
X173712050Y-70840299D01*
X173582730Y-70874950D01*
X173582729Y-70874950D01*
X173461065Y-70945195D01*
X173459461Y-70942417D01*
X173412990Y-70958695D01*
X173361465Y-70943240D01*
X173360337Y-70945195D01*
X173238672Y-70874950D01*
X173109351Y-70840299D01*
X173109346Y-70840299D01*
X172975456Y-70840299D01*
X172975450Y-70840299D01*
X172846130Y-70874950D01*
X172846129Y-70874950D01*
X172730174Y-70941898D01*
X172635500Y-71036572D01*
X172568552Y-71152527D01*
X172568552Y-71152528D01*
X172533901Y-71281848D01*
X172533901Y-71415749D01*
X172568552Y-71545069D01*
X172568554Y-71545074D01*
X172631500Y-71654098D01*
X172644427Y-71714913D01*
X172631500Y-71754698D01*
X172568553Y-71863724D01*
X172568551Y-71863729D01*
X172533900Y-71993049D01*
X169690100Y-71993049D01*
X169690100Y-71791208D01*
X169690099Y-71791204D01*
X169672722Y-71726352D01*
X169672722Y-71726351D01*
X169669294Y-71713559D01*
X169669294Y-71713558D01*
X169629100Y-71643941D01*
X168480059Y-70494900D01*
X168410441Y-70454706D01*
X168410440Y-70454705D01*
X168410439Y-70454705D01*
X168410385Y-70454683D01*
X168409642Y-70454491D01*
X168332798Y-70433900D01*
X168332792Y-70433899D01*
X167296888Y-70433899D01*
X167237757Y-70414686D01*
X167201212Y-70364386D01*
X167201212Y-70302212D01*
X167225752Y-70262166D01*
X167298072Y-70189847D01*
X167298075Y-70189843D01*
X167342119Y-70103399D01*
X167356128Y-70075905D01*
X167371101Y-69981370D01*
X167371101Y-69517830D01*
X167356128Y-69423295D01*
X167298072Y-69309353D01*
X167207648Y-69218929D01*
X167207645Y-69218927D01*
X167207644Y-69218926D01*
X167207645Y-69218926D01*
X167093709Y-69160874D01*
X167093704Y-69160872D01*
X166999175Y-69145900D01*
X166999171Y-69145900D01*
X166385631Y-69145900D01*
X166385626Y-69145900D01*
X166291097Y-69160872D01*
X166291092Y-69160874D01*
X166177157Y-69218926D01*
X166086727Y-69309356D01*
X166028675Y-69423291D01*
X166028673Y-69423296D01*
X166013701Y-69517825D01*
X166013701Y-69981374D01*
X166028673Y-70075903D01*
X166028675Y-70075908D01*
X166086727Y-70189843D01*
X166086728Y-70189844D01*
X166086730Y-70189847D01*
X166159049Y-70262166D01*
X166187274Y-70317562D01*
X166177548Y-70378970D01*
X166133584Y-70422934D01*
X166087913Y-70433899D01*
X165464268Y-70433899D01*
X165444641Y-70431966D01*
X165438382Y-70430721D01*
X165438381Y-70430720D01*
X165378965Y-70418901D01*
X164678437Y-70418901D01*
X164668579Y-70420861D01*
X164619021Y-70430719D01*
X164551641Y-70475741D01*
X164506619Y-70543121D01*
X164494801Y-70602537D01*
X163505201Y-70602537D01*
X163493382Y-70543121D01*
X163448361Y-70475741D01*
X163403339Y-70445658D01*
X163380980Y-70430719D01*
X163333383Y-70421251D01*
X163321565Y-70418901D01*
X163321564Y-70418901D01*
X162084560Y-70418901D01*
X162025429Y-70399688D01*
X161988884Y-70349388D01*
X161984400Y-70327695D01*
X161983584Y-70319004D01*
X161983584Y-70319002D01*
X161983584Y-70318999D01*
X161940901Y-70197018D01*
X161864160Y-70093039D01*
X161760181Y-70016298D01*
X161638200Y-69973615D01*
X161609236Y-69970899D01*
X161005964Y-69970899D01*
X160977000Y-69973615D01*
X160916009Y-69994956D01*
X160855018Y-70016298D01*
X160804877Y-70053304D01*
X160763637Y-70083741D01*
X160704654Y-70103396D01*
X160703900Y-70103399D01*
X159981979Y-70103399D01*
X159849431Y-70138915D01*
X159849422Y-70138919D01*
X159805923Y-70164032D01*
X159805923Y-70164033D01*
X159768250Y-70185784D01*
X159730576Y-70207535D01*
X159112534Y-70825577D01*
X159062306Y-70912577D01*
X159062305Y-70912578D01*
X159043919Y-70944422D01*
X159043917Y-70944427D01*
X159008400Y-71076978D01*
X131437701Y-71076978D01*
X131437701Y-64109300D01*
X131456914Y-64050169D01*
X131507214Y-64013624D01*
X131538301Y-64008700D01*
X161595995Y-64008700D01*
X161595999Y-64008699D01*
X161785614Y-63978667D01*
X161968202Y-63919341D01*
X162139262Y-63832181D01*
X162294582Y-63719335D01*
X162430335Y-63583582D01*
X162543181Y-63428262D01*
X162630341Y-63257202D01*
X162689667Y-63074614D01*
X162719700Y-62884993D01*
X162719700Y-62693007D01*
X162719699Y-62693000D01*
X165280301Y-62693000D01*
X165280301Y-62884999D01*
X165310332Y-63074607D01*
X165310336Y-63074623D01*
X165369659Y-63257202D01*
X165456815Y-63428253D01*
X165456820Y-63428262D01*
X165513243Y-63505922D01*
X165569664Y-63583580D01*
X165569666Y-63583582D01*
X165705419Y-63719335D01*
X165860739Y-63832181D01*
X165860747Y-63832185D01*
X166031798Y-63919341D01*
X166214377Y-63978664D01*
X166214380Y-63978664D01*
X166214387Y-63978667D01*
X166214392Y-63978667D01*
X166214393Y-63978668D01*
X166404001Y-64008699D01*
X166404006Y-64008700D01*
X166404008Y-64008700D01*
X174592300Y-64008700D01*
X174651431Y-64027913D01*
X174687976Y-64078213D01*
X174692900Y-64109300D01*
X174692901Y-74346499D01*
X174673688Y-74405630D01*
X174623388Y-74442175D01*
X174592301Y-74447099D01*
X172946401Y-74447099D01*
X172756793Y-74477130D01*
X172756777Y-74477134D01*
X172574198Y-74536457D01*
X172403147Y-74623613D01*
X172403136Y-74623620D01*
X172247820Y-74736462D01*
X172112064Y-74872218D01*
X171999222Y-75027534D01*
X171999215Y-75027545D01*
X171912059Y-75198596D01*
X171852736Y-75381175D01*
X171852732Y-75381191D01*
X171822701Y-75570799D01*
X171822701Y-75762798D01*
X171852732Y-75952406D01*
X171852736Y-75952422D01*
X171912059Y-76135001D01*
X171987294Y-76282656D01*
X171999220Y-76306061D01*
X172055643Y-76383721D01*
X172112064Y-76461379D01*
X172112066Y-76461381D01*
X172247819Y-76597134D01*
X172403139Y-76709980D01*
X172403147Y-76709984D01*
X172574198Y-76797140D01*
X172756777Y-76856463D01*
X172756780Y-76856463D01*
X172756787Y-76856466D01*
X172756792Y-76856466D01*
X172756793Y-76856467D01*
X172946401Y-76886498D01*
X172946406Y-76886499D01*
X172975451Y-76886499D01*
X172975455Y-76886500D01*
X173109345Y-76886500D01*
X173109349Y-76886499D01*
X173705878Y-76886499D01*
X173705894Y-76886500D01*
X173712055Y-76886500D01*
X173852106Y-76886500D01*
X173852122Y-76886499D01*
X176008596Y-76886499D01*
X176008600Y-76886498D01*
X176039828Y-76881552D01*
X176198215Y-76856466D01*
X176380803Y-76797140D01*
X176551863Y-76709980D01*
X176707183Y-76597134D01*
X176842936Y-76461381D01*
X176955782Y-76306061D01*
X176967711Y-76282649D01*
X181743701Y-76282649D01*
X181743701Y-76416550D01*
X181778352Y-76545870D01*
X181778352Y-76545871D01*
X181778354Y-76545874D01*
X181845300Y-76661826D01*
X181939975Y-76756501D01*
X182010363Y-76797140D01*
X182055929Y-76823448D01*
X182185250Y-76858099D01*
X182185254Y-76858099D01*
X182185256Y-76858100D01*
X182185258Y-76858100D01*
X182319144Y-76858100D01*
X182319146Y-76858100D01*
X182319148Y-76858099D01*
X182319151Y-76858099D01*
X182448471Y-76823448D01*
X182448472Y-76823448D01*
X182448472Y-76823447D01*
X182448475Y-76823447D01*
X182564427Y-76756501D01*
X182659102Y-76661826D01*
X182726048Y-76545874D01*
X182732093Y-76523312D01*
X182760700Y-76416550D01*
X182760701Y-76416543D01*
X182760701Y-76282656D01*
X182760700Y-76282649D01*
X182726049Y-76153329D01*
X182726049Y-76153328D01*
X182659101Y-76037373D01*
X182564427Y-75942699D01*
X182448472Y-75875751D01*
X182319151Y-75841100D01*
X182319146Y-75841100D01*
X182185256Y-75841100D01*
X182185250Y-75841100D01*
X182055930Y-75875751D01*
X182055929Y-75875751D01*
X181939974Y-75942699D01*
X181845300Y-76037373D01*
X181778352Y-76153328D01*
X181778352Y-76153329D01*
X181743701Y-76282649D01*
X176967711Y-76282649D01*
X177042942Y-76135001D01*
X177102268Y-75952413D01*
X177132301Y-75762792D01*
X177132301Y-74632649D01*
X181743700Y-74632649D01*
X181743700Y-74766550D01*
X181778351Y-74895870D01*
X181778351Y-74895871D01*
X181778353Y-74895874D01*
X181845299Y-75011826D01*
X181939974Y-75106501D01*
X182055926Y-75173447D01*
X182055928Y-75173448D01*
X182185249Y-75208099D01*
X182185253Y-75208099D01*
X182185255Y-75208100D01*
X182185257Y-75208100D01*
X182319143Y-75208100D01*
X182319145Y-75208100D01*
X182319147Y-75208099D01*
X182319150Y-75208099D01*
X182448470Y-75173448D01*
X182448471Y-75173448D01*
X182448471Y-75173447D01*
X182448474Y-75173447D01*
X182564426Y-75106501D01*
X182659101Y-75011826D01*
X182726047Y-74895874D01*
X182760700Y-74766545D01*
X182760700Y-74632655D01*
X182760699Y-74632653D01*
X182760699Y-74632649D01*
X187179302Y-74632649D01*
X187179302Y-74766550D01*
X187213953Y-74895870D01*
X187213953Y-74895871D01*
X187213955Y-74895874D01*
X187280901Y-75011826D01*
X187375576Y-75106501D01*
X187491528Y-75173447D01*
X187491530Y-75173448D01*
X187620851Y-75208099D01*
X187620855Y-75208099D01*
X187620857Y-75208100D01*
X187620859Y-75208100D01*
X187754745Y-75208100D01*
X187754747Y-75208100D01*
X187754749Y-75208099D01*
X187754752Y-75208099D01*
X187884072Y-75173448D01*
X187884073Y-75173448D01*
X187884073Y-75173447D01*
X187884076Y-75173447D01*
X188000028Y-75106501D01*
X188094703Y-75011826D01*
X188161649Y-74895874D01*
X188196302Y-74766545D01*
X188196302Y-74632655D01*
X188196301Y-74632653D01*
X188196301Y-74632649D01*
X188161650Y-74503329D01*
X188161650Y-74503328D01*
X188146527Y-74477134D01*
X188094703Y-74387374D01*
X188000028Y-74292699D01*
X187884076Y-74225753D01*
X187884073Y-74225751D01*
X187754752Y-74191100D01*
X187754747Y-74191100D01*
X187620857Y-74191100D01*
X187620851Y-74191100D01*
X187491531Y-74225751D01*
X187491530Y-74225751D01*
X187375575Y-74292699D01*
X187280901Y-74387373D01*
X187213953Y-74503328D01*
X187213953Y-74503329D01*
X187179302Y-74632649D01*
X182760699Y-74632649D01*
X182726048Y-74503329D01*
X182726048Y-74503328D01*
X182710925Y-74477134D01*
X182659101Y-74387374D01*
X182564426Y-74292699D01*
X182448474Y-74225753D01*
X182448471Y-74225751D01*
X182319150Y-74191100D01*
X182319145Y-74191100D01*
X182185255Y-74191100D01*
X182185249Y-74191100D01*
X182055929Y-74225751D01*
X182055928Y-74225751D01*
X181939973Y-74292699D01*
X181845299Y-74387373D01*
X181778351Y-74503328D01*
X181778351Y-74503329D01*
X181743700Y-74632649D01*
X177132301Y-74632649D01*
X177132300Y-69218929D01*
X177132300Y-62693005D01*
X177132299Y-62693000D01*
X177102268Y-62503392D01*
X177102267Y-62503391D01*
X177102267Y-62503386D01*
X177042941Y-62320798D01*
X177042941Y-62320797D01*
X176955785Y-62149746D01*
X176955781Y-62149738D01*
X176842935Y-61994418D01*
X176707182Y-61858665D01*
X176707180Y-61858663D01*
X176629522Y-61802242D01*
X176551862Y-61745819D01*
X176551856Y-61745816D01*
X176551853Y-61745814D01*
X176380802Y-61658658D01*
X176198223Y-61599335D01*
X176198207Y-61599331D01*
X176008599Y-61569300D01*
X176008593Y-61569300D01*
X166404008Y-61569300D01*
X166404001Y-61569300D01*
X166214393Y-61599331D01*
X166214377Y-61599335D01*
X166031798Y-61658658D01*
X165860747Y-61745814D01*
X165860736Y-61745821D01*
X165705420Y-61858663D01*
X165569664Y-61994419D01*
X165456822Y-62149735D01*
X165456815Y-62149746D01*
X165369659Y-62320797D01*
X165310336Y-62503376D01*
X165310332Y-62503392D01*
X165280301Y-62693000D01*
X162719699Y-62693000D01*
X162689667Y-62503386D01*
X162630341Y-62320798D01*
X162630341Y-62320797D01*
X162543185Y-62149746D01*
X162543181Y-62149738D01*
X162430335Y-61994418D01*
X162294582Y-61858665D01*
X162294580Y-61858663D01*
X162216922Y-61802242D01*
X162139262Y-61745819D01*
X162139256Y-61745816D01*
X162139253Y-61745814D01*
X161968202Y-61658658D01*
X161785623Y-61599335D01*
X161785607Y-61599331D01*
X161595999Y-61569300D01*
X161595993Y-61569300D01*
X131837993Y-61569300D01*
X130313994Y-61569300D01*
X130122008Y-61569300D01*
X130122001Y-61569300D01*
X129932393Y-61599331D01*
X129932377Y-61599335D01*
X129749798Y-61658658D01*
X129578747Y-61745814D01*
X129578736Y-61745821D01*
X129423420Y-61858663D01*
X129287664Y-61994419D01*
X129174822Y-62149735D01*
X129174815Y-62149746D01*
X129087659Y-62320797D01*
X129028336Y-62503376D01*
X129028332Y-62503392D01*
X128998301Y-62693000D01*
X115376420Y-62693000D01*
X115376420Y-59177019D01*
X115395633Y-59117888D01*
X115445933Y-59081343D01*
X115477020Y-59076419D01*
X122749558Y-59076419D01*
X122845294Y-59050766D01*
X122931128Y-59001210D01*
X123001212Y-58931126D01*
X123050768Y-58845292D01*
X123076421Y-58749556D01*
X123076421Y-58650442D01*
X123076421Y-51477019D01*
X123095634Y-51417888D01*
X123145934Y-51381343D01*
X123177021Y-51376419D01*
X204822980Y-51376419D01*
X204882111Y-51395632D01*
G37*
%TD.AperFunction*%
%TD*%
M02*
