M48
; DRILL file {KiCad 9.0.1} date 2025-06-24T16:04:46-0400
; FORMAT={-:-/ absolute / inch / decimal}
; #@! TF.CreationDate,2025-06-24T16:04:46-04:00
; #@! TF.GenerationSoftware,Kicad,Pcbnew,9.0.1
; #@! TF.FileFunction,Plated,1,6,PTH
FMAT,2
INCH
; #@! TA.AperFunction,Plated,PTH,ViaDrill
T1C0.0120
; #@! TA.AperFunction,Plated,PTH,ViaDrill
T2C0.0150
; #@! TA.AperFunction,Plated,PTH,ComponentDrill
T3C0.0150
; #@! TA.AperFunction,Plated,PTH,ViaDrill
T4C0.0250
; #@! TA.AperFunction,Plated,PTH,ComponentDrill
T5C0.0394
; #@! TA.AperFunction,Plated,PTH,ComponentDrill
T6C0.0480
; #@! TA.AperFunction,Plated,PTH,ComponentDrill
T7C0.0551
; #@! TA.AperFunction,Plated,PTH,ComponentDrill
T8C0.1260
%
G90
G05
T1
X5.4488Y-4.778
X5.4488Y-4.8173
X5.5447Y-4.906
X5.5447Y-4.934
X5.5462Y-4.798
X5.5557Y-4.6416
X5.5557Y-4.7164
X5.5557Y-4.754
X5.5727Y-4.906
X5.5727Y-4.934
X5.6453Y-4.679
X5.7252Y-4.7665
X5.7276Y-4.891
X5.8285Y-4.4652
X5.8287Y-4.51
X5.8487Y-4.443
X5.8488Y-4.4873
X5.863Y-4.674
X5.9412Y-4.7665
X5.9416Y-4.642
X5.9416Y-4.826
X5.9416Y-4.891
X5.942Y-4.7073
X5.9567Y-3.0455
X6.0157Y-3.0465
X6.0192Y-4.8581
X6.0207Y-4.459
X6.0207Y-4.489
X6.1556Y-4.642
X6.1581Y-4.7665
X6.2127Y-4.433
X6.2127Y-4.495
X6.2807Y-3.027
X6.3543Y-4.9596
X6.3543Y-4.991
X6.3543Y-5.0225
X6.3543Y-5.054
X6.3543Y-5.0855
X6.3826Y-2.8111
X6.3858Y-4.7402
X6.3858Y-4.9596
X6.3858Y-5.0855
X6.3976Y-4.7087
X6.3976Y-4.7717
X6.4134Y-4.3386
X6.4134Y-4.3661
X6.4134Y-4.3937
X6.4134Y-4.4213
X6.4134Y-4.4488
X6.4134Y-4.563
X6.4144Y-4.4786
X6.4144Y-4.5036
X6.4144Y-4.5286
X6.4167Y-2.9
X6.4167Y-3.1395
X6.4167Y-3.4245
X6.4173Y-4.6811
X6.4173Y-5.0855
X6.4173Y-4.8019
X6.4173Y-4.8334
X6.4173Y-4.865
X6.4173Y-4.8965
X6.4173Y-4.928
X6.4173Y-4.9596
X6.4409Y-4.3661
X6.4409Y-4.3937
X6.445Y-4.563
X6.4567Y-4.6693
X6.4567Y-5.0855
X6.4724Y-4.563
X6.4961Y-4.6811
X6.4961Y-5.0855
X6.4961Y-4.8019
X6.4961Y-4.8334
X6.4961Y-4.865
X6.4961Y-4.8965
X6.4961Y-4.928
X6.4961Y-4.9596
X6.5Y-4.3661
X6.5Y-4.3937
X6.5Y-4.563
X6.5157Y-4.7087
X6.5157Y-4.7717
X6.5276Y-4.3937
X6.5276Y-4.4213
X6.5276Y-4.4488
X6.5276Y-4.7402
X6.5276Y-4.9596
X6.5276Y-5.0855
X6.5305Y-4.4786
X6.5305Y-4.5036
X6.5305Y-4.5286
X6.5315Y-4.563
X6.5591Y-4.9596
X6.5591Y-4.991
X6.5591Y-5.0225
X6.5591Y-5.054
X6.5591Y-5.0855
X6.5927Y-2.811
X6.6217Y-3.048
X6.6687Y-3.048
X6.8127Y-2.837
X6.8127Y-3.007
X6.8127Y-3.091
X6.8127Y-3.29
X6.8127Y-3.376
X6.8127Y-3.575
X6.8127Y-2.809
X6.8127Y-2.865
X6.8127Y-2.951
X6.8127Y-2.979
X6.8127Y-3.119
X6.8127Y-3.147
X6.8127Y-3.234
X6.8127Y-3.262
X6.8127Y-3.404
X6.8127Y-3.432
X6.8127Y-3.519
X6.8127Y-3.547
X6.8417Y-2.837
X6.8417Y-2.865
X6.8417Y-3.007
X6.8417Y-3.091
X6.8417Y-3.147
X6.8417Y-3.29
X6.8417Y-3.376
X6.8417Y-3.432
X6.8417Y-3.519
X6.8417Y-3.575
X6.8417Y-2.809
X6.8417Y-2.951
X6.8417Y-2.979
X6.8417Y-3.119
X6.8417Y-3.234
X6.8417Y-3.262
X6.8417Y-3.404
X6.8417Y-3.547
X6.843Y-4.6295
X6.9019Y-4.5424
X6.9019Y-4.579
X6.9019Y-4.616
X6.9037Y-3.1264
X6.9037Y-3.1884
X6.9582Y-3.4055
X6.9588Y-3.0654
X6.9607Y-3.53
X6.9613Y-3.1899
X6.9719Y-4.773
X7.0577Y-3.322
X7.0719Y-4.739
X7.0719Y-4.772
X7.0977Y-2.973
X7.1239Y-4.9445
X7.1394Y-4.606
X7.1719Y-4.744
X7.1747Y-3.346
X7.1747Y-3.465
X7.1747Y-3.53
X7.1751Y-3.4055
X7.1753Y-2.9409
X7.1753Y-3.0059
X7.1753Y-3.1249
X7.1753Y-3.1899
X7.1757Y-3.0654
X7.2531Y-3.4969
X7.2537Y-3.158
X7.3099Y-4.7645
X7.3893Y-2.9409
X7.3912Y-3.4055
X7.3918Y-3.0654
X8.3577Y-2.622
T2
X7.4189Y-4.849
X7.4189Y-4.639
T3
X4.5669Y-3.0709
X4.5669Y-4.8031
X4.5923Y-3.0096
X4.5923Y-3.1321
X4.5923Y-4.7419
X4.5923Y-4.8644
X4.6535Y-2.9843
X4.6535Y-3.1575
X4.6535Y-4.7165
X4.6535Y-4.8898
X4.7148Y-3.0096
X4.7148Y-3.1321
X4.7148Y-4.7419
X4.7148Y-4.8644
X4.7402Y-3.0709
X4.7402Y-4.8031
X5.5039Y-2.1339
X5.5039Y-5.7402
X5.5293Y-2.0726
X5.5293Y-2.1951
X5.5293Y-5.6789
X5.5293Y-5.8014
X5.5906Y-2.0472
X5.5906Y-2.2205
X5.5906Y-5.6535
X5.5906Y-5.8268
X5.6518Y-2.0726
X5.6518Y-2.1951
X5.6518Y-5.6789
X5.6518Y-5.8014
X5.6772Y-2.1339
X5.6772Y-5.7402
X7.2362Y-2.1339
X7.2362Y-5.7402
X7.2616Y-2.0726
X7.2616Y-2.1951
X7.2616Y-5.6789
X7.2616Y-5.8014
X7.3228Y-2.0472
X7.3228Y-2.2205
X7.3228Y-5.6535
X7.3228Y-5.8268
X7.3841Y-2.0726
X7.3841Y-2.1951
X7.3841Y-5.6789
X7.3841Y-5.8014
X7.4094Y-2.1339
X7.4094Y-5.7402
X8.1732Y-3.0709
X8.1732Y-4.8031
X8.1986Y-3.0096
X8.1986Y-3.1321
X8.1986Y-4.7419
X8.1986Y-4.8644
X8.2598Y-2.9843
X8.2598Y-3.1575
X8.2598Y-4.7165
X8.2598Y-4.8898
X8.3211Y-3.0096
X8.3211Y-3.1321
X8.3211Y-4.7419
X8.3211Y-4.8644
X8.3465Y-3.0709
X8.3465Y-4.8031
T4
X6.3268Y-3.937
X6.5866Y-3.937
T5
X4.9917Y-3.7835
X4.9917Y-3.8386
X4.9917Y-4.0354
X4.9917Y-4.0906
X6.3031Y-2.472
X6.3031Y-5.402
X6.3583Y-2.472
X6.3583Y-5.402
X6.4567Y-3.7835
X6.4567Y-3.8386
X6.4567Y-4.0354
X6.4567Y-4.0906
X6.5551Y-2.472
X6.5551Y-5.402
X6.6102Y-2.472
X6.6102Y-5.402
X7.9217Y-3.7835
X7.9217Y-3.8386
X7.9217Y-4.0354
X7.9217Y-4.0906
T6
X6.4567Y-4.7402
T7
X5.4793Y-3.181
X5.4793Y-3.481
X5.7793Y-3.481
X6.1793Y-3.181
X6.1793Y-3.481
T8
X4.6535Y-3.0709
X4.6535Y-4.8031
X5.5906Y-2.1339
X5.5906Y-5.7402
X7.3228Y-2.1339
X7.3228Y-5.7402
X8.2598Y-3.0709
X8.2598Y-4.8031
M30
