%TF.GenerationSoftware,KiCad,Pcbnew,8.0.5*%
%TF.CreationDate,2025-02-27T20:38:44-05:00*%
%TF.ProjectId,Z-,5a2d2e6b-6963-4616-945f-706362585858,rev?*%
%TF.SameCoordinates,Original*%
%TF.FileFunction,Paste,Bot*%
%TF.FilePolarity,Positive*%
%FSLAX46Y46*%
G04 Gerber Fmt 4.6, Leading zero omitted, Abs format (unit mm)*
G04 Created by KiCad (PCBNEW 8.0.5) date 2025-02-27 20:38:44*
%MOMM*%
%LPD*%
G01*
G04 APERTURE LIST*
G04 Aperture macros list*
%AMRoundRect*
0 Rectangle with rounded corners*
0 $1 Rounding radius*
0 $2 $3 $4 $5 $6 $7 $8 $9 X,Y pos of 4 corners*
0 Add a 4 corners polygon primitive as box body*
4,1,4,$2,$3,$4,$5,$6,$7,$8,$9,$2,$3,0*
0 Add four circle primitives for the rounded corners*
1,1,$1+$1,$2,$3*
1,1,$1+$1,$4,$5*
1,1,$1+$1,$6,$7*
1,1,$1+$1,$8,$9*
0 Add four rect primitives between the rounded corners*
20,1,$1+$1,$2,$3,$4,$5,0*
20,1,$1+$1,$4,$5,$6,$7,0*
20,1,$1+$1,$6,$7,$8,$9,0*
20,1,$1+$1,$8,$9,$2,$3,0*%
G04 Aperture macros list end*
%ADD10R,1.422400X0.304800*%
%ADD11R,0.510000X0.700000*%
%ADD12RoundRect,0.225000X0.225000X0.250000X-0.225000X0.250000X-0.225000X-0.250000X0.225000X-0.250000X0*%
%ADD13RoundRect,0.200000X-0.200000X-0.275000X0.200000X-0.275000X0.200000X0.275000X-0.200000X0.275000X0*%
%ADD14RoundRect,0.075000X0.275000X-0.390000X0.275000X0.390000X-0.275000X0.390000X-0.275000X-0.390000X0*%
%ADD15RoundRect,0.075000X0.275000X-0.075000X0.275000X0.075000X-0.275000X0.075000X-0.275000X-0.075000X0*%
%ADD16RoundRect,0.100000X0.100000X-0.225000X0.100000X0.225000X-0.100000X0.225000X-0.100000X-0.225000X0*%
%ADD17RoundRect,0.200000X-0.275000X0.200000X-0.275000X-0.200000X0.275000X-0.200000X0.275000X0.200000X0*%
%ADD18R,0.254000X0.812800*%
%ADD19R,0.812800X0.254000*%
%ADD20R,1.752600X1.752600*%
%ADD21RoundRect,0.218750X-0.218750X-0.256250X0.218750X-0.256250X0.218750X0.256250X-0.218750X0.256250X0*%
%ADD22RoundRect,0.200000X0.200000X0.275000X-0.200000X0.275000X-0.200000X-0.275000X0.200000X-0.275000X0*%
%ADD23RoundRect,0.250000X0.250000X-0.275000X0.250000X0.275000X-0.250000X0.275000X-0.250000X-0.275000X0*%
%ADD24RoundRect,0.250000X0.275000X-0.850000X0.275000X0.850000X-0.275000X0.850000X-0.275000X-0.850000X0*%
%ADD25RoundRect,0.218750X0.218750X0.256250X-0.218750X0.256250X-0.218750X-0.256250X0.218750X-0.256250X0*%
%ADD26RoundRect,0.100000X0.225000X0.100000X-0.225000X0.100000X-0.225000X-0.100000X0.225000X-0.100000X0*%
%ADD27R,1.270000X0.610000*%
%ADD28R,1.020000X0.610000*%
%ADD29R,3.810000X3.910000*%
%ADD30RoundRect,0.200000X0.275000X-0.200000X0.275000X0.200000X-0.275000X0.200000X-0.275000X-0.200000X0*%
%ADD31RoundRect,0.225000X-0.225000X-0.250000X0.225000X-0.250000X0.225000X0.250000X-0.225000X0.250000X0*%
%ADD32RoundRect,0.093750X0.093750X-0.156250X0.093750X0.156250X-0.093750X0.156250X-0.093750X-0.156250X0*%
%ADD33RoundRect,0.075000X0.075000X-0.250000X0.075000X0.250000X-0.075000X0.250000X-0.075000X-0.250000X0*%
%ADD34RoundRect,0.100000X-0.225000X-0.100000X0.225000X-0.100000X0.225000X0.100000X-0.225000X0.100000X0*%
%ADD35RoundRect,0.075000X-0.275000X0.390000X-0.275000X-0.390000X0.275000X-0.390000X0.275000X0.390000X0*%
%ADD36RoundRect,0.075000X-0.275000X0.075000X-0.275000X-0.075000X0.275000X-0.075000X0.275000X0.075000X0*%
%ADD37RoundRect,0.225000X0.250000X-0.225000X0.250000X0.225000X-0.250000X0.225000X-0.250000X-0.225000X0*%
%ADD38RoundRect,0.250000X-1.500000X0.250000X-1.500000X-0.250000X1.500000X-0.250000X1.500000X0.250000X0*%
%ADD39RoundRect,0.250001X-1.449999X0.499999X-1.449999X-0.499999X1.449999X-0.499999X1.449999X0.499999X0*%
%ADD40RoundRect,0.100000X-0.100000X0.225000X-0.100000X-0.225000X0.100000X-0.225000X0.100000X0.225000X0*%
%ADD41RoundRect,0.225000X-0.250000X0.225000X-0.250000X-0.225000X0.250000X-0.225000X0.250000X0.225000X0*%
%ADD42RoundRect,0.250000X0.362500X1.425000X-0.362500X1.425000X-0.362500X-1.425000X0.362500X-1.425000X0*%
%ADD43RoundRect,0.250000X-0.325000X-0.650000X0.325000X-0.650000X0.325000X0.650000X-0.325000X0.650000X0*%
%ADD44RoundRect,0.150000X-0.587500X-0.150000X0.587500X-0.150000X0.587500X0.150000X-0.587500X0.150000X0*%
%ADD45R,0.400000X1.000000*%
%ADD46R,2.000000X1.300000*%
%ADD47RoundRect,0.250000X-0.362500X-1.425000X0.362500X-1.425000X0.362500X1.425000X-0.362500X1.425000X0*%
%ADD48RoundRect,0.150000X0.587500X0.150000X-0.587500X0.150000X-0.587500X-0.150000X0.587500X-0.150000X0*%
%ADD49R,0.400000X0.750000*%
G04 APERTURE END LIST*
D10*
%TO.C,U2*%
X133997700Y-90154001D03*
X133997700Y-89653999D03*
X133997700Y-89154000D03*
X133997700Y-88654001D03*
X133997700Y-88153999D03*
X138290300Y-88153999D03*
X138290300Y-88654001D03*
X138290300Y-89154000D03*
X138290300Y-89653999D03*
X138290300Y-90154001D03*
%TD*%
D11*
%TO.C,Q17*%
X128712000Y-102239000D03*
X127762000Y-102239000D03*
X126812000Y-102239000D03*
X126812000Y-99919000D03*
X127762000Y-99919000D03*
X128712000Y-99919000D03*
%TD*%
D12*
%TO.C,C11*%
X164351000Y-98552000D03*
X162801000Y-98552000D03*
%TD*%
D13*
%TO.C,R50*%
X170371000Y-101854000D03*
X172021000Y-101854000D03*
%TD*%
D14*
%TO.C,D3*%
X169926000Y-83181000D03*
D15*
X169926000Y-82296000D03*
%TD*%
D16*
%TO.C,Q1*%
X138572000Y-111186000D03*
X137922000Y-111186000D03*
X137272000Y-111186000D03*
X137272000Y-109286000D03*
X137922000Y-109286000D03*
X138572000Y-109286000D03*
%TD*%
D17*
%TO.C,R63*%
X167640000Y-84737000D03*
X167640000Y-86387000D03*
%TD*%
D18*
%TO.C,U4*%
X166635999Y-88406800D03*
X167136000Y-88406800D03*
X167636000Y-88406800D03*
X168136001Y-88406800D03*
D19*
X168859200Y-89129999D03*
X168859200Y-89630000D03*
X168859200Y-90130000D03*
X168859200Y-90630001D03*
D18*
X168136001Y-91353200D03*
X167636000Y-91353200D03*
X167136000Y-91353200D03*
X166635999Y-91353200D03*
D19*
X165912800Y-90630001D03*
X165912800Y-90130000D03*
X165912800Y-89630000D03*
X165912800Y-89129999D03*
D20*
X167386000Y-89880000D03*
%TD*%
D21*
%TO.C,F7*%
X155930500Y-67310000D03*
X157505500Y-67310000D03*
%TD*%
D22*
%TO.C,R47*%
X165163000Y-123190000D03*
X163513000Y-123190000D03*
%TD*%
%TO.C,R43*%
X128587000Y-97777000D03*
X126937000Y-97777000D03*
%TD*%
D13*
%TO.C,R14*%
X135065000Y-96266000D03*
X136715000Y-96266000D03*
%TD*%
%TO.C,R13*%
X136335000Y-86106000D03*
X137985000Y-86106000D03*
%TD*%
%TO.C,R62*%
X162751000Y-100076000D03*
X164401000Y-100076000D03*
%TD*%
D23*
%TO.C,J3*%
X152320000Y-115506000D03*
D24*
X150845000Y-113981000D03*
X153795000Y-113981000D03*
%TD*%
D13*
%TO.C,R56*%
X162751000Y-101854000D03*
X164401000Y-101854000D03*
%TD*%
D25*
%TO.C,F4*%
X125247500Y-89408000D03*
X123672500Y-89408000D03*
%TD*%
D13*
%TO.C,R23*%
X141669000Y-112776000D03*
X143319000Y-112776000D03*
%TD*%
D26*
%TO.C,Q5*%
X136840000Y-102474000D03*
X136840000Y-103124000D03*
X136840000Y-103774000D03*
X134940000Y-103774000D03*
X134940000Y-103124000D03*
X134940000Y-102474000D03*
%TD*%
D13*
%TO.C,R70*%
X140145000Y-84582000D03*
X141795000Y-84582000D03*
%TD*%
D22*
%TO.C,R59*%
X167448999Y-101854000D03*
X165798999Y-101854000D03*
%TD*%
D27*
%TO.C,Q21*%
X167582000Y-107569000D03*
D28*
X172932000Y-111379000D03*
X172932000Y-110109000D03*
X172932000Y-108839000D03*
X172932000Y-107569000D03*
D29*
X170942000Y-109474000D03*
D27*
X167582000Y-111379000D03*
X167582000Y-110109000D03*
X167582000Y-108839000D03*
%TD*%
D17*
%TO.C,R31*%
X138430000Y-94679000D03*
X138430000Y-96329000D03*
%TD*%
D30*
%TO.C,R29*%
X136652000Y-106997000D03*
X136652000Y-105347000D03*
%TD*%
D13*
%TO.C,R12*%
X134557000Y-84582000D03*
X136207000Y-84582000D03*
%TD*%
D22*
%TO.C,R60*%
X128587000Y-91427000D03*
X126937000Y-91427000D03*
%TD*%
D25*
%TO.C,F5*%
X125247500Y-102108000D03*
X123672500Y-102108000D03*
%TD*%
D30*
%TO.C,R7*%
X178710599Y-89627001D03*
X178710599Y-87977001D03*
%TD*%
D31*
%TO.C,C9*%
X170185000Y-87594000D03*
X171735000Y-87594000D03*
%TD*%
D12*
%TO.C,C7*%
X163081000Y-91150000D03*
X161531000Y-91150000D03*
%TD*%
D22*
%TO.C,R5*%
X138746999Y-112776000D03*
X137096999Y-112776000D03*
%TD*%
D32*
%TO.C,U5*%
X179734500Y-118071000D03*
D33*
X179197000Y-118146000D03*
D32*
X178659500Y-118071000D03*
X178659500Y-116371000D03*
D33*
X179197000Y-116296000D03*
D32*
X179734500Y-116371000D03*
%TD*%
D34*
%TO.C,Q6*%
X134940000Y-99202000D03*
X134940000Y-98552000D03*
X134940000Y-97902000D03*
X136840000Y-97902000D03*
X136840000Y-98552000D03*
X136840000Y-99202000D03*
%TD*%
D13*
%TO.C,R2*%
X134049000Y-112776000D03*
X135699000Y-112776000D03*
%TD*%
D30*
%TO.C,R19*%
X135636000Y-116141000D03*
X135636000Y-114491000D03*
%TD*%
D35*
%TO.C,D4*%
X130302000Y-94457000D03*
D36*
X130302000Y-95342000D03*
%TD*%
D37*
%TO.C,C8*%
X166116000Y-86337000D03*
X166116000Y-84787000D03*
%TD*%
D21*
%TO.C,F2*%
X143484500Y-106934000D03*
X145059500Y-106934000D03*
%TD*%
D13*
%TO.C,R32*%
X140145000Y-100838000D03*
X141795000Y-100838000D03*
%TD*%
D31*
%TO.C,C2*%
X144767000Y-116078000D03*
X146317000Y-116078000D03*
%TD*%
D22*
%TO.C,R24*%
X146367000Y-114554000D03*
X144717000Y-114554000D03*
%TD*%
D38*
%TO.C,J5*%
X168520000Y-64688000D03*
X168520000Y-66688000D03*
D39*
X174270000Y-62338000D03*
X174270000Y-69038000D03*
%TD*%
D30*
%TO.C,R22*%
X134112000Y-116141000D03*
X134112000Y-114491000D03*
%TD*%
%TO.C,R34*%
X138430000Y-99376999D03*
X138430000Y-97726999D03*
%TD*%
D17*
%TO.C,R38*%
X140208000Y-94679000D03*
X140208000Y-96329000D03*
%TD*%
D30*
%TO.C,R73*%
X145288000Y-78041000D03*
X145288000Y-76391000D03*
%TD*%
D13*
%TO.C,R80*%
X171895000Y-115824000D03*
X173545000Y-115824000D03*
%TD*%
D22*
%TO.C,R33*%
X141795000Y-106934000D03*
X140145000Y-106934000D03*
%TD*%
D40*
%TO.C,Q3*%
X141844000Y-114366000D03*
X142494000Y-114366000D03*
X143144000Y-114366000D03*
X143144000Y-116266000D03*
X142494000Y-116266000D03*
X141844000Y-116266000D03*
%TD*%
D13*
%TO.C,R48*%
X161735000Y-123190000D03*
X163385000Y-123190000D03*
%TD*%
D17*
%TO.C,R4*%
X146304000Y-109411000D03*
X146304000Y-111061000D03*
%TD*%
D25*
%TO.C,F1*%
X165633500Y-111252000D03*
X164058500Y-111252000D03*
%TD*%
D41*
%TO.C,C3*%
X135128000Y-105397000D03*
X135128000Y-106947000D03*
%TD*%
D16*
%TO.C,Q11*%
X167274000Y-100264000D03*
X166624000Y-100264000D03*
X165974000Y-100264000D03*
X165974000Y-98364000D03*
X166624000Y-98364000D03*
X167274000Y-98364000D03*
%TD*%
D30*
%TO.C,R17*%
X138430000Y-106997000D03*
X138430000Y-105347000D03*
%TD*%
D22*
%TO.C,R42*%
X175068999Y-101854000D03*
X173418999Y-101854000D03*
%TD*%
D17*
%TO.C,R69*%
X133096000Y-84519000D03*
X133096000Y-86169000D03*
%TD*%
D13*
%TO.C,R11*%
X136335000Y-84582000D03*
X137985000Y-84582000D03*
%TD*%
D22*
%TO.C,R16*%
X163131000Y-116586000D03*
X161481000Y-116586000D03*
%TD*%
D30*
%TO.C,R46*%
X162813999Y-105219000D03*
X162813999Y-103569000D03*
%TD*%
D42*
%TO.C,R55*%
X163712500Y-58420000D03*
X157787500Y-58420000D03*
%TD*%
D25*
%TO.C,F6*%
X125247500Y-95758000D03*
X123672500Y-95758000D03*
%TD*%
D26*
%TO.C,Q8*%
X141920000Y-102474000D03*
X141920000Y-103124000D03*
X141920000Y-103774000D03*
X140020000Y-103774000D03*
X140020000Y-103124000D03*
X140020000Y-102474000D03*
%TD*%
D22*
%TO.C,R53*%
X128587000Y-104127000D03*
X126937000Y-104127000D03*
%TD*%
D17*
%TO.C,R9*%
X177237399Y-86313801D03*
X177237399Y-87963801D03*
%TD*%
D13*
%TO.C,R64*%
X161481000Y-88102000D03*
X163131000Y-88102000D03*
%TD*%
D43*
%TO.C,C10*%
X169985000Y-85344000D03*
X172935000Y-85344000D03*
%TD*%
D17*
%TO.C,R67*%
X165862000Y-93373000D03*
X165862000Y-95023000D03*
%TD*%
D16*
%TO.C,Q10*%
X167273999Y-105344000D03*
X166623999Y-105344000D03*
X165973999Y-105344000D03*
X165973999Y-103444000D03*
X166623999Y-103444000D03*
X167273999Y-103444000D03*
%TD*%
D22*
%TO.C,R18*%
X136715000Y-100838000D03*
X135065000Y-100838000D03*
%TD*%
D44*
%TO.C,Q13*%
X143334500Y-81722000D03*
X143334500Y-79822000D03*
X145209500Y-80772000D03*
%TD*%
D17*
%TO.C,R8*%
X177237399Y-87964801D03*
X177237399Y-89614801D03*
%TD*%
D35*
%TO.C,D5*%
X130302000Y-100807000D03*
D36*
X130302000Y-101692000D03*
%TD*%
D11*
%TO.C,Q15*%
X128712000Y-95885000D03*
X127762000Y-95885000D03*
X126812000Y-95885000D03*
X126812000Y-93565000D03*
X127762000Y-93565000D03*
X128712000Y-93565000D03*
%TD*%
D45*
%TO.C,J1*%
X179680000Y-120988200D03*
X178680000Y-120988200D03*
X177680000Y-120988200D03*
X176680000Y-120988200D03*
X175680000Y-120988200D03*
X174680000Y-120988200D03*
X173680000Y-120988200D03*
X172680000Y-120988200D03*
X171680000Y-120988200D03*
X170680000Y-120988200D03*
D46*
X182480000Y-123688200D03*
X167880000Y-123688200D03*
%TD*%
D21*
%TO.C,F3*%
X171932500Y-114046000D03*
X173507500Y-114046000D03*
%TD*%
D22*
%TO.C,R20*%
X146367000Y-112776000D03*
X144717000Y-112776000D03*
%TD*%
D13*
%TO.C,R49*%
X169355000Y-93436000D03*
X171005000Y-93436000D03*
%TD*%
D47*
%TO.C,R44*%
X181537500Y-92750000D03*
X187462500Y-92750000D03*
%TD*%
D17*
%TO.C,R54*%
X173482000Y-98489000D03*
X173482000Y-100139000D03*
%TD*%
D35*
%TO.C,D6*%
X130302000Y-88392000D03*
D36*
X130302000Y-89277000D03*
%TD*%
D30*
%TO.C,R6*%
X178710599Y-87963801D03*
X178710599Y-86313801D03*
%TD*%
%TO.C,R57*%
X168910000Y-100139000D03*
X168910000Y-98489000D03*
%TD*%
D17*
%TO.C,R45*%
X168909999Y-103569000D03*
X168909999Y-105219000D03*
%TD*%
D13*
%TO.C,R41*%
X167577000Y-94960000D03*
X169227000Y-94960000D03*
%TD*%
D31*
%TO.C,C6*%
X173468999Y-105156000D03*
X175018999Y-105156000D03*
%TD*%
D35*
%TO.C,D7*%
X136398000Y-78201000D03*
D36*
X136398000Y-79086000D03*
%TD*%
D40*
%TO.C,Q9*%
X170545999Y-103444000D03*
X171195999Y-103444000D03*
X171845999Y-103444000D03*
X171845999Y-105344000D03*
X171195999Y-105344000D03*
X170545999Y-105344000D03*
%TD*%
D34*
%TO.C,Q7*%
X140020000Y-99202000D03*
X140020000Y-98552000D03*
X140020000Y-97902000D03*
X141920000Y-97902000D03*
X141920000Y-98552000D03*
X141920000Y-99202000D03*
%TD*%
D30*
%TO.C,R66*%
X164592000Y-86387000D03*
X164592000Y-84737000D03*
%TD*%
D16*
%TO.C,Q4*%
X138572000Y-116266000D03*
X137922000Y-116266000D03*
X137272000Y-116266000D03*
X137272000Y-114366000D03*
X137922000Y-114366000D03*
X138572000Y-114366000D03*
%TD*%
D37*
%TO.C,C13*%
X141478000Y-89942000D03*
X141478000Y-88392000D03*
%TD*%
D30*
%TO.C,R3*%
X140208000Y-111061000D03*
X140208000Y-109411000D03*
%TD*%
D37*
%TO.C,C4*%
X141732000Y-96279000D03*
X141732000Y-94729000D03*
%TD*%
D17*
%TO.C,R1*%
X144780000Y-109411000D03*
X144780000Y-111061000D03*
%TD*%
D13*
%TO.C,R68*%
X140145000Y-86106000D03*
X141795000Y-86106000D03*
%TD*%
D25*
%TO.C,D8*%
X145059500Y-84582000D03*
X143484500Y-84582000D03*
%TD*%
D17*
%TO.C,R21*%
X140208000Y-114491000D03*
X140208000Y-116141000D03*
%TD*%
D30*
%TO.C,R40*%
X164337999Y-105219000D03*
X164337999Y-103569000D03*
%TD*%
D13*
%TO.C,R37*%
X134557000Y-86106000D03*
X136207000Y-86106000D03*
%TD*%
D21*
%TO.C,D2*%
X161518500Y-113284000D03*
X163093500Y-113284000D03*
%TD*%
D17*
%TO.C,R58*%
X175006000Y-98489000D03*
X175006000Y-100139000D03*
%TD*%
D22*
%TO.C,R81*%
X175323000Y-115824000D03*
X173673000Y-115824000D03*
%TD*%
D23*
%TO.C,J2*%
X152319600Y-71868800D03*
D24*
X150844600Y-70343800D03*
X153794600Y-70343800D03*
%TD*%
D22*
%TO.C,R30*%
X141795000Y-105410000D03*
X140145000Y-105410000D03*
%TD*%
D48*
%TO.C,Q20*%
X167815500Y-114620000D03*
X167815500Y-116520000D03*
X165940500Y-115570000D03*
%TD*%
D30*
%TO.C,R35*%
X169926000Y-116395000D03*
X169926000Y-114745000D03*
%TD*%
D17*
%TO.C,R36*%
X165608000Y-107887000D03*
X165608000Y-109537000D03*
%TD*%
D13*
%TO.C,R15*%
X161481000Y-114935000D03*
X163131000Y-114935000D03*
%TD*%
%TO.C,R27*%
X135065000Y-94742000D03*
X136715000Y-94742000D03*
%TD*%
D22*
%TO.C,R52*%
X175068999Y-103632000D03*
X173418999Y-103632000D03*
%TD*%
D11*
%TO.C,Q19*%
X128712000Y-89539000D03*
X127762000Y-89539000D03*
X126812000Y-89539000D03*
X126812000Y-87219000D03*
X127762000Y-87219000D03*
X128712000Y-87219000D03*
%TD*%
D13*
%TO.C,R51*%
X167577000Y-93436000D03*
X169227000Y-93436000D03*
%TD*%
D40*
%TO.C,Q2*%
X141844000Y-109286000D03*
X142494000Y-109286000D03*
X143144000Y-109286000D03*
X143144000Y-111186000D03*
X142494000Y-111186000D03*
X141844000Y-111186000D03*
%TD*%
D13*
%TO.C,R10*%
X134049000Y-110998000D03*
X135699000Y-110998000D03*
%TD*%
D40*
%TO.C,Q12*%
X170546000Y-98364000D03*
X171196000Y-98364000D03*
X171846000Y-98364000D03*
X171846000Y-100264000D03*
X171196000Y-100264000D03*
X170546000Y-100264000D03*
%TD*%
D27*
%TO.C,Q14*%
X143328500Y-77978000D03*
D28*
X137978500Y-74168000D03*
X137978500Y-75438000D03*
X137978500Y-76708000D03*
X137978500Y-77978000D03*
D29*
X139968500Y-76073000D03*
D27*
X143328500Y-74168000D03*
X143328500Y-75438000D03*
X143328500Y-76708000D03*
%TD*%
D49*
%TO.C,BA1*%
X152000000Y-73955000D03*
X152800000Y-73955000D03*
X152800000Y-75905000D03*
X152000000Y-75905000D03*
%TD*%
D22*
%TO.C,R65*%
X163131000Y-89626000D03*
X161481000Y-89626000D03*
%TD*%
D17*
%TO.C,R28*%
X138430000Y-102299001D03*
X138430000Y-103949001D03*
%TD*%
D12*
%TO.C,C1*%
X135649000Y-109474000D03*
X134099000Y-109474000D03*
%TD*%
D13*
%TO.C,R39*%
X169355000Y-94960000D03*
X171005000Y-94960000D03*
%TD*%
M02*
