%TF.GenerationSoftware,KiCad,Pcbnew,8.0.5*%
%TF.CreationDate,2025-02-27T20:38:44-05:00*%
%TF.ProjectId,Z-,5a2d2e6b-6963-4616-945f-706362585858,rev?*%
%TF.SameCoordinates,Original*%
%TF.FileFunction,Soldermask,Top*%
%TF.FilePolarity,Negative*%
%FSLAX46Y46*%
G04 Gerber Fmt 4.6, Leading zero omitted, Abs format (unit mm)*
G04 Created by KiCad (PCBNEW 8.0.5) date 2025-02-27 20:38:44*
%MOMM*%
%LPD*%
G01*
G04 APERTURE LIST*
G04 Aperture macros list*
%AMRoundRect*
0 Rectangle with rounded corners*
0 $1 Rounding radius*
0 $2 $3 $4 $5 $6 $7 $8 $9 X,Y pos of 4 corners*
0 Add a 4 corners polygon primitive as box body*
4,1,4,$2,$3,$4,$5,$6,$7,$8,$9,$2,$3,0*
0 Add four circle primitives for the rounded corners*
1,1,$1+$1,$2,$3*
1,1,$1+$1,$4,$5*
1,1,$1+$1,$6,$7*
1,1,$1+$1,$8,$9*
0 Add four rect primitives between the rounded corners*
20,1,$1+$1,$2,$3,$4,$5,0*
20,1,$1+$1,$4,$5,$6,$7,0*
20,1,$1+$1,$6,$7,$8,$9,0*
20,1,$1+$1,$8,$9,$2,$3,0*%
G04 Aperture macros list end*
%ADD10C,0.762000*%
%ADD11C,3.800000*%
%ADD12C,5.600000*%
%ADD13C,1.727200*%
%ADD14C,2.200000*%
%ADD15R,2.000000X7.400000*%
%ADD16C,2.000000*%
%ADD17RoundRect,0.200000X-0.275000X0.200000X-0.275000X-0.200000X0.275000X-0.200000X0.275000X0.200000X0*%
%ADD18C,1.500000*%
%ADD19R,0.254000X0.660400*%
%ADD20R,1.447800X0.762000*%
%ADD21RoundRect,0.200000X0.275000X-0.200000X0.275000X0.200000X-0.275000X0.200000X-0.275000X-0.200000X0*%
%ADD22RoundRect,0.200000X0.200000X0.275000X-0.200000X0.275000X-0.200000X-0.275000X0.200000X-0.275000X0*%
%ADD23RoundRect,0.250000X-0.362500X-1.425000X0.362500X-1.425000X0.362500X1.425000X-0.362500X1.425000X0*%
%ADD24RoundRect,0.225000X0.250000X-0.225000X0.250000X0.225000X-0.250000X0.225000X-0.250000X-0.225000X0*%
G04 APERTURE END LIST*
D10*
%TO.C,H2*%
X106520000Y-75860000D03*
X104964250Y-75215750D03*
X108075750Y-75215750D03*
X104320000Y-73660000D03*
D11*
X106520000Y-73660000D03*
D12*
X106520000Y-73660000D03*
D10*
X108720000Y-73660000D03*
X104964250Y-72104250D03*
X108075750Y-72104250D03*
X106520000Y-71460000D03*
%TD*%
D13*
%TO.C,AE3*%
X152319600Y-119046599D03*
%TD*%
D14*
%TO.C,AE2*%
X139279600Y-81585000D03*
D15*
X149779600Y-81585000D03*
%TD*%
D16*
%TO.C,H9*%
X160147000Y-70787000D03*
%TD*%
D17*
%TO.C,R72*%
X154940000Y-62675000D03*
X154940000Y-64325000D03*
%TD*%
D16*
%TO.C,H10*%
X160147000Y-75057000D03*
%TD*%
D14*
%TO.C,AE1*%
X165359599Y-81585000D03*
D15*
X154859599Y-81585000D03*
%TD*%
D18*
%TO.C,JP3*%
X152319600Y-86450000D03*
X152319600Y-85050000D03*
X152319600Y-80050000D03*
X152319600Y-78650000D03*
%TD*%
D10*
%TO.C,H8*%
X130320000Y-143660000D03*
X128764250Y-143015750D03*
X131875750Y-143015750D03*
X128120000Y-141460000D03*
D11*
X130320000Y-141460000D03*
D12*
X130320000Y-141460000D03*
D10*
X132520000Y-141460000D03*
X128764250Y-139904250D03*
X131875750Y-139904250D03*
X130320000Y-139260000D03*
%TD*%
%TO.C,H5*%
X198120000Y-75860000D03*
X196564250Y-75215750D03*
X199675750Y-75215750D03*
X195920000Y-73660000D03*
D11*
X198120000Y-73660000D03*
D12*
X198120000Y-73660000D03*
D10*
X200320000Y-73660000D03*
X196564250Y-72104250D03*
X199675750Y-72104250D03*
X198120000Y-71460000D03*
%TD*%
%TO.C,H7*%
X174320000Y-143660000D03*
X172764250Y-143015750D03*
X175875750Y-143015750D03*
X172120000Y-141460000D03*
D11*
X174320000Y-141460000D03*
D12*
X174320000Y-141460000D03*
D10*
X176520000Y-141460000D03*
X172764250Y-139904250D03*
X175875750Y-139904250D03*
X174320000Y-139260000D03*
%TD*%
D19*
%TO.C,U1*%
X151668721Y-64579500D03*
X152318720Y-64579500D03*
X152968719Y-64579500D03*
X152968719Y-62522100D03*
X152318720Y-62522100D03*
X151668721Y-62522100D03*
D20*
X152318720Y-63550800D03*
%TD*%
D21*
%TO.C,R71*%
X149860000Y-64325000D03*
X149860000Y-62675000D03*
%TD*%
D22*
%TO.C,R26*%
X153225000Y-67564000D03*
X151575000Y-67564000D03*
%TD*%
%TO.C,R25*%
X153225000Y-66040000D03*
X151575000Y-66040000D03*
%TD*%
D18*
%TO.C,JP1*%
X115062880Y-99559140D03*
X115062880Y-98159140D03*
X115062880Y-93159140D03*
X115062880Y-91759140D03*
%TD*%
D10*
%TO.C,H4*%
X174320000Y-52060000D03*
X172764250Y-51415750D03*
X175875750Y-51415750D03*
X172120000Y-49860000D03*
D11*
X174320000Y-49860000D03*
D12*
X174320000Y-49860000D03*
D10*
X176520000Y-49860000D03*
X172764250Y-48304250D03*
X175875750Y-48304250D03*
X174320000Y-47660000D03*
%TD*%
D23*
%TO.C,R61*%
X149357100Y-74422000D03*
X155282100Y-74422000D03*
%TD*%
D10*
%TO.C,H3*%
X130320000Y-52060000D03*
X128764250Y-51415750D03*
X131875750Y-51415750D03*
X128120000Y-49860000D03*
D11*
X130320000Y-49860000D03*
D12*
X130320000Y-49860000D03*
D10*
X132520000Y-49860000D03*
X128764250Y-48304250D03*
X131875750Y-48304250D03*
X130320000Y-47660000D03*
%TD*%
D18*
%TO.C,JP5*%
X148419600Y-58402420D03*
X149819600Y-58402420D03*
X154819600Y-58402420D03*
X156219600Y-58402420D03*
%TD*%
D24*
%TO.C,C5*%
X149860000Y-67627800D03*
X149860000Y-66077800D03*
%TD*%
D10*
%TO.C,H1*%
X106520000Y-119860000D03*
X104964250Y-119215750D03*
X108075750Y-119215750D03*
X104320000Y-117660000D03*
D11*
X106520000Y-117660000D03*
D12*
X106520000Y-117660000D03*
D10*
X108720000Y-117660000D03*
X104964250Y-116104250D03*
X108075750Y-116104250D03*
X106520000Y-115460000D03*
%TD*%
%TO.C,H6*%
X198120000Y-119860000D03*
X196564250Y-119215750D03*
X199675750Y-119215750D03*
X195920000Y-117660000D03*
D11*
X198120000Y-117660000D03*
D12*
X198120000Y-117660000D03*
D10*
X200320000Y-117660000D03*
X196564250Y-116104250D03*
X199675750Y-116104250D03*
X198120000Y-115460000D03*
%TD*%
D18*
%TO.C,JP2*%
X149820860Y-132916721D03*
X148420860Y-132916721D03*
X156220860Y-132916721D03*
X154820860Y-132916721D03*
%TD*%
%TO.C,JP4*%
X189577580Y-98160000D03*
X189577580Y-99560000D03*
X189577580Y-91760000D03*
X189577580Y-93160000D03*
%TD*%
M02*
