%TF.GenerationSoftware,KiCad,Pcbnew,8.0.5*%
%TF.CreationDate,2025-02-27T20:38:43-05:00*%
%TF.ProjectId,Z-,5a2d2e6b-6963-4616-945f-706362585858,rev?*%
%TF.SameCoordinates,Original*%
%TF.FileFunction,Copper,L3,Inr*%
%TF.FilePolarity,Positive*%
%FSLAX46Y46*%
G04 Gerber Fmt 4.6, Leading zero omitted, Abs format (unit mm)*
G04 Created by KiCad (PCBNEW 8.0.5) date 2025-02-27 20:38:43*
%MOMM*%
%LPD*%
G01*
G04 APERTURE LIST*
%TA.AperFunction,ComponentPad*%
%ADD10C,0.762000*%
%TD*%
%TA.AperFunction,ComponentPad*%
%ADD11C,3.800000*%
%TD*%
%TA.AperFunction,ComponentPad*%
%ADD12C,1.727200*%
%TD*%
%TA.AperFunction,ComponentPad*%
%ADD13C,2.000000*%
%TD*%
%TA.AperFunction,ComponentPad*%
%ADD14C,1.500000*%
%TD*%
%TA.AperFunction,ViaPad*%
%ADD15C,0.508000*%
%TD*%
%TA.AperFunction,ViaPad*%
%ADD16C,0.609600*%
%TD*%
%TA.AperFunction,Conductor*%
%ADD17C,0.360680*%
%TD*%
%TA.AperFunction,Conductor*%
%ADD18C,0.381000*%
%TD*%
%TA.AperFunction,Conductor*%
%ADD19C,0.254000*%
%TD*%
G04 APERTURE END LIST*
D10*
%TO.N,GND*%
%TO.C,H2*%
X106520000Y-75860000D03*
X104964250Y-75215750D03*
X108075750Y-75215750D03*
X104320000Y-73660000D03*
D11*
X106520000Y-73660000D03*
D10*
X108720000Y-73660000D03*
X104964250Y-72104250D03*
X108075750Y-72104250D03*
X106520000Y-71460000D03*
%TD*%
D12*
%TO.N,Net-(AE3-A)*%
%TO.C,AE3*%
X152319600Y-119046599D03*
%TD*%
D13*
%TO.N,VBATT*%
%TO.C,H9*%
X160147000Y-70787000D03*
%TD*%
%TO.N,GND*%
%TO.C,H10*%
X160147000Y-75057000D03*
%TD*%
D14*
%TO.N,/Burn Wires/VBURN3*%
%TO.C,JP3*%
X152319600Y-86450000D03*
X152319600Y-85050000D03*
%TO.N,Net-(JP3-B)*%
X152319600Y-80050000D03*
X152319600Y-78650000D03*
%TD*%
D10*
%TO.N,GND*%
%TO.C,H8*%
X130320000Y-143660000D03*
X128764250Y-143015750D03*
X131875750Y-143015750D03*
X128120000Y-141460000D03*
D11*
X130320000Y-141460000D03*
D10*
X132520000Y-141460000D03*
X128764250Y-139904250D03*
X131875750Y-139904250D03*
X130320000Y-139260000D03*
%TD*%
%TO.N,GND*%
%TO.C,H5*%
X198120000Y-75860000D03*
X196564250Y-75215750D03*
X199675750Y-75215750D03*
X195920000Y-73660000D03*
D11*
X198120000Y-73660000D03*
D10*
X200320000Y-73660000D03*
X196564250Y-72104250D03*
X199675750Y-72104250D03*
X198120000Y-71460000D03*
%TD*%
%TO.N,GND*%
%TO.C,H7*%
X174320000Y-143660000D03*
X172764250Y-143015750D03*
X175875750Y-143015750D03*
X172120000Y-141460000D03*
D11*
X174320000Y-141460000D03*
D10*
X176520000Y-141460000D03*
X172764250Y-139904250D03*
X175875750Y-139904250D03*
X174320000Y-139260000D03*
%TD*%
D14*
%TO.N,/Burn Wires/VBURN1*%
%TO.C,JP1*%
X115062880Y-99559140D03*
X115062880Y-98159140D03*
%TO.N,Net-(JP1-B)*%
X115062880Y-93159140D03*
X115062880Y-91759140D03*
%TD*%
D10*
%TO.N,GND*%
%TO.C,H4*%
X174320000Y-52060000D03*
X172764250Y-51415750D03*
X175875750Y-51415750D03*
X172120000Y-49860000D03*
D11*
X174320000Y-49860000D03*
D10*
X176520000Y-49860000D03*
X172764250Y-48304250D03*
X175875750Y-48304250D03*
X174320000Y-47660000D03*
%TD*%
%TO.N,GND*%
%TO.C,H3*%
X130320000Y-52060000D03*
X128764250Y-51415750D03*
X131875750Y-51415750D03*
X128120000Y-49860000D03*
D11*
X130320000Y-49860000D03*
D10*
X132520000Y-49860000D03*
X128764250Y-48304250D03*
X131875750Y-48304250D03*
X130320000Y-47660000D03*
%TD*%
D14*
%TO.N,Net-(JP2-B)*%
%TO.C,JP5*%
X148419600Y-58402420D03*
X149819600Y-58402420D03*
%TO.N,Net-(JP5-B)*%
X154819600Y-58402420D03*
X156219600Y-58402420D03*
%TD*%
D10*
%TO.N,GND*%
%TO.C,H1*%
X106520000Y-119860000D03*
X104964250Y-119215750D03*
X108075750Y-119215750D03*
X104320000Y-117660000D03*
D11*
X106520000Y-117660000D03*
D10*
X108720000Y-117660000D03*
X104964250Y-116104250D03*
X108075750Y-116104250D03*
X106520000Y-115460000D03*
%TD*%
%TO.N,GND*%
%TO.C,H6*%
X198120000Y-119860000D03*
X196564250Y-119215750D03*
X199675750Y-119215750D03*
X195920000Y-117660000D03*
D11*
X198120000Y-117660000D03*
D10*
X200320000Y-117660000D03*
X196564250Y-116104250D03*
X199675750Y-116104250D03*
X198120000Y-115460000D03*
%TD*%
D14*
%TO.N,/Burn Wires/VBURN2*%
%TO.C,JP2*%
X149820860Y-132916721D03*
X148420860Y-132916721D03*
%TO.N,Net-(JP2-B)*%
X156220860Y-132916721D03*
X154820860Y-132916721D03*
%TD*%
%TO.N,Net-(JP1-B)*%
%TO.C,JP4*%
X189577580Y-98160000D03*
X189577580Y-99560000D03*
%TO.N,Net-(JP4-B)*%
X189577580Y-91760000D03*
X189577580Y-93160000D03*
%TD*%
D15*
%TO.N,GND*%
X172212000Y-118618000D03*
X172720000Y-117856000D03*
X153162000Y-121539000D03*
X176022000Y-91059000D03*
X163322000Y-70739000D03*
X163322000Y-75819000D03*
X148082000Y-83439000D03*
X163322000Y-106299000D03*
X143002000Y-85979000D03*
X132842000Y-103759000D03*
D16*
X156718000Y-69088000D03*
D15*
X155702000Y-70739000D03*
X165862000Y-75819000D03*
D16*
X129667000Y-74930000D03*
D15*
X176022000Y-96139000D03*
X178562000Y-101219000D03*
X148082000Y-80899000D03*
X148082000Y-111379000D03*
X127762000Y-85979000D03*
X155702000Y-113919000D03*
X132842000Y-80899000D03*
X148082000Y-75819000D03*
X155702000Y-103759000D03*
X158242000Y-73279000D03*
X166624000Y-99314000D03*
X155702000Y-85979000D03*
X130302000Y-96012000D03*
X160782000Y-96139000D03*
X168402000Y-75819000D03*
X173482000Y-78359000D03*
X130302000Y-106299000D03*
X165862000Y-83439000D03*
X168402000Y-73279000D03*
X130302000Y-102362000D03*
X148082000Y-118999000D03*
X143002000Y-58039000D03*
X155702000Y-118999000D03*
X158242000Y-80899000D03*
X160782000Y-98679000D03*
X130302000Y-83439000D03*
X167894000Y-90424000D03*
X170942000Y-80899000D03*
X155702000Y-111379000D03*
X160782000Y-85979000D03*
X163322000Y-93599000D03*
X158242000Y-106299000D03*
X143002000Y-121539000D03*
X163322000Y-80899000D03*
X148082000Y-121539000D03*
X150622000Y-121539000D03*
X148082000Y-103759000D03*
X158242000Y-88519000D03*
X160782000Y-103759000D03*
X143002000Y-118999000D03*
X160782000Y-101219000D03*
X158242000Y-108839000D03*
X153162000Y-111379000D03*
X155702000Y-106299000D03*
X173482000Y-75819000D03*
X163322000Y-96139000D03*
X142494000Y-115316000D03*
X168402000Y-80899000D03*
X170942000Y-75819000D03*
X134557000Y-86106000D03*
X158242000Y-78359000D03*
X145542000Y-85979000D03*
X178562000Y-103759000D03*
X132842000Y-106299000D03*
X145542000Y-121539000D03*
X148082000Y-70739000D03*
X163322000Y-83439000D03*
X176022000Y-93599000D03*
X148082000Y-85979000D03*
X135890000Y-103124000D03*
X160782000Y-80899000D03*
X130302000Y-89916000D03*
X165862000Y-78359000D03*
X158242000Y-103759000D03*
X165862000Y-73279000D03*
X148082000Y-73279000D03*
X148082000Y-108839000D03*
X153162000Y-108839000D03*
X158242000Y-83439000D03*
X145542000Y-118999000D03*
X137922000Y-110236000D03*
X173482000Y-80899000D03*
X167894000Y-89408000D03*
X145542000Y-58039000D03*
X160782000Y-106299000D03*
X155702000Y-121539000D03*
X163322000Y-85979000D03*
X176092999Y-103759000D03*
X115062000Y-88519000D03*
X158242000Y-75819000D03*
X170942000Y-78359000D03*
X160782000Y-78359000D03*
X163322000Y-78359000D03*
X170942000Y-73279000D03*
X130302000Y-98679000D03*
X166878000Y-90424000D03*
X166878000Y-89408000D03*
X148082000Y-78359000D03*
X168402000Y-78359000D03*
X158242000Y-70739000D03*
X176022000Y-85979000D03*
X130302000Y-80899000D03*
X140970000Y-98552000D03*
X178562000Y-96139000D03*
X115062000Y-85979000D03*
X137922000Y-118999000D03*
X160782000Y-93599000D03*
X158242000Y-85979000D03*
X150622000Y-108839000D03*
X163322000Y-108839000D03*
X132842000Y-111379000D03*
X132842000Y-108839000D03*
X171195999Y-104394000D03*
X173482000Y-73279000D03*
X160782000Y-108839000D03*
X150622000Y-118999000D03*
X160782000Y-83439000D03*
X178562000Y-98679000D03*
X140462000Y-118999000D03*
X135382000Y-91059000D03*
X150622000Y-111379000D03*
X130302000Y-108839000D03*
X150622000Y-85979000D03*
X145542000Y-101219000D03*
X163322000Y-73279000D03*
X130302000Y-111379000D03*
D16*
%TO.N,/coil*%
X177926599Y-85103001D03*
X177939300Y-90995801D03*
X200637200Y-86334798D03*
%TO.N,Net-(AE1-Pad1)*%
X154859599Y-81585000D03*
%TO.N,Net-(AE2-Pad1)*%
X149779600Y-81585000D03*
D15*
%TO.N,LS_3V3*%
X134049000Y-112776000D03*
D16*
X149098000Y-68834000D03*
D15*
X146367000Y-112776000D03*
X171932500Y-114046000D03*
X140208000Y-112776000D03*
%TO.N,BW_3V3*%
X138430000Y-94679000D03*
X138430000Y-100838000D03*
X138430000Y-106997000D03*
%TO.N,SDA*%
X175514000Y-114554000D03*
X168913999Y-98485000D03*
X141795000Y-100838000D03*
X140208000Y-109411000D03*
%TO.N,SCL*%
X168909999Y-105219000D03*
X135065000Y-100838000D03*
X175514000Y-112522000D03*
X140208000Y-116141000D03*
D16*
%TO.N,/Burn Wires/VBURN1*%
X128778000Y-94742000D03*
X127635000Y-94742000D03*
%TO.N,/Burn Wires/VBURN2*%
X128651000Y-101092000D03*
X127762000Y-101092000D03*
%TO.N,/Burn Wires/VBURN3*%
X128651000Y-88392000D03*
X127762000Y-88392000D03*
D15*
%TO.N,SCL_LS*%
X140208000Y-114491000D03*
%TO.N,SCL_M*%
X164317680Y-91184481D03*
X168909999Y-103569000D03*
%TO.N,SDA_LS*%
X140208000Y-111061000D03*
%TO.N,SDA_M*%
X165100000Y-91186000D03*
X168949499Y-100178500D03*
%TO.N,SCL_IO*%
X136715000Y-100838000D03*
X135636000Y-89916000D03*
%TO.N,PERI_3V3*%
X173482000Y-112776000D03*
X145059500Y-106934000D03*
X137985000Y-86106000D03*
%TO.N,SDA_IO*%
X140145000Y-100838000D03*
X136398000Y-89916000D03*
%TO.N,MAIN_3V3*%
X162751000Y-101854000D03*
X161481000Y-88102000D03*
X171005000Y-94234000D03*
X167640000Y-84737000D03*
X168910000Y-101854000D03*
X175514000Y-113538000D03*
X175068999Y-101854000D03*
%TO.N,/I2C Devices/VM*%
X169926000Y-108458000D03*
X168910000Y-83058000D03*
X168910000Y-86106000D03*
X171958000Y-108458000D03*
X169926000Y-110490000D03*
X171958000Y-110490000D03*
X168910000Y-84582000D03*
%TO.N,COIL_DRIVER_EN*%
X161481000Y-118110000D03*
X160528000Y-122428000D03*
%TO.N,Net-(Q20-D)*%
X165940500Y-114632500D03*
X166624000Y-107696000D03*
%TD*%
D17*
%TO.N,/coil*%
X191435140Y-120446998D02*
X197200940Y-126212798D01*
X111171140Y-119583398D02*
X111171140Y-115722598D01*
X189199940Y-126873198D02*
X189199940Y-126898598D01*
X190419140Y-129286198D02*
X185948740Y-133756598D01*
X164537000Y-128854400D02*
X167762340Y-125629060D01*
X169972140Y-60629998D02*
X178785941Y-60629998D01*
X112085540Y-47726798D02*
X123058340Y-47726798D01*
X172842340Y-53517998D02*
X175839540Y-53517998D01*
X106421340Y-109524998D02*
X106421340Y-81762798D01*
X106421340Y-133858198D02*
X106421340Y-125755598D01*
X191536740Y-59486998D02*
X196184941Y-59486998D01*
X168194140Y-126645060D02*
X168194140Y-126644597D01*
X118257740Y-64389198D02*
X121356540Y-67487998D01*
X176880940Y-56057998D02*
X182672140Y-50266798D01*
X178735140Y-109702798D02*
X181961400Y-106476537D01*
X118181540Y-53822798D02*
X120619940Y-53822798D01*
X185847140Y-112598398D02*
X185847141Y-122783798D01*
X106929340Y-65354398D02*
X106929340Y-57962998D01*
X124683940Y-63677998D02*
X121102540Y-60096598D01*
X141016600Y-64490800D02*
X137765403Y-67741998D01*
X125903140Y-130708598D02*
X120137339Y-136474398D01*
X194660940Y-90119398D02*
X194660940Y-108051798D01*
X167228940Y-67233540D02*
X163978200Y-63982800D01*
X134793139Y-60629998D02*
X140584340Y-54838798D01*
X113025340Y-106832598D02*
X113025339Y-84429798D01*
X125928540Y-69265998D02*
X125928540Y-81560060D01*
X183307602Y-111556999D02*
X186533400Y-108331200D01*
X124912540Y-63169998D02*
X121102540Y-59359998D01*
X187955340Y-139014398D02*
X183510340Y-139014398D01*
X183535740Y-132537398D02*
X179674940Y-128676598D01*
X168321141Y-64693998D02*
X168321140Y-64693541D01*
X167101940Y-124104598D02*
X180767140Y-124104599D01*
X184831140Y-123240998D02*
X184831140Y-112191997D01*
X117521140Y-126873198D02*
X121102540Y-130454598D01*
X195676940Y-126822398D02*
X195676940Y-131318198D01*
X110993340Y-62026998D02*
X114117540Y-62026998D01*
X121229540Y-139014398D02*
X116657540Y-139014398D01*
X139187342Y-130886400D02*
X165375200Y-130886400D01*
X187371140Y-78079798D02*
X187371600Y-78079798D01*
X179751140Y-81356398D02*
X179751140Y-68249998D01*
X171521540Y-134772598D02*
X165755739Y-140538398D01*
X198724940Y-56946998D02*
X198724940Y-65786198D01*
X199919200Y-87503198D02*
X200248940Y-87832938D01*
X175839540Y-53517998D02*
X181630740Y-47726798D01*
X191791200Y-90881858D02*
X192120940Y-91211598D01*
X120848540Y-79502660D02*
X117597340Y-82753860D01*
X177719140Y-70281998D02*
X165984340Y-70281998D01*
X170988140Y-58089998D02*
X177719140Y-58089998D01*
X189784140Y-127762197D02*
X184424739Y-133121598D01*
X116784540Y-77800398D02*
X116784540Y-69443798D01*
X114117540Y-49758798D02*
X122245540Y-49758798D01*
X194152940Y-63906599D02*
X188387140Y-69672398D01*
X185009400Y-82956598D02*
X182291600Y-80238798D01*
X121839140Y-140538398D02*
X115133540Y-140538399D01*
X185847140Y-78714798D02*
X190775200Y-83642858D01*
X113507940Y-60502998D02*
X117165540Y-56845398D01*
X117673540Y-57048598D02*
X117673540Y-53314798D01*
X136165198Y-127152599D02*
X139390999Y-130378400D01*
X118791140Y-112598398D02*
X113025340Y-106832598D01*
X135758798Y-128168598D02*
X138984600Y-131394400D01*
X177134940Y-134772598D02*
X171521540Y-134772598D01*
X115133540Y-50774798D02*
X121839140Y-50774798D01*
X165476800Y-60426800D02*
X139339738Y-60426800D01*
X193644940Y-127660598D02*
X193644940Y-129286198D01*
X176474540Y-55041998D02*
X182265740Y-49250798D01*
X180945400Y-84683800D02*
X178227600Y-81966000D01*
X109977340Y-127228798D02*
X115743140Y-121462998D01*
X137968140Y-68249998D02*
X124912540Y-68249998D01*
X119121340Y-83363460D02*
X119121339Y-107873540D01*
X164511140Y-137490398D02*
X140076340Y-137490398D01*
X142464400Y-68072200D02*
X139238602Y-71297998D01*
X183815140Y-79603798D02*
X183815140Y-67767398D01*
X189911140Y-76987598D02*
X195676940Y-82753398D01*
X183561140Y-127508198D02*
X184170740Y-126898598D01*
X114117540Y-135661598D02*
X112314140Y-133858198D01*
X118689540Y-57454998D02*
X118689540Y-54330798D01*
X185339140Y-78943398D02*
X185339600Y-78943397D01*
X105405340Y-65989398D02*
X105405340Y-56438998D01*
X107437340Y-132842198D02*
X107437340Y-126187398D01*
X192552740Y-136499798D02*
X192552740Y-143586398D01*
X187879140Y-121894799D02*
X193644940Y-127660598D01*
X134081940Y-132232598D02*
X126563540Y-132232599D01*
X141320940Y-134442399D02*
X135555140Y-128676598D01*
X187066340Y-126898598D02*
X183815140Y-123647398D01*
X109977340Y-108077198D02*
X109977340Y-83185198D01*
X113203140Y-120421598D02*
X113203140Y-114884398D01*
X119197540Y-54838798D02*
X120188140Y-54838798D01*
X121153339Y-107035340D02*
X124379140Y-110261141D01*
X128849540Y-53517998D02*
X131795940Y-53517999D01*
X187472740Y-134366198D02*
X187472740Y-138506398D01*
X177211139Y-109093198D02*
X180437400Y-105866938D01*
X114625540Y-50266798D02*
X122042340Y-50266798D01*
X180309940Y-127152598D02*
X183561140Y-130403798D01*
X178785941Y-60629998D02*
X184577140Y-54838798D01*
X192755940Y-134874198D02*
X191536740Y-136093398D01*
X196692940Y-82346998D02*
X196692940Y-83465058D01*
X116276540Y-77597198D02*
X116276540Y-69672397D01*
X123566340Y-125120599D02*
X137003397Y-125120598D01*
X132253140Y-136804598D02*
X128417740Y-136804598D01*
X190038140Y-63042998D02*
X192628940Y-63042998D01*
X193467140Y-75565198D02*
X199232940Y-81330999D01*
X193644940Y-62026998D02*
X193644940Y-63677998D01*
X119680140Y-64389198D02*
X122372540Y-67081598D01*
X123896540Y-80721860D02*
X120645341Y-83973060D01*
X182799600Y-67336058D02*
X182799140Y-67335598D01*
X109977340Y-61010998D02*
X113711140Y-61010998D01*
X170784940Y-58597998D02*
X177922340Y-58597998D01*
X139314340Y-51790798D02*
X165400140Y-51790798D01*
X182291140Y-124307798D02*
X182291140Y-111125198D01*
X180767140Y-124104599D02*
X180767141Y-110515598D01*
X103883880Y-80718858D02*
X109672540Y-74930198D01*
X117673540Y-53314798D02*
X120823140Y-53314798D01*
X136571598Y-126136598D02*
X139797400Y-129362400D01*
X113609540Y-135864798D02*
X112110940Y-134366198D01*
X138018940Y-48742798D02*
X166644740Y-48742798D01*
X126944540Y-70281998D02*
X126944540Y-81965998D01*
X139390999Y-130378400D02*
X165171538Y-130378400D01*
X197708940Y-88874798D02*
X197708940Y-109321798D01*
X115641540Y-140030398D02*
X115641540Y-135026598D01*
X185948740Y-54330798D02*
X185948740Y-57505798D01*
X172588340Y-137312598D02*
X166822540Y-143078398D01*
X122651940Y-142570398D02*
X113101540Y-142570399D01*
X185847141Y-122783798D02*
X190317540Y-127254198D01*
X133523140Y-57581998D02*
X139314340Y-51790798D01*
X114752540Y-76987598D02*
X114752540Y-70332798D01*
X184932740Y-135966398D02*
X184805740Y-135966398D01*
X132456340Y-136296598D02*
X128214540Y-136296598D01*
X196692940Y-64973398D02*
X190927140Y-70739197D01*
X135656740Y-62661998D02*
X141447940Y-56870798D01*
X122169340Y-106578140D02*
X125395140Y-109803940D01*
X186964741Y-134162998D02*
X186964740Y-137972998D01*
X128417740Y-136804598D02*
X122651940Y-142570398D01*
X181783599Y-66929657D02*
X181783140Y-66929198D01*
X171089740Y-133756598D02*
X165323940Y-139522398D01*
X193975140Y-119380198D02*
X199740940Y-125145998D01*
X190419140Y-70535998D02*
X190419140Y-76784398D01*
X191028740Y-49250798D02*
X191028741Y-55422998D01*
X108453340Y-126619198D02*
X114219140Y-120853398D01*
X164714340Y-137998398D02*
X139847740Y-137998398D01*
X121102540Y-129032198D02*
X123998140Y-126136598D01*
X113711140Y-114681198D02*
X107945340Y-108915398D01*
X182062540Y-48742798D02*
X191536740Y-48742798D01*
X187472740Y-138506398D02*
X183713540Y-138506399D01*
X195676940Y-108458198D02*
X189911140Y-114223998D01*
X195168940Y-64338398D02*
X189403140Y-70104198D01*
X113609540Y-142062398D02*
X113609540Y-135864798D01*
X178836740Y-130708598D02*
X169845140Y-130708598D01*
X197887200Y-88316458D02*
X198216940Y-88646199D01*
X113736540Y-76581198D02*
X113736540Y-70739198D01*
X108453340Y-64744798D02*
X108453340Y-59486998D01*
X179903540Y-63169998D02*
X168956140Y-63169998D01*
X120416740Y-64389198D02*
X122880540Y-66852998D01*
X196692940Y-89281198D02*
X196692940Y-108889998D01*
X181961400Y-84277858D02*
X179243140Y-81559598D01*
X103883880Y-124711657D02*
X109647140Y-118948398D01*
X184424739Y-133121598D02*
X184424740Y-134848798D01*
X191104940Y-106629398D02*
X185339140Y-112395198D01*
X165755739Y-140538398D02*
X138831739Y-140538398D01*
X132024540Y-54025997D02*
X137815739Y-48234798D01*
X186863140Y-122326598D02*
X192628940Y-128092398D01*
X199232940Y-109931398D02*
X193467140Y-115697198D01*
X176042740Y-137312598D02*
X172588340Y-137312598D01*
X138831739Y-140538398D02*
X133065940Y-134772598D01*
X167228940Y-67233998D02*
X167228940Y-67233540D01*
X124810940Y-128168598D02*
X135758798Y-128168598D01*
X170581740Y-59105998D02*
X178125540Y-59105998D01*
X120391340Y-126847797D02*
X120391340Y-126873198D01*
X119705540Y-133375598D02*
X114600140Y-128270198D01*
X193823200Y-83489998D02*
X193823200Y-90018258D01*
X134310540Y-131724598D02*
X126334940Y-131724598D01*
X112085540Y-136499799D02*
X111475940Y-135890198D01*
X125395140Y-122580597D02*
X138044340Y-122580597D01*
X110485340Y-61518998D02*
X113914339Y-61518998D01*
X198395199Y-85369598D02*
X198395200Y-88113258D01*
X182799598Y-80010197D02*
X182799140Y-80010197D01*
X194331200Y-83693198D02*
X194331200Y-89789658D01*
X186456740Y-137490398D02*
X184145340Y-137490398D01*
X167762340Y-125629060D02*
X167762340Y-125628598D01*
X187549400Y-108737600D02*
X187549401Y-81890258D01*
X183307140Y-123875998D02*
X183307140Y-111556998D01*
X111583880Y-144095258D02*
X111583880Y-136724083D01*
X120315140Y-123367998D02*
X116809940Y-126873198D01*
X138018940Y-142570398D02*
X132253140Y-136804598D01*
X120619940Y-53822798D02*
X126411140Y-59613998D01*
X180259139Y-81153198D02*
X180259140Y-67741998D01*
X179751140Y-110109198D02*
X179751602Y-110109198D01*
X183993399Y-107289800D02*
X183993400Y-83414258D01*
X103883880Y-54917938D02*
X111255055Y-54917938D01*
X169235540Y-129184599D02*
X163469740Y-134950398D01*
X115768540Y-69875598D02*
X109977340Y-64084398D01*
X137587140Y-47726798D02*
X167051140Y-47726798D01*
X184323598Y-79375198D02*
X184323601Y-79375198D01*
X125420542Y-68758000D02*
X125420539Y-68757998D01*
X198724940Y-134366198D02*
X192552740Y-134366198D01*
X181275140Y-66725998D02*
X167457540Y-66725998D01*
X192451140Y-120040598D02*
X198216940Y-125806398D01*
X120721540Y-132943798D02*
X115031940Y-127254198D01*
X183586540Y-60223598D02*
X180132140Y-63677998D01*
X200248940Y-80924598D02*
X200248940Y-84963659D01*
X114117540Y-141554399D02*
X114117540Y-135661598D01*
X165070400Y-61442800D02*
X139746138Y-61442800D01*
X107945340Y-64947998D02*
X107945340Y-58978998D01*
X105405340Y-81356398D02*
X111196540Y-75565198D01*
X185948740Y-57505798D02*
X190469940Y-62026998D01*
X198216940Y-109524999D02*
X192451140Y-115290798D01*
X125268140Y-129184598D02*
X120721540Y-133731198D01*
X192349540Y-57454998D02*
X198216940Y-57454999D01*
X192044740Y-143078398D02*
X181808540Y-143078398D01*
X190698540Y-61518998D02*
X194152941Y-61518998D01*
X169362540Y-62153998D02*
X179471740Y-62153998D01*
X126919140Y-121056598D02*
X138730598Y-121056598D01*
X186964740Y-53314798D02*
X186964740Y-57073998D01*
X165882740Y-121056598D02*
X177719140Y-121056598D01*
X103883880Y-110594338D02*
X103883880Y-80718858D01*
X125420539Y-68757998D02*
X125420540Y-81356860D01*
X138374540Y-69265998D02*
X125928540Y-69265998D01*
X198216940Y-125806398D02*
X198216940Y-133858198D01*
X191536740Y-48742798D02*
X191536740Y-55219798D01*
X116657540Y-56642198D02*
X116657540Y-52298798D01*
X168397341Y-127152598D02*
X180309940Y-127152598D01*
X120848540Y-67691198D02*
X120848540Y-79502660D01*
X191028741Y-55422998D02*
X192552740Y-56946998D01*
X198216940Y-133858198D02*
X192324140Y-133858198D01*
X122169340Y-84608060D02*
X122169340Y-106578140D01*
X139746140Y-52806798D02*
X164993740Y-52806798D01*
X127427140Y-57073998D02*
X133319940Y-57073998D01*
X183916740Y-58343998D02*
X189631740Y-64058998D01*
X117673540Y-134213798D02*
X113761940Y-130302198D01*
X172435940Y-54533999D02*
X176271340Y-54533998D01*
X163368140Y-56870798D02*
X169159340Y-62661999D01*
X128620939Y-137312598D02*
X122855140Y-143078398D01*
X191943139Y-58470998D02*
X197200941Y-58470998D01*
X127935140Y-108712198D02*
X127935140Y-120040598D01*
X178227600Y-81965998D02*
X178227140Y-81965998D01*
X122448740Y-142062398D02*
X113609540Y-142062398D01*
X193644940Y-129286198D02*
X190419140Y-129286198D01*
X112695140Y-58470998D02*
X115133540Y-56032598D01*
X122448740Y-49250798D02*
X128239940Y-55041998D01*
X181783598Y-80467398D02*
X181783599Y-80467398D01*
X126817541Y-58597998D02*
X133954940Y-58597999D01*
X200248940Y-55422999D02*
X200248940Y-66395798D01*
X115743140Y-113842998D02*
X109977340Y-108077198D01*
X119121339Y-107873540D02*
X122347139Y-111099340D01*
X167051140Y-143586398D02*
X137612540Y-143586398D01*
X175839540Y-137820598D02*
X172816940Y-137820598D01*
X108961340Y-82778798D02*
X114752540Y-76987598D01*
X188996740Y-56235798D02*
X191739940Y-58978998D01*
X138603140Y-69773998D02*
X126436539Y-69773998D01*
X163876140Y-135966398D02*
X140685940Y-135966398D01*
X110180541Y-75133398D02*
X110180540Y-72186998D01*
X133751740Y-58089998D02*
X139542940Y-52298798D01*
X183561140Y-129667198D02*
X186329740Y-126898598D01*
X188488740Y-139522398D02*
X183307140Y-139522398D01*
X115743140Y-121462998D02*
X115743140Y-113842998D01*
X122245539Y-141554398D02*
X114117540Y-141554399D01*
X187472740Y-52806798D02*
X187472740Y-56845398D01*
X183307600Y-79806998D02*
X183307140Y-79806998D01*
X108453340Y-108712198D02*
X108453340Y-82575598D01*
X110993339Y-63652598D02*
X110993340Y-62026998D01*
X192146340Y-57962998D02*
X197708940Y-57962998D01*
X105405340Y-56438998D02*
X111882340Y-56438998D01*
X169159340Y-62661999D02*
X179700340Y-62661998D01*
X171953340Y-135788598D02*
X166187541Y-141554398D01*
X138171800Y-68758000D02*
X125420542Y-68758000D01*
X183103940Y-51282798D02*
X188996740Y-51282798D01*
X122880540Y-66852998D02*
X122880540Y-80315460D01*
X124048940Y-65201998D02*
X121102540Y-62255598D01*
X165577937Y-131394400D02*
X168803740Y-128168598D01*
X192628940Y-107238998D02*
X186863140Y-113004798D01*
X109469340Y-127025598D02*
X115235140Y-121259798D01*
X121000940Y-138506398D02*
X117165540Y-138506399D01*
X134158140Y-59105998D02*
X139949340Y-53314798D01*
X111501340Y-127863798D02*
X117267140Y-122097998D01*
X187371600Y-78079798D02*
X192299200Y-83007398D01*
X133091340Y-56565998D02*
X138882540Y-50774798D01*
X193467140Y-115697198D02*
X193467140Y-119608798D01*
X121102540Y-60833198D02*
X117546540Y-64389198D01*
X182672140Y-50266798D02*
X190012740Y-50266798D01*
X121432740Y-51790798D02*
X127223940Y-57581998D01*
X111196540Y-75565198D02*
X111196540Y-71780597D01*
X198724940Y-109728198D02*
X192959140Y-115493998D01*
X114727140Y-121056598D02*
X114727140Y-114249398D01*
X188057399Y-81661200D02*
X185339598Y-78943398D01*
X200761200Y-66594738D02*
X194991140Y-72364798D01*
X133472340Y-133756598D02*
X127198540Y-133756598D01*
X106929340Y-81965998D02*
X112720540Y-76174798D01*
X123260680Y-144095258D02*
X111583880Y-144095258D01*
X187371140Y-69240598D02*
X187371140Y-78079798D01*
X187980740Y-52298798D02*
X187980740Y-56642199D01*
X179700340Y-62661998D02*
X183586540Y-58775798D01*
X169768940Y-61137998D02*
X179014540Y-61137998D01*
X115768540Y-77393998D02*
X115768540Y-69875598D01*
X141499200Y-125298401D02*
X163063338Y-125298400D01*
X166898740Y-123596598D02*
X180259139Y-123596598D01*
X192451140Y-71348798D02*
X192451140Y-75971598D01*
X127452539Y-70789998D02*
X127452540Y-82169198D01*
X197708940Y-83896858D02*
X196871200Y-84734598D01*
X182977400Y-106883400D02*
X182977400Y-83870998D01*
X120137339Y-136474398D02*
X119197540Y-136474399D01*
X192044740Y-136296598D02*
X192044740Y-143078398D01*
X173020139Y-138328598D02*
X167253480Y-144095257D01*
X121077140Y-62992198D02*
X119680140Y-64389198D01*
X123185800Y-85013538D02*
X123185800Y-106146800D01*
X126614340Y-59105998D02*
X134158140Y-59105998D01*
X183586540Y-58775798D02*
X183611940Y-58775798D01*
X118232339Y-126873198D02*
X121102540Y-129743398D01*
X129052740Y-53009998D02*
X131592740Y-53009997D01*
X179471740Y-62153998D02*
X183916740Y-57708998D01*
X191689140Y-132334198D02*
X188996740Y-135026598D01*
X189911140Y-114223998D02*
X189911140Y-121056598D01*
X107437340Y-65151198D02*
X107437340Y-58470998D01*
X126106340Y-131216598D02*
X120340540Y-136982398D01*
X163774542Y-64490800D02*
X141016600Y-64490800D01*
X185440740Y-57734398D02*
X190241340Y-62534998D01*
X187980740Y-134569398D02*
X187980740Y-138988998D01*
X197200940Y-82143798D02*
X197200940Y-83668258D01*
X110485340Y-83388398D02*
X116276540Y-77597198D01*
X188895140Y-113817598D02*
X188895140Y-121488398D01*
X199232940Y-56438999D02*
X199232940Y-65989398D01*
X191028740Y-130810198D02*
X187472740Y-134366198D01*
X163469740Y-134950398D02*
X141092340Y-134950397D01*
X165704942Y-59918800D02*
X139111600Y-59918800D01*
X177312740Y-57073998D02*
X183103940Y-51282798D01*
X116149540Y-51790798D02*
X121432740Y-51790798D01*
X127452540Y-82169198D02*
X124201800Y-85419938D01*
X135555140Y-128676598D02*
X125039540Y-128676598D01*
X164638142Y-62458800D02*
X140177938Y-62458800D01*
X177211140Y-82397798D02*
X177211140Y-70789998D01*
X196692940Y-83465058D02*
X195855201Y-84302798D01*
X194839200Y-89586458D02*
X195168940Y-89916198D01*
X197200940Y-65176598D02*
X191435140Y-70942398D01*
X126411139Y-121564598D02*
X138501540Y-121564598D01*
X116809940Y-126873198D02*
X121102540Y-131165798D01*
X195067800Y-82854998D02*
X195067800Y-82956598D01*
X191943140Y-120243798D02*
X197708940Y-126009598D01*
X118181540Y-57251797D02*
X118181540Y-53822798D01*
X121102540Y-128320998D02*
X123794941Y-125628598D01*
X184323140Y-123444198D02*
X184323140Y-111963398D01*
X199411200Y-85801398D02*
X199411199Y-87706858D01*
X182291140Y-80238798D02*
X182291140Y-67132398D01*
X127427139Y-108940340D02*
X127427139Y-120548598D01*
X112009340Y-63042998D02*
X114549340Y-63042998D01*
X105913340Y-56946998D02*
X112085540Y-56946998D01*
X196184940Y-82550199D02*
X196184940Y-83261858D01*
X163469738Y-126314400D02*
X166695540Y-123088598D01*
X114549340Y-63042998D02*
X119705540Y-57886798D01*
X178735140Y-81762798D02*
X178735140Y-69265998D01*
X114295340Y-64058998D02*
X114981140Y-64058998D01*
X128824140Y-137820598D02*
X123058340Y-143586398D01*
X191536740Y-136093398D02*
X191536740Y-142570398D01*
X177338139Y-134264598D02*
X171318340Y-134264598D01*
X108961340Y-64541597D02*
X108961340Y-59994998D01*
X122677800Y-106350000D02*
X125903140Y-109575340D01*
X182291140Y-67132398D02*
X184958141Y-64465398D01*
X194381540Y-82905798D02*
X194381540Y-82931658D01*
X120823140Y-111708940D02*
X120823140Y-123571198D01*
X113025340Y-127762197D02*
X118283140Y-122504397D01*
X110485340Y-127457398D02*
X116251140Y-121691598D01*
X121635940Y-140030398D02*
X115641540Y-140030398D01*
X164206342Y-63474800D02*
X140584800Y-63474800D01*
X131846740Y-137820598D02*
X128824140Y-137820598D01*
X140584340Y-54838798D02*
X164180940Y-54838798D01*
X121102540Y-63728798D02*
X121077140Y-63728798D01*
X185009400Y-107696200D02*
X185009400Y-82956598D01*
X184805741Y-55346798D02*
X184932740Y-55346798D01*
X167457540Y-66725998D02*
X164206342Y-63474800D01*
X200761200Y-110587538D02*
X194991140Y-116357597D01*
X175610940Y-53009998D02*
X181403000Y-47217938D01*
X166212941Y-69773998D02*
X166212940Y-69773541D01*
X109647140Y-118948398D02*
X109647140Y-116357598D01*
X181605340Y-143586399D02*
X175839540Y-137820598D01*
X104389340Y-66395798D02*
X104389340Y-55422998D01*
X187472740Y-56845398D02*
X191130340Y-60502998D01*
X191638340Y-63550998D02*
X186355140Y-68834198D01*
X114219141Y-114477998D02*
X108453340Y-108712198D01*
X105405340Y-109956798D02*
X105405340Y-81356398D01*
X112720540Y-71145598D02*
X106929340Y-65354398D01*
X117775140Y-113030198D02*
X112009339Y-107264398D01*
X114117540Y-62026998D02*
X118689540Y-57454998D01*
X113711140Y-120650198D02*
X113711140Y-114681198D01*
X180767141Y-110515598D02*
X180767602Y-110515598D01*
X132862740Y-135280598D02*
X127808140Y-135280598D01*
X183510340Y-139014398D02*
X177744540Y-133248598D01*
X188057399Y-108965738D02*
X188057399Y-81661200D01*
X168727540Y-63677540D02*
X165476800Y-60426800D01*
X166289140Y-122072598D02*
X178735140Y-122072598D01*
X111501340Y-107467598D02*
X111501340Y-83794798D01*
X197887200Y-85166398D02*
X197887200Y-88316458D01*
X120569140Y-137490399D02*
X118181540Y-137490399D01*
X196692940Y-132334198D02*
X191689140Y-132334198D01*
X200248940Y-84963659D02*
X199411200Y-85801398D01*
X106421340Y-125755598D02*
X112187140Y-119989798D01*
X112898340Y-58978998D02*
X115641540Y-56235798D01*
X196692940Y-126415998D02*
X196692940Y-132334198D01*
X121077140Y-63728798D02*
X120416740Y-64389198D01*
X190927140Y-70739197D02*
X190927140Y-76581198D01*
X164282540Y-136982398D02*
X140279540Y-136982398D01*
X140685940Y-135966398D02*
X134920140Y-130200598D01*
X109672540Y-74930198D02*
X109672540Y-72390198D01*
X180437400Y-84912400D02*
X177719600Y-82194600D01*
X184932740Y-133350198D02*
X184932740Y-135966398D01*
X123363140Y-124612597D02*
X137206140Y-124612597D01*
X186355600Y-78486198D02*
X191283199Y-83413798D01*
X135453540Y-62153998D02*
X141244741Y-56362798D01*
X113609540Y-55422998D02*
X113609540Y-49250798D01*
X178227600Y-81966000D02*
X178227600Y-81965998D01*
X183510340Y-52298798D02*
X187980740Y-52298798D01*
X113101540Y-59486998D02*
X116149540Y-56438998D01*
X186533400Y-82322058D02*
X183815140Y-79603798D01*
X133954940Y-58597999D02*
X139746140Y-52806798D01*
X195168940Y-89916198D02*
X195168941Y-108254998D01*
X197708940Y-57962998D02*
X197708940Y-65379798D01*
X177211140Y-70789998D02*
X165781139Y-70789998D01*
X141042000Y-126314400D02*
X163469738Y-126314400D01*
X192451140Y-75971598D02*
X198216940Y-81737398D01*
X113101540Y-55219798D02*
X113101540Y-48742798D01*
X177922340Y-58597998D02*
X183713540Y-52806798D01*
X119324540Y-78841798D02*
X119324540Y-68351598D01*
X111679140Y-55930998D02*
X112593540Y-55016598D01*
X137536340Y-67233998D02*
X123896540Y-67233998D01*
X166822540Y-143078398D02*
X137815740Y-143078398D01*
X180563941Y-64693998D02*
X168321141Y-64693998D01*
X111583880Y-54589113D02*
X111583880Y-47217938D01*
X177541340Y-133756598D02*
X171089740Y-133756598D01*
X117546540Y-64389198D02*
X120848540Y-67691198D01*
X167889339Y-65709998D02*
X164638142Y-62458800D01*
X104389340Y-80924598D02*
X110180541Y-75133398D01*
X116809940Y-64389198D02*
X120340540Y-67919798D01*
X123260680Y-47217938D02*
X129052740Y-53009998D01*
X125903140Y-109575340D02*
X125903140Y-122072598D01*
X139797400Y-129362400D02*
X164765138Y-129362400D01*
X167686140Y-66217998D02*
X167686140Y-66217540D01*
X183611940Y-58775798D02*
X189301540Y-64465398D01*
X182011740Y-142570398D02*
X176245940Y-136804598D01*
X199919200Y-86004598D02*
X199919200Y-87503198D01*
X116784540Y-69443798D02*
X110993339Y-63652598D01*
X138425340Y-141554398D02*
X132659540Y-135788598D01*
X113914339Y-61518998D02*
X118181540Y-57251797D01*
X198903200Y-87910058D02*
X199232940Y-88239798D01*
X193390025Y-136395258D02*
X193061200Y-136724083D01*
X121661341Y-84378998D02*
X121661340Y-106806740D01*
X178328740Y-59613998D02*
X184119940Y-53822798D01*
X117597340Y-82753860D02*
X117597340Y-108483140D01*
X189580940Y-127254198D02*
X183916740Y-132918398D01*
X125420540Y-81356860D02*
X122169340Y-84608060D01*
X122855140Y-124383998D02*
X120391340Y-126847797D01*
X199232940Y-134874198D02*
X192755940Y-134874198D01*
X199740940Y-55930998D02*
X199740940Y-66192598D01*
X193162340Y-135890198D02*
X192552740Y-136499798D01*
X193644940Y-107645398D02*
X187879141Y-113411198D01*
X186939340Y-137998398D02*
X183916740Y-137998398D01*
X190927140Y-76581198D02*
X196692940Y-82346998D01*
X139441340Y-139014398D02*
X133675539Y-133248598D01*
X113228540Y-76377998D02*
X113228541Y-70942398D01*
X189199940Y-126898598D02*
X183561140Y-132537398D01*
X178125540Y-59105998D02*
X183916741Y-53314798D01*
X167686140Y-66217540D02*
X164435400Y-62966800D01*
X105913340Y-125552398D02*
X111679140Y-119786598D01*
X111171140Y-115722598D02*
X105405340Y-109956798D01*
X138958740Y-120548598D02*
X142184542Y-123774400D01*
X140229200Y-128346400D02*
X164333338Y-128346400D01*
X188564939Y-64465398D02*
X183586539Y-59486998D01*
X122042340Y-50266798D02*
X127833540Y-56057998D01*
X114219140Y-120853398D02*
X114219141Y-114477998D01*
X179039940Y-130200598D02*
X169641940Y-130200598D01*
X139949340Y-53314798D02*
X164790540Y-53314798D01*
X189631740Y-64058998D02*
X190419140Y-64058998D01*
X177211139Y-120548598D02*
X177211139Y-109093198D01*
X127630340Y-56565998D02*
X133091340Y-56565998D01*
X179243140Y-109905998D02*
X182469400Y-106679738D01*
X190012740Y-128270198D02*
X184932740Y-133350198D01*
X112009340Y-83997998D02*
X117800540Y-78206798D01*
X182291600Y-80238798D02*
X182291140Y-80238798D01*
X183561139Y-131114998D02*
X187777539Y-126898598D01*
X184602540Y-136474399D02*
X178836740Y-130708598D01*
X182799140Y-80010197D02*
X182799600Y-80010198D01*
X184348540Y-54330798D02*
X185948740Y-54330798D01*
X109977340Y-83185198D02*
X115768540Y-77393998D01*
X141447940Y-56870798D02*
X163368140Y-56870798D01*
X165806540Y-50774798D02*
X171597740Y-56565998D01*
X168117940Y-65201998D02*
X164866742Y-61950800D01*
X164993740Y-52806798D02*
X170784940Y-58597998D01*
X189403140Y-77190798D02*
X194686340Y-82473998D01*
X193315200Y-83286798D02*
X193315200Y-90221458D01*
X192959140Y-135382198D02*
X192044740Y-136296598D01*
X199232940Y-81330999D02*
X199232940Y-84531858D01*
X137815740Y-143078398D02*
X132049941Y-137312598D01*
X194839200Y-83896398D02*
X194839200Y-89586458D01*
X187879141Y-113411198D02*
X187879140Y-121894799D01*
X165400140Y-51790798D02*
X171191340Y-57581998D01*
X135123340Y-129692598D02*
X125496740Y-129692598D01*
X122347140Y-124180798D02*
X119654740Y-126873198D01*
X172816940Y-137820598D02*
X167051140Y-143586398D01*
X193061200Y-144095258D02*
X181403000Y-144095258D01*
X193136940Y-128778197D02*
X190215940Y-128778198D01*
X191943140Y-115087598D02*
X191943140Y-120243798D01*
X116149540Y-134823398D02*
X113152340Y-131826198D01*
X194483140Y-119176998D02*
X200248940Y-124942799D01*
X179014540Y-61137998D02*
X184805741Y-55346798D01*
X183307140Y-67538798D02*
X186380540Y-64465398D01*
X180259139Y-123596598D02*
X180259139Y-110312398D01*
X183586540Y-62382598D02*
X180767140Y-65201998D01*
X115387540Y-126873198D02*
X119299140Y-122961598D01*
X193390025Y-54917938D02*
X200759880Y-54917938D01*
X138628540Y-141046398D02*
X132862740Y-135280598D01*
X107945340Y-126415998D02*
X113711140Y-120650198D01*
X137206140Y-124612597D02*
X140431942Y-127838400D01*
X163368142Y-65506800D02*
X141423000Y-65506800D01*
X111679140Y-115493998D02*
X105913340Y-109728198D01*
X104897340Y-135382198D02*
X104897340Y-125120598D01*
X132659540Y-55549998D02*
X138450740Y-49758798D01*
X187777539Y-126898598D02*
X184323140Y-123444198D01*
X183307140Y-111556998D02*
X183307602Y-111556999D01*
X113355540Y-131318199D02*
X108961340Y-131318198D01*
X191028740Y-135890198D02*
X191028740Y-142062398D01*
X113228541Y-70942398D02*
X107437340Y-65151198D01*
X186355140Y-68834198D02*
X186355140Y-78486198D01*
X113533340Y-106603998D02*
X113533340Y-84632998D01*
X170378541Y-59613998D02*
X178328740Y-59613998D01*
X132227740Y-54533998D02*
X138018940Y-48742798D01*
X109469340Y-60502998D02*
X113507940Y-60502998D01*
X194991140Y-72364798D02*
X194991140Y-74955597D01*
X170480140Y-132232598D02*
X164714340Y-137998398D01*
X191435140Y-114858998D02*
X191435140Y-120446998D01*
X110155140Y-116154398D02*
X104389340Y-110388598D01*
X166492340Y-122581060D02*
X166492340Y-122580598D01*
X195676940Y-83058658D02*
X194839200Y-83896398D01*
X136494940Y-64693998D02*
X124252140Y-64693998D01*
X127960540Y-71297998D02*
X127960540Y-82372860D01*
X124404540Y-80925060D02*
X121153340Y-84176260D01*
X138501540Y-121564598D02*
X141727342Y-124790400D01*
X184932740Y-55346798D02*
X184932740Y-57937598D01*
X197708940Y-126009598D02*
X197708940Y-133350198D01*
X118283140Y-122504397D02*
X118283140Y-112801598D01*
X187980740Y-56642199D02*
X191333540Y-59994998D01*
X194686800Y-82473998D02*
X195067800Y-82854998D01*
X184881940Y-126898598D02*
X182291140Y-124307798D01*
X137815739Y-48234798D02*
X166847940Y-48234798D01*
X112593540Y-55016598D02*
X112593540Y-48234798D01*
X194152940Y-107848598D02*
X188387140Y-113614398D01*
X120391340Y-126873198D02*
X121102540Y-127584398D01*
X164333338Y-128346400D02*
X167559140Y-125120598D01*
X107437340Y-109118598D02*
X107437340Y-82169198D01*
X104389340Y-124917398D02*
X110155140Y-119151598D01*
X166492340Y-122580598D02*
X179243139Y-122580598D01*
X190215940Y-128778198D02*
X185440740Y-133553398D01*
X121839140Y-123977598D02*
X118943540Y-126873198D01*
X195676940Y-89712998D02*
X195676940Y-108458198D01*
X189504740Y-50774798D02*
X189504740Y-56032598D01*
X121331139Y-123774398D02*
X118232339Y-126873198D01*
X192628940Y-63042998D02*
X192628940Y-63271598D01*
X181783140Y-110921998D02*
X181809002Y-110921998D01*
X121661340Y-106806740D02*
X124887140Y-110032540D01*
X106929340Y-125984199D02*
X112695140Y-120218398D01*
X168524340Y-64185998D02*
X165273142Y-60934800D01*
X195676940Y-131318198D02*
X191231940Y-131318198D01*
X127401739Y-134264598D02*
X121635940Y-140030398D01*
X194483140Y-72161598D02*
X194483140Y-75158798D01*
X200637200Y-86334798D02*
X200761200Y-86458798D01*
X126334940Y-131724598D02*
X120569140Y-137490399D01*
X125928540Y-81560060D02*
X122677799Y-84810800D01*
X139847740Y-137998398D02*
X134081940Y-132232598D01*
X125344340Y-62153998D02*
X135453540Y-62153998D01*
X124404540Y-127152599D02*
X136165198Y-127152599D01*
X116149540Y-56438998D02*
X116149540Y-51790798D01*
X120213540Y-58115398D02*
X120213540Y-56286598D01*
X133319940Y-57073998D02*
X139111140Y-51282798D01*
X114244540Y-70535998D02*
X108453340Y-64744798D01*
X183485400Y-107086138D02*
X183485400Y-83642400D01*
X176042740Y-54025998D02*
X181833940Y-48234798D01*
X107945340Y-58978998D02*
X112898340Y-58978998D01*
X197200940Y-83668258D02*
X196363200Y-84505998D01*
X181783140Y-66929198D02*
X184246940Y-64465398D01*
X172181939Y-136296598D02*
X166416140Y-142062398D01*
X127935140Y-120040598D02*
X139162398Y-120040598D01*
X195347200Y-84099598D02*
X195347200Y-89383258D01*
X112085540Y-143586399D02*
X112085540Y-136499799D01*
X117267140Y-113233398D02*
X111501340Y-107467598D01*
X168600540Y-127660598D02*
X180106740Y-127660598D01*
X119197540Y-133578798D02*
X114396940Y-128778197D01*
X125903140Y-122072598D02*
X138273398Y-122072598D01*
X193670340Y-82931198D02*
X193670800Y-82931198D01*
X114244540Y-76784398D02*
X114244540Y-70535998D01*
X112110940Y-134366198D02*
X105913340Y-134366198D01*
X197200941Y-58470998D02*
X197200940Y-65176598D01*
X198724940Y-88442998D02*
X198724940Y-109728198D01*
X140787538Y-63982800D02*
X137536340Y-67233998D01*
X167253480Y-47217937D02*
X173045540Y-53009997D01*
X105405340Y-134874198D02*
X105405340Y-125349198D01*
X191943140Y-76174799D02*
X197708940Y-81940598D01*
X113609540Y-49250798D02*
X122448740Y-49250798D01*
X126995340Y-133248598D02*
X121229540Y-139014398D01*
X191791200Y-83211058D02*
X191791200Y-90881858D01*
X179929400Y-85115598D02*
X177211600Y-82397798D01*
X123896540Y-67233998D02*
X123896540Y-80721860D01*
X109469340Y-130810198D02*
X109469340Y-127025598D01*
X111501340Y-83794798D02*
X117292540Y-78003598D01*
X141956400Y-124282400D02*
X162656938Y-124282400D01*
X125115740Y-62661998D02*
X135656740Y-62661998D01*
X112491940Y-57962998D02*
X114625540Y-55829398D01*
X136723540Y-65201998D02*
X124048940Y-65201998D01*
X171724740Y-135280598D02*
X165958940Y-141046398D01*
X182265740Y-49250798D02*
X191028740Y-49250798D01*
X199740940Y-66192598D02*
X193975139Y-71958398D01*
X197708940Y-81940598D02*
X197708940Y-83896858D01*
X122855140Y-110870740D02*
X122855140Y-124383998D01*
X200756940Y-85166858D02*
X199919200Y-86004598D01*
X183307140Y-139522398D02*
X177541340Y-133756598D01*
X169641940Y-130200598D02*
X163876140Y-135966398D01*
X184323140Y-111963398D02*
X184323602Y-111963398D01*
X137129940Y-66217998D02*
X123591740Y-66217998D01*
X185948740Y-133756598D02*
X185948740Y-136982398D01*
X192044740Y-55016598D02*
X192959140Y-55930998D01*
X177719599Y-82194598D02*
X177719140Y-82194598D01*
X182443539Y-141554398D02*
X176677740Y-135788598D01*
X113101540Y-48742798D02*
X122651940Y-48742798D01*
X104389340Y-110388598D02*
X104389340Y-80924598D01*
X179268540Y-129692598D02*
X169438740Y-129692598D01*
X180767600Y-80924598D02*
X180767140Y-80924598D01*
X182900740Y-140538398D02*
X177134940Y-134772598D01*
X192095540Y-133350199D02*
X190012740Y-135432999D01*
X141828938Y-66548200D02*
X138603140Y-69773998D01*
X117292540Y-69215198D02*
X111501340Y-63423998D01*
X181809002Y-110921998D02*
X181809002Y-110896598D01*
X118689540Y-136982398D02*
X118689540Y-133807398D01*
X187371140Y-113207998D02*
X187371140Y-122123398D01*
X179243140Y-68757998D02*
X166619340Y-68757998D01*
X184170740Y-126898598D02*
X181783140Y-124510998D01*
X181809002Y-110896598D02*
X185009400Y-107696200D01*
X118105340Y-82957060D02*
X118105340Y-108279940D01*
X166847940Y-48234798D02*
X172639140Y-54025998D01*
X112085540Y-56946998D02*
X113609540Y-55422998D01*
X194483140Y-75158798D02*
X200248940Y-80924598D01*
X184424740Y-58140798D02*
X189834940Y-63550997D01*
X188488740Y-51790798D02*
X188488740Y-56438998D01*
X107945340Y-82372399D02*
X113736540Y-76581198D01*
X124201800Y-105715000D02*
X127427139Y-108940340D01*
X176677740Y-135788598D02*
X171953340Y-135788598D01*
X193061200Y-47217938D02*
X193061200Y-54589113D01*
X113965140Y-129794197D02*
X110485340Y-129794198D01*
X193975140Y-115900398D02*
X193975140Y-119380198D01*
X195855201Y-89154658D02*
X196184940Y-89484397D01*
X110993340Y-83591599D02*
X116784540Y-77800398D01*
X188488740Y-126898598D02*
X184831140Y-123240998D01*
X126944540Y-81965998D02*
X123693799Y-85216738D01*
X177744540Y-133248598D02*
X170886540Y-133248598D01*
X164866742Y-61950800D02*
X139974738Y-61950801D01*
X190419140Y-76784398D02*
X196184940Y-82550199D01*
X190622340Y-129794198D02*
X186456740Y-133959798D01*
X193061200Y-136724083D02*
X193061200Y-144095258D01*
X171394540Y-57073998D02*
X177312740Y-57073998D01*
X165781139Y-70789540D02*
X162555800Y-67564200D01*
X105913340Y-109728198D02*
X105913340Y-81559598D01*
X124912540Y-68249998D02*
X124912540Y-81127798D01*
X181453400Y-106273338D02*
X181453400Y-84480600D01*
X169438740Y-129692598D02*
X163672940Y-135458398D01*
X141625738Y-66014800D02*
X138374540Y-69265998D01*
X182469400Y-84074200D02*
X179751600Y-81356400D01*
X193467140Y-71755198D02*
X193467140Y-75565198D01*
X191739940Y-58978998D02*
X196692940Y-58978998D01*
X199232940Y-88239798D02*
X199232940Y-109931398D01*
X186355140Y-78486198D02*
X186355600Y-78486198D01*
X177515940Y-57581999D02*
X183307140Y-51790798D01*
X128036740Y-55549998D02*
X132659540Y-55549998D01*
X115260541Y-77190798D02*
X115260540Y-70104199D01*
X179243140Y-81559598D02*
X179243140Y-68757998D01*
X178379540Y-131724598D02*
X170276940Y-131724598D01*
X139644540Y-138506398D02*
X133878740Y-132740598D01*
X189504740Y-135229798D02*
X189504740Y-140538398D01*
X192552740Y-56946998D02*
X198724940Y-56946998D01*
X124201340Y-126644598D02*
X136367940Y-126644598D01*
X180538540Y-126644597D02*
X183561140Y-129667198D01*
X193315200Y-90221458D02*
X193644940Y-90551198D01*
X177719140Y-82194598D02*
X177719140Y-70281998D01*
X192552740Y-47726798D02*
X192552740Y-54813398D01*
X166644740Y-48742798D02*
X172435940Y-54533999D01*
X138806802Y-70281998D02*
X126944540Y-70281998D01*
X109647140Y-116357598D02*
X103883880Y-110594338D01*
X111501340Y-128778198D02*
X111501340Y-127863798D01*
X164968800Y-129870400D02*
X168194140Y-126645060D01*
X120188140Y-54838798D02*
X125979340Y-60629998D01*
X163165400Y-66014800D02*
X141625738Y-66014800D01*
X192807200Y-82804198D02*
X192807200Y-90450058D01*
X197379200Y-88545058D02*
X197708940Y-88874798D01*
X166416140Y-142062398D02*
X138222140Y-142062398D01*
X181403000Y-144095258D02*
X175636340Y-138328598D01*
X117165540Y-134416998D02*
X113558740Y-130810198D01*
X136926740Y-65709998D02*
X123820340Y-65709998D01*
X176677741Y-55549998D02*
X182468940Y-49758798D01*
X109672540Y-72390198D02*
X103883881Y-66601538D01*
X184932740Y-57937598D02*
X190038140Y-63042998D01*
X199232940Y-84531858D02*
X198395199Y-85369598D01*
X178227139Y-121564598D02*
X178227140Y-109499598D01*
X199740940Y-135382198D02*
X192959140Y-135382198D01*
X189403140Y-70104198D02*
X189403140Y-77190798D01*
X199232940Y-65989398D02*
X193467140Y-71755198D01*
X115133539Y-135229798D02*
X112745940Y-132842198D01*
X166416140Y-49250798D02*
X172207340Y-55041998D01*
X176474540Y-136296598D02*
X172181939Y-136296598D01*
X183916740Y-57708998D02*
X183916740Y-58343998D01*
X200248940Y-124942799D02*
X200248940Y-135890198D01*
X175636340Y-138328598D02*
X173020139Y-138328598D01*
X115133540Y-140538399D02*
X115133539Y-135229798D01*
X164435400Y-62966800D02*
X140381138Y-62966800D01*
X125776140Y-61137998D02*
X135021740Y-61137998D01*
X140381138Y-62966800D02*
X137129940Y-66217998D01*
X128443139Y-54533998D02*
X132227740Y-54533998D01*
X115641540Y-56235798D02*
X115641540Y-51282798D01*
X121153340Y-84176260D02*
X121153339Y-107035340D01*
X120645340Y-107238540D02*
X123871140Y-110464340D01*
X184805740Y-135966398D02*
X179039940Y-130200598D01*
X112695140Y-120218398D02*
X112695140Y-115087598D01*
X180335340Y-64185998D02*
X168524340Y-64185998D01*
X192451140Y-115290798D02*
X192451140Y-120040598D01*
X180970340Y-65709998D02*
X167889339Y-65709998D01*
X176703140Y-71297998D02*
X165577940Y-71297998D01*
X166619340Y-142570398D02*
X138018940Y-142570398D01*
X110485340Y-129794198D02*
X110485340Y-127457398D01*
X185339140Y-112395198D02*
X185339140Y-123012398D01*
X180741740Y-126136598D02*
X183561140Y-128955998D01*
X190927140Y-114655798D02*
X190927140Y-120650198D01*
X168600540Y-127661060D02*
X168600540Y-127660598D01*
X118613340Y-108076740D02*
X121839140Y-111302540D01*
X126411140Y-109372140D02*
X126411139Y-121564598D01*
X119832540Y-79044998D02*
X116581340Y-82296198D01*
X112542740Y-133350198D02*
X106929340Y-133350198D01*
X139034940Y-70789998D02*
X127452539Y-70789998D01*
X113025339Y-84429798D02*
X118816540Y-78638598D01*
X122651940Y-48742798D02*
X128443139Y-54533998D01*
X121229540Y-52298798D02*
X127020740Y-58089998D01*
X195676940Y-82753398D02*
X195676940Y-83058658D01*
X121102540Y-58648798D02*
X125115740Y-62661998D01*
X120213540Y-134975798D02*
X120213539Y-133172398D01*
X184246940Y-64465398D02*
X183586540Y-63804999D01*
X116759140Y-121894798D02*
X116759140Y-113436598D01*
X124887140Y-110032540D02*
X124887140Y-123088598D01*
X193644940Y-63677998D02*
X187879140Y-69443798D01*
X121102540Y-131165798D02*
X124607740Y-127660598D01*
X138984600Y-131394400D02*
X165577937Y-131394400D01*
X196184940Y-89484397D02*
X196184940Y-108686798D01*
X139162398Y-120040598D02*
X142388200Y-123266401D01*
X200756940Y-80721398D02*
X200756940Y-85166858D01*
X199740940Y-125145998D02*
X199740940Y-135382198D01*
X184831140Y-112191997D02*
X188057399Y-108965738D01*
X104897340Y-81153197D02*
X110688540Y-75361998D01*
X165984340Y-70281998D02*
X162758542Y-67056200D01*
X122372540Y-67081598D02*
X122372540Y-80112261D01*
X186456740Y-133959798D02*
X186456740Y-137490398D01*
X178735600Y-81762798D02*
X178735140Y-81762798D01*
X140431942Y-127838400D02*
X164105200Y-127838400D01*
X110688540Y-71983798D02*
X104897340Y-66192598D01*
X194152940Y-129794197D02*
X190622340Y-129794198D01*
X180767140Y-67233998D02*
X167228940Y-67233998D01*
X186025399Y-82524798D02*
X183307600Y-79806998D01*
X162860600Y-124790400D02*
X166086402Y-121564598D01*
X113736540Y-70739198D02*
X107945340Y-64947998D01*
X190520740Y-55626198D02*
X192349540Y-57454998D01*
X119984940Y-55346798D02*
X125776140Y-61137998D01*
X139974738Y-61950801D02*
X136723540Y-65201998D01*
X114600140Y-128270198D02*
X112009340Y-128270198D01*
X126436540Y-81762798D02*
X123185800Y-85013538D01*
X187041400Y-108533937D02*
X187041400Y-82093000D01*
X111255055Y-136395258D02*
X103883880Y-136395258D01*
X119629340Y-107644940D02*
X122855140Y-110870740D01*
X140889139Y-135458398D02*
X135123340Y-129692598D01*
X192959140Y-75768398D02*
X198724940Y-81534198D01*
X118816540Y-78638598D02*
X118816540Y-68580198D01*
X200248940Y-66395798D02*
X194483140Y-72161598D01*
X199232940Y-125374598D02*
X199232940Y-134874198D01*
X179751140Y-123088599D02*
X179751140Y-110109198D01*
X183586540Y-63093798D02*
X180970340Y-65709998D01*
X120823140Y-123571198D02*
X117521140Y-126873198D01*
X123388540Y-80518660D02*
X120137340Y-83769859D01*
X186964740Y-137972998D02*
X186939340Y-137998398D01*
X191231940Y-131318198D02*
X187980740Y-134569398D01*
X195168941Y-60502998D02*
X195168940Y-64338398D01*
X162758542Y-67056200D02*
X142032600Y-67056200D01*
X120213539Y-133172398D02*
X114803340Y-127762198D01*
X115641540Y-135026598D02*
X112949140Y-132334198D01*
X177084140Y-56565998D02*
X182875340Y-50774798D01*
X162656938Y-124282400D02*
X165882740Y-121056598D01*
X190901740Y-61010998D02*
X194660940Y-61010998D01*
X121864540Y-79909060D02*
X118613340Y-83160260D01*
X193644940Y-90551198D02*
X193644940Y-107645398D01*
X196184940Y-64770198D02*
X190419140Y-70535998D01*
X111475940Y-55422998D02*
X112085540Y-54813398D01*
X190419140Y-120853398D02*
X196184940Y-126619198D01*
X185440740Y-133553398D02*
X185440740Y-136474398D01*
X104897340Y-55930998D02*
X111679140Y-55930998D01*
X183713540Y-52806798D02*
X187472740Y-52806798D01*
X132430940Y-55041998D02*
X138222140Y-49250798D01*
X107437340Y-82169198D02*
X113228540Y-76377998D01*
X141423000Y-65506800D02*
X138171800Y-68758000D01*
X166212940Y-69773541D02*
X162987600Y-66548200D01*
X176703140Y-108864598D02*
X176703602Y-108864598D01*
X195855201Y-84302798D02*
X195855201Y-89154658D01*
X198216940Y-65582997D02*
X192451140Y-71348798D01*
X200248940Y-110363199D02*
X194483140Y-116128998D01*
X179751602Y-110109198D02*
X182977400Y-106883400D01*
X119629340Y-83566660D02*
X119629340Y-107644940D01*
X111882340Y-56438998D02*
X113101540Y-55219798D01*
X124404539Y-67741998D02*
X124404540Y-80925060D01*
X120137340Y-107441740D02*
X123363140Y-110667540D01*
X197379200Y-84963198D02*
X197379200Y-88545058D01*
X184831140Y-68199198D02*
X188564939Y-64465398D01*
X140177938Y-62458800D02*
X136926740Y-65709998D01*
X181453400Y-84480600D02*
X178735600Y-81762801D01*
X176245940Y-136804598D02*
X172385140Y-136804598D01*
X166619340Y-68757998D02*
X163368142Y-65506800D01*
X106929340Y-133350198D02*
X106929340Y-125984199D01*
X190419140Y-64058998D02*
X185847140Y-68630997D01*
X194686340Y-82473998D02*
X194686800Y-82473998D01*
X190419140Y-114452598D02*
X190419140Y-120853398D01*
X182799600Y-80010198D02*
X182799600Y-67336058D01*
X177719600Y-82194600D02*
X177719599Y-82194598D01*
X198395200Y-88113258D02*
X198724940Y-88442998D01*
X119299139Y-112369798D02*
X113533340Y-106603998D01*
X182240340Y-142062398D02*
X176474540Y-136296598D01*
X114117540Y-55626199D02*
X114117540Y-49758798D01*
X112949140Y-132334198D02*
X107945340Y-132334198D01*
X181961400Y-106476537D02*
X181961400Y-84277858D01*
X195168940Y-127025598D02*
X195168940Y-130810197D01*
X192628940Y-128270198D02*
X190012740Y-128270198D01*
X112720540Y-76174798D02*
X112720540Y-71145598D01*
X139543400Y-60934800D02*
X136292202Y-64185998D01*
X139111140Y-51282798D02*
X165603340Y-51282798D01*
X139339738Y-60426800D02*
X136088540Y-63677998D01*
X196871200Y-88748258D02*
X197200940Y-89077998D01*
X165120740Y-139014398D02*
X139441340Y-139014398D01*
X112314140Y-133858198D02*
X106421340Y-133858198D01*
X189911140Y-121056598D02*
X195676940Y-126822398D01*
X132049941Y-137312598D02*
X128620939Y-137312598D01*
X180259140Y-67741998D02*
X167025740Y-67741998D01*
X124379140Y-110261141D02*
X124379140Y-123596597D01*
X182469400Y-106679738D02*
X182469400Y-84074200D01*
X126411140Y-59613998D02*
X134361340Y-59613998D01*
X124912540Y-81127798D02*
X121661341Y-84378998D01*
X196184940Y-108686798D02*
X190419140Y-114452598D01*
X181275140Y-110718798D02*
X184501400Y-107492538D01*
X189504740Y-140538398D02*
X182900740Y-140538398D01*
X193136941Y-62534998D02*
X193136940Y-63474797D01*
X107945340Y-108915398D02*
X107945340Y-82372399D01*
X123388539Y-66725998D02*
X123388540Y-80518660D01*
X184323601Y-67971059D02*
X184323140Y-67970598D01*
X137612540Y-123596598D02*
X140838342Y-126822400D01*
X182799602Y-111328398D02*
X186025400Y-108102600D01*
X118791140Y-122732998D02*
X118791140Y-112598398D01*
X183815140Y-67767398D02*
X187117140Y-64465398D01*
X180970340Y-125628598D02*
X183561140Y-128219398D01*
X106929340Y-57962998D02*
X112491940Y-57962998D01*
X181275140Y-80695998D02*
X181275140Y-66725998D01*
X106421340Y-57454998D02*
X112288741Y-57454998D01*
X113152340Y-131826198D02*
X108453340Y-131826198D01*
X104897340Y-125120598D02*
X110663140Y-119354798D01*
X127833540Y-56057998D02*
X132888140Y-56057998D01*
X112695140Y-115087598D02*
X106929341Y-109321798D01*
X123871140Y-110464340D02*
X123871140Y-124104598D01*
X177947740Y-132740598D02*
X170683340Y-132740598D01*
X200761200Y-136395258D02*
X193390025Y-136395258D01*
X187549401Y-81890258D02*
X184831141Y-79171998D01*
X165375200Y-130886400D02*
X168600540Y-127661060D01*
X190825540Y-130302199D02*
X186964741Y-134162998D01*
X122245540Y-49758798D02*
X128036740Y-55549998D01*
X199740940Y-88036598D02*
X199740940Y-110134598D01*
X165679540Y-120548598D02*
X177211139Y-120548598D01*
X111704540Y-71577398D02*
X105913340Y-65786198D01*
X179751600Y-81356400D02*
X179751599Y-81356398D01*
X107945340Y-132334198D02*
X107945340Y-126415998D01*
X184323602Y-111963398D02*
X187549400Y-108737600D01*
X124201800Y-85419938D02*
X124201800Y-105715000D01*
X164765138Y-129362400D02*
X167990940Y-126136598D01*
X196692940Y-58978998D02*
X196692940Y-64973398D01*
X105913340Y-65786198D02*
X105913340Y-56946998D01*
X128214540Y-136296598D02*
X122448740Y-142062398D01*
X109977340Y-64084398D02*
X109977340Y-61010998D01*
X192552740Y-143586398D02*
X181605340Y-143586399D01*
X187879600Y-77876598D02*
X192807200Y-82804198D01*
X183916740Y-132918398D02*
X183916740Y-133629598D01*
X171800940Y-56057998D02*
X176880940Y-56057998D01*
X140076340Y-137490398D02*
X134310540Y-131724598D01*
X121331140Y-111505740D02*
X121331139Y-123774398D01*
X122855140Y-143078398D02*
X112593540Y-143078398D01*
X142388200Y-123266401D02*
X162250538Y-123266400D01*
X176703140Y-120040598D02*
X176703140Y-108864598D01*
X134716940Y-130708598D02*
X125903140Y-130708598D01*
X138222140Y-142062398D02*
X132456340Y-136296598D01*
X168727540Y-63677998D02*
X168727540Y-63677540D01*
X139542940Y-52298798D02*
X165196941Y-52298798D01*
X196184940Y-83261858D02*
X195347200Y-84099598D01*
X117165540Y-52806798D02*
X121026340Y-52806798D01*
X118816540Y-68580198D02*
X114295340Y-64058998D01*
X177719140Y-58089998D02*
X183510340Y-52298798D01*
X162987600Y-66548200D02*
X141828938Y-66548200D01*
X140279540Y-136982398D02*
X134513740Y-131216598D01*
X137003397Y-125120598D02*
X140229200Y-128346400D01*
X184577140Y-54838798D02*
X185440740Y-54838798D01*
X183586540Y-61671399D02*
X180563941Y-64693998D01*
X194152940Y-90347998D02*
X194152940Y-107848598D01*
X180767140Y-80924598D02*
X180767140Y-67233998D01*
X176906340Y-135280598D02*
X171724740Y-135280598D01*
X117673540Y-137998398D02*
X117673540Y-134213798D01*
X113050740Y-63550998D02*
X114777940Y-63550998D01*
X183993400Y-83414258D02*
X181275140Y-80695998D01*
X118181540Y-134010597D02*
X113965140Y-129794197D01*
X179243139Y-122580598D02*
X179243140Y-109905998D01*
X136292202Y-64185998D02*
X124455340Y-64185998D01*
X188387140Y-121691598D02*
X194152940Y-127457398D01*
X105405340Y-125349198D02*
X111171140Y-119583398D01*
X179243139Y-61645998D02*
X184424739Y-56464398D01*
X181173540Y-66217998D02*
X167686140Y-66217998D01*
X107437340Y-126187398D02*
X113203140Y-120421598D01*
X197708940Y-65379798D02*
X191943140Y-71145598D01*
X193136941Y-127889198D02*
X193136940Y-128778197D01*
X136774340Y-125628597D02*
X140000142Y-128854400D01*
X191536740Y-142570398D02*
X182011740Y-142570398D01*
X191283200Y-91110458D02*
X191612940Y-91440198D01*
X121102540Y-60096598D02*
X116809940Y-64389198D01*
X180437400Y-105866938D02*
X180437400Y-84912400D01*
X126919141Y-109169398D02*
X126919140Y-121056598D01*
X176703602Y-108864598D02*
X179929400Y-105638800D01*
X115133540Y-56032598D02*
X115133540Y-50774798D01*
X167559140Y-125120598D02*
X181173540Y-125120598D01*
X119705540Y-57886798D02*
X119705540Y-55346798D01*
X123591740Y-66217998D02*
X121102540Y-63728798D01*
X198903200Y-85598198D02*
X198903200Y-87910058D01*
X184145340Y-137490398D02*
X178379540Y-131724598D01*
X106421340Y-65582998D02*
X106421340Y-57454998D01*
X138044340Y-122580597D02*
X141270142Y-125806399D01*
X187879140Y-69443798D02*
X187879140Y-77876598D01*
X115235140Y-121259798D02*
X115235140Y-114046198D01*
X194660940Y-61010998D02*
X194660940Y-64135198D01*
X183815140Y-111760198D02*
X187041400Y-108533937D01*
X103883880Y-136395258D02*
X103883880Y-124711657D01*
X180945400Y-106070138D02*
X180945400Y-84683800D01*
X198724940Y-84328658D02*
X197887200Y-85166398D01*
X191943140Y-71145598D02*
X191943140Y-76174799D01*
X138730598Y-121056598D02*
X141956400Y-124282400D01*
X127604940Y-134772598D02*
X121839140Y-140538398D01*
X111196540Y-71780597D02*
X105405340Y-65989398D01*
X119807140Y-112140740D02*
X119807140Y-123164798D01*
X179903540Y-128168598D02*
X183561140Y-131826198D01*
X196363200Y-88951458D02*
X196692940Y-89281198D01*
X115031940Y-127254198D02*
X114269940Y-127254198D01*
X120721540Y-58318598D02*
X120721540Y-57531198D01*
X179674940Y-128676598D02*
X169032340Y-128676598D01*
X133675539Y-133248598D02*
X126995340Y-133248598D01*
X118689540Y-133807398D02*
X114168340Y-129286198D01*
X191892340Y-132842198D02*
X189504740Y-135229798D01*
X172004139Y-55549998D02*
X176677741Y-55549998D01*
X181403000Y-47217938D02*
X193061200Y-47217938D01*
X190520740Y-135661598D02*
X190520740Y-141554398D01*
X193975139Y-71958398D02*
X193975140Y-75361998D01*
X191028740Y-142062398D02*
X182240340Y-142062398D01*
X114727140Y-114249398D02*
X108961340Y-108483599D01*
X192628940Y-91008398D02*
X192628940Y-107238998D01*
X195676940Y-64566998D02*
X189911140Y-70332798D01*
X140152540Y-53822798D02*
X164587340Y-53822798D01*
X124607740Y-127660598D02*
X135961540Y-127660598D01*
X123998140Y-126136598D02*
X136571598Y-126136598D01*
X163978200Y-63982800D02*
X140787538Y-63982800D01*
X108961340Y-131318198D02*
X108961340Y-126822397D01*
X184119940Y-53822798D02*
X186456740Y-53822798D01*
X166416140Y-69265540D02*
X163165400Y-66014800D01*
X111501340Y-62534998D02*
X114346141Y-62534998D01*
X190520740Y-49758798D02*
X190520740Y-55626198D01*
X111704540Y-75768398D02*
X111704540Y-71577398D01*
X109469340Y-64312998D02*
X109469340Y-60502998D01*
X120645341Y-83973060D02*
X120645340Y-107238540D01*
X121102540Y-132588198D02*
X115387540Y-126873198D01*
X192044740Y-48234798D02*
X192044740Y-55016598D01*
X176704000Y-83341000D02*
X176704000Y-79955619D01*
X163063338Y-125298400D02*
X166289140Y-122072598D01*
X120797740Y-137998398D02*
X117673540Y-137998398D01*
X192959140Y-71551998D02*
X192959140Y-75768398D01*
X125496740Y-129692598D02*
X120213540Y-134975798D01*
X177719140Y-121056598D02*
X177719141Y-109296398D01*
X121026340Y-52806798D02*
X126817541Y-58597998D01*
X141219338Y-64998800D02*
X137968140Y-68249998D01*
X191333540Y-59994998D02*
X195676940Y-59994998D01*
X169032340Y-128676598D02*
X163266540Y-134442398D01*
X193162341Y-55422998D02*
X200248940Y-55422999D01*
X167051140Y-47726798D02*
X172842340Y-53517998D01*
X189301540Y-64465398D02*
X185339140Y-68427798D01*
X180767600Y-80924600D02*
X180767600Y-80924598D01*
X165603340Y-51282798D02*
X171394540Y-57073998D01*
X195067800Y-82956598D02*
X194331200Y-83693198D01*
X134361340Y-59613998D02*
X140152540Y-53822798D01*
X121102540Y-131876998D02*
X124810940Y-128168598D01*
X171191340Y-57581998D02*
X177515940Y-57581999D01*
X141270142Y-125806399D02*
X163267000Y-125806400D01*
X114346141Y-62534998D02*
X119197540Y-57683599D01*
X132888140Y-56057998D02*
X138679340Y-50266798D01*
X183485400Y-83642400D02*
X180767600Y-80924600D01*
X185847140Y-68630997D02*
X185847140Y-78714798D01*
X128646340Y-54025997D02*
X132024540Y-54025997D01*
X192755940Y-56438998D02*
X199232940Y-56438999D01*
X119324540Y-68351598D02*
X115362140Y-64389198D01*
X124887140Y-123088598D02*
X137816198Y-123088598D01*
X105913340Y-81559598D02*
X111704540Y-75768398D01*
X140812940Y-55346798D02*
X163977741Y-55346798D01*
X114269940Y-127254198D02*
X118791140Y-122732998D01*
X178735140Y-69265998D02*
X166416140Y-69265998D01*
X124709800Y-85623600D02*
X124709800Y-105486858D01*
X183916740Y-133629598D02*
X179471740Y-129184598D01*
X133065940Y-134772598D02*
X127604940Y-134772598D01*
X115641540Y-51282798D02*
X121635941Y-51282798D01*
X166187541Y-141554398D02*
X138425340Y-141554398D01*
X189403140Y-114020798D02*
X189403140Y-121259798D01*
X199740940Y-84760458D02*
X198903200Y-85598198D01*
X193136940Y-107442198D02*
X187371140Y-113207998D01*
X197708940Y-109321798D02*
X191943140Y-115087598D01*
X103883881Y-66601538D02*
X103883880Y-54917938D01*
X137816198Y-123088598D02*
X141042000Y-126314400D01*
X140381140Y-54330798D02*
X164384140Y-54330798D01*
X168956140Y-63169998D02*
X165704942Y-59918800D01*
X193823200Y-90018258D02*
X194152940Y-90347998D01*
X200248940Y-87832938D02*
X200248940Y-110363199D01*
X170886540Y-133248598D02*
X165120740Y-139014398D01*
X185517400Y-82728000D02*
X182799598Y-80010197D01*
X182291140Y-111125198D02*
X185517400Y-107898938D01*
X140000142Y-128854400D02*
X164537000Y-128854400D01*
X117775140Y-122301198D02*
X117775140Y-113030198D01*
X117597340Y-108483140D02*
X120823140Y-111708940D01*
X122677799Y-84810800D02*
X122677800Y-106350000D01*
X162454200Y-123774399D02*
X165679540Y-120549060D01*
X141016140Y-55854798D02*
X163774540Y-55854798D01*
X120721540Y-133731198D02*
X120721540Y-132943798D01*
X188996740Y-140030398D02*
X183103940Y-140030398D01*
X182468940Y-49758798D02*
X190520740Y-49758798D01*
X137612540Y-143586398D02*
X131846740Y-137820598D01*
X117165540Y-56845398D02*
X117165540Y-52806798D01*
X181783140Y-124510998D02*
X181783140Y-110921998D01*
X191612940Y-106832598D02*
X185847140Y-112598398D01*
X114396940Y-128778197D02*
X111501340Y-128778198D01*
X170048340Y-131216598D02*
X164282540Y-136982398D01*
X187371140Y-122123398D02*
X193136941Y-127889198D01*
X163876138Y-127330400D02*
X167101940Y-124104598D01*
X186456740Y-57277198D02*
X190698540Y-61518998D01*
X183586539Y-59486998D02*
X179903540Y-63169998D01*
X112085540Y-54813398D02*
X112085540Y-47726798D01*
X119807140Y-123164798D02*
X116098739Y-126873198D01*
X131618139Y-138328598D02*
X129027340Y-138328598D01*
X133269140Y-134264598D02*
X127401739Y-134264598D01*
X139593742Y-129870400D02*
X164968800Y-129870400D01*
X190775200Y-91339058D02*
X191104940Y-91668798D01*
X111475940Y-135890198D02*
X104389340Y-135890198D01*
X118308540Y-78435398D02*
X118308540Y-68808798D01*
X123693800Y-105944058D02*
X126919141Y-109169398D01*
X137333602Y-66725998D02*
X123388539Y-66725998D01*
X138679340Y-50266798D02*
X166009740Y-50266798D01*
X183561140Y-130403798D02*
X187066340Y-126898598D01*
X119934140Y-135966398D02*
X119705540Y-135966398D01*
X186863140Y-78282999D02*
X191791200Y-83211058D01*
X115260540Y-70104199D02*
X109469340Y-64312998D01*
X197200940Y-132842198D02*
X191892340Y-132842198D01*
X123693799Y-85216738D02*
X123693800Y-105944058D01*
X182799140Y-124079198D02*
X182799140Y-111328398D01*
X177211600Y-82397798D02*
X177211140Y-82397798D01*
X119705540Y-55346798D02*
X119984940Y-55346798D01*
X122880540Y-80315460D02*
X119629340Y-83566660D01*
X125572940Y-61645998D02*
X135224940Y-61645998D01*
X109469340Y-108280398D02*
X109469340Y-82981998D01*
X112745940Y-132842198D02*
X107437340Y-132842198D01*
X179751599Y-81356398D02*
X179751140Y-81356398D01*
X192628940Y-63271598D02*
X186863140Y-69037398D01*
X193136940Y-63474797D02*
X187371140Y-69240598D01*
X106421340Y-81762798D02*
X112212540Y-75971597D01*
X112009339Y-107264398D02*
X112009340Y-83997998D01*
X183561140Y-132537398D02*
X183535740Y-132537398D01*
X188996740Y-135026598D02*
X188996740Y-140030398D01*
X186863140Y-113004798D02*
X186863140Y-122326598D01*
X176704000Y-79955619D02*
X176703140Y-79954759D01*
X117089340Y-82525260D02*
X117089340Y-108711739D01*
X180132140Y-63677998D02*
X168727540Y-63677998D01*
X109977340Y-130302198D02*
X109977340Y-127228798D01*
X185669340Y-64465398D02*
X183586540Y-62382598D01*
X192959140Y-55930998D02*
X199740940Y-55930998D01*
X183916740Y-137998398D02*
X178150940Y-132232598D01*
X163977741Y-55346798D02*
X169768940Y-61137998D01*
X191460540Y-131826198D02*
X188488740Y-134797998D01*
X106929341Y-109321798D02*
X106929340Y-81965998D01*
X108961340Y-108483599D02*
X108961340Y-82778798D01*
X111907740Y-134874198D02*
X105405340Y-134874198D01*
X167253480Y-144095257D02*
X137384800Y-144095258D01*
X126766740Y-132740598D02*
X121000940Y-138506398D01*
X187041400Y-82093000D02*
X184323598Y-79375198D01*
X190775200Y-83642858D02*
X190775200Y-91339058D01*
X170276940Y-131724598D02*
X164511140Y-137490398D01*
X185339600Y-68428258D02*
X185339140Y-68427798D01*
X113101540Y-136067997D02*
X111907740Y-134874198D01*
X113761940Y-130302198D02*
X109977340Y-130302198D01*
X135860402Y-63169998D02*
X124912540Y-63169998D01*
X200248940Y-135890198D02*
X193162340Y-135890198D01*
X119832540Y-68148398D02*
X119832540Y-79044998D01*
X138450740Y-49758798D02*
X166212940Y-49758798D01*
X192299200Y-83007398D02*
X192299200Y-90678658D01*
X196184941Y-59486998D02*
X196184940Y-64770198D01*
X140635600Y-127330400D02*
X163876138Y-127330400D01*
X193136940Y-90779798D02*
X193136940Y-107442198D01*
X110993340Y-129286198D02*
X110993340Y-127660598D01*
X112517340Y-84226598D02*
X118308540Y-78435398D01*
X120416741Y-54330798D02*
X126207940Y-60121998D01*
X166086402Y-121564598D02*
X178227139Y-121564598D01*
X186355140Y-112801598D02*
X186355140Y-122555198D01*
X186355140Y-122555198D02*
X191562140Y-127762198D01*
X178735600Y-81762801D02*
X178735600Y-81762798D01*
X127020740Y-58089998D02*
X133751740Y-58089998D01*
X184424739Y-56464398D02*
X184424740Y-58140798D01*
X198216940Y-84125459D02*
X197379200Y-84963198D01*
X105913340Y-134366198D02*
X105913340Y-125552398D01*
X167762340Y-125628598D02*
X180970340Y-125628598D01*
X118181540Y-137490399D02*
X118181540Y-134010597D01*
X116251140Y-113639799D02*
X110485340Y-107873998D01*
X185339598Y-78943398D02*
X185339140Y-78943398D01*
X166416140Y-69265998D02*
X166416140Y-69265540D01*
X200761200Y-124718458D02*
X200761200Y-136395258D01*
X183561140Y-128955998D02*
X185618540Y-126898598D01*
X112288741Y-57454998D02*
X114117540Y-55626199D01*
X123794941Y-125628598D02*
X136774340Y-125628597D01*
X112593540Y-48234798D02*
X122855140Y-48234798D01*
X134920140Y-130200598D02*
X125699940Y-130200598D01*
X121127940Y-132588198D02*
X121102540Y-132588198D01*
X184501400Y-107492538D02*
X184501400Y-83185200D01*
X118105340Y-108279940D02*
X121331140Y-111505740D01*
X142260738Y-67564200D02*
X139034940Y-70789998D01*
X110155140Y-119151598D02*
X110155140Y-116154398D01*
X119299140Y-122961598D02*
X119299139Y-112369798D01*
X138222140Y-49250798D02*
X166416140Y-49250798D01*
X185948740Y-136982398D02*
X184373940Y-136982398D01*
X193061200Y-54589113D02*
X193390025Y-54917938D01*
X179929400Y-105638800D02*
X179929400Y-85115598D01*
X124709800Y-105486858D02*
X127935140Y-108712198D01*
X164587340Y-53822798D02*
X170378541Y-59613998D01*
X127198540Y-133756598D02*
X121432740Y-139522398D01*
X162250538Y-123266400D02*
X165476340Y-120040598D01*
X165476340Y-120040598D02*
X176703140Y-120040598D01*
X188488740Y-56438998D02*
X191536740Y-59486998D01*
X176703140Y-79954759D02*
X176703140Y-71297998D01*
X113203140Y-114884398D02*
X107437340Y-109118598D01*
X188895141Y-69900998D02*
X188895140Y-77419398D01*
X186380540Y-64465398D02*
X183586540Y-61671399D01*
X120340540Y-79274060D02*
X117089340Y-82525260D01*
X111583880Y-47217938D02*
X123260680Y-47217938D01*
X165958940Y-141046398D02*
X138628540Y-141046398D01*
X182977400Y-83870998D02*
X180259601Y-81153198D01*
X129027340Y-138328598D02*
X123260680Y-144095258D01*
X121356540Y-67487998D02*
X121356540Y-79705860D01*
X180106740Y-127660598D02*
X183561139Y-131114998D01*
X190012740Y-135432999D02*
X190012740Y-141046398D01*
X180767140Y-65201998D02*
X168117940Y-65201998D01*
X123185800Y-106146800D02*
X126411140Y-109372140D01*
X187828340Y-64465397D02*
X183586540Y-60223598D01*
X178150940Y-132232598D02*
X170480140Y-132232598D01*
X198724940Y-65786198D02*
X192959140Y-71551998D01*
X110180540Y-72186998D02*
X104389340Y-66395798D01*
X114752540Y-70332798D02*
X108961340Y-64541597D01*
X168321140Y-64693541D02*
X165070400Y-61442800D01*
X121102540Y-62255598D02*
X118968940Y-64389198D01*
X121102540Y-62992198D02*
X121077140Y-62992198D01*
X165273142Y-60934800D02*
X139543400Y-60934800D01*
X170683340Y-132740598D02*
X164917540Y-138506399D01*
X194991140Y-116357597D02*
X194991140Y-118948398D01*
X183103940Y-140030398D02*
X177338139Y-134264598D01*
X181833940Y-48234798D02*
X192044740Y-48234798D01*
X131592740Y-53009997D02*
X137384800Y-47217938D01*
X186863140Y-69037398D02*
X186863140Y-78282999D01*
X183815140Y-123647398D02*
X183815140Y-111760198D01*
X200761200Y-86458798D02*
X200761200Y-110587538D01*
X190469940Y-62026998D02*
X193644940Y-62026998D01*
X190012740Y-141046398D02*
X182672140Y-141046398D01*
X197200940Y-89077998D02*
X197200940Y-109093197D01*
X183307140Y-79806998D02*
X183307140Y-67538798D01*
X196871200Y-84734598D02*
X196871200Y-88748258D01*
X138273398Y-122072598D02*
X141499200Y-125298401D01*
X137384800Y-47217938D02*
X167253480Y-47217937D01*
X196184940Y-126619198D02*
X196184940Y-131826197D01*
X190241340Y-62534998D02*
X193136941Y-62534998D01*
X194483140Y-116128998D02*
X194483140Y-119176998D01*
X164384140Y-54330798D02*
X170175340Y-60121998D01*
X162352142Y-68072200D02*
X142464400Y-68072200D01*
X139238140Y-139522398D02*
X133472340Y-133756598D01*
X170175340Y-60121998D02*
X178557340Y-60121998D01*
X168803740Y-128168598D02*
X179903540Y-128168598D01*
X141092340Y-134950397D02*
X135326540Y-129184598D01*
X163571340Y-56362798D02*
X169362540Y-62153998D01*
X194152941Y-61518998D02*
X194152940Y-63906599D01*
X189834940Y-63550997D02*
X191638340Y-63550998D01*
X137384800Y-144095258D02*
X131618139Y-138328598D01*
X111255055Y-54917938D02*
X111583880Y-54589113D01*
X198216940Y-88646199D02*
X198216940Y-109524999D01*
X125979340Y-60629998D02*
X134793139Y-60629998D01*
X137765403Y-67741998D02*
X124404539Y-67741998D01*
X182799140Y-111328398D02*
X182799602Y-111328398D01*
X190012740Y-55829398D02*
X192146340Y-57962998D01*
X185339140Y-123012398D02*
X189199940Y-126873198D01*
X120340540Y-136982398D02*
X118689540Y-136982398D01*
X190317540Y-127254198D02*
X189580940Y-127254198D01*
X163672940Y-135458398D02*
X140889139Y-135458398D01*
X192959140Y-115493998D02*
X192959140Y-119811998D01*
X164079340Y-136474399D02*
X140482740Y-136474398D01*
X117292540Y-78003598D02*
X117292540Y-69215198D01*
X163267000Y-125806400D02*
X166492340Y-122581060D01*
X196184940Y-131826197D02*
X191460540Y-131826198D01*
X192552740Y-134366198D02*
X191028740Y-135890198D01*
X139746138Y-61442800D02*
X136494940Y-64693998D01*
X166898739Y-123597060D02*
X166898740Y-123596598D01*
X183307140Y-51790798D02*
X188488740Y-51790798D01*
X192628940Y-128092398D02*
X192628940Y-128270198D01*
X123058340Y-143586398D02*
X112085540Y-143586399D01*
X111501340Y-63423998D02*
X111501340Y-62534998D01*
X189403140Y-121259798D02*
X195168940Y-127025598D01*
X184501400Y-83185200D02*
X181783598Y-80467398D01*
X182799140Y-67335598D02*
X185669340Y-64465398D01*
X165679540Y-120549060D02*
X165679540Y-120548598D01*
X190012740Y-50266798D02*
X190012740Y-55829398D01*
X199740940Y-110134598D02*
X193975140Y-115900398D01*
X184373940Y-136982398D02*
X178608140Y-131216599D01*
X197200940Y-109093197D02*
X191435140Y-114858998D01*
X193975140Y-75361998D02*
X199740940Y-81127798D01*
X185440740Y-136474398D02*
X184602540Y-136474399D01*
X166212940Y-49758798D02*
X172004139Y-55549998D01*
X120823140Y-53314798D02*
X126614340Y-59105998D01*
X191130340Y-60502998D02*
X195168941Y-60502998D01*
X194152940Y-127457398D02*
X194152940Y-129794197D01*
X110993340Y-107670798D02*
X110993340Y-83591599D01*
X113558740Y-130810198D02*
X109469340Y-130810198D01*
X119654740Y-126873198D02*
X121102540Y-128320998D01*
X108453340Y-59486998D02*
X113101540Y-59486998D01*
X187980740Y-138988998D02*
X187955340Y-139014398D01*
X124379140Y-123596597D02*
X137612540Y-123596598D01*
X128011340Y-135788598D02*
X122245539Y-141554398D01*
X188387140Y-69672398D02*
X188387140Y-77647998D01*
X188996740Y-51282798D02*
X188996740Y-56235798D01*
X116098739Y-126873198D02*
X121102540Y-131876998D01*
X126436539Y-69773998D02*
X126436540Y-81762798D01*
X112009340Y-128270198D02*
X112009340Y-128066998D01*
X180259139Y-110312398D02*
X183485400Y-107086138D01*
X112517340Y-107035798D02*
X112517340Y-84226598D01*
X191536740Y-55219798D02*
X192755940Y-56438998D01*
X141727342Y-124790400D02*
X162860600Y-124790400D01*
X182875340Y-50774798D02*
X189504740Y-50774798D01*
X118613340Y-83160260D02*
X118613340Y-108076740D01*
X118308540Y-68808798D02*
X113050740Y-63550998D01*
X194660940Y-108051798D02*
X188895140Y-113817598D01*
X140838342Y-126822400D02*
X163673400Y-126822399D01*
X193467140Y-119608798D02*
X199232940Y-125374598D01*
X197200940Y-126212798D02*
X197200940Y-132842198D01*
X110993340Y-127660598D02*
X116759140Y-121894798D01*
X121864540Y-67284798D02*
X121864540Y-79909060D01*
X198724940Y-81534198D02*
X198724940Y-84328658D01*
X183916741Y-53314798D02*
X186964740Y-53314798D01*
X104897340Y-110159997D02*
X104897340Y-81153197D01*
X116581340Y-108914940D02*
X119807140Y-112140740D01*
X166822540Y-68249539D02*
X163571801Y-64998800D01*
X133878740Y-132740598D02*
X126766740Y-132740598D01*
X179751140Y-68249998D02*
X166822540Y-68249998D01*
X164790540Y-53314798D02*
X170581740Y-59105998D01*
X127960540Y-82372860D02*
X124709800Y-85623600D01*
X122347139Y-111099340D02*
X122347140Y-124180798D01*
X125039540Y-128676598D02*
X121127940Y-132588198D01*
X117267140Y-122097998D02*
X117267140Y-113233398D01*
X185339600Y-78943397D02*
X185339600Y-68428258D01*
X181275140Y-124612598D02*
X181275140Y-110718798D01*
X113711140Y-61010998D02*
X117673540Y-57048598D01*
X111704540Y-135382198D02*
X104897340Y-135382198D01*
X182672140Y-141046398D02*
X176906340Y-135280598D01*
X127223940Y-57581998D02*
X133523140Y-57581998D01*
X192552740Y-54813398D02*
X193162341Y-55422998D01*
X194991140Y-74955597D02*
X200756940Y-80721398D01*
X104389340Y-55422998D02*
X111475940Y-55422998D01*
X122372540Y-80112261D02*
X119121340Y-83363460D01*
X178227140Y-109499598D02*
X181453400Y-106273338D01*
X177926599Y-84563599D02*
X176704000Y-83341000D01*
X120315140Y-111937539D02*
X120315140Y-123367998D01*
X115235140Y-114046198D02*
X109469340Y-108280398D01*
X118943540Y-126873198D02*
X121102540Y-129032198D01*
X186329740Y-126898598D02*
X183307140Y-123875998D01*
X188387140Y-113614398D02*
X188387140Y-121691598D01*
X111679140Y-119786598D02*
X111679140Y-115493998D01*
X189504740Y-56032598D02*
X191943139Y-58470998D01*
X139034940Y-140030398D02*
X133269140Y-134264598D01*
X191562140Y-127762198D02*
X189784140Y-127762197D01*
X126207940Y-60121998D02*
X134589940Y-60121998D01*
X198216940Y-57454999D02*
X198216940Y-65582997D01*
X118968940Y-64389198D02*
X121864540Y-67284798D01*
X186025400Y-108102600D02*
X186025399Y-82524798D01*
X136367940Y-126644598D02*
X139593742Y-129870400D01*
X185517400Y-107898938D02*
X185517400Y-82728000D01*
X195168941Y-108254998D02*
X189403140Y-114020798D01*
X176271340Y-54533998D02*
X182062540Y-48742798D01*
X184323601Y-79375198D02*
X184323601Y-67971059D01*
X184424740Y-134848798D02*
X179268540Y-129692598D01*
X124252140Y-64693998D02*
X121102540Y-61544398D01*
X169845140Y-130708598D02*
X164079340Y-136474399D01*
X200761200Y-54919258D02*
X200761200Y-66594738D01*
X162555800Y-67564200D02*
X142260738Y-67564200D01*
X114625540Y-55829398D02*
X114625540Y-50266798D01*
X110663140Y-119354798D02*
X110663140Y-115925798D01*
X190520740Y-141554398D02*
X182443539Y-141554398D01*
X167025740Y-67741998D02*
X163774542Y-64490800D01*
X115362140Y-64389198D02*
X121102540Y-58648798D01*
X177926599Y-85103001D02*
X177926599Y-84563599D01*
X134589940Y-60121998D02*
X140381140Y-54330798D01*
X110485340Y-63881198D02*
X110485340Y-61518998D01*
X192324140Y-133858198D02*
X190520740Y-135661598D01*
X164105200Y-127838400D02*
X167330541Y-124613060D01*
X114168340Y-129286198D02*
X110993340Y-129286198D01*
X121432740Y-139522398D02*
X116149540Y-139522399D01*
X125699940Y-130200598D02*
X119934140Y-135966398D01*
X112212540Y-75971597D02*
X112212540Y-71374198D01*
X112009340Y-63220798D02*
X112009340Y-63042998D01*
X196692940Y-108889998D02*
X190927140Y-114655798D01*
X184958141Y-64465398D02*
X183586540Y-63093798D01*
X110485340Y-107873998D02*
X110485340Y-83388398D01*
X194991140Y-118948398D02*
X200761200Y-124718458D01*
X135326540Y-129184598D02*
X125268140Y-129184598D01*
X108453340Y-82575598D02*
X114244540Y-76784398D01*
X117800540Y-69011998D02*
X112009340Y-63220798D01*
X119705540Y-135966398D02*
X119705540Y-133375598D01*
X181783599Y-80467398D02*
X181783599Y-66929657D01*
X118283140Y-112801598D02*
X112517340Y-107035798D01*
X114625540Y-135432998D02*
X112542740Y-133350198D01*
X125395140Y-109803940D02*
X125395140Y-122580597D01*
X113101540Y-142570399D02*
X113101540Y-136067997D01*
X127427139Y-120548598D02*
X138958740Y-120548598D01*
X139238602Y-71297998D02*
X127960540Y-71297998D01*
X123871140Y-124104598D02*
X137409798Y-124104598D01*
X194331200Y-89789658D02*
X194660940Y-90119398D01*
X185440740Y-54838798D02*
X185440740Y-57734398D01*
X121102540Y-130454598D02*
X124404540Y-127152599D01*
X119197540Y-57683599D02*
X119197540Y-54838798D01*
X127808140Y-135280598D02*
X122042340Y-141046398D01*
X141244741Y-56362798D02*
X163571340Y-56362798D01*
X178557340Y-60121998D02*
X184348540Y-54330798D01*
X136088540Y-63677998D02*
X124683940Y-63677998D01*
X108961340Y-126822397D02*
X114727140Y-121056598D01*
X188387140Y-77647998D02*
X193670340Y-82931198D01*
X186456740Y-53822798D02*
X186456740Y-57277198D01*
X120721540Y-57531198D02*
X125344340Y-62153998D01*
X183586540Y-60934798D02*
X180335340Y-64185998D01*
X123820340Y-65709998D02*
X121102540Y-62992198D01*
X112009340Y-128066998D02*
X117775140Y-122301198D01*
X183713540Y-138506399D02*
X177947740Y-132740598D01*
X187117140Y-64465398D02*
X183586540Y-60934798D01*
X116149540Y-139522399D02*
X116149540Y-134823398D01*
X166822540Y-68249998D02*
X166822540Y-68249539D01*
X199411199Y-87706858D02*
X199740940Y-88036598D01*
X135224940Y-61645998D02*
X141016140Y-55854798D01*
X171318340Y-134264598D02*
X165552540Y-140030398D01*
X178735140Y-122072598D02*
X178735140Y-109702798D01*
X165552540Y-140030398D02*
X139034940Y-140030398D01*
X166009740Y-50266798D02*
X171800940Y-56057998D01*
X112593540Y-136271198D02*
X111704540Y-135382198D01*
X108961340Y-59994998D02*
X113304740Y-59994998D01*
X183561140Y-131826198D02*
X188488740Y-126898598D01*
X119197540Y-136474399D02*
X119197540Y-133578798D01*
X184831141Y-79171998D02*
X184831140Y-68199198D01*
X116251140Y-121691598D02*
X116251140Y-113639799D01*
X117165540Y-138506399D02*
X117165540Y-134416998D01*
X142032600Y-67056200D02*
X138806802Y-70281998D01*
X171597740Y-56565998D02*
X177084140Y-56565998D01*
X118689540Y-54330798D02*
X120416741Y-54330798D01*
X189911140Y-70332798D02*
X189911140Y-76987598D01*
X191283199Y-83413798D02*
X191283200Y-91110458D01*
X131795940Y-53517999D02*
X137587140Y-47726798D01*
X194660940Y-130302198D02*
X190825540Y-130302199D01*
X121102540Y-61544398D02*
X118257740Y-64389198D01*
X192807200Y-90450058D02*
X193136940Y-90779798D01*
X197708940Y-133350198D02*
X192095540Y-133350199D01*
X116073340Y-64389198D02*
X119832540Y-68148398D01*
X114777940Y-63550998D02*
X120213540Y-58115398D01*
X138882540Y-50774798D02*
X165806540Y-50774798D01*
X172385140Y-136804598D02*
X166619340Y-142570398D01*
X121839140Y-111302540D02*
X121839140Y-123977598D01*
X109469340Y-82981998D02*
X115260541Y-77190798D01*
X173045540Y-53009997D02*
X175610940Y-53009998D01*
X108453340Y-131826198D02*
X108453340Y-126619198D01*
X194660940Y-127254198D02*
X194660940Y-130302198D01*
X121839140Y-50774798D02*
X127630340Y-56565998D01*
X183586540Y-63804999D02*
X181173540Y-66217998D01*
X116657540Y-134620198D02*
X113355540Y-131318199D01*
X116759140Y-113436598D02*
X110993340Y-107670798D01*
X186964740Y-57073998D02*
X190901740Y-61010998D01*
X116581340Y-82296198D02*
X116581340Y-108914940D01*
X135021740Y-61137998D02*
X140812940Y-55346798D01*
X195347200Y-89383258D02*
X195676940Y-89712998D01*
X121102540Y-59359998D02*
X116073340Y-64389198D01*
X104389340Y-135890198D02*
X104389340Y-124917398D01*
X164180940Y-54838798D02*
X169972140Y-60629998D01*
X114803340Y-127762198D02*
X113025340Y-127762197D01*
X178608140Y-131216599D02*
X170048340Y-131216598D01*
X192120940Y-107035797D02*
X186355140Y-112801598D01*
X121102540Y-129743398D02*
X124201340Y-126644598D01*
X110688540Y-75361998D02*
X110688540Y-71983798D01*
X195676940Y-59994998D02*
X195676940Y-64566998D01*
X188895140Y-121488398D02*
X194660940Y-127254198D01*
X180259601Y-81153198D02*
X180259139Y-81153198D01*
X116657540Y-139014398D02*
X116657540Y-134620198D01*
X191435140Y-76377998D02*
X197200940Y-82143798D01*
X167330540Y-124612598D02*
X181275140Y-124612598D01*
X166695540Y-123088598D02*
X179751140Y-123088599D01*
X122042340Y-141046398D02*
X114625540Y-141046398D01*
X184323140Y-67970598D02*
X187828340Y-64465397D01*
X196363200Y-84505998D02*
X196363200Y-88951458D01*
X185618540Y-126898598D02*
X182799140Y-124079198D01*
X194381540Y-82931658D02*
X193823200Y-83489998D01*
X191435140Y-70942398D02*
X191435140Y-76377998D01*
X165577940Y-71297998D02*
X162352142Y-68072200D01*
X165323940Y-139522398D02*
X139238140Y-139522398D01*
X172639140Y-54025998D02*
X176042740Y-54025998D01*
X181173540Y-125120598D02*
X183561140Y-127508198D01*
X139111600Y-59918800D02*
X135860402Y-63169998D01*
X178227140Y-69773998D02*
X166212941Y-69773998D01*
X121102540Y-127584398D02*
X123566340Y-125120599D01*
X167990940Y-126136598D02*
X180741740Y-126136598D01*
X165781139Y-70789998D02*
X165781139Y-70789540D01*
X192299200Y-90678658D02*
X192628940Y-91008398D01*
X199740940Y-81127798D02*
X199740940Y-84760458D01*
X117800540Y-78206798D02*
X117800540Y-69011998D01*
X188488740Y-134797998D02*
X188488740Y-139522398D01*
X114625540Y-141046398D02*
X114625540Y-135432998D01*
X169565740Y-61645998D02*
X179243139Y-61645998D01*
X112187140Y-119989798D02*
X112187140Y-115290798D01*
X113304740Y-59994998D02*
X116657540Y-56642198D01*
X132659540Y-135788598D02*
X128011340Y-135788598D01*
X165171538Y-130378400D02*
X168397341Y-127152598D01*
X163673400Y-126822399D02*
X166898739Y-123597060D01*
X164917540Y-138506399D02*
X139644540Y-138506398D01*
X190927140Y-120650198D02*
X196692940Y-126415998D01*
X183561140Y-128219398D02*
X184881940Y-126898598D01*
X122855140Y-48234798D02*
X128646340Y-54025997D01*
X163266540Y-134442398D02*
X141320940Y-134442399D01*
X163571801Y-64998800D02*
X141219338Y-64998800D01*
X120137340Y-83769859D02*
X120137340Y-107441740D01*
X116276540Y-69672397D02*
X110485340Y-63881198D01*
X124455340Y-64185998D02*
X121102540Y-60833198D01*
X120213540Y-56286598D02*
X125572940Y-61645998D01*
X195168940Y-130810197D02*
X191028740Y-130810198D01*
X181808540Y-143078398D02*
X176042740Y-137312598D01*
X163774540Y-55854798D02*
X169565740Y-61645998D01*
X116657540Y-52298798D02*
X121229540Y-52298798D01*
X110663140Y-115925798D02*
X104897340Y-110159997D01*
X114981140Y-64058998D02*
X120721540Y-58318598D01*
X112187140Y-115290798D02*
X106421340Y-109524998D01*
X117089340Y-108711739D02*
X120315140Y-111937539D01*
X121356540Y-79705860D02*
X118105340Y-82957060D01*
X121635941Y-51282798D02*
X127427140Y-57073998D01*
X181630740Y-47726798D02*
X192552740Y-47726798D01*
X191612940Y-91440198D02*
X191612940Y-106832598D01*
X186533400Y-108331200D02*
X186533400Y-82322058D01*
X180767602Y-110515598D02*
X183993399Y-107289800D01*
X140482740Y-136474398D02*
X134716940Y-130708598D01*
X200759880Y-54917938D02*
X200761200Y-54919258D01*
X126563540Y-132232599D02*
X120797740Y-137998398D01*
X111583880Y-136724083D02*
X111255055Y-136395258D01*
X140584800Y-63474800D02*
X137333602Y-66725998D01*
X128239940Y-55041998D02*
X132430940Y-55041998D01*
X168194140Y-126644597D02*
X180538540Y-126644597D01*
X123363140Y-110667540D02*
X123363140Y-124612597D01*
X137409798Y-124104598D02*
X140635600Y-127330400D01*
X113533340Y-84632998D02*
X119324540Y-78841798D01*
X120340540Y-67919798D02*
X120340540Y-79274060D01*
X142184542Y-123774400D02*
X162454200Y-123774399D01*
X179471740Y-129184598D02*
X169235540Y-129184599D01*
X192120940Y-91211598D02*
X192120940Y-107035797D01*
X107437340Y-58470998D02*
X112695140Y-58470998D01*
X192959140Y-119811998D02*
X198724940Y-125577798D01*
X198724940Y-125577798D02*
X198724940Y-134366198D01*
X187879140Y-77876598D02*
X187879600Y-77876598D01*
X123058340Y-47726798D02*
X128849540Y-53517998D01*
X104897340Y-66192598D02*
X104897340Y-55930998D01*
X112212540Y-71374198D02*
X106421340Y-65582998D01*
X172207340Y-55041998D02*
X176474540Y-55041998D01*
X177719141Y-109296398D02*
X180945400Y-106070138D01*
X167330541Y-124613060D02*
X167330540Y-124612598D01*
X193670800Y-82931198D02*
X193315200Y-83286798D01*
X112593540Y-143078398D02*
X112593540Y-136271198D01*
X191104940Y-91668798D02*
X191104940Y-106629398D01*
X135961540Y-127660598D02*
X139187342Y-130886400D01*
X198216940Y-81737398D02*
X198216940Y-84125459D01*
X165196941Y-52298798D02*
X170988140Y-58089998D01*
X188895140Y-77419398D02*
X194381540Y-82905798D01*
X178227140Y-81965998D02*
X178227140Y-69773998D01*
X134513740Y-131216598D02*
X126106340Y-131216598D01*
X194660940Y-64135198D02*
X188895141Y-69900998D01*
D18*
%TO.N,LS_3V3*%
X171932500Y-114046000D02*
X170408500Y-115570000D01*
X143256000Y-102108000D02*
X143256000Y-89408000D01*
X143256000Y-89408000D02*
X144272000Y-88392000D01*
X144272000Y-88392000D02*
X144272000Y-73406000D01*
X144272000Y-73406000D02*
X148844000Y-68834000D01*
X170408500Y-115570000D02*
X149161000Y-115570000D01*
X149161000Y-115570000D02*
X146367000Y-112776000D01*
X148844000Y-68834000D02*
X149098000Y-68834000D01*
X146367000Y-112776000D02*
X146367000Y-105219000D01*
X146367000Y-105219000D02*
X143256000Y-102108000D01*
D19*
%TO.N,SDA*%
X140413842Y-117094000D02*
X139679680Y-116359838D01*
X176042320Y-105684320D02*
X168843000Y-98485000D01*
X140970000Y-117094000D02*
X140413842Y-117094000D01*
X175514000Y-114554000D02*
X176042320Y-114025680D01*
X175514000Y-114554000D02*
X172974000Y-117094000D01*
X176042320Y-114025680D02*
X176042320Y-105684320D01*
X139679680Y-109939320D02*
X140208000Y-109411000D01*
X139679680Y-116359838D02*
X139679680Y-109939320D01*
X172974000Y-117094000D02*
X140970000Y-117094000D01*
%TO.N,SCL*%
X175514000Y-110490000D02*
X170243000Y-105219000D01*
X140208000Y-116141000D02*
X140759680Y-116692680D01*
X170243000Y-105219000D02*
X168839000Y-105219000D01*
X140759680Y-116692680D02*
X171343320Y-116692680D01*
X171343320Y-116692680D02*
X175514000Y-112522000D01*
X175514000Y-112522000D02*
X175514000Y-110490000D01*
%TO.N,SCL_M*%
X164317680Y-91184481D02*
X164317680Y-99047680D01*
X164317680Y-99047680D02*
X168839000Y-103569000D01*
%TO.N,SDA_M*%
X165100000Y-96400000D02*
X168878500Y-100178500D01*
X165100000Y-91186000D02*
X165100000Y-96400000D01*
%TO.N,SCL_IO*%
X136715000Y-90995000D02*
X135636000Y-89916000D01*
X136715000Y-100838000D02*
X136715000Y-90995000D01*
%TO.N,SDA_IO*%
X136398000Y-89916000D02*
X140145000Y-93663000D01*
X140145000Y-93663000D02*
X140145000Y-100838000D01*
%TO.N,COIL_DRIVER_EN*%
X160528000Y-122428000D02*
X161481000Y-121475000D01*
X161481000Y-121475000D02*
X161481000Y-118110000D01*
%TO.N,Net-(Q20-D)*%
X166624000Y-113949000D02*
X165940500Y-114632500D01*
X166624000Y-107696000D02*
X166624000Y-113949000D01*
%TD*%
%TA.AperFunction,Conductor*%
%TO.N,GND*%
G36*
X131453699Y-138783123D02*
G01*
X131474341Y-138799757D01*
X136746485Y-144071899D01*
X136779970Y-144133222D01*
X136774986Y-144202914D01*
X136733114Y-144258847D01*
X136667650Y-144283264D01*
X136658804Y-144283580D01*
X123986677Y-144283580D01*
X123919638Y-144263895D01*
X123873883Y-144211091D01*
X123863939Y-144141933D01*
X123892964Y-144078377D01*
X123898996Y-144071899D01*
X129171138Y-138799757D01*
X129232461Y-138766272D01*
X129258819Y-138763438D01*
X131386660Y-138763438D01*
X131453699Y-138783123D01*
G37*
%TD.AperFunction*%
%TA.AperFunction,Conductor*%
G36*
X175471900Y-138783123D02*
G01*
X175492542Y-138799757D01*
X180764684Y-144071899D01*
X180798169Y-144133222D01*
X180793185Y-144202914D01*
X180751313Y-144258847D01*
X180685849Y-144283264D01*
X180677003Y-144283580D01*
X167979476Y-144283580D01*
X167912437Y-144263895D01*
X167866682Y-144211091D01*
X167856738Y-144141933D01*
X167885763Y-144078377D01*
X167891795Y-144071899D01*
X173163937Y-138799757D01*
X173225260Y-138766272D01*
X173251618Y-138763438D01*
X175404861Y-138763438D01*
X175471900Y-138783123D01*
G37*
%TD.AperFunction*%
%TA.AperFunction,Conductor*%
G36*
X200862914Y-111203294D02*
G01*
X200918847Y-111245166D01*
X200943264Y-111310630D01*
X200943580Y-111319476D01*
X200943580Y-123986519D01*
X200923895Y-124053558D01*
X200871091Y-124099313D01*
X200801933Y-124109257D01*
X200738377Y-124080232D01*
X200731899Y-124074200D01*
X195462299Y-118804600D01*
X195428814Y-118743277D01*
X195425980Y-118716919D01*
X195425980Y-116589076D01*
X195445665Y-116522037D01*
X195462299Y-116501395D01*
X200731899Y-111231795D01*
X200793222Y-111198310D01*
X200862914Y-111203294D01*
G37*
%TD.AperFunction*%
%TA.AperFunction,Conductor*%
G36*
X103901623Y-111227483D02*
G01*
X103908101Y-111233515D01*
X109175981Y-116501395D01*
X109209466Y-116562718D01*
X109212300Y-116589076D01*
X109212300Y-118716918D01*
X109192615Y-118783957D01*
X109175981Y-118804599D01*
X103908101Y-124072479D01*
X103846778Y-124105964D01*
X103777086Y-124100980D01*
X103721153Y-124059108D01*
X103696736Y-123993644D01*
X103696420Y-123984798D01*
X103696420Y-111321196D01*
X103716105Y-111254157D01*
X103768909Y-111208402D01*
X103838067Y-111198458D01*
X103901623Y-111227483D01*
G37*
%TD.AperFunction*%
%TA.AperFunction,Conductor*%
G36*
X148309312Y-68526725D02*
G01*
X148355067Y-68579529D01*
X148365011Y-68648687D01*
X148335986Y-68712243D01*
X148329954Y-68718721D01*
X143915913Y-73132761D01*
X143915909Y-73132767D01*
X143857327Y-73234233D01*
X143857326Y-73234236D01*
X143827000Y-73347415D01*
X143827000Y-88156313D01*
X143807315Y-88223352D01*
X143790681Y-88243994D01*
X142899913Y-89134761D01*
X142899909Y-89134767D01*
X142841327Y-89236233D01*
X142841326Y-89236236D01*
X142811000Y-89349415D01*
X142811000Y-102166585D01*
X142831274Y-102242251D01*
X142841327Y-102279766D01*
X142841327Y-102279767D01*
X142889093Y-102362499D01*
X142899909Y-102381233D01*
X142899914Y-102381239D01*
X145885681Y-105367006D01*
X145919166Y-105428329D01*
X145922000Y-105454687D01*
X145922000Y-112499361D01*
X145910795Y-112550872D01*
X145874080Y-112631266D01*
X145853271Y-112776000D01*
X145874080Y-112920734D01*
X145923981Y-113030000D01*
X145934824Y-113053743D01*
X146030579Y-113164250D01*
X146030581Y-113164251D01*
X146030580Y-113164251D01*
X146132955Y-113230043D01*
X146153589Y-113243304D01*
X146195975Y-113255749D01*
X146248720Y-113287045D01*
X148887764Y-115926089D01*
X148989237Y-115984675D01*
X149102414Y-116015000D01*
X149102415Y-116015000D01*
X149102416Y-116015000D01*
X170467084Y-116015000D01*
X170467086Y-116015000D01*
X170524805Y-115999534D01*
X170537003Y-115996266D01*
X170551422Y-115992402D01*
X170580264Y-115984674D01*
X170681736Y-115926089D01*
X170764589Y-115843236D01*
X172050780Y-114557043D01*
X172103523Y-114525749D01*
X172145911Y-114513304D01*
X172268921Y-114434250D01*
X172364676Y-114323743D01*
X172425419Y-114190734D01*
X172446229Y-114046000D01*
X172425419Y-113901266D01*
X172423125Y-113896243D01*
X172364676Y-113768258D01*
X172364676Y-113768257D01*
X172268921Y-113657750D01*
X172268918Y-113657748D01*
X172268919Y-113657748D01*
X172145913Y-113578697D01*
X172145912Y-113578696D01*
X172145911Y-113578696D01*
X172063932Y-113554624D01*
X172005612Y-113537500D01*
X172005611Y-113537500D01*
X171859389Y-113537500D01*
X171859388Y-113537500D01*
X171719086Y-113578697D01*
X171596080Y-113657748D01*
X171500324Y-113768257D01*
X171500323Y-113768258D01*
X171441874Y-113896243D01*
X171416761Y-113932412D01*
X170260494Y-115088681D01*
X170199171Y-115122166D01*
X170172813Y-115125000D01*
X166458110Y-115125000D01*
X166391071Y-115105315D01*
X166345316Y-115052511D01*
X166335372Y-114983353D01*
X166364397Y-114919797D01*
X166364398Y-114919797D01*
X166372673Y-114910247D01*
X166372673Y-114910245D01*
X166372676Y-114910243D01*
X166433419Y-114777234D01*
X166444023Y-114703474D01*
X166473047Y-114639920D01*
X166479065Y-114633456D01*
X166929276Y-114183247D01*
X166939489Y-114165557D01*
X166979501Y-114096254D01*
X167005500Y-113999225D01*
X167005500Y-112776000D01*
X172968271Y-112776000D01*
X172989080Y-112920734D01*
X173038981Y-113030000D01*
X173049824Y-113053743D01*
X173145579Y-113164250D01*
X173145581Y-113164251D01*
X173145580Y-113164251D01*
X173247955Y-113230043D01*
X173268589Y-113243304D01*
X173379727Y-113275937D01*
X173408888Y-113284500D01*
X173408889Y-113284500D01*
X173555112Y-113284500D01*
X173579254Y-113277410D01*
X173695411Y-113243304D01*
X173818421Y-113164250D01*
X173914176Y-113053743D01*
X173974919Y-112920734D01*
X173995729Y-112776000D01*
X173974919Y-112631266D01*
X173972625Y-112626243D01*
X173938204Y-112550872D01*
X173914176Y-112498257D01*
X173818421Y-112387750D01*
X173818418Y-112387748D01*
X173818419Y-112387748D01*
X173695413Y-112308697D01*
X173695412Y-112308696D01*
X173695411Y-112308696D01*
X173613432Y-112284624D01*
X173555112Y-112267500D01*
X173555111Y-112267500D01*
X173408889Y-112267500D01*
X173408888Y-112267500D01*
X173268586Y-112308697D01*
X173145580Y-112387748D01*
X173049824Y-112498257D01*
X173049823Y-112498258D01*
X172989080Y-112631265D01*
X172968271Y-112776000D01*
X167005500Y-112776000D01*
X167005500Y-110490000D01*
X169412271Y-110490000D01*
X169433080Y-110634734D01*
X169493823Y-110767741D01*
X169493824Y-110767743D01*
X169589579Y-110878250D01*
X169589581Y-110878251D01*
X169589580Y-110878251D01*
X169648731Y-110916265D01*
X169712589Y-110957304D01*
X169823727Y-110989937D01*
X169852888Y-110998500D01*
X169852889Y-110998500D01*
X169999112Y-110998500D01*
X170023254Y-110991410D01*
X170139411Y-110957304D01*
X170262421Y-110878250D01*
X170358176Y-110767743D01*
X170418919Y-110634734D01*
X170439729Y-110490000D01*
X171444271Y-110490000D01*
X171465080Y-110634734D01*
X171525823Y-110767741D01*
X171525824Y-110767743D01*
X171621579Y-110878250D01*
X171621581Y-110878251D01*
X171621580Y-110878251D01*
X171680731Y-110916265D01*
X171744589Y-110957304D01*
X171855727Y-110989937D01*
X171884888Y-110998500D01*
X171884889Y-110998500D01*
X172031112Y-110998500D01*
X172055254Y-110991410D01*
X172171411Y-110957304D01*
X172294421Y-110878250D01*
X172390176Y-110767743D01*
X172450919Y-110634734D01*
X172471729Y-110490000D01*
X172450919Y-110345266D01*
X172390176Y-110212257D01*
X172294421Y-110101750D01*
X172294418Y-110101748D01*
X172294419Y-110101748D01*
X172171413Y-110022697D01*
X172171412Y-110022696D01*
X172171411Y-110022696D01*
X172089432Y-109998624D01*
X172031112Y-109981500D01*
X172031111Y-109981500D01*
X171884889Y-109981500D01*
X171884888Y-109981500D01*
X171744586Y-110022697D01*
X171621580Y-110101748D01*
X171525824Y-110212257D01*
X171525823Y-110212258D01*
X171465080Y-110345265D01*
X171444271Y-110490000D01*
X170439729Y-110490000D01*
X170418919Y-110345266D01*
X170358176Y-110212257D01*
X170262421Y-110101750D01*
X170262418Y-110101748D01*
X170262419Y-110101748D01*
X170139413Y-110022697D01*
X170139412Y-110022696D01*
X170139411Y-110022696D01*
X170057432Y-109998624D01*
X169999112Y-109981500D01*
X169999111Y-109981500D01*
X169852889Y-109981500D01*
X169852888Y-109981500D01*
X169712586Y-110022697D01*
X169589580Y-110101748D01*
X169493824Y-110212257D01*
X169493823Y-110212258D01*
X169433080Y-110345265D01*
X169412271Y-110490000D01*
X167005500Y-110490000D01*
X167005500Y-108458000D01*
X169412271Y-108458000D01*
X169433080Y-108602734D01*
X169493823Y-108735741D01*
X169493824Y-108735743D01*
X169589579Y-108846250D01*
X169589581Y-108846251D01*
X169589580Y-108846251D01*
X169677105Y-108902500D01*
X169712589Y-108925304D01*
X169823727Y-108957937D01*
X169852888Y-108966500D01*
X169852889Y-108966500D01*
X169999112Y-108966500D01*
X170023254Y-108959410D01*
X170139411Y-108925304D01*
X170262421Y-108846250D01*
X170358176Y-108735743D01*
X170418919Y-108602734D01*
X170439729Y-108458000D01*
X170421006Y-108327780D01*
X170418919Y-108313265D01*
X170358176Y-108180258D01*
X170358176Y-108180257D01*
X170262421Y-108069750D01*
X170262418Y-108069748D01*
X170262419Y-108069748D01*
X170139413Y-107990697D01*
X170139412Y-107990696D01*
X170139411Y-107990696D01*
X170036168Y-107960381D01*
X169999112Y-107949500D01*
X169999111Y-107949500D01*
X169852889Y-107949500D01*
X169852888Y-107949500D01*
X169712586Y-107990697D01*
X169589580Y-108069748D01*
X169493824Y-108180257D01*
X169493823Y-108180258D01*
X169433080Y-108313265D01*
X169412271Y-108458000D01*
X167005500Y-108458000D01*
X167005500Y-108078475D01*
X167025185Y-108011436D01*
X167035782Y-107997277D01*
X167056176Y-107973743D01*
X167116919Y-107840734D01*
X167137729Y-107696000D01*
X167116919Y-107551266D01*
X167096018Y-107505500D01*
X167056176Y-107418258D01*
X167056176Y-107418257D01*
X166960421Y-107307750D01*
X166960418Y-107307748D01*
X166960419Y-107307748D01*
X166837413Y-107228697D01*
X166837412Y-107228696D01*
X166837411Y-107228696D01*
X166755432Y-107204624D01*
X166697112Y-107187500D01*
X166697111Y-107187500D01*
X166550889Y-107187500D01*
X166550888Y-107187500D01*
X166410586Y-107228697D01*
X166287580Y-107307748D01*
X166191824Y-107418257D01*
X166191823Y-107418258D01*
X166131080Y-107551265D01*
X166110271Y-107696000D01*
X166131080Y-107840734D01*
X166185722Y-107960381D01*
X166191824Y-107973743D01*
X166212212Y-107997272D01*
X166241238Y-108060826D01*
X166242500Y-108078475D01*
X166242500Y-113739615D01*
X166222815Y-113806654D01*
X166206181Y-113827296D01*
X165945728Y-114087748D01*
X165884405Y-114121233D01*
X165875699Y-114122804D01*
X165867393Y-114123998D01*
X165727086Y-114165197D01*
X165604080Y-114244248D01*
X165508324Y-114354757D01*
X165508323Y-114354758D01*
X165447580Y-114487765D01*
X165426771Y-114632500D01*
X165447580Y-114777234D01*
X165508323Y-114910241D01*
X165508326Y-114910247D01*
X165516602Y-114919797D01*
X165545628Y-114983352D01*
X165535685Y-115052511D01*
X165489930Y-115105315D01*
X165422891Y-115125000D01*
X153394000Y-115125000D01*
X153326961Y-115105315D01*
X153281206Y-115052511D01*
X153270000Y-115001000D01*
X153270000Y-112881000D01*
X151370000Y-112881000D01*
X151370000Y-115001000D01*
X151350315Y-115068039D01*
X151297511Y-115113794D01*
X151246000Y-115125000D01*
X149396687Y-115125000D01*
X149329648Y-115105315D01*
X149309006Y-115088681D01*
X146882739Y-112662414D01*
X146857625Y-112626243D01*
X146823205Y-112550872D01*
X146812000Y-112499362D01*
X146812000Y-105160417D01*
X146812000Y-105160415D01*
X146781674Y-105047236D01*
X146723089Y-104945764D01*
X146640236Y-104862911D01*
X143737319Y-101959994D01*
X143703834Y-101898671D01*
X143701000Y-101872313D01*
X143701000Y-95660000D01*
X144438558Y-95660000D01*
X144458638Y-96222245D01*
X144458638Y-96222248D01*
X144518780Y-96781649D01*
X144618673Y-97335320D01*
X144618677Y-97335336D01*
X144757808Y-97880446D01*
X144757812Y-97880459D01*
X144935485Y-98414282D01*
X145150788Y-98934069D01*
X145402624Y-99437173D01*
X145689709Y-99921029D01*
X145689712Y-99921034D01*
X145689719Y-99921045D01*
X146010582Y-100383174D01*
X146363592Y-100821233D01*
X146363608Y-100821251D01*
X146746978Y-101233021D01*
X146996948Y-101465750D01*
X147158753Y-101616396D01*
X147158759Y-101616401D01*
X147158766Y-101616407D01*
X147596825Y-101969417D01*
X148058954Y-102290280D01*
X148058961Y-102290284D01*
X148058971Y-102290291D01*
X148542827Y-102577376D01*
X149045931Y-102829212D01*
X149565718Y-103044515D01*
X150099541Y-103222188D01*
X150644679Y-103361326D01*
X151198354Y-103461220D01*
X151757744Y-103521361D01*
X152320000Y-103541442D01*
X152882256Y-103521361D01*
X153441646Y-103461220D01*
X153995321Y-103361326D01*
X154540459Y-103222188D01*
X155074282Y-103044515D01*
X155594069Y-102829212D01*
X156097173Y-102577376D01*
X156581029Y-102290291D01*
X156596187Y-102279767D01*
X156809381Y-102131743D01*
X157043172Y-101969419D01*
X157186398Y-101854000D01*
X162237271Y-101854000D01*
X162258080Y-101998734D01*
X162294337Y-102078124D01*
X162318824Y-102131743D01*
X162414579Y-102242250D01*
X162414581Y-102242251D01*
X162414580Y-102242251D01*
X162472955Y-102279766D01*
X162537589Y-102321304D01*
X162648727Y-102353937D01*
X162677888Y-102362500D01*
X162677889Y-102362500D01*
X162824112Y-102362500D01*
X162848254Y-102355410D01*
X162964411Y-102321304D01*
X163087421Y-102242250D01*
X163183176Y-102131743D01*
X163243919Y-101998734D01*
X163264729Y-101854000D01*
X163243919Y-101709266D01*
X163183176Y-101576257D01*
X163087421Y-101465750D01*
X163087418Y-101465748D01*
X163087419Y-101465748D01*
X162964413Y-101386697D01*
X162964412Y-101386696D01*
X162964411Y-101386696D01*
X162882432Y-101362624D01*
X162824112Y-101345500D01*
X162824111Y-101345500D01*
X162677889Y-101345500D01*
X162677888Y-101345500D01*
X162537586Y-101386697D01*
X162414580Y-101465748D01*
X162318824Y-101576257D01*
X162318823Y-101576258D01*
X162258080Y-101709265D01*
X162237271Y-101854000D01*
X157186398Y-101854000D01*
X157481247Y-101616396D01*
X157893021Y-101233021D01*
X158276396Y-100821247D01*
X158629419Y-100383172D01*
X158950291Y-99921029D01*
X159237376Y-99437173D01*
X159489212Y-98934069D01*
X159704515Y-98414282D01*
X159882188Y-97880459D01*
X160021326Y-97335321D01*
X160121220Y-96781646D01*
X160181361Y-96222256D01*
X160201442Y-95660000D01*
X160181361Y-95097744D01*
X160121220Y-94538354D01*
X160021326Y-93984679D01*
X159970285Y-93784704D01*
X159882191Y-93439553D01*
X159882187Y-93439539D01*
X159704515Y-92905718D01*
X159489212Y-92385931D01*
X159237376Y-91882827D01*
X158950291Y-91398971D01*
X158950284Y-91398961D01*
X158950280Y-91398954D01*
X158629417Y-90936825D01*
X158276407Y-90498766D01*
X158276401Y-90498759D01*
X158276396Y-90498753D01*
X158168907Y-90383302D01*
X157893021Y-90086978D01*
X157481251Y-89703608D01*
X157481233Y-89703592D01*
X157043174Y-89350582D01*
X156581045Y-89029719D01*
X156581034Y-89029712D01*
X156581029Y-89029709D01*
X156097173Y-88742624D01*
X155594069Y-88490788D01*
X155074282Y-88275485D01*
X154716227Y-88156313D01*
X154553043Y-88102000D01*
X160967271Y-88102000D01*
X160988080Y-88246734D01*
X161027666Y-88333414D01*
X161048824Y-88379743D01*
X161144579Y-88490250D01*
X161144581Y-88490251D01*
X161144580Y-88490251D01*
X161216421Y-88536420D01*
X161267589Y-88569304D01*
X161378727Y-88601937D01*
X161407888Y-88610500D01*
X161407889Y-88610500D01*
X161554112Y-88610500D01*
X161578254Y-88603410D01*
X161694411Y-88569304D01*
X161817421Y-88490250D01*
X161913176Y-88379743D01*
X161973919Y-88246734D01*
X161994729Y-88102000D01*
X161974122Y-87958677D01*
X161973919Y-87957265D01*
X161923606Y-87847096D01*
X161913176Y-87824257D01*
X161817421Y-87713750D01*
X161817418Y-87713748D01*
X161817419Y-87713748D01*
X161694413Y-87634697D01*
X161694412Y-87634696D01*
X161694411Y-87634696D01*
X161612432Y-87610624D01*
X161554112Y-87593500D01*
X161554111Y-87593500D01*
X161407889Y-87593500D01*
X161407888Y-87593500D01*
X161267586Y-87634697D01*
X161144580Y-87713748D01*
X161048824Y-87824257D01*
X161048823Y-87824258D01*
X160988080Y-87957265D01*
X160967271Y-88102000D01*
X154553043Y-88102000D01*
X154540460Y-88097812D01*
X154540446Y-88097808D01*
X153995336Y-87958677D01*
X153995320Y-87958673D01*
X153441649Y-87858780D01*
X152882247Y-87798638D01*
X152320000Y-87778558D01*
X151757754Y-87798638D01*
X151757751Y-87798638D01*
X151198350Y-87858780D01*
X150644679Y-87958673D01*
X150644663Y-87958677D01*
X150099553Y-88097808D01*
X150099539Y-88097812D01*
X149565718Y-88275485D01*
X149045933Y-88490787D01*
X148542830Y-88742622D01*
X148058954Y-89029719D01*
X147596825Y-89350582D01*
X147158766Y-89703592D01*
X147158748Y-89703608D01*
X146746978Y-90086978D01*
X146363608Y-90498748D01*
X146363592Y-90498766D01*
X146010582Y-90936825D01*
X145689719Y-91398954D01*
X145402622Y-91882830D01*
X145150787Y-92385933D01*
X144935485Y-92905718D01*
X144757812Y-93439539D01*
X144757808Y-93439553D01*
X144618677Y-93984663D01*
X144618673Y-93984679D01*
X144518780Y-94538350D01*
X144458638Y-95097751D01*
X144458638Y-95097754D01*
X144438558Y-95660000D01*
X143701000Y-95660000D01*
X143701000Y-89643687D01*
X143720685Y-89576648D01*
X143737319Y-89556006D01*
X144628085Y-88665240D01*
X144628088Y-88665237D01*
X144628089Y-88665233D01*
X144628092Y-88665231D01*
X144639771Y-88645004D01*
X144661538Y-88607299D01*
X144686674Y-88563764D01*
X144686675Y-88563761D01*
X144701938Y-88506797D01*
X144701938Y-88506796D01*
X144717000Y-88450586D01*
X144717000Y-88333414D01*
X144717000Y-85050000D01*
X151310240Y-85050000D01*
X151329634Y-85246914D01*
X151387074Y-85436269D01*
X151480344Y-85610764D01*
X151480348Y-85610771D01*
X151530052Y-85671335D01*
X151557365Y-85735645D01*
X151545574Y-85804513D01*
X151530052Y-85828665D01*
X151480348Y-85889228D01*
X151480344Y-85889235D01*
X151387074Y-86063730D01*
X151329634Y-86253085D01*
X151310240Y-86450000D01*
X151329634Y-86646914D01*
X151387074Y-86836269D01*
X151480344Y-87010764D01*
X151480348Y-87010771D01*
X151605874Y-87163725D01*
X151758828Y-87289251D01*
X151758835Y-87289255D01*
X151933330Y-87382525D01*
X151933332Y-87382525D01*
X151933335Y-87382527D01*
X152122684Y-87439965D01*
X152122683Y-87439965D01*
X152140339Y-87441703D01*
X152319600Y-87459360D01*
X152516516Y-87439965D01*
X152705865Y-87382527D01*
X152880370Y-87289252D01*
X153033325Y-87163725D01*
X153158852Y-87010770D01*
X153252127Y-86836265D01*
X153309565Y-86646916D01*
X153328960Y-86450000D01*
X153309565Y-86253084D01*
X153264948Y-86106000D01*
X168396271Y-86106000D01*
X168417080Y-86250734D01*
X168477823Y-86383741D01*
X168477824Y-86383743D01*
X168573579Y-86494250D01*
X168573581Y-86494251D01*
X168573580Y-86494251D01*
X168675955Y-86560043D01*
X168696589Y-86573304D01*
X168807727Y-86605937D01*
X168836888Y-86614500D01*
X168836889Y-86614500D01*
X168983112Y-86614500D01*
X169007254Y-86607410D01*
X169123411Y-86573304D01*
X169246421Y-86494250D01*
X169342176Y-86383743D01*
X169402919Y-86250734D01*
X169423729Y-86106000D01*
X169402919Y-85961266D01*
X169342176Y-85828257D01*
X169246421Y-85717750D01*
X169246418Y-85717748D01*
X169246419Y-85717748D01*
X169123413Y-85638697D01*
X169123412Y-85638696D01*
X169123411Y-85638696D01*
X169028284Y-85610764D01*
X168983112Y-85597500D01*
X168983111Y-85597500D01*
X168836889Y-85597500D01*
X168836888Y-85597500D01*
X168696586Y-85638697D01*
X168573580Y-85717748D01*
X168477824Y-85828257D01*
X168477823Y-85828258D01*
X168417080Y-85961265D01*
X168396271Y-86106000D01*
X153264948Y-86106000D01*
X153252127Y-86063735D01*
X153252125Y-86063732D01*
X153252125Y-86063730D01*
X153158855Y-85889235D01*
X153158854Y-85889234D01*
X153158852Y-85889230D01*
X153109145Y-85828663D01*
X153081834Y-85764356D01*
X153093625Y-85695488D01*
X153109143Y-85671339D01*
X153158852Y-85610770D01*
X153252127Y-85436265D01*
X153309565Y-85246916D01*
X153328960Y-85050000D01*
X153309565Y-84853084D01*
X153274352Y-84737000D01*
X167126271Y-84737000D01*
X167147080Y-84881734D01*
X167187505Y-84970251D01*
X167207824Y-85014743D01*
X167303579Y-85125250D01*
X167303581Y-85125251D01*
X167303580Y-85125251D01*
X167405955Y-85191043D01*
X167426589Y-85204304D01*
X167537727Y-85236937D01*
X167566888Y-85245500D01*
X167566889Y-85245500D01*
X167713112Y-85245500D01*
X167737254Y-85238410D01*
X167853411Y-85204304D01*
X167976421Y-85125250D01*
X168072176Y-85014743D01*
X168132919Y-84881734D01*
X168153729Y-84737000D01*
X168132919Y-84592266D01*
X168128231Y-84582000D01*
X168396271Y-84582000D01*
X168417080Y-84726734D01*
X168460102Y-84820938D01*
X168477824Y-84859743D01*
X168573579Y-84970250D01*
X168573581Y-84970251D01*
X168573580Y-84970251D01*
X168642811Y-85014743D01*
X168696589Y-85049304D01*
X168807727Y-85081937D01*
X168836888Y-85090500D01*
X168836889Y-85090500D01*
X168983112Y-85090500D01*
X169007254Y-85083410D01*
X169123411Y-85049304D01*
X169246421Y-84970250D01*
X169342176Y-84859743D01*
X169402919Y-84726734D01*
X169423729Y-84582000D01*
X169402919Y-84437266D01*
X169342176Y-84304257D01*
X169246421Y-84193750D01*
X169246418Y-84193748D01*
X169246419Y-84193748D01*
X169123413Y-84114697D01*
X169123412Y-84114696D01*
X169123411Y-84114696D01*
X169041432Y-84090624D01*
X168983112Y-84073500D01*
X168983111Y-84073500D01*
X168836889Y-84073500D01*
X168836888Y-84073500D01*
X168696586Y-84114697D01*
X168573580Y-84193748D01*
X168477824Y-84304257D01*
X168477823Y-84304258D01*
X168417080Y-84437265D01*
X168396271Y-84582000D01*
X168128231Y-84582000D01*
X168072176Y-84459257D01*
X167976421Y-84348750D01*
X167976418Y-84348748D01*
X167976419Y-84348748D01*
X167853413Y-84269697D01*
X167853412Y-84269696D01*
X167853411Y-84269696D01*
X167771432Y-84245624D01*
X167713112Y-84228500D01*
X167713111Y-84228500D01*
X167566889Y-84228500D01*
X167566888Y-84228500D01*
X167426586Y-84269697D01*
X167303580Y-84348748D01*
X167207824Y-84459257D01*
X167207823Y-84459258D01*
X167147080Y-84592265D01*
X167126271Y-84737000D01*
X153274352Y-84737000D01*
X153252127Y-84663735D01*
X153252125Y-84663732D01*
X153252125Y-84663730D01*
X153158855Y-84489235D01*
X153158851Y-84489228D01*
X153033325Y-84336274D01*
X152880371Y-84210748D01*
X152880364Y-84210744D01*
X152705869Y-84117474D01*
X152560904Y-84073500D01*
X152516516Y-84060035D01*
X152516514Y-84060034D01*
X152516516Y-84060034D01*
X152319600Y-84040640D01*
X152122685Y-84060034D01*
X151933330Y-84117474D01*
X151758835Y-84210744D01*
X151758828Y-84210748D01*
X151605874Y-84336274D01*
X151480348Y-84489228D01*
X151480344Y-84489235D01*
X151387074Y-84663730D01*
X151329634Y-84853085D01*
X151310240Y-85050000D01*
X144717000Y-85050000D01*
X144717000Y-83058000D01*
X168396271Y-83058000D01*
X168417080Y-83202734D01*
X168477823Y-83335741D01*
X168477824Y-83335743D01*
X168573579Y-83446250D01*
X168573581Y-83446251D01*
X168573580Y-83446251D01*
X168670966Y-83508837D01*
X168696589Y-83525304D01*
X168807727Y-83557937D01*
X168836888Y-83566500D01*
X168836889Y-83566500D01*
X168983112Y-83566500D01*
X169007254Y-83559410D01*
X169123411Y-83525304D01*
X169246421Y-83446250D01*
X169342176Y-83335743D01*
X169402919Y-83202734D01*
X169423729Y-83058000D01*
X169402919Y-82913266D01*
X169399667Y-82906146D01*
X169342176Y-82780258D01*
X169342176Y-82780257D01*
X169246421Y-82669750D01*
X169246418Y-82669748D01*
X169246419Y-82669748D01*
X169123413Y-82590697D01*
X169123412Y-82590696D01*
X169123411Y-82590696D01*
X169041432Y-82566624D01*
X168983112Y-82549500D01*
X168983111Y-82549500D01*
X168836889Y-82549500D01*
X168836888Y-82549500D01*
X168696586Y-82590697D01*
X168573580Y-82669748D01*
X168477824Y-82780257D01*
X168477823Y-82780258D01*
X168417080Y-82913265D01*
X168396271Y-83058000D01*
X144717000Y-83058000D01*
X144717000Y-81584998D01*
X149215474Y-81584998D01*
X149215474Y-81585001D01*
X149234695Y-81731005D01*
X149234696Y-81731007D01*
X149291053Y-81867063D01*
X149380703Y-81983897D01*
X149497537Y-82073547D01*
X149633593Y-82129904D01*
X149706596Y-82139515D01*
X149779599Y-82149126D01*
X149779600Y-82149126D01*
X149779601Y-82149126D01*
X149828269Y-82142718D01*
X149925607Y-82129904D01*
X150061663Y-82073547D01*
X150178497Y-81983897D01*
X150268147Y-81867063D01*
X150324504Y-81731007D01*
X150343726Y-81585000D01*
X150343726Y-81584998D01*
X154295473Y-81584998D01*
X154295473Y-81585001D01*
X154314694Y-81731005D01*
X154314695Y-81731007D01*
X154371052Y-81867063D01*
X154460702Y-81983897D01*
X154577536Y-82073547D01*
X154713592Y-82129904D01*
X154786595Y-82139515D01*
X154859598Y-82149126D01*
X154859599Y-82149126D01*
X154859600Y-82149126D01*
X154908268Y-82142718D01*
X155005606Y-82129904D01*
X155141662Y-82073547D01*
X155258496Y-81983897D01*
X155348146Y-81867063D01*
X155404503Y-81731007D01*
X155423725Y-81585000D01*
X155409691Y-81478399D01*
X164005099Y-81478399D01*
X164005099Y-81691601D01*
X164021775Y-81796890D01*
X164038452Y-81902180D01*
X164038452Y-81902183D01*
X164104333Y-82104944D01*
X164104335Y-82104947D01*
X164201127Y-82294913D01*
X164326445Y-82467397D01*
X164477202Y-82618154D01*
X164649686Y-82743472D01*
X164839652Y-82840264D01*
X164839654Y-82840265D01*
X165028781Y-82901715D01*
X165042420Y-82906147D01*
X165252998Y-82939500D01*
X165252999Y-82939500D01*
X165466199Y-82939500D01*
X165466200Y-82939500D01*
X165676778Y-82906147D01*
X165676781Y-82906146D01*
X165676782Y-82906146D01*
X165879543Y-82840265D01*
X165879543Y-82840264D01*
X165879546Y-82840264D01*
X166069512Y-82743472D01*
X166241996Y-82618154D01*
X166392753Y-82467397D01*
X166518071Y-82294913D01*
X166614863Y-82104947D01*
X166625065Y-82073547D01*
X166680745Y-81902183D01*
X166680745Y-81902182D01*
X166680746Y-81902179D01*
X166714099Y-81691601D01*
X166714099Y-81478399D01*
X166680746Y-81267821D01*
X166680745Y-81267817D01*
X166680745Y-81267816D01*
X166614864Y-81065055D01*
X166614862Y-81065052D01*
X166611962Y-81059359D01*
X166518071Y-80875087D01*
X166392753Y-80702603D01*
X166241996Y-80551846D01*
X166069512Y-80426528D01*
X165879546Y-80329736D01*
X165879543Y-80329734D01*
X165676780Y-80263853D01*
X165536392Y-80241617D01*
X165466200Y-80230500D01*
X165252998Y-80230500D01*
X165182805Y-80241617D01*
X165042418Y-80263853D01*
X165042415Y-80263853D01*
X164839654Y-80329734D01*
X164839651Y-80329736D01*
X164649685Y-80426528D01*
X164477200Y-80551847D01*
X164326446Y-80702601D01*
X164201127Y-80875086D01*
X164104335Y-81065052D01*
X164104333Y-81065055D01*
X164038452Y-81267816D01*
X164038452Y-81267819D01*
X164011341Y-81438992D01*
X164005099Y-81478399D01*
X155409691Y-81478399D01*
X155404503Y-81438993D01*
X155348146Y-81302937D01*
X155258496Y-81186103D01*
X155141662Y-81096453D01*
X155141658Y-81096451D01*
X155005606Y-81040096D01*
X155005604Y-81040095D01*
X154859600Y-81020874D01*
X154859598Y-81020874D01*
X154713593Y-81040095D01*
X154713591Y-81040096D01*
X154577539Y-81096451D01*
X154577536Y-81096452D01*
X154577536Y-81096453D01*
X154460702Y-81186103D01*
X154397998Y-81267821D01*
X154371050Y-81302940D01*
X154314695Y-81438992D01*
X154314694Y-81438994D01*
X154295473Y-81584998D01*
X150343726Y-81584998D01*
X150324504Y-81438993D01*
X150268147Y-81302937D01*
X150178497Y-81186103D01*
X150061663Y-81096453D01*
X150061659Y-81096451D01*
X149925607Y-81040096D01*
X149925605Y-81040095D01*
X149779601Y-81020874D01*
X149779599Y-81020874D01*
X149633594Y-81040095D01*
X149633592Y-81040096D01*
X149497540Y-81096451D01*
X149497537Y-81096452D01*
X149497537Y-81096453D01*
X149380703Y-81186103D01*
X149317999Y-81267821D01*
X149291051Y-81302940D01*
X149234696Y-81438992D01*
X149234695Y-81438994D01*
X149215474Y-81584998D01*
X144717000Y-81584998D01*
X144717000Y-78650000D01*
X151310240Y-78650000D01*
X151329634Y-78846914D01*
X151387074Y-79036269D01*
X151480344Y-79210764D01*
X151480348Y-79210771D01*
X151530052Y-79271335D01*
X151557365Y-79335645D01*
X151545574Y-79404513D01*
X151530052Y-79428665D01*
X151480348Y-79489228D01*
X151480344Y-79489235D01*
X151387074Y-79663730D01*
X151329634Y-79853085D01*
X151310240Y-80050000D01*
X151329634Y-80246914D01*
X151387074Y-80436269D01*
X151480344Y-80610764D01*
X151480348Y-80610771D01*
X151605874Y-80763725D01*
X151758828Y-80889251D01*
X151758835Y-80889255D01*
X151933330Y-80982525D01*
X151933332Y-80982525D01*
X151933335Y-80982527D01*
X152122684Y-81039965D01*
X152122683Y-81039965D01*
X152140339Y-81041703D01*
X152319600Y-81059360D01*
X152516516Y-81039965D01*
X152705865Y-80982527D01*
X152880370Y-80889252D01*
X153033325Y-80763725D01*
X153158852Y-80610770D01*
X153252127Y-80436265D01*
X153309565Y-80246916D01*
X153328960Y-80050000D01*
X153309565Y-79853084D01*
X153252127Y-79663735D01*
X153252125Y-79663732D01*
X153252125Y-79663730D01*
X153158855Y-79489235D01*
X153158854Y-79489234D01*
X153158852Y-79489230D01*
X153109145Y-79428663D01*
X153081834Y-79364356D01*
X153093625Y-79295488D01*
X153109143Y-79271339D01*
X153158852Y-79210770D01*
X153252127Y-79036265D01*
X153309565Y-78846916D01*
X153328960Y-78650000D01*
X153309565Y-78453084D01*
X153252127Y-78263735D01*
X153252125Y-78263732D01*
X153252125Y-78263730D01*
X153158855Y-78089235D01*
X153158851Y-78089228D01*
X153033325Y-77936274D01*
X152880371Y-77810748D01*
X152880364Y-77810744D01*
X152705869Y-77717474D01*
X152611190Y-77688754D01*
X152516516Y-77660035D01*
X152516514Y-77660034D01*
X152516516Y-77660034D01*
X152319600Y-77640640D01*
X152122685Y-77660034D01*
X151933330Y-77717474D01*
X151758835Y-77810744D01*
X151758828Y-77810748D01*
X151605874Y-77936274D01*
X151480348Y-78089228D01*
X151480344Y-78089235D01*
X151387074Y-78263730D01*
X151329634Y-78453085D01*
X151310240Y-78650000D01*
X144717000Y-78650000D01*
X144717000Y-73641686D01*
X144736685Y-73574647D01*
X144753314Y-73554010D01*
X146973523Y-71333800D01*
X151369600Y-71333800D01*
X153269600Y-71333800D01*
X153269600Y-70786997D01*
X158887708Y-70786997D01*
X158887708Y-70787000D01*
X158906839Y-71005674D01*
X158963653Y-71217703D01*
X158963654Y-71217706D01*
X158963655Y-71217708D01*
X159056419Y-71416642D01*
X159056423Y-71416650D01*
X159182322Y-71596452D01*
X159182327Y-71596458D01*
X159337541Y-71751672D01*
X159337547Y-71751677D01*
X159517349Y-71877576D01*
X159517351Y-71877577D01*
X159517354Y-71877579D01*
X159716297Y-71970347D01*
X159928326Y-72027161D01*
X160084521Y-72040826D01*
X160146998Y-72046292D01*
X160147000Y-72046292D01*
X160147002Y-72046292D01*
X160201668Y-72041509D01*
X160365674Y-72027161D01*
X160577703Y-71970347D01*
X160776646Y-71877579D01*
X160956457Y-71751674D01*
X161111674Y-71596457D01*
X161237579Y-71416646D01*
X161330347Y-71217703D01*
X161387161Y-71005674D01*
X161406292Y-70787000D01*
X161387161Y-70568326D01*
X161330347Y-70356297D01*
X161237579Y-70157354D01*
X161237577Y-70157351D01*
X161237576Y-70157349D01*
X161111677Y-69977547D01*
X161111672Y-69977541D01*
X160956458Y-69822327D01*
X160956452Y-69822322D01*
X160776650Y-69696423D01*
X160776642Y-69696419D01*
X160577708Y-69603655D01*
X160577706Y-69603654D01*
X160577703Y-69603653D01*
X160426885Y-69563240D01*
X160365675Y-69546839D01*
X160365668Y-69546838D01*
X160147002Y-69527708D01*
X160146998Y-69527708D01*
X159928331Y-69546838D01*
X159928324Y-69546839D01*
X159805902Y-69579642D01*
X159716297Y-69603653D01*
X159716295Y-69603653D01*
X159716291Y-69603655D01*
X159517357Y-69696419D01*
X159517349Y-69696423D01*
X159337547Y-69822322D01*
X159337541Y-69822327D01*
X159182327Y-69977541D01*
X159182322Y-69977547D01*
X159056423Y-70157349D01*
X159056419Y-70157357D01*
X158963655Y-70356291D01*
X158906839Y-70568324D01*
X158906838Y-70568331D01*
X158887708Y-70786997D01*
X153269600Y-70786997D01*
X153269600Y-69243800D01*
X151369600Y-69243800D01*
X151369600Y-71333800D01*
X146973523Y-71333800D01*
X148887924Y-69419399D01*
X148949245Y-69385916D01*
X148991788Y-69384143D01*
X149097999Y-69398126D01*
X149098000Y-69398126D01*
X149098001Y-69398126D01*
X149146669Y-69391718D01*
X149244007Y-69378904D01*
X149380063Y-69322547D01*
X149496897Y-69232897D01*
X149586547Y-69116063D01*
X149642904Y-68980007D01*
X149662126Y-68834000D01*
X149642904Y-68687993D01*
X149638967Y-68678490D01*
X149631501Y-68609021D01*
X149662777Y-68546543D01*
X149722866Y-68510891D01*
X149753530Y-68507040D01*
X162120663Y-68507040D01*
X162187702Y-68526725D01*
X162208344Y-68543359D01*
X165310942Y-71645957D01*
X165410098Y-71703204D01*
X165520692Y-71732838D01*
X176144300Y-71732838D01*
X176211339Y-71752523D01*
X176257094Y-71805327D01*
X176268300Y-71856838D01*
X176268300Y-80013548D01*
X176269160Y-80026668D01*
X176269160Y-83398248D01*
X176289608Y-83474559D01*
X176289607Y-83474559D01*
X176298792Y-83508837D01*
X176298794Y-83508842D01*
X176332082Y-83566500D01*
X176356040Y-83607996D01*
X176356042Y-83607999D01*
X177418694Y-84670651D01*
X177452179Y-84731974D01*
X177447195Y-84801666D01*
X177438408Y-84820319D01*
X177438054Y-84820932D01*
X177381695Y-84956993D01*
X177381694Y-84956995D01*
X177362473Y-85102999D01*
X177362473Y-85103002D01*
X177381694Y-85249006D01*
X177381695Y-85249008D01*
X177438052Y-85385064D01*
X177527702Y-85501898D01*
X177644536Y-85591548D01*
X177780592Y-85647905D01*
X177853595Y-85657516D01*
X177926598Y-85667127D01*
X177926599Y-85667127D01*
X177926600Y-85667127D01*
X177975268Y-85660719D01*
X178072606Y-85647905D01*
X178208662Y-85591548D01*
X178325496Y-85501898D01*
X178415146Y-85385064D01*
X178471503Y-85249008D01*
X178490725Y-85103001D01*
X178483655Y-85049302D01*
X178471503Y-84956995D01*
X178471503Y-84956994D01*
X178415146Y-84820938D01*
X178409143Y-84813115D01*
X178387062Y-84784337D01*
X178361869Y-84719168D01*
X178361439Y-84708852D01*
X178361439Y-84506353D01*
X178361439Y-84506351D01*
X178355389Y-84483772D01*
X178357052Y-84413925D01*
X178396214Y-84356062D01*
X178460442Y-84328558D01*
X178529345Y-84340144D01*
X178562845Y-84364000D01*
X179458241Y-85259396D01*
X179491726Y-85320719D01*
X179494560Y-85347077D01*
X179494560Y-105407320D01*
X179474875Y-105474359D01*
X179458241Y-105495001D01*
X176635501Y-108317741D01*
X176574178Y-108351226D01*
X176504486Y-108346242D01*
X176448553Y-108304370D01*
X176424136Y-108238906D01*
X176423820Y-108230060D01*
X176423820Y-105634097D01*
X176423820Y-105634095D01*
X176397821Y-105537066D01*
X176347596Y-105450073D01*
X176276567Y-105379044D01*
X172751523Y-101854000D01*
X174555270Y-101854000D01*
X174576079Y-101998734D01*
X174612336Y-102078124D01*
X174636823Y-102131743D01*
X174732578Y-102242250D01*
X174732580Y-102242251D01*
X174732579Y-102242251D01*
X174790954Y-102279766D01*
X174855588Y-102321304D01*
X174966726Y-102353937D01*
X174995887Y-102362500D01*
X174995888Y-102362500D01*
X175142111Y-102362500D01*
X175166253Y-102355410D01*
X175282410Y-102321304D01*
X175405420Y-102242250D01*
X175501175Y-102131743D01*
X175561918Y-101998734D01*
X175582728Y-101854000D01*
X175561918Y-101709266D01*
X175501175Y-101576257D01*
X175405420Y-101465750D01*
X175405417Y-101465748D01*
X175405418Y-101465748D01*
X175282412Y-101386697D01*
X175282411Y-101386696D01*
X175282410Y-101386696D01*
X175200431Y-101362624D01*
X175142111Y-101345500D01*
X175142110Y-101345500D01*
X174995888Y-101345500D01*
X174995887Y-101345500D01*
X174855585Y-101386697D01*
X174732579Y-101465748D01*
X174636823Y-101576257D01*
X174636822Y-101576258D01*
X174576079Y-101709265D01*
X174555270Y-101854000D01*
X172751523Y-101854000D01*
X169464047Y-98566524D01*
X169430562Y-98505201D01*
X169429328Y-98493730D01*
X169428990Y-98493779D01*
X169406918Y-98340265D01*
X169346175Y-98207258D01*
X169346175Y-98207257D01*
X169250420Y-98096750D01*
X169250417Y-98096748D01*
X169250418Y-98096748D01*
X169127412Y-98017697D01*
X169127411Y-98017696D01*
X169127410Y-98017696D01*
X169045431Y-97993624D01*
X168987111Y-97976500D01*
X168987110Y-97976500D01*
X168840888Y-97976500D01*
X168840887Y-97976500D01*
X168700585Y-98017697D01*
X168577579Y-98096748D01*
X168481823Y-98207257D01*
X168481822Y-98207258D01*
X168421079Y-98340265D01*
X168400270Y-98485000D01*
X168421079Y-98629734D01*
X168481822Y-98762741D01*
X168481823Y-98762743D01*
X168577578Y-98873250D01*
X168577580Y-98873251D01*
X168577579Y-98873251D01*
X168621535Y-98901499D01*
X168700588Y-98952304D01*
X168700589Y-98952304D01*
X168700589Y-98952305D01*
X168769591Y-98972565D01*
X168822338Y-99003861D01*
X169373728Y-99555251D01*
X169407213Y-99616574D01*
X169402229Y-99686266D01*
X169360357Y-99742199D01*
X169294893Y-99766616D01*
X169226620Y-99751764D01*
X169219008Y-99747248D01*
X169198625Y-99734149D01*
X169162910Y-99711196D01*
X169063807Y-99682096D01*
X169022611Y-99670000D01*
X169022610Y-99670000D01*
X168960885Y-99670000D01*
X168893846Y-99650315D01*
X168873204Y-99633681D01*
X165517819Y-96278296D01*
X165484334Y-96216973D01*
X165481500Y-96190615D01*
X165481500Y-94234000D01*
X170491271Y-94234000D01*
X170512080Y-94378734D01*
X170539986Y-94439838D01*
X170572824Y-94511743D01*
X170668579Y-94622250D01*
X170668581Y-94622251D01*
X170668580Y-94622251D01*
X170756883Y-94679000D01*
X170791589Y-94701304D01*
X170902727Y-94733937D01*
X170931888Y-94742500D01*
X170931889Y-94742500D01*
X171078112Y-94742500D01*
X171102254Y-94735410D01*
X171218411Y-94701304D01*
X171341421Y-94622250D01*
X171437176Y-94511743D01*
X171497919Y-94378734D01*
X171518729Y-94234000D01*
X171497919Y-94089266D01*
X171491337Y-94074854D01*
X171456811Y-93999252D01*
X171437176Y-93956257D01*
X171341421Y-93845750D01*
X171341418Y-93845748D01*
X171341419Y-93845748D01*
X171218413Y-93766697D01*
X171218412Y-93766696D01*
X171218411Y-93766696D01*
X171134219Y-93741975D01*
X171078112Y-93725500D01*
X171078111Y-93725500D01*
X170931889Y-93725500D01*
X170931888Y-93725500D01*
X170791586Y-93766697D01*
X170668580Y-93845748D01*
X170572824Y-93956257D01*
X170572823Y-93956258D01*
X170512080Y-94089265D01*
X170491271Y-94234000D01*
X165481500Y-94234000D01*
X165481500Y-91568475D01*
X165501185Y-91501436D01*
X165511782Y-91487277D01*
X165532176Y-91463743D01*
X165592919Y-91330734D01*
X165613729Y-91186000D01*
X165593516Y-91045415D01*
X165592919Y-91041265D01*
X165572155Y-90995799D01*
X177375174Y-90995799D01*
X177375174Y-90995802D01*
X177394395Y-91141806D01*
X177394396Y-91141808D01*
X177440961Y-91254226D01*
X177450753Y-91277864D01*
X177540403Y-91394698D01*
X177657237Y-91484348D01*
X177793293Y-91540705D01*
X177858632Y-91549307D01*
X177939299Y-91559927D01*
X177939300Y-91559927D01*
X177939301Y-91559927D01*
X177987969Y-91553519D01*
X178085307Y-91540705D01*
X178221363Y-91484348D01*
X178338197Y-91394698D01*
X178427847Y-91277864D01*
X178484204Y-91141808D01*
X178503426Y-90995801D01*
X178484204Y-90849794D01*
X178427847Y-90713738D01*
X178338197Y-90596904D01*
X178221363Y-90507254D01*
X178221359Y-90507252D01*
X178085307Y-90450897D01*
X178085305Y-90450896D01*
X177939301Y-90431675D01*
X177939299Y-90431675D01*
X177793294Y-90450896D01*
X177793292Y-90450897D01*
X177657240Y-90507252D01*
X177657237Y-90507253D01*
X177657237Y-90507254D01*
X177540403Y-90596904D01*
X177478560Y-90677500D01*
X177450751Y-90713741D01*
X177394396Y-90849793D01*
X177394395Y-90849795D01*
X177375174Y-90995799D01*
X165572155Y-90995799D01*
X165562547Y-90974761D01*
X165532176Y-90908257D01*
X165436421Y-90797750D01*
X165436418Y-90797748D01*
X165436419Y-90797748D01*
X165313413Y-90718697D01*
X165313412Y-90718696D01*
X165313411Y-90718696D01*
X165231432Y-90694624D01*
X165173112Y-90677500D01*
X165173111Y-90677500D01*
X165026889Y-90677500D01*
X165026888Y-90677500D01*
X164968567Y-90694624D01*
X164886589Y-90718696D01*
X164886587Y-90718696D01*
X164886587Y-90718697D01*
X164777060Y-90789085D01*
X164710020Y-90808769D01*
X164642982Y-90789085D01*
X164533456Y-90718697D01*
X164531091Y-90717177D01*
X164431988Y-90688077D01*
X164390792Y-90675981D01*
X164390791Y-90675981D01*
X164244569Y-90675981D01*
X164244568Y-90675981D01*
X164104266Y-90717178D01*
X163981260Y-90796229D01*
X163885504Y-90906738D01*
X163885503Y-90906739D01*
X163824760Y-91039746D01*
X163803951Y-91184481D01*
X163824760Y-91329215D01*
X163856617Y-91398971D01*
X163885504Y-91462224D01*
X163905892Y-91485753D01*
X163934918Y-91549307D01*
X163936180Y-91566956D01*
X163936180Y-99097905D01*
X163956268Y-99172875D01*
X163962179Y-99194934D01*
X164012403Y-99281925D01*
X164012405Y-99281928D01*
X168383421Y-103652944D01*
X168414716Y-103705686D01*
X168417079Y-103713733D01*
X168477822Y-103846741D01*
X168477823Y-103846743D01*
X168573578Y-103957250D01*
X168573580Y-103957251D01*
X168573579Y-103957251D01*
X168675954Y-104023043D01*
X168696588Y-104036304D01*
X168807726Y-104068937D01*
X168836887Y-104077500D01*
X168836888Y-104077500D01*
X168983111Y-104077500D01*
X169007253Y-104070410D01*
X169123410Y-104036304D01*
X169246420Y-103957250D01*
X169342175Y-103846743D01*
X169402918Y-103713734D01*
X169423728Y-103569000D01*
X169402918Y-103424266D01*
X169342175Y-103291257D01*
X169246420Y-103180750D01*
X169246417Y-103180748D01*
X169246418Y-103180748D01*
X169123412Y-103101697D01*
X169123411Y-103101696D01*
X169123410Y-103101696D01*
X169041431Y-103077624D01*
X168983111Y-103060500D01*
X168983110Y-103060500D01*
X168921385Y-103060500D01*
X168854346Y-103040815D01*
X168833704Y-103024181D01*
X167663523Y-101854000D01*
X168396271Y-101854000D01*
X168417080Y-101998734D01*
X168453337Y-102078124D01*
X168477824Y-102131743D01*
X168573579Y-102242250D01*
X168573581Y-102242251D01*
X168573580Y-102242251D01*
X168631955Y-102279766D01*
X168696589Y-102321304D01*
X168807727Y-102353937D01*
X168836888Y-102362500D01*
X168836889Y-102362500D01*
X168983112Y-102362500D01*
X169007254Y-102355410D01*
X169123411Y-102321304D01*
X169246421Y-102242250D01*
X169342176Y-102131743D01*
X169402919Y-101998734D01*
X169423729Y-101854000D01*
X169402919Y-101709266D01*
X169342176Y-101576257D01*
X169246421Y-101465750D01*
X169246418Y-101465748D01*
X169246419Y-101465748D01*
X169123413Y-101386697D01*
X169123412Y-101386696D01*
X169123411Y-101386696D01*
X169041432Y-101362624D01*
X168983112Y-101345500D01*
X168983111Y-101345500D01*
X168836889Y-101345500D01*
X168836888Y-101345500D01*
X168696586Y-101386697D01*
X168573580Y-101465748D01*
X168477824Y-101576257D01*
X168477823Y-101576258D01*
X168417080Y-101709265D01*
X168396271Y-101854000D01*
X167663523Y-101854000D01*
X164735499Y-98925976D01*
X164702014Y-98864653D01*
X164699180Y-98838295D01*
X164699180Y-96838065D01*
X164718865Y-96771026D01*
X164771669Y-96725271D01*
X164840827Y-96715327D01*
X164904383Y-96744352D01*
X164910861Y-96750384D01*
X168422921Y-100262444D01*
X168454216Y-100315186D01*
X168456579Y-100323233D01*
X168514357Y-100449748D01*
X168517323Y-100456243D01*
X168613078Y-100566750D01*
X168613080Y-100566751D01*
X168613079Y-100566751D01*
X168670189Y-100603453D01*
X168736088Y-100645804D01*
X168847226Y-100678437D01*
X168876387Y-100687000D01*
X168876388Y-100687000D01*
X169022611Y-100687000D01*
X169046753Y-100679910D01*
X169162910Y-100645804D01*
X169285920Y-100566750D01*
X169381675Y-100456243D01*
X169442418Y-100323234D01*
X169463228Y-100178500D01*
X169442418Y-100033766D01*
X169383446Y-99904636D01*
X169373503Y-99835479D01*
X169402528Y-99771924D01*
X169461306Y-99734149D01*
X169531175Y-99734149D01*
X169583922Y-99765445D01*
X175624501Y-105806024D01*
X175657986Y-105867347D01*
X175660820Y-105893705D01*
X175660820Y-109797935D01*
X175641135Y-109864974D01*
X175588331Y-109910729D01*
X175519173Y-109920673D01*
X175455617Y-109891648D01*
X175449139Y-109885616D01*
X170477248Y-104913725D01*
X170477243Y-104913721D01*
X170464756Y-104906512D01*
X170464755Y-104906512D01*
X170390256Y-104863500D01*
X170390255Y-104863499D01*
X170365996Y-104856999D01*
X170293225Y-104837500D01*
X170293222Y-104837500D01*
X169293333Y-104837500D01*
X169226294Y-104817815D01*
X169226293Y-104817815D01*
X169123412Y-104751697D01*
X169123411Y-104751696D01*
X169123410Y-104751696D01*
X169041431Y-104727624D01*
X168983111Y-104710500D01*
X168983110Y-104710500D01*
X168836888Y-104710500D01*
X168836887Y-104710500D01*
X168696585Y-104751697D01*
X168573579Y-104830748D01*
X168477823Y-104941257D01*
X168477822Y-104941258D01*
X168417079Y-105074265D01*
X168396270Y-105219000D01*
X168417079Y-105363734D01*
X168477027Y-105495001D01*
X168477823Y-105496743D01*
X168573578Y-105607250D01*
X168573580Y-105607251D01*
X168573579Y-105607251D01*
X168619588Y-105636819D01*
X168696588Y-105686304D01*
X168807726Y-105718937D01*
X168836887Y-105727500D01*
X168836888Y-105727500D01*
X168983111Y-105727500D01*
X169007253Y-105720410D01*
X169123410Y-105686304D01*
X169226293Y-105620185D01*
X169293333Y-105600500D01*
X170033615Y-105600500D01*
X170100654Y-105620185D01*
X170121296Y-105636819D01*
X172257910Y-107773433D01*
X172291395Y-107834756D01*
X172286411Y-107904448D01*
X172244539Y-107960381D01*
X172179075Y-107984798D01*
X172135294Y-107980091D01*
X172031113Y-107949500D01*
X172031111Y-107949500D01*
X171884889Y-107949500D01*
X171884888Y-107949500D01*
X171744586Y-107990697D01*
X171621580Y-108069748D01*
X171525824Y-108180257D01*
X171525823Y-108180258D01*
X171465080Y-108313265D01*
X171444271Y-108458000D01*
X171465080Y-108602734D01*
X171525823Y-108735741D01*
X171525824Y-108735743D01*
X171621579Y-108846250D01*
X171621581Y-108846251D01*
X171621580Y-108846251D01*
X171709105Y-108902500D01*
X171744589Y-108925304D01*
X171855727Y-108957937D01*
X171884888Y-108966500D01*
X171884889Y-108966500D01*
X172031112Y-108966500D01*
X172055254Y-108959410D01*
X172171411Y-108925304D01*
X172294421Y-108846250D01*
X172390176Y-108735743D01*
X172450919Y-108602734D01*
X172471729Y-108458000D01*
X172453006Y-108327780D01*
X172450919Y-108313265D01*
X172444905Y-108300097D01*
X172434960Y-108230938D01*
X172463984Y-108167382D01*
X172522761Y-108129607D01*
X172592631Y-108129605D01*
X172645379Y-108160902D01*
X175096181Y-110611704D01*
X175129666Y-110673027D01*
X175132500Y-110699385D01*
X175132500Y-112139524D01*
X175112815Y-112206563D01*
X175102213Y-112220727D01*
X175081825Y-112244255D01*
X175081822Y-112244260D01*
X175021081Y-112377266D01*
X175021080Y-112377266D01*
X175010475Y-112451025D01*
X174981449Y-112514580D01*
X174975418Y-112521057D01*
X171221616Y-116274861D01*
X171160293Y-116308346D01*
X171133935Y-116311180D01*
X140969064Y-116311180D01*
X140902025Y-116291495D01*
X140881383Y-116274861D01*
X140746580Y-116140058D01*
X140713095Y-116078735D01*
X140711523Y-116070023D01*
X140700919Y-115996266D01*
X140700918Y-115996262D01*
X140640176Y-115863258D01*
X140640176Y-115863257D01*
X140544421Y-115752750D01*
X140544418Y-115752748D01*
X140544419Y-115752748D01*
X140421413Y-115673697D01*
X140421412Y-115673696D01*
X140421411Y-115673696D01*
X140339432Y-115649624D01*
X140281112Y-115632500D01*
X140281111Y-115632500D01*
X140185180Y-115632500D01*
X140118141Y-115612815D01*
X140072386Y-115560011D01*
X140061180Y-115508500D01*
X140061180Y-115123500D01*
X140080865Y-115056461D01*
X140133669Y-115010706D01*
X140185180Y-114999500D01*
X140281112Y-114999500D01*
X140305254Y-114992410D01*
X140421411Y-114958304D01*
X140544421Y-114879250D01*
X140640176Y-114768743D01*
X140700919Y-114635734D01*
X140721729Y-114491000D01*
X140700919Y-114346266D01*
X140697702Y-114339222D01*
X140640176Y-114213258D01*
X140640176Y-114213257D01*
X140544421Y-114102750D01*
X140544418Y-114102748D01*
X140544419Y-114102748D01*
X140421413Y-114023697D01*
X140421412Y-114023696D01*
X140421411Y-114023696D01*
X140321945Y-113994490D01*
X140281112Y-113982500D01*
X140281111Y-113982500D01*
X140185180Y-113982500D01*
X140118141Y-113962815D01*
X140072386Y-113910011D01*
X140061180Y-113858500D01*
X140061180Y-113408500D01*
X140080865Y-113341461D01*
X140133669Y-113295706D01*
X140185180Y-113284500D01*
X140281112Y-113284500D01*
X140305254Y-113277410D01*
X140421411Y-113243304D01*
X140544421Y-113164250D01*
X140640176Y-113053743D01*
X140700919Y-112920734D01*
X140721729Y-112776000D01*
X140700919Y-112631266D01*
X140698625Y-112626243D01*
X140664204Y-112550872D01*
X140640176Y-112498257D01*
X140544421Y-112387750D01*
X140544418Y-112387748D01*
X140544419Y-112387748D01*
X140421413Y-112308697D01*
X140421412Y-112308696D01*
X140421411Y-112308696D01*
X140339432Y-112284624D01*
X140281112Y-112267500D01*
X140281111Y-112267500D01*
X140185180Y-112267500D01*
X140118141Y-112247815D01*
X140072386Y-112195011D01*
X140061180Y-112143500D01*
X140061180Y-111693500D01*
X140080865Y-111626461D01*
X140133669Y-111580706D01*
X140185180Y-111569500D01*
X140281112Y-111569500D01*
X140305254Y-111562410D01*
X140421411Y-111528304D01*
X140544421Y-111449250D01*
X140640176Y-111338743D01*
X140700919Y-111205734D01*
X140721729Y-111061000D01*
X140700919Y-110916266D01*
X140640176Y-110783257D01*
X140544421Y-110672750D01*
X140544418Y-110672748D01*
X140544419Y-110672748D01*
X140421413Y-110593697D01*
X140421412Y-110593696D01*
X140421411Y-110593696D01*
X140339432Y-110569624D01*
X140281112Y-110552500D01*
X140281111Y-110552500D01*
X140185180Y-110552500D01*
X140118141Y-110532815D01*
X140072386Y-110480011D01*
X140061180Y-110428500D01*
X140061180Y-110148704D01*
X140080865Y-110081665D01*
X140097493Y-110061028D01*
X140202773Y-109955748D01*
X140264092Y-109922266D01*
X140272808Y-109920694D01*
X140281108Y-109919500D01*
X140281111Y-109919500D01*
X140421411Y-109878304D01*
X140544421Y-109799250D01*
X140640176Y-109688743D01*
X140700919Y-109555734D01*
X140721729Y-109411000D01*
X140703534Y-109284459D01*
X140700919Y-109266265D01*
X140640176Y-109133258D01*
X140640176Y-109133257D01*
X140544421Y-109022750D01*
X140544418Y-109022748D01*
X140544419Y-109022748D01*
X140421413Y-108943697D01*
X140421412Y-108943696D01*
X140421411Y-108943696D01*
X140339432Y-108919624D01*
X140281112Y-108902500D01*
X140281111Y-108902500D01*
X140134889Y-108902500D01*
X140134888Y-108902500D01*
X139994586Y-108943697D01*
X139871580Y-109022748D01*
X139775824Y-109133256D01*
X139742269Y-109206731D01*
X139715082Y-109266265D01*
X139715080Y-109266269D01*
X139704475Y-109340025D01*
X139675449Y-109403581D01*
X139669418Y-109410058D01*
X139428000Y-109651474D01*
X139427991Y-109651486D01*
X139374402Y-109705074D01*
X139324179Y-109792065D01*
X139324179Y-109792066D01*
X139298180Y-109889095D01*
X139298180Y-116410063D01*
X139324179Y-116507092D01*
X139332808Y-116522037D01*
X139334770Y-116525435D01*
X139334771Y-116525439D01*
X139334772Y-116525439D01*
X139374404Y-116594085D01*
X140179595Y-117399276D01*
X140266589Y-117449502D01*
X140363617Y-117475500D01*
X140363619Y-117475500D01*
X161105446Y-117475500D01*
X161172485Y-117495185D01*
X161218240Y-117547989D01*
X161228184Y-117617147D01*
X161199159Y-117680703D01*
X161172485Y-117703815D01*
X161144583Y-117721746D01*
X161144581Y-117721748D01*
X161048824Y-117832257D01*
X161048823Y-117832258D01*
X160988080Y-117965265D01*
X160967271Y-118110000D01*
X160988080Y-118254734D01*
X161048823Y-118387741D01*
X161048824Y-118387743D01*
X161069212Y-118411272D01*
X161098238Y-118474826D01*
X161099500Y-118492475D01*
X161099500Y-121265615D01*
X161079815Y-121332654D01*
X161063181Y-121353296D01*
X160533228Y-121883248D01*
X160471905Y-121916733D01*
X160463199Y-121918304D01*
X160454893Y-121919498D01*
X160314586Y-121960697D01*
X160191580Y-122039748D01*
X160095824Y-122150257D01*
X160095823Y-122150258D01*
X160035080Y-122283265D01*
X160014271Y-122428000D01*
X160035080Y-122572734D01*
X160073129Y-122656048D01*
X160083073Y-122725207D01*
X160054048Y-122788763D01*
X159995270Y-122826537D01*
X159960335Y-122831560D01*
X142619679Y-122831560D01*
X142552640Y-122811875D01*
X142531998Y-122795241D01*
X139429397Y-119692640D01*
X139429396Y-119692639D01*
X139330240Y-119635392D01*
X139330241Y-119635392D01*
X139302591Y-119627983D01*
X139219646Y-119605758D01*
X139219643Y-119605758D01*
X128493980Y-119605758D01*
X128426941Y-119586073D01*
X128381186Y-119533269D01*
X128369980Y-119481758D01*
X128369980Y-119046598D01*
X151196710Y-119046598D01*
X151196710Y-119046599D01*
X151215828Y-119252928D01*
X151215829Y-119252930D01*
X151272534Y-119452229D01*
X151272535Y-119452231D01*
X151272536Y-119452234D01*
X151303156Y-119513727D01*
X151364896Y-119637718D01*
X151364905Y-119637732D01*
X151489771Y-119803082D01*
X151489773Y-119803085D01*
X151642907Y-119942684D01*
X151642909Y-119942686D01*
X151743676Y-120005078D01*
X151819085Y-120051769D01*
X152012307Y-120126623D01*
X152215993Y-120164699D01*
X152215995Y-120164699D01*
X152423205Y-120164699D01*
X152423207Y-120164699D01*
X152626893Y-120126623D01*
X152820115Y-120051769D01*
X152996292Y-119942685D01*
X153149426Y-119803085D01*
X153274300Y-119637724D01*
X153366664Y-119452234D01*
X153423371Y-119252929D01*
X153442490Y-119046599D01*
X153423371Y-118840269D01*
X153366664Y-118640964D01*
X153305423Y-118517977D01*
X153274303Y-118455479D01*
X153274294Y-118455465D01*
X153149428Y-118290115D01*
X153149426Y-118290112D01*
X152996292Y-118150513D01*
X152996290Y-118150511D01*
X152820120Y-118041432D01*
X152820113Y-118041428D01*
X152723504Y-118004002D01*
X152626893Y-117966575D01*
X152423207Y-117928499D01*
X152215993Y-117928499D01*
X152012307Y-117966575D01*
X152012304Y-117966575D01*
X152012304Y-117966576D01*
X151819086Y-118041428D01*
X151819079Y-118041432D01*
X151642909Y-118150511D01*
X151642907Y-118150513D01*
X151489773Y-118290112D01*
X151489771Y-118290115D01*
X151364905Y-118455465D01*
X151364896Y-118455479D01*
X151272537Y-118640962D01*
X151272534Y-118640968D01*
X151215829Y-118840267D01*
X151215828Y-118840269D01*
X151196710Y-119046598D01*
X128369980Y-119046598D01*
X128369980Y-112776000D01*
X133535271Y-112776000D01*
X133556080Y-112920734D01*
X133605981Y-113030000D01*
X133616824Y-113053743D01*
X133712579Y-113164250D01*
X133712581Y-113164251D01*
X133712580Y-113164251D01*
X133814955Y-113230043D01*
X133835589Y-113243304D01*
X133946727Y-113275937D01*
X133975888Y-113284500D01*
X133975889Y-113284500D01*
X134122112Y-113284500D01*
X134146254Y-113277410D01*
X134262411Y-113243304D01*
X134385421Y-113164250D01*
X134481176Y-113053743D01*
X134541919Y-112920734D01*
X134562729Y-112776000D01*
X134541919Y-112631266D01*
X134539625Y-112626243D01*
X134505204Y-112550872D01*
X134481176Y-112498257D01*
X134385421Y-112387750D01*
X134385418Y-112387748D01*
X134385419Y-112387748D01*
X134262413Y-112308697D01*
X134262412Y-112308696D01*
X134262411Y-112308696D01*
X134180432Y-112284624D01*
X134122112Y-112267500D01*
X134122111Y-112267500D01*
X133975889Y-112267500D01*
X133975888Y-112267500D01*
X133835586Y-112308697D01*
X133712580Y-112387748D01*
X133616824Y-112498257D01*
X133616823Y-112498258D01*
X133556080Y-112631265D01*
X133535271Y-112776000D01*
X128369980Y-112776000D01*
X128369980Y-108654952D01*
X128369980Y-108654950D01*
X128340346Y-108544356D01*
X128314184Y-108499042D01*
X128283099Y-108445200D01*
X126834899Y-106997000D01*
X137916271Y-106997000D01*
X137937080Y-107141734D01*
X137997823Y-107274741D01*
X137997824Y-107274743D01*
X138093579Y-107385250D01*
X138093581Y-107385251D01*
X138093580Y-107385251D01*
X138144940Y-107418258D01*
X138216589Y-107464304D01*
X138327727Y-107496937D01*
X138356888Y-107505500D01*
X138356889Y-107505500D01*
X138503112Y-107505500D01*
X138527254Y-107498410D01*
X138643411Y-107464304D01*
X138766421Y-107385250D01*
X138862176Y-107274743D01*
X138922919Y-107141734D01*
X138943729Y-106997000D01*
X138934671Y-106934000D01*
X144545771Y-106934000D01*
X144566580Y-107078734D01*
X144627323Y-107211741D01*
X144627324Y-107211743D01*
X144723079Y-107322250D01*
X144723081Y-107322251D01*
X144723080Y-107322251D01*
X144821109Y-107385250D01*
X144846089Y-107401304D01*
X144957227Y-107433937D01*
X144986388Y-107442500D01*
X144986389Y-107442500D01*
X145132612Y-107442500D01*
X145156754Y-107435410D01*
X145272911Y-107401304D01*
X145395921Y-107322250D01*
X145491676Y-107211743D01*
X145552419Y-107078734D01*
X145573229Y-106934000D01*
X145552419Y-106789266D01*
X145491676Y-106656257D01*
X145395921Y-106545750D01*
X145395918Y-106545748D01*
X145395919Y-106545748D01*
X145272913Y-106466697D01*
X145272912Y-106466696D01*
X145272911Y-106466696D01*
X145190932Y-106442624D01*
X145132612Y-106425500D01*
X145132611Y-106425500D01*
X144986389Y-106425500D01*
X144986388Y-106425500D01*
X144846086Y-106466697D01*
X144723080Y-106545748D01*
X144627324Y-106656257D01*
X144627323Y-106656258D01*
X144566580Y-106789265D01*
X144545771Y-106934000D01*
X138934671Y-106934000D01*
X138922919Y-106852266D01*
X138894147Y-106789265D01*
X138862176Y-106719258D01*
X138862176Y-106719257D01*
X138766421Y-106608750D01*
X138766418Y-106608748D01*
X138766419Y-106608748D01*
X138643413Y-106529697D01*
X138643412Y-106529696D01*
X138643411Y-106529696D01*
X138561432Y-106505624D01*
X138503112Y-106488500D01*
X138503111Y-106488500D01*
X138356889Y-106488500D01*
X138356888Y-106488500D01*
X138216586Y-106529697D01*
X138093580Y-106608748D01*
X137997824Y-106719257D01*
X137997823Y-106719258D01*
X137937080Y-106852265D01*
X137916271Y-106997000D01*
X126834899Y-106997000D01*
X125180959Y-105343060D01*
X125147474Y-105281737D01*
X125144640Y-105255379D01*
X125144640Y-101091998D01*
X127197874Y-101091998D01*
X127197874Y-101092001D01*
X127217095Y-101238005D01*
X127217096Y-101238007D01*
X127261621Y-101345500D01*
X127273453Y-101374063D01*
X127363103Y-101490897D01*
X127479937Y-101580547D01*
X127615993Y-101636904D01*
X127688996Y-101646515D01*
X127761999Y-101656126D01*
X127762000Y-101656126D01*
X127762001Y-101656126D01*
X127810669Y-101649718D01*
X127908007Y-101636904D01*
X128044063Y-101580547D01*
X128131015Y-101513826D01*
X128196182Y-101488632D01*
X128264627Y-101502670D01*
X128281980Y-101513822D01*
X128323625Y-101545778D01*
X128368935Y-101580546D01*
X128368937Y-101580547D01*
X128504993Y-101636904D01*
X128577996Y-101646515D01*
X128650999Y-101656126D01*
X128651000Y-101656126D01*
X128651001Y-101656126D01*
X128699669Y-101649718D01*
X128797007Y-101636904D01*
X128933063Y-101580547D01*
X129049897Y-101490897D01*
X129139547Y-101374063D01*
X129195904Y-101238007D01*
X129212000Y-101115742D01*
X129215126Y-101092001D01*
X129215126Y-101091998D01*
X129195904Y-100945994D01*
X129195904Y-100945993D01*
X129151171Y-100838000D01*
X134551271Y-100838000D01*
X134572080Y-100982734D01*
X134621980Y-101091998D01*
X134632824Y-101115743D01*
X134728579Y-101226250D01*
X134728581Y-101226251D01*
X134728580Y-101226251D01*
X134746870Y-101238005D01*
X134851589Y-101305304D01*
X134962727Y-101337937D01*
X134991888Y-101346500D01*
X134991889Y-101346500D01*
X135138112Y-101346500D01*
X135162254Y-101339410D01*
X135278411Y-101305304D01*
X135401421Y-101226250D01*
X135497176Y-101115743D01*
X135557919Y-100982734D01*
X135578729Y-100838000D01*
X135557919Y-100693266D01*
X135555057Y-100687000D01*
X135501333Y-100569360D01*
X135497176Y-100560257D01*
X135401421Y-100449750D01*
X135401418Y-100449748D01*
X135401419Y-100449748D01*
X135278413Y-100370697D01*
X135278412Y-100370696D01*
X135278411Y-100370696D01*
X135196432Y-100346624D01*
X135138112Y-100329500D01*
X135138111Y-100329500D01*
X134991889Y-100329500D01*
X134991888Y-100329500D01*
X134851586Y-100370697D01*
X134728580Y-100449748D01*
X134632824Y-100560257D01*
X134632823Y-100560258D01*
X134572080Y-100693265D01*
X134551271Y-100838000D01*
X129151171Y-100838000D01*
X129139547Y-100809937D01*
X129049897Y-100693103D01*
X128933063Y-100603453D01*
X128933059Y-100603451D01*
X128797007Y-100547096D01*
X128797005Y-100547095D01*
X128651001Y-100527874D01*
X128650999Y-100527874D01*
X128504994Y-100547095D01*
X128504992Y-100547096D01*
X128368940Y-100603451D01*
X128368937Y-100603452D01*
X128368937Y-100603453D01*
X128281984Y-100670173D01*
X128216817Y-100695367D01*
X128148373Y-100681329D01*
X128131019Y-100670177D01*
X128044063Y-100603453D01*
X128044059Y-100603451D01*
X127908007Y-100547096D01*
X127908005Y-100547095D01*
X127762001Y-100527874D01*
X127761999Y-100527874D01*
X127615994Y-100547095D01*
X127615992Y-100547096D01*
X127479940Y-100603451D01*
X127363103Y-100693103D01*
X127273451Y-100809940D01*
X127217096Y-100945992D01*
X127217095Y-100945994D01*
X127197874Y-101091998D01*
X125144640Y-101091998D01*
X125144640Y-94741998D01*
X127070874Y-94741998D01*
X127070874Y-94742001D01*
X127090095Y-94888005D01*
X127090096Y-94888007D01*
X127146453Y-95024063D01*
X127236103Y-95140897D01*
X127352937Y-95230547D01*
X127488993Y-95286904D01*
X127561996Y-95296515D01*
X127634999Y-95306126D01*
X127635000Y-95306126D01*
X127635001Y-95306126D01*
X127683669Y-95299718D01*
X127781007Y-95286904D01*
X127917063Y-95230547D01*
X128033897Y-95140897D01*
X128108125Y-95044161D01*
X128164552Y-95002959D01*
X128234298Y-94998804D01*
X128295218Y-95033016D01*
X128304871Y-95044157D01*
X128379103Y-95140897D01*
X128495937Y-95230547D01*
X128631993Y-95286904D01*
X128704996Y-95296515D01*
X128777999Y-95306126D01*
X128778000Y-95306126D01*
X128778001Y-95306126D01*
X128826669Y-95299718D01*
X128924007Y-95286904D01*
X129060063Y-95230547D01*
X129176897Y-95140897D01*
X129266547Y-95024063D01*
X129322904Y-94888007D01*
X129342126Y-94742000D01*
X129322904Y-94595993D01*
X129266547Y-94459937D01*
X129176897Y-94343103D01*
X129060063Y-94253453D01*
X129060059Y-94253451D01*
X128924007Y-94197096D01*
X128924005Y-94197095D01*
X128778001Y-94177874D01*
X128777999Y-94177874D01*
X128631994Y-94197095D01*
X128631992Y-94197096D01*
X128495940Y-94253451D01*
X128495937Y-94253452D01*
X128495937Y-94253453D01*
X128379103Y-94343103D01*
X128351763Y-94378734D01*
X128304876Y-94439838D01*
X128248447Y-94481040D01*
X128178701Y-94485195D01*
X128117781Y-94450982D01*
X128108124Y-94439838D01*
X128033897Y-94343103D01*
X127917063Y-94253453D01*
X127917059Y-94253451D01*
X127781007Y-94197096D01*
X127781005Y-94197095D01*
X127635001Y-94177874D01*
X127634999Y-94177874D01*
X127488994Y-94197095D01*
X127488992Y-94197096D01*
X127352940Y-94253451D01*
X127352937Y-94253452D01*
X127352937Y-94253453D01*
X127236103Y-94343103D01*
X127153325Y-94450982D01*
X127146451Y-94459940D01*
X127090096Y-94595992D01*
X127090095Y-94595994D01*
X127070874Y-94741998D01*
X125144640Y-94741998D01*
X125144640Y-89916000D01*
X135122271Y-89916000D01*
X135143080Y-90060734D01*
X135156702Y-90090561D01*
X135203824Y-90193743D01*
X135299579Y-90304250D01*
X135299581Y-90304251D01*
X135299580Y-90304251D01*
X135401955Y-90370043D01*
X135422589Y-90383304D01*
X135562889Y-90424500D01*
X135562890Y-90424500D01*
X135571192Y-90425694D01*
X135634748Y-90454718D01*
X135641228Y-90460751D01*
X136297181Y-91116703D01*
X136330666Y-91178026D01*
X136333500Y-91204384D01*
X136333500Y-100455524D01*
X136313815Y-100522563D01*
X136303213Y-100536727D01*
X136282825Y-100560255D01*
X136282823Y-100560258D01*
X136222080Y-100693265D01*
X136201271Y-100838000D01*
X136222080Y-100982734D01*
X136271980Y-101091998D01*
X136282824Y-101115743D01*
X136378579Y-101226250D01*
X136378581Y-101226251D01*
X136378580Y-101226251D01*
X136396870Y-101238005D01*
X136501589Y-101305304D01*
X136612727Y-101337937D01*
X136641888Y-101346500D01*
X136641889Y-101346500D01*
X136788112Y-101346500D01*
X136812254Y-101339410D01*
X136928411Y-101305304D01*
X137051421Y-101226250D01*
X137147176Y-101115743D01*
X137207919Y-100982734D01*
X137228729Y-100838000D01*
X137916271Y-100838000D01*
X137937080Y-100982734D01*
X137986980Y-101091998D01*
X137997824Y-101115743D01*
X138093579Y-101226250D01*
X138093581Y-101226251D01*
X138093580Y-101226251D01*
X138111870Y-101238005D01*
X138216589Y-101305304D01*
X138327727Y-101337937D01*
X138356888Y-101346500D01*
X138356889Y-101346500D01*
X138503112Y-101346500D01*
X138527254Y-101339410D01*
X138643411Y-101305304D01*
X138766421Y-101226250D01*
X138862176Y-101115743D01*
X138922919Y-100982734D01*
X138943729Y-100838000D01*
X138922919Y-100693266D01*
X138920057Y-100687000D01*
X138866333Y-100569360D01*
X138862176Y-100560257D01*
X138766421Y-100449750D01*
X138766418Y-100449748D01*
X138766419Y-100449748D01*
X138643413Y-100370697D01*
X138643412Y-100370696D01*
X138643411Y-100370696D01*
X138561432Y-100346624D01*
X138503112Y-100329500D01*
X138503111Y-100329500D01*
X138356889Y-100329500D01*
X138356888Y-100329500D01*
X138216586Y-100370697D01*
X138093580Y-100449748D01*
X137997824Y-100560257D01*
X137997823Y-100560258D01*
X137937080Y-100693265D01*
X137916271Y-100838000D01*
X137228729Y-100838000D01*
X137207919Y-100693266D01*
X137205057Y-100687000D01*
X137151333Y-100569360D01*
X137147176Y-100560257D01*
X137126786Y-100536725D01*
X137097762Y-100473171D01*
X137096500Y-100455524D01*
X137096500Y-94679000D01*
X137916271Y-94679000D01*
X137937080Y-94823734D01*
X137966432Y-94888005D01*
X137997824Y-94956743D01*
X138093579Y-95067250D01*
X138093581Y-95067251D01*
X138093580Y-95067251D01*
X138141028Y-95097744D01*
X138216589Y-95146304D01*
X138327727Y-95178937D01*
X138356888Y-95187500D01*
X138356889Y-95187500D01*
X138503112Y-95187500D01*
X138527254Y-95180410D01*
X138643411Y-95146304D01*
X138766421Y-95067250D01*
X138862176Y-94956743D01*
X138922919Y-94823734D01*
X138943729Y-94679000D01*
X138922919Y-94534266D01*
X138912632Y-94511741D01*
X138892547Y-94467761D01*
X138862176Y-94401257D01*
X138766421Y-94290750D01*
X138766418Y-94290748D01*
X138766419Y-94290748D01*
X138643413Y-94211697D01*
X138643412Y-94211696D01*
X138643411Y-94211696D01*
X138561432Y-94187624D01*
X138503112Y-94170500D01*
X138503111Y-94170500D01*
X138356889Y-94170500D01*
X138356888Y-94170500D01*
X138216586Y-94211697D01*
X138093580Y-94290748D01*
X137997824Y-94401257D01*
X137997823Y-94401258D01*
X137937080Y-94534265D01*
X137916271Y-94679000D01*
X137096500Y-94679000D01*
X137096500Y-91453385D01*
X137116185Y-91386346D01*
X137168989Y-91340591D01*
X137238147Y-91330647D01*
X137301703Y-91359672D01*
X137308181Y-91365704D01*
X139727181Y-93784704D01*
X139760666Y-93846027D01*
X139763500Y-93872385D01*
X139763500Y-100455524D01*
X139743815Y-100522563D01*
X139733213Y-100536727D01*
X139712825Y-100560255D01*
X139712823Y-100560258D01*
X139652080Y-100693265D01*
X139631271Y-100838000D01*
X139652080Y-100982734D01*
X139701980Y-101091998D01*
X139712824Y-101115743D01*
X139808579Y-101226250D01*
X139808581Y-101226251D01*
X139808580Y-101226251D01*
X139826870Y-101238005D01*
X139931589Y-101305304D01*
X140042727Y-101337937D01*
X140071888Y-101346500D01*
X140071889Y-101346500D01*
X140218112Y-101346500D01*
X140242254Y-101339410D01*
X140358411Y-101305304D01*
X140481421Y-101226250D01*
X140577176Y-101115743D01*
X140637919Y-100982734D01*
X140658729Y-100838000D01*
X141281271Y-100838000D01*
X141302080Y-100982734D01*
X141351980Y-101091998D01*
X141362824Y-101115743D01*
X141458579Y-101226250D01*
X141458581Y-101226251D01*
X141458580Y-101226251D01*
X141476870Y-101238005D01*
X141581589Y-101305304D01*
X141692727Y-101337937D01*
X141721888Y-101346500D01*
X141721889Y-101346500D01*
X141868112Y-101346500D01*
X141892254Y-101339410D01*
X142008411Y-101305304D01*
X142131421Y-101226250D01*
X142227176Y-101115743D01*
X142287919Y-100982734D01*
X142308729Y-100838000D01*
X142287919Y-100693266D01*
X142285057Y-100687000D01*
X142231333Y-100569360D01*
X142227176Y-100560257D01*
X142131421Y-100449750D01*
X142131418Y-100449748D01*
X142131419Y-100449748D01*
X142008413Y-100370697D01*
X142008412Y-100370696D01*
X142008411Y-100370696D01*
X141926432Y-100346624D01*
X141868112Y-100329500D01*
X141868111Y-100329500D01*
X141721889Y-100329500D01*
X141721888Y-100329500D01*
X141581586Y-100370697D01*
X141458580Y-100449748D01*
X141362824Y-100560257D01*
X141362823Y-100560258D01*
X141302080Y-100693265D01*
X141281271Y-100838000D01*
X140658729Y-100838000D01*
X140637919Y-100693266D01*
X140635057Y-100687000D01*
X140581333Y-100569360D01*
X140577176Y-100560257D01*
X140556786Y-100536725D01*
X140527762Y-100473171D01*
X140526500Y-100455524D01*
X140526500Y-93612777D01*
X140526500Y-93612775D01*
X140500501Y-93515746D01*
X140450276Y-93428753D01*
X140379247Y-93357724D01*
X136936580Y-89915057D01*
X136903095Y-89853734D01*
X136901523Y-89845022D01*
X136890919Y-89771267D01*
X136890918Y-89771262D01*
X136851790Y-89685585D01*
X136830176Y-89638257D01*
X136734421Y-89527750D01*
X136734418Y-89527748D01*
X136734419Y-89527748D01*
X136611413Y-89448697D01*
X136611412Y-89448696D01*
X136611411Y-89448696D01*
X136529432Y-89424624D01*
X136471112Y-89407500D01*
X136471111Y-89407500D01*
X136324889Y-89407500D01*
X136324888Y-89407500D01*
X136266567Y-89424624D01*
X136184589Y-89448696D01*
X136184587Y-89448696D01*
X136184587Y-89448697D01*
X136084039Y-89513315D01*
X136016999Y-89532999D01*
X135949961Y-89513315D01*
X135880876Y-89468917D01*
X135849411Y-89448696D01*
X135750308Y-89419596D01*
X135709112Y-89407500D01*
X135709111Y-89407500D01*
X135562889Y-89407500D01*
X135562888Y-89407500D01*
X135422586Y-89448697D01*
X135299580Y-89527748D01*
X135203824Y-89638257D01*
X135203823Y-89638258D01*
X135143080Y-89771265D01*
X135122271Y-89916000D01*
X125144640Y-89916000D01*
X125144640Y-88391998D01*
X127197874Y-88391998D01*
X127197874Y-88392001D01*
X127217095Y-88538005D01*
X127217096Y-88538007D01*
X127269794Y-88665231D01*
X127273453Y-88674063D01*
X127363103Y-88790897D01*
X127479937Y-88880547D01*
X127615993Y-88936904D01*
X127688996Y-88946515D01*
X127761999Y-88956126D01*
X127762000Y-88956126D01*
X127762001Y-88956126D01*
X127810669Y-88949718D01*
X127908007Y-88936904D01*
X128044063Y-88880547D01*
X128131015Y-88813826D01*
X128196182Y-88788632D01*
X128264627Y-88802670D01*
X128281980Y-88813822D01*
X128332908Y-88852901D01*
X128368935Y-88880546D01*
X128368937Y-88880547D01*
X128504993Y-88936904D01*
X128577996Y-88946515D01*
X128650999Y-88956126D01*
X128651000Y-88956126D01*
X128651001Y-88956126D01*
X128699669Y-88949718D01*
X128797007Y-88936904D01*
X128933063Y-88880547D01*
X129049897Y-88790897D01*
X129139547Y-88674063D01*
X129195904Y-88538007D01*
X129215126Y-88392000D01*
X129213512Y-88379743D01*
X129199787Y-88275485D01*
X129195904Y-88245993D01*
X129139547Y-88109937D01*
X129049897Y-87993103D01*
X128933063Y-87903453D01*
X128933059Y-87903451D01*
X128797007Y-87847096D01*
X128797005Y-87847095D01*
X128651001Y-87827874D01*
X128650999Y-87827874D01*
X128504994Y-87847095D01*
X128504992Y-87847096D01*
X128368940Y-87903451D01*
X128368937Y-87903452D01*
X128368937Y-87903453D01*
X128281984Y-87970173D01*
X128216817Y-87995367D01*
X128148373Y-87981329D01*
X128131019Y-87970177D01*
X128044063Y-87903453D01*
X128044059Y-87903451D01*
X127908007Y-87847096D01*
X127908005Y-87847095D01*
X127762001Y-87827874D01*
X127761999Y-87827874D01*
X127615994Y-87847095D01*
X127615992Y-87847096D01*
X127479940Y-87903451D01*
X127479937Y-87903452D01*
X127479937Y-87903453D01*
X127363103Y-87993103D01*
X127279544Y-88102000D01*
X127273451Y-88109940D01*
X127217096Y-88245992D01*
X127217095Y-88245994D01*
X127197874Y-88391998D01*
X125144640Y-88391998D01*
X125144640Y-86106000D01*
X137471271Y-86106000D01*
X137492080Y-86250734D01*
X137552823Y-86383741D01*
X137552824Y-86383743D01*
X137648579Y-86494250D01*
X137648581Y-86494251D01*
X137648580Y-86494251D01*
X137750955Y-86560043D01*
X137771589Y-86573304D01*
X137882727Y-86605937D01*
X137911888Y-86614500D01*
X137911889Y-86614500D01*
X138058112Y-86614500D01*
X138082254Y-86607410D01*
X138198411Y-86573304D01*
X138321421Y-86494250D01*
X138417176Y-86383743D01*
X138477919Y-86250734D01*
X138498729Y-86106000D01*
X138477919Y-85961266D01*
X138417176Y-85828257D01*
X138321421Y-85717750D01*
X138321418Y-85717748D01*
X138321419Y-85717748D01*
X138198413Y-85638697D01*
X138198412Y-85638696D01*
X138198411Y-85638696D01*
X138103284Y-85610764D01*
X138058112Y-85597500D01*
X138058111Y-85597500D01*
X137911889Y-85597500D01*
X137911888Y-85597500D01*
X137771586Y-85638697D01*
X137648580Y-85717748D01*
X137552824Y-85828257D01*
X137552823Y-85828258D01*
X137492080Y-85961265D01*
X137471271Y-86106000D01*
X125144640Y-86106000D01*
X125144640Y-85855079D01*
X125164325Y-85788040D01*
X125180959Y-85767398D01*
X126737613Y-84210744D01*
X128308499Y-82639858D01*
X128360666Y-82549500D01*
X128365746Y-82540702D01*
X128395380Y-82430108D01*
X128395380Y-81478399D01*
X137925100Y-81478399D01*
X137925100Y-81691601D01*
X137941776Y-81796890D01*
X137958453Y-81902180D01*
X137958453Y-81902183D01*
X138024334Y-82104944D01*
X138024336Y-82104947D01*
X138121128Y-82294913D01*
X138246446Y-82467397D01*
X138397203Y-82618154D01*
X138569687Y-82743472D01*
X138759653Y-82840264D01*
X138759655Y-82840265D01*
X138948782Y-82901715D01*
X138962421Y-82906147D01*
X139172999Y-82939500D01*
X139173000Y-82939500D01*
X139386200Y-82939500D01*
X139386201Y-82939500D01*
X139596779Y-82906147D01*
X139596782Y-82906146D01*
X139596783Y-82906146D01*
X139799544Y-82840265D01*
X139799544Y-82840264D01*
X139799547Y-82840264D01*
X139989513Y-82743472D01*
X140161997Y-82618154D01*
X140312754Y-82467397D01*
X140438072Y-82294913D01*
X140534864Y-82104947D01*
X140545066Y-82073547D01*
X140600746Y-81902183D01*
X140600746Y-81902182D01*
X140600747Y-81902179D01*
X140634100Y-81691601D01*
X140634100Y-81478399D01*
X140600747Y-81267821D01*
X140600746Y-81267817D01*
X140600746Y-81267816D01*
X140534865Y-81065055D01*
X140534863Y-81065052D01*
X140531963Y-81059359D01*
X140438072Y-80875087D01*
X140312754Y-80702603D01*
X140161997Y-80551846D01*
X139989513Y-80426528D01*
X139799547Y-80329736D01*
X139799544Y-80329734D01*
X139596781Y-80263853D01*
X139456393Y-80241617D01*
X139386201Y-80230500D01*
X139172999Y-80230500D01*
X139102806Y-80241617D01*
X138962419Y-80263853D01*
X138962416Y-80263853D01*
X138759655Y-80329734D01*
X138759652Y-80329736D01*
X138569686Y-80426528D01*
X138397201Y-80551847D01*
X138246447Y-80702601D01*
X138121128Y-80875086D01*
X138024336Y-81065052D01*
X138024334Y-81065055D01*
X137958453Y-81267816D01*
X137958453Y-81267819D01*
X137931342Y-81438992D01*
X137925100Y-81478399D01*
X128395380Y-81478399D01*
X128395380Y-71856838D01*
X128415065Y-71789799D01*
X128467869Y-71744044D01*
X128519380Y-71732838D01*
X139295847Y-71732838D01*
X139295849Y-71732838D01*
X139295850Y-71732838D01*
X139406444Y-71703204D01*
X139505600Y-71645957D01*
X142608198Y-68543359D01*
X142669521Y-68509874D01*
X142695879Y-68507040D01*
X148242273Y-68507040D01*
X148309312Y-68526725D01*
G37*
%TD.AperFunction*%
%TA.AperFunction,Conductor*%
G36*
X176187648Y-114522407D02*
G01*
X176243576Y-114564285D01*
X176267985Y-114629752D01*
X176268300Y-114638583D01*
X176268300Y-119481758D01*
X176248615Y-119548797D01*
X176195811Y-119594552D01*
X176144300Y-119605758D01*
X165419092Y-119605758D01*
X165336146Y-119627983D01*
X165308497Y-119635392D01*
X165209343Y-119692638D01*
X165209340Y-119692640D01*
X162106739Y-122795241D01*
X162045416Y-122828726D01*
X162019058Y-122831560D01*
X161095665Y-122831560D01*
X161028626Y-122811875D01*
X160982871Y-122759071D01*
X160972927Y-122689913D01*
X160982871Y-122656048D01*
X161020918Y-122572737D01*
X161020919Y-122572732D01*
X161031523Y-122498974D01*
X161060547Y-122435420D01*
X161066567Y-122428954D01*
X161705037Y-121790483D01*
X161705042Y-121790480D01*
X161715245Y-121780276D01*
X161715247Y-121780276D01*
X161786276Y-121709247D01*
X161829517Y-121634351D01*
X161836502Y-121622253D01*
X161862501Y-121525225D01*
X161862501Y-121424775D01*
X161862501Y-121417180D01*
X161862500Y-121417162D01*
X161862500Y-118492475D01*
X161882185Y-118425436D01*
X161892782Y-118411277D01*
X161913176Y-118387743D01*
X161973919Y-118254734D01*
X161994729Y-118110000D01*
X161973919Y-117965266D01*
X161913176Y-117832257D01*
X161817421Y-117721750D01*
X161817418Y-117721748D01*
X161817416Y-117721746D01*
X161789515Y-117703815D01*
X161743760Y-117651011D01*
X161733816Y-117581853D01*
X161762841Y-117518297D01*
X161821619Y-117480523D01*
X161856554Y-117475500D01*
X173024222Y-117475500D01*
X173024225Y-117475500D01*
X173121254Y-117449501D01*
X173208247Y-117399276D01*
X173279276Y-117328247D01*
X173279276Y-117328246D01*
X175508772Y-115098749D01*
X175570093Y-115065266D01*
X175578808Y-115063694D01*
X175587108Y-115062500D01*
X175587111Y-115062500D01*
X175727411Y-115021304D01*
X175850421Y-114942250D01*
X175946176Y-114831743D01*
X175989404Y-114737086D01*
X176006918Y-114698737D01*
X176006918Y-114698735D01*
X176006919Y-114698734D01*
X176017523Y-114624974D01*
X176046547Y-114561420D01*
X176052575Y-114554945D01*
X176056630Y-114550890D01*
X176117957Y-114517414D01*
X176187648Y-114522407D01*
G37*
%TD.AperFunction*%
%TA.AperFunction,Conductor*%
G36*
X116065834Y-82817975D02*
G01*
X116121767Y-82859847D01*
X116146184Y-82925311D01*
X116146500Y-82934157D01*
X116146500Y-91160513D01*
X116126815Y-91227552D01*
X116074011Y-91273307D01*
X116004853Y-91283251D01*
X115941297Y-91254226D01*
X115913142Y-91218967D01*
X115902133Y-91198372D01*
X115902131Y-91198368D01*
X115776605Y-91045414D01*
X115623651Y-90919888D01*
X115623644Y-90919884D01*
X115449149Y-90826614D01*
X115325431Y-90789085D01*
X115259796Y-90769175D01*
X115259794Y-90769174D01*
X115259796Y-90769174D01*
X115062880Y-90749780D01*
X114865965Y-90769174D01*
X114676610Y-90826614D01*
X114502115Y-90919884D01*
X114502108Y-90919888D01*
X114349154Y-91045414D01*
X114223628Y-91198368D01*
X114223626Y-91198372D01*
X114201538Y-91239696D01*
X114152575Y-91289540D01*
X114084437Y-91305000D01*
X114018758Y-91281168D01*
X113976389Y-91225610D01*
X113968180Y-91181242D01*
X113968180Y-84864477D01*
X113987865Y-84797438D01*
X114004499Y-84776796D01*
X115934819Y-82846476D01*
X115996142Y-82812991D01*
X116065834Y-82817975D01*
G37*
%TD.AperFunction*%
%TA.AperFunction,Conductor*%
G36*
X200862914Y-67210495D02*
G01*
X200918847Y-67252367D01*
X200943264Y-67317831D01*
X200943580Y-67326677D01*
X200943580Y-79993718D01*
X200923895Y-80060757D01*
X200871091Y-80106512D01*
X200801933Y-80116456D01*
X200738377Y-80087431D01*
X200731899Y-80081399D01*
X195462299Y-74811799D01*
X195428814Y-74750476D01*
X195425980Y-74724118D01*
X195425980Y-72596277D01*
X195445665Y-72529238D01*
X195462299Y-72508596D01*
X200731899Y-67238996D01*
X200793222Y-67205511D01*
X200862914Y-67210495D01*
G37*
%TD.AperFunction*%
%TA.AperFunction,Conductor*%
G36*
X103901623Y-67234683D02*
G01*
X103908101Y-67240715D01*
X109201381Y-72533995D01*
X109234866Y-72595318D01*
X109237700Y-72621676D01*
X109237700Y-74698719D01*
X109218015Y-74765758D01*
X109201381Y-74786400D01*
X103908101Y-80079680D01*
X103846778Y-80113165D01*
X103777086Y-80108181D01*
X103721153Y-80066309D01*
X103696736Y-80000845D01*
X103696420Y-79991999D01*
X103696420Y-67328396D01*
X103716105Y-67261357D01*
X103768909Y-67215602D01*
X103838067Y-67205658D01*
X103901623Y-67234683D01*
G37*
%TD.AperFunction*%
%TA.AperFunction,Conductor*%
G36*
X147912637Y-57325323D02*
G01*
X147958392Y-57378127D01*
X147968336Y-57447285D01*
X147939311Y-57510841D01*
X147904051Y-57538996D01*
X147858835Y-57563164D01*
X147858828Y-57563168D01*
X147705874Y-57688694D01*
X147580348Y-57841648D01*
X147580344Y-57841655D01*
X147487074Y-58016150D01*
X147429634Y-58205505D01*
X147410240Y-58402420D01*
X147429634Y-58599334D01*
X147487074Y-58788689D01*
X147580344Y-58963184D01*
X147580348Y-58963191D01*
X147705874Y-59116145D01*
X147858828Y-59241671D01*
X147858835Y-59241676D01*
X147875535Y-59250602D01*
X147925380Y-59299564D01*
X147940840Y-59367702D01*
X147917008Y-59433382D01*
X147861450Y-59475750D01*
X147817082Y-59483960D01*
X139749097Y-59483960D01*
X139682058Y-59464275D01*
X139636303Y-59411471D01*
X139626359Y-59342313D01*
X139655384Y-59278757D01*
X139661416Y-59272279D01*
X141591738Y-57341957D01*
X141653061Y-57308472D01*
X141679419Y-57305638D01*
X147845598Y-57305638D01*
X147912637Y-57325323D01*
G37*
%TD.AperFunction*%
%TA.AperFunction,Conductor*%
G36*
X136719038Y-47056105D02*
G01*
X136764793Y-47108909D01*
X136774737Y-47178067D01*
X136745712Y-47241623D01*
X136739680Y-47248101D01*
X131448941Y-52538838D01*
X131387618Y-52572323D01*
X131361260Y-52575157D01*
X129284218Y-52575157D01*
X129217179Y-52555472D01*
X129196537Y-52538838D01*
X123905800Y-47248101D01*
X123872315Y-47186778D01*
X123877299Y-47117086D01*
X123919171Y-47061153D01*
X123984635Y-47036736D01*
X123993481Y-47036420D01*
X136651999Y-47036420D01*
X136719038Y-47056105D01*
G37*
%TD.AperFunction*%
%TA.AperFunction,Conductor*%
G36*
X180737238Y-47056105D02*
G01*
X180782993Y-47108909D01*
X180792937Y-47178067D01*
X180763912Y-47241623D01*
X180757880Y-47248101D01*
X175467142Y-52538838D01*
X175405819Y-52572323D01*
X175379461Y-52575157D01*
X173277019Y-52575157D01*
X173209980Y-52555472D01*
X173189338Y-52538838D01*
X167898601Y-47248101D01*
X167865116Y-47186778D01*
X167870100Y-47117086D01*
X167911972Y-47061153D01*
X167977436Y-47036736D01*
X167986282Y-47036420D01*
X180670199Y-47036420D01*
X180737238Y-47056105D01*
G37*
%TD.AperFunction*%
%TD*%
M02*
