M48
; DRILL file {KiCad 8.0.5} date 2025-02-27T20:40:15-0500
; FORMAT={-:-/ absolute / inch / decimal}
; #@! TF.CreationDate,2025-02-27T20:40:15-05:00
; #@! TF.GenerationSoftware,Kicad,Pcbnew,8.0.5
; #@! TF.FileFunction,Plated,1,4,PTH
FMAT,2
INCH
; #@! TA.AperFunction,Plated,PTH,ViaDrill
T1C0.0100
; #@! TA.AperFunction,Plated,PTH,ViaDrill
T2C0.0120
; #@! TA.AperFunction,Plated,PTH,ComponentDrill
T3C0.0150
; #@! TA.AperFunction,Plated,PTH,ComponentDrill
T4C0.0394
; #@! TA.AperFunction,Plated,PTH,ComponentDrill
T5C0.0480
; #@! TA.AperFunction,Plated,PTH,ComponentDrill
T6C0.1260
%
G90
G05
T1
X4.53Y-3.385
X4.53Y-3.485
X5.03Y-3.385
X5.13Y-3.185
X5.13Y-3.285
X5.13Y-3.54
X5.13Y-3.78
X5.13Y-3.885
X5.13Y-4.03
X5.13Y-4.185
X5.13Y-4.285
X5.13Y-4.385
X5.23Y-3.185
X5.23Y-4.085
X5.23Y-4.185
X5.23Y-4.285
X5.23Y-4.385
X5.2775Y-4.44
X5.2975Y-3.39
X5.3175Y-3.97
X5.33Y-3.585
X5.34Y-3.54
X5.35Y-4.06
X5.37Y-3.54
X5.3825Y-3.97
X5.43Y-4.34
X5.43Y-4.685
X5.4325Y-3.39
X5.45Y-3.7275
X5.45Y-3.97
X5.45Y-4.2125
X5.5175Y-3.97
X5.52Y-4.3075
X5.52Y-4.3725
X5.52Y-4.44
X5.52Y-4.5075
X5.52Y-4.5725
X5.53Y-4.685
X5.55Y-3.88
X5.5825Y-3.97
X5.61Y-4.54
X5.63Y-2.285
X5.63Y-3.385
X5.63Y-4.685
X5.63Y-4.785
X5.711Y-4.21
X5.73Y-2.285
X5.73Y-3.385
X5.73Y-3.985
X5.73Y-4.685
X5.73Y-4.785
X5.7625Y-4.44
X5.83Y-2.785
X5.83Y-2.885
X5.83Y-2.985
X5.83Y-3.085
X5.83Y-3.185
X5.83Y-3.285
X5.83Y-3.385
X5.83Y-4.085
X5.83Y-4.285
X5.83Y-4.385
X5.83Y-4.685
X5.83Y-4.785
X5.93Y-3.385
X5.93Y-4.285
X5.93Y-4.385
X5.93Y-4.685
X5.93Y-4.785
X6.03Y-4.285
X6.03Y-4.385
X6.03Y-4.785
X6.13Y-2.785
X6.13Y-3.385
X6.13Y-4.085
X6.13Y-4.185
X6.13Y-4.385
X6.13Y-4.485
X6.13Y-4.685
X6.13Y-4.785
X6.23Y-2.785
X6.23Y-2.885
X6.23Y-2.985
X6.23Y-3.085
X6.23Y-3.185
X6.23Y-3.285
X6.23Y-3.385
X6.23Y-3.485
X6.23Y-4.085
X6.23Y-4.185
X6.23Y-4.285
X6.32Y-4.82
X6.33Y-3.085
X6.33Y-3.185
X6.33Y-3.285
X6.33Y-3.385
X6.33Y-3.685
X6.33Y-3.785
X6.33Y-3.885
X6.33Y-3.985
X6.33Y-4.085
X6.33Y-4.185
X6.33Y-4.285
X6.3575Y-3.4686
X6.3575Y-4.65
X6.4075Y-4.01
X6.43Y-2.785
X6.43Y-2.885
X6.43Y-2.985
X6.43Y-3.085
X6.43Y-3.185
X6.43Y-3.285
X6.43Y-3.385
X6.43Y-3.685
X6.43Y-3.785
X6.43Y-4.185
X6.43Y-4.285
X6.4692Y-3.5899
X6.5Y-3.59
X6.53Y-2.885
X6.53Y-2.985
X6.53Y-3.085
X6.53Y-3.285
X6.5331Y-4.5131
X6.56Y-3.91
X6.56Y-4.24
X6.57Y-3.52
X6.57Y-3.56
X6.6Y-3.3361
X6.61Y-3.52
X6.61Y-3.56
X6.63Y-2.885
X6.63Y-2.985
X6.63Y-3.085
X6.63Y-3.185
X6.65Y-4.0775
X6.65Y-4.1425
X6.65Y-3.27
X6.65Y-3.33
X6.65Y-3.39
X6.65Y-4.01
X6.6502Y-3.8774
X6.6516Y-3.944
X6.69Y-4.27
X6.69Y-4.35
X6.73Y-2.885
X6.73Y-2.985
X6.73Y-3.085
X6.73Y-3.185
X6.7325Y-3.71
X6.74Y-4.11
X6.769Y-4.49
X6.77Y-4.27
X6.77Y-4.35
X6.78Y-4.67
X6.8Y-4.64
X6.83Y-2.885
X6.83Y-2.985
X6.83Y-3.085
X6.83Y-3.185
X6.83Y-4.44
X6.8925Y-4.01
X6.91Y-4.43
X6.91Y-4.47
X6.91Y-4.51
X6.93Y-3.385
X6.93Y-3.585
X6.93Y-3.685
X6.93Y-3.785
X6.9328Y-4.085
X7.03Y-3.785
X7.03Y-3.885
X7.03Y-3.985
X7.03Y-4.085
T2
X5.025Y-3.73
X5.03Y-3.48
X5.03Y-3.98
X5.065Y-3.48
X5.065Y-3.98
X5.07Y-3.73
X5.105Y-2.95
X5.87Y-2.71
X5.8968Y-3.212
X6.0968Y-3.212
X6.17Y-2.72
X7.005Y-3.3505
X7.0055Y-3.5825
X7.8991Y-3.399
T3
X4.1071Y-2.9
X4.1071Y-4.6323
X4.1325Y-2.8388
X4.1325Y-2.9612
X4.1325Y-4.571
X4.1325Y-4.6935
X4.1937Y-2.8134
X4.1937Y-2.9866
X4.1937Y-4.5457
X4.1937Y-4.7189
X4.255Y-2.8388
X4.255Y-2.9612
X4.255Y-4.571
X4.255Y-4.6935
X4.2803Y-2.9
X4.2803Y-4.6323
X5.0441Y-1.963
X5.0441Y-5.5693
X5.0695Y-1.9017
X5.0695Y-2.0242
X5.0695Y-5.508
X5.0695Y-5.6305
X5.1307Y-1.8764
X5.1307Y-2.0496
X5.1307Y-5.4827
X5.1307Y-5.6559
X5.192Y-1.9017
X5.192Y-2.0242
X5.192Y-5.508
X5.192Y-5.6305
X5.2173Y-1.963
X5.2173Y-5.5693
X6.7764Y-1.963
X6.7764Y-5.5693
X6.8017Y-1.9017
X6.8017Y-2.0242
X6.8017Y-5.508
X6.8017Y-5.6305
X6.863Y-1.8764
X6.863Y-2.0496
X6.863Y-5.4827
X6.863Y-5.6559
X6.9242Y-1.9017
X6.9242Y-2.0242
X6.9242Y-5.508
X6.9242Y-5.6305
X6.9496Y-1.963
X6.9496Y-5.5693
X7.7134Y-2.9
X7.7134Y-4.6323
X7.7387Y-2.8388
X7.7387Y-2.9612
X7.7387Y-4.571
X7.7387Y-4.6935
X7.8Y-2.8134
X7.8Y-2.9866
X7.8Y-4.5457
X7.8Y-4.7189
X7.8613Y-2.8388
X7.8613Y-2.9612
X7.8613Y-4.571
X7.8613Y-4.6935
X7.8866Y-2.9
X7.8866Y-4.6323
T4
X4.53Y-3.6126
X4.53Y-3.6677
X4.53Y-3.8645
X4.53Y-3.9197
X5.8433Y-2.2993
X5.8433Y-5.2329
X5.8984Y-2.2993
X5.8985Y-5.2329
X5.9968Y-3.0965
X5.9968Y-3.1516
X5.9968Y-3.3484
X5.9968Y-3.4035
X6.0953Y-2.2993
X6.0953Y-5.2329
X6.1504Y-2.2993
X6.1504Y-5.2329
X6.305Y-2.7869
X6.305Y-2.955
X7.4637Y-3.6126
X7.4637Y-3.6677
X7.4637Y-3.8646
X7.4637Y-3.9197
T5
X5.9968Y-4.6869
T6
X4.1937Y-2.9
X4.1937Y-4.6323
X5.1307Y-1.963
X5.1307Y-5.5693
X6.863Y-1.963
X6.863Y-5.5693
X7.8Y-2.9
X7.8Y-4.6323
M30
