%TF.GenerationSoftware,KiCad,Pcbnew,9.0.1*%
%TF.CreationDate,2025-06-25T17:25:53-04:00*%
%TF.ProjectId,-Z,2d5a2e6b-6963-4616-945f-706362585858,rev?*%
%TF.SameCoordinates,Original*%
%TF.FileFunction,Paste,Bot*%
%TF.FilePolarity,Positive*%
%FSLAX46Y46*%
G04 Gerber Fmt 4.6, Leading zero omitted, Abs format (unit mm)*
G04 Created by KiCad (PCBNEW 9.0.1) date 2025-06-25 17:25:53*
%MOMM*%
%LPD*%
G01*
G04 APERTURE LIST*
G04 Aperture macros list*
%AMRoundRect*
0 Rectangle with rounded corners*
0 $1 Rounding radius*
0 $2 $3 $4 $5 $6 $7 $8 $9 X,Y pos of 4 corners*
0 Add a 4 corners polygon primitive as box body*
4,1,4,$2,$3,$4,$5,$6,$7,$8,$9,$2,$3,0*
0 Add four circle primitives for the rounded corners*
1,1,$1+$1,$2,$3*
1,1,$1+$1,$4,$5*
1,1,$1+$1,$6,$7*
1,1,$1+$1,$8,$9*
0 Add four rect primitives between the rounded corners*
20,1,$1+$1,$2,$3,$4,$5,0*
20,1,$1+$1,$4,$5,$6,$7,0*
20,1,$1+$1,$6,$7,$8,$9,0*
20,1,$1+$1,$8,$9,$2,$3,0*%
G04 Aperture macros list end*
%ADD10RoundRect,0.225000X0.225000X0.250000X-0.225000X0.250000X-0.225000X-0.250000X0.225000X-0.250000X0*%
%ADD11RoundRect,0.200000X-0.275000X0.200000X-0.275000X-0.200000X0.275000X-0.200000X0.275000X0.200000X0*%
%ADD12R,0.700000X0.510000*%
%ADD13RoundRect,0.200000X0.275000X-0.200000X0.275000X0.200000X-0.275000X0.200000X-0.275000X-0.200000X0*%
%ADD14RoundRect,0.218750X-0.256250X0.218750X-0.256250X-0.218750X0.256250X-0.218750X0.256250X0.218750X0*%
%ADD15RoundRect,0.250000X-0.250000X0.275000X-0.250000X-0.275000X0.250000X-0.275000X0.250000X0.275000X0*%
%ADD16RoundRect,0.250000X-0.275000X0.850000X-0.275000X-0.850000X0.275000X-0.850000X0.275000X0.850000X0*%
%ADD17RoundRect,0.200000X0.200000X0.275000X-0.200000X0.275000X-0.200000X-0.275000X0.200000X-0.275000X0*%
%ADD18RoundRect,0.218750X-0.218750X-0.256250X0.218750X-0.256250X0.218750X0.256250X-0.218750X0.256250X0*%
%ADD19RoundRect,0.100000X0.100000X-0.225000X0.100000X0.225000X-0.100000X0.225000X-0.100000X-0.225000X0*%
%ADD20RoundRect,0.218750X0.218750X0.256250X-0.218750X0.256250X-0.218750X-0.256250X0.218750X-0.256250X0*%
%ADD21RoundRect,0.200000X-0.200000X-0.275000X0.200000X-0.275000X0.200000X0.275000X-0.200000X0.275000X0*%
%ADD22RoundRect,0.225000X0.250000X-0.225000X0.250000X0.225000X-0.250000X0.225000X-0.250000X-0.225000X0*%
%ADD23R,1.422400X0.304800*%
%ADD24RoundRect,0.100000X-0.100000X0.225000X-0.100000X-0.225000X0.100000X-0.225000X0.100000X0.225000X0*%
%ADD25RoundRect,0.250000X-0.300000X-0.475000X0.300000X-0.475000X0.300000X0.475000X-0.300000X0.475000X0*%
%ADD26RoundRect,0.250000X-0.425000X-1.200000X0.425000X-1.200000X0.425000X1.200000X-0.425000X1.200000X0*%
%ADD27RoundRect,0.218750X0.256250X-0.218750X0.256250X0.218750X-0.256250X0.218750X-0.256250X-0.218750X0*%
%ADD28RoundRect,0.150000X0.150000X-0.587500X0.150000X0.587500X-0.150000X0.587500X-0.150000X-0.587500X0*%
%ADD29RoundRect,0.225000X-0.225000X-0.250000X0.225000X-0.250000X0.225000X0.250000X-0.225000X0.250000X0*%
%ADD30RoundRect,0.225000X-0.250000X0.225000X-0.250000X-0.225000X0.250000X-0.225000X0.250000X0.225000X0*%
%ADD31R,1.900000X0.600000*%
%ADD32R,2.800000X2.100000*%
%ADD33RoundRect,0.250000X0.325000X1.100000X-0.325000X1.100000X-0.325000X-1.100000X0.325000X-1.100000X0*%
%ADD34RoundRect,0.250000X-1.425000X0.362500X-1.425000X-0.362500X1.425000X-0.362500X1.425000X0.362500X0*%
%ADD35RoundRect,0.250000X0.362500X1.425000X-0.362500X1.425000X-0.362500X-1.425000X0.362500X-1.425000X0*%
%ADD36RoundRect,0.150000X0.587500X0.150000X-0.587500X0.150000X-0.587500X-0.150000X0.587500X-0.150000X0*%
%ADD37R,1.270000X0.610000*%
%ADD38R,3.810000X3.910000*%
%ADD39R,1.020000X0.610000*%
%ADD40RoundRect,0.150000X-0.512500X-0.150000X0.512500X-0.150000X0.512500X0.150000X-0.512500X0.150000X0*%
%ADD41R,0.400000X0.750000*%
%ADD42RoundRect,0.250000X-0.325000X-1.100000X0.325000X-1.100000X0.325000X1.100000X-0.325000X1.100000X0*%
%ADD43RoundRect,0.150000X-0.150000X0.587500X-0.150000X-0.587500X0.150000X-0.587500X0.150000X0.587500X0*%
%ADD44RoundRect,0.075000X-0.390000X-0.275000X0.390000X-0.275000X0.390000X0.275000X-0.390000X0.275000X0*%
%ADD45RoundRect,0.075000X-0.075000X-0.275000X0.075000X-0.275000X0.075000X0.275000X-0.075000X0.275000X0*%
%ADD46R,0.254000X0.812800*%
%ADD47R,0.812800X0.254000*%
%ADD48R,1.752600X1.752600*%
%ADD49RoundRect,0.250000X-0.500000X0.950000X-0.500000X-0.950000X0.500000X-0.950000X0.500000X0.950000X0*%
%ADD50RoundRect,0.250000X-0.500000X0.275000X-0.500000X-0.275000X0.500000X-0.275000X0.500000X0.275000X0*%
G04 APERTURE END LIST*
D10*
%TO.C,C11*%
X147008600Y-117868399D03*
X145458600Y-117868399D03*
%TD*%
D11*
%TO.C,R68*%
X154894999Y-117907000D03*
X154894999Y-119557000D03*
%TD*%
D12*
%TO.C,Q11*%
X166700801Y-90358200D03*
X166700801Y-89408200D03*
X166700801Y-88458200D03*
X169020801Y-88458200D03*
X169020801Y-89408200D03*
X169020801Y-90358200D03*
%TD*%
D13*
%TO.C,R33*%
X162984001Y-86982000D03*
X162984001Y-85332000D03*
%TD*%
D14*
%TO.C,D6*%
X172339000Y-117625199D03*
X172339000Y-119200201D03*
%TD*%
D11*
%TO.C,R52*%
X187672802Y-83286800D03*
X187672802Y-84936800D03*
%TD*%
%TO.C,R25*%
X165930401Y-78092999D03*
X165930401Y-79742999D03*
%TD*%
D15*
%TO.C,J4*%
X164000001Y-125972599D03*
D16*
X165475001Y-127497599D03*
X162525001Y-127497599D03*
%TD*%
D17*
%TO.C,R75*%
X156416200Y-121068800D03*
X154766200Y-121068800D03*
%TD*%
D18*
%TO.C,F2*%
X170324500Y-72466400D03*
X171899502Y-72466400D03*
%TD*%
D19*
%TO.C,Q15*%
X180906000Y-85112600D03*
X180256000Y-85112599D03*
X179606000Y-85112600D03*
X179606000Y-83212600D03*
X180256000Y-83212601D03*
X180906000Y-83212600D03*
%TD*%
D17*
%TO.C,R51*%
X178735202Y-122707598D03*
X177085202Y-122707598D03*
%TD*%
D13*
%TO.C,R46*%
X189175400Y-122147802D03*
X189175400Y-120497802D03*
%TD*%
D11*
%TO.C,R66*%
X156353200Y-117906999D03*
X156353200Y-119556999D03*
%TD*%
D20*
%TO.C,D5*%
X173372701Y-88366800D03*
X171797699Y-88366800D03*
%TD*%
D13*
%TO.C,R20*%
X164457200Y-72554799D03*
X164457200Y-70904799D03*
%TD*%
D17*
%TO.C,R64*%
X151413800Y-110667999D03*
X149763800Y-110667999D03*
%TD*%
D13*
%TO.C,R47*%
X187702199Y-120497801D03*
X187702199Y-118847801D03*
%TD*%
D21*
%TO.C,R7*%
X176753601Y-76134200D03*
X178403601Y-76134200D03*
%TD*%
%TO.C,R6*%
X176753600Y-77861399D03*
X178403600Y-77861399D03*
%TD*%
D22*
%TO.C,C10*%
X156329201Y-114160800D03*
X156329201Y-112610800D03*
%TD*%
D23*
%TO.C,U4*%
X149941101Y-114411201D03*
X149941101Y-113911199D03*
X149941101Y-113411200D03*
X149941101Y-112911201D03*
X149941101Y-112411199D03*
X154233701Y-112411199D03*
X154233701Y-112911201D03*
X154233701Y-113411200D03*
X154233701Y-113911199D03*
X154233701Y-114411201D03*
%TD*%
D24*
%TO.C,Q21*%
X152248800Y-122455599D03*
X152898800Y-122455600D03*
X153548800Y-122455599D03*
X153548800Y-124355599D03*
X152898800Y-124355598D03*
X152248800Y-124355599D03*
%TD*%
D25*
%TO.C,J2*%
X139780800Y-76675398D03*
X141780800Y-76675398D03*
D26*
X136885800Y-70680399D03*
X144675800Y-70680399D03*
%TD*%
D12*
%TO.C,Q9*%
X166700801Y-83119200D03*
X166700801Y-82169200D03*
X166700801Y-81219200D03*
X169020801Y-81219200D03*
X169020801Y-82169200D03*
X169020801Y-83119200D03*
%TD*%
D13*
%TO.C,R15*%
X152798600Y-77380800D03*
X152798600Y-75730800D03*
%TD*%
%TO.C,R60*%
X178274801Y-89661200D03*
X178274801Y-88011200D03*
%TD*%
D27*
%TO.C,F1*%
X175353801Y-80985700D03*
X175353801Y-79410698D03*
%TD*%
D13*
%TO.C,R27*%
X162984001Y-79743000D03*
X162984001Y-78093000D03*
%TD*%
D28*
%TO.C,Q12*%
X173828701Y-113025600D03*
X171928701Y-113025600D03*
X172878701Y-111150600D03*
%TD*%
D20*
%TO.C,D3*%
X173347301Y-73939599D03*
X171772299Y-73939599D03*
%TD*%
D27*
%TO.C,D2*%
X149852200Y-77343300D03*
X149852200Y-75768298D03*
%TD*%
D11*
%TO.C,R37*%
X173812200Y-117589800D03*
X173812200Y-119239800D03*
%TD*%
D13*
%TO.C,R21*%
X162984001Y-72554800D03*
X162984001Y-70904800D03*
%TD*%
D10*
%TO.C,C2*%
X178353600Y-74661000D03*
X176803600Y-74661000D03*
%TD*%
D11*
%TO.C,R19*%
X165930401Y-70904799D03*
X165930401Y-72554799D03*
%TD*%
D27*
%TO.C,F6*%
X157802401Y-114173300D03*
X157802401Y-112598298D03*
%TD*%
D21*
%TO.C,R38*%
X172276000Y-116202900D03*
X173926000Y-116202900D03*
%TD*%
D19*
%TO.C,Q20*%
X149586399Y-124355599D03*
X148936399Y-124355598D03*
X148286399Y-124355599D03*
X148286399Y-122455599D03*
X148936399Y-122455600D03*
X149586399Y-122455599D03*
%TD*%
D18*
%TO.C,F4*%
X170324500Y-86893600D03*
X171899502Y-86893600D03*
%TD*%
D10*
%TO.C,C9*%
X178685199Y-119761200D03*
X177135199Y-119761200D03*
%TD*%
D29*
%TO.C,C7*%
X186135800Y-89699799D03*
X187685800Y-89699799D03*
%TD*%
D17*
%TO.C,R4*%
X181375400Y-77861399D03*
X179725400Y-77861399D03*
%TD*%
%TO.C,R18*%
X157535201Y-72847400D03*
X155885201Y-72847400D03*
%TD*%
D21*
%TO.C,R73*%
X151794400Y-121068799D03*
X153444400Y-121068799D03*
%TD*%
D17*
%TO.C,R67*%
X150040799Y-121068800D03*
X148390799Y-121068800D03*
%TD*%
D15*
%TO.C,J3*%
X164400001Y-112866200D03*
D16*
X165875001Y-114391200D03*
X162925001Y-114391200D03*
%TD*%
D19*
%TO.C,Q3*%
X180921001Y-81148200D03*
X180271001Y-81148199D03*
X179621001Y-81148200D03*
X179621001Y-79248200D03*
X180271001Y-79248201D03*
X180921001Y-79248200D03*
%TD*%
D30*
%TO.C,C5*%
X185670201Y-119468799D03*
X185670201Y-121018799D03*
%TD*%
D31*
%TO.C,J1*%
X138398801Y-127359990D03*
X138398801Y-126359990D03*
X138398801Y-125359990D03*
X138398801Y-124359990D03*
X138398801Y-123359991D03*
X138398801Y-122359991D03*
X138398801Y-121359990D03*
X138398801Y-120359990D03*
X138398801Y-119359990D03*
X138398801Y-118359990D03*
D32*
X136048801Y-130509990D03*
X136048801Y-115210010D03*
%TD*%
D18*
%TO.C,F3*%
X170324500Y-79654600D03*
X171899502Y-79654600D03*
%TD*%
D17*
%TO.C,R76*%
X156416199Y-122795999D03*
X154766199Y-122795999D03*
%TD*%
D21*
%TO.C,R28*%
X167315201Y-79654600D03*
X168965201Y-79654600D03*
%TD*%
%TO.C,R41*%
X181340000Y-116992601D03*
X182990000Y-116992601D03*
%TD*%
D13*
%TO.C,R71*%
X150917599Y-119556999D03*
X150917599Y-117906999D03*
%TD*%
D21*
%TO.C,R17*%
X155885201Y-74320600D03*
X157535201Y-74320600D03*
%TD*%
D19*
%TO.C,Q19*%
X149586399Y-119681999D03*
X148936399Y-119681998D03*
X148286399Y-119681999D03*
X148286399Y-117781999D03*
X148936399Y-117782000D03*
X149586399Y-117781999D03*
%TD*%
D10*
%TO.C,C6*%
X178338600Y-83299000D03*
X176788600Y-83299000D03*
%TD*%
D11*
%TO.C,R5*%
X186214600Y-74699599D03*
X186214600Y-76349599D03*
%TD*%
D33*
%TO.C,C14*%
X136646001Y-85115600D03*
X133695999Y-85115600D03*
%TD*%
D10*
%TO.C,C8*%
X178685202Y-118288003D03*
X177135202Y-118288003D03*
%TD*%
D21*
%TO.C,R65*%
X152761001Y-110668000D03*
X154411001Y-110668000D03*
%TD*%
D34*
%TO.C,R30*%
X126789000Y-86877500D03*
X126789000Y-92802500D03*
%TD*%
D11*
%TO.C,R3*%
X187687802Y-74699599D03*
X187687802Y-76349599D03*
%TD*%
D21*
%TO.C,R56*%
X176738600Y-84772199D03*
X178388600Y-84772199D03*
%TD*%
D13*
%TO.C,R9*%
X176816600Y-81023200D03*
X176816600Y-79373200D03*
%TD*%
D24*
%TO.C,Q1*%
X183583400Y-74574599D03*
X184233400Y-74574600D03*
X184883400Y-74574599D03*
X184883400Y-76474599D03*
X184233400Y-76474598D03*
X183583400Y-76474599D03*
%TD*%
D13*
%TO.C,R11*%
X178289801Y-81023200D03*
X178289801Y-79373200D03*
%TD*%
D17*
%TO.C,R13*%
X187750801Y-79603799D03*
X186100801Y-79603799D03*
%TD*%
D12*
%TO.C,Q7*%
X166700801Y-75931000D03*
X166700801Y-74981000D03*
X166700801Y-74031000D03*
X169020801Y-74031000D03*
X169020801Y-74981000D03*
X169020801Y-75931000D03*
%TD*%
D20*
%TO.C,D4*%
X173347301Y-81127799D03*
X171772299Y-81127799D03*
%TD*%
D24*
%TO.C,Q18*%
X152248800Y-117781999D03*
X152898800Y-117782000D03*
X153548800Y-117781999D03*
X153548800Y-119681999D03*
X152898800Y-119681998D03*
X152248800Y-119681999D03*
%TD*%
D35*
%TO.C,R24*%
X177122501Y-137211000D03*
X171197501Y-137211000D03*
%TD*%
D13*
%TO.C,R8*%
X182252200Y-76349599D03*
X182252200Y-74699599D03*
%TD*%
D11*
%TO.C,R31*%
X165930401Y-85331999D03*
X165930401Y-86981999D03*
%TD*%
D24*
%TO.C,Q17*%
X183568400Y-87886199D03*
X184218400Y-87886200D03*
X184868400Y-87886199D03*
X184868400Y-89786199D03*
X184218400Y-89786198D03*
X183568400Y-89786199D03*
%TD*%
D13*
%TO.C,R48*%
X187702201Y-122147802D03*
X187702201Y-120497802D03*
%TD*%
%TO.C,R29*%
X170350000Y-82689400D03*
X170350000Y-81039400D03*
%TD*%
%TO.C,R32*%
X164457200Y-86981999D03*
X164457200Y-85331999D03*
%TD*%
D21*
%TO.C,R22*%
X167315201Y-72466400D03*
X168965201Y-72466400D03*
%TD*%
D11*
%TO.C,R16*%
X154271800Y-75730799D03*
X154271800Y-77380799D03*
%TD*%
%TO.C,R40*%
X175308400Y-110791599D03*
X175308400Y-112441599D03*
%TD*%
%TO.C,R14*%
X182252201Y-79373200D03*
X182252201Y-81023200D03*
%TD*%
D36*
%TO.C,Q8*%
X165115300Y-81168399D03*
X165115300Y-83068399D03*
X163240300Y-82118399D03*
%TD*%
D37*
%TO.C,Q13*%
X177298400Y-114960600D03*
X177298401Y-113690600D03*
X177298401Y-112420600D03*
X177298400Y-111150600D03*
D38*
X180658401Y-113055600D03*
D39*
X182763401Y-111150600D03*
X182763401Y-112420600D03*
X182763401Y-113690600D03*
X182763401Y-114960600D03*
%TD*%
D11*
%TO.C,R63*%
X182237201Y-88011200D03*
X182237201Y-89661200D03*
%TD*%
D13*
%TO.C,R44*%
X183892202Y-125590000D03*
X183892202Y-123940000D03*
%TD*%
D36*
%TO.C,Q10*%
X165115300Y-88407399D03*
X165115300Y-90307399D03*
X163240300Y-89357399D03*
%TD*%
D40*
%TO.C,U5*%
X141114601Y-119796799D03*
X141114601Y-118846800D03*
X141114601Y-117896801D03*
X143389601Y-117896801D03*
X143389601Y-118846800D03*
X143389601Y-119796799D03*
%TD*%
D33*
%TO.C,C15*%
X136646002Y-88324199D03*
X133696000Y-88324199D03*
%TD*%
D13*
%TO.C,R78*%
X151325401Y-77380799D03*
X151325401Y-75730799D03*
%TD*%
D24*
%TO.C,Q14*%
X183568400Y-83212600D03*
X184218400Y-83212601D03*
X184868400Y-83212600D03*
X184868400Y-85112600D03*
X184218400Y-85112599D03*
X183568400Y-85112600D03*
%TD*%
D13*
%TO.C,R23*%
X170350000Y-75526599D03*
X170350000Y-73876599D03*
%TD*%
D17*
%TO.C,R61*%
X187735800Y-86499400D03*
X186085800Y-86499400D03*
%TD*%
D41*
%TO.C,BA1*%
X164400001Y-109835399D03*
X163600001Y-109835399D03*
X163600001Y-107885399D03*
X164400001Y-107885399D03*
%TD*%
D42*
%TO.C,C4*%
X185557767Y-114470275D03*
X188507769Y-114470275D03*
%TD*%
D14*
%TO.C,F5*%
X175308401Y-113800899D03*
X175308401Y-115375901D03*
%TD*%
D13*
%TO.C,R57*%
X182237200Y-84987600D03*
X182237200Y-83337600D03*
%TD*%
D21*
%TO.C,R50*%
X177085199Y-121234400D03*
X178735199Y-121234400D03*
%TD*%
%TO.C,R69*%
X145419000Y-121068799D03*
X147069000Y-121068799D03*
%TD*%
%TO.C,R34*%
X167315201Y-86893600D03*
X168965201Y-86893600D03*
%TD*%
D17*
%TO.C,R39*%
X173932303Y-114729701D03*
X172282303Y-114729701D03*
%TD*%
D43*
%TO.C,Q5*%
X155760201Y-76050099D03*
X157660201Y-76050099D03*
X156710201Y-77925099D03*
%TD*%
D24*
%TO.C,Q4*%
X183583401Y-79248200D03*
X184233401Y-79248201D03*
X184883401Y-79248200D03*
X184883401Y-81148200D03*
X184233401Y-81148199D03*
X183583401Y-81148200D03*
%TD*%
D19*
%TO.C,Q16*%
X180906001Y-89786200D03*
X180256001Y-89786199D03*
X179606001Y-89786200D03*
X179606001Y-87886200D03*
X180256001Y-87886201D03*
X180906001Y-87886200D03*
%TD*%
D13*
%TO.C,R45*%
X189175398Y-120497801D03*
X189175398Y-118847801D03*
%TD*%
%TO.C,R72*%
X145482000Y-124230600D03*
X145482000Y-122580600D03*
%TD*%
D21*
%TO.C,R70*%
X145408600Y-119331400D03*
X147058600Y-119331400D03*
%TD*%
D17*
%TO.C,R49*%
X178735199Y-116814802D03*
X177085199Y-116814802D03*
%TD*%
D13*
%TO.C,R74*%
X146955200Y-124230600D03*
X146955200Y-122580600D03*
%TD*%
D19*
%TO.C,Q2*%
X180921001Y-76474600D03*
X180271001Y-76474599D03*
X179621001Y-76474600D03*
X179621001Y-74574600D03*
X180271001Y-74574601D03*
X180921001Y-74574600D03*
%TD*%
D29*
%TO.C,C12*%
X154816199Y-124269200D03*
X156366199Y-124269200D03*
%TD*%
D17*
%TO.C,R62*%
X187735800Y-88226599D03*
X186085800Y-88226599D03*
%TD*%
D21*
%TO.C,R59*%
X183114000Y-86499400D03*
X184764000Y-86499400D03*
%TD*%
D29*
%TO.C,C3*%
X186150800Y-81061799D03*
X187700800Y-81061799D03*
%TD*%
D11*
%TO.C,R42*%
X180945800Y-123940002D03*
X180945800Y-125590002D03*
%TD*%
D13*
%TO.C,R26*%
X164457200Y-79742999D03*
X164457200Y-78092999D03*
%TD*%
D21*
%TO.C,R55*%
X176738600Y-86499399D03*
X178388600Y-86499399D03*
%TD*%
D36*
%TO.C,Q6*%
X165115300Y-73980199D03*
X165115300Y-75880199D03*
X163240300Y-74930199D03*
%TD*%
D13*
%TO.C,R58*%
X176801600Y-89661200D03*
X176801600Y-88011200D03*
%TD*%
%TO.C,R43*%
X182419001Y-125590000D03*
X182419001Y-123940000D03*
%TD*%
D44*
%TO.C,D7*%
X185706369Y-111676275D03*
D45*
X186591368Y-111676275D03*
%TD*%
D11*
%TO.C,R77*%
X150917599Y-122580599D03*
X150917599Y-124230599D03*
%TD*%
D46*
%TO.C,U3*%
X181414999Y-119024599D03*
X181915000Y-119024599D03*
X182415000Y-119024599D03*
X182915001Y-119024599D03*
D47*
X183638200Y-119747798D03*
X183638200Y-120247799D03*
X183638200Y-120747799D03*
X183638200Y-121247800D03*
D46*
X182915001Y-121970999D03*
X182415000Y-121970999D03*
X181915000Y-121970999D03*
X181414999Y-121970999D03*
D47*
X180691800Y-121247800D03*
X180691800Y-120747799D03*
X180691800Y-120247799D03*
X180691800Y-119747798D03*
D48*
X182165000Y-120497799D03*
%TD*%
D29*
%TO.C,C13*%
X140873001Y-121869400D03*
X142423001Y-121869400D03*
%TD*%
D17*
%TO.C,R53*%
X181360401Y-86499399D03*
X179710401Y-86499399D03*
%TD*%
D11*
%TO.C,R54*%
X186199600Y-83286800D03*
X186199600Y-84936800D03*
%TD*%
D13*
%TO.C,R35*%
X170350001Y-89941600D03*
X170350001Y-88291600D03*
%TD*%
D49*
%TO.C,D1*%
X159910601Y-85457600D03*
D50*
X159910601Y-83082600D03*
%TD*%
D21*
%TO.C,R10*%
X183129000Y-77861400D03*
X184779000Y-77861400D03*
%TD*%
D17*
%TO.C,R12*%
X187750800Y-77861400D03*
X186100800Y-77861400D03*
%TD*%
M02*
