%TF.GenerationSoftware,KiCad,Pcbnew,9.0.1*%
%TF.CreationDate,2025-06-25T17:25:53-04:00*%
%TF.ProjectId,-Z,2d5a2e6b-6963-4616-945f-706362585858,rev?*%
%TF.SameCoordinates,Original*%
%TF.FileFunction,Copper,L3,Inr*%
%TF.FilePolarity,Positive*%
%FSLAX46Y46*%
G04 Gerber Fmt 4.6, Leading zero omitted, Abs format (unit mm)*
G04 Created by KiCad (PCBNEW 9.0.1) date 2025-06-25 17:25:53*
%MOMM*%
%LPD*%
G01*
G04 APERTURE LIST*
%TA.AperFunction,ComponentPad*%
%ADD10C,0.762000*%
%TD*%
%TA.AperFunction,ComponentPad*%
%ADD11C,3.800000*%
%TD*%
%TA.AperFunction,ComponentPad*%
%ADD12C,1.500000*%
%TD*%
%TA.AperFunction,ComponentPad*%
%ADD13C,1.727200*%
%TD*%
%TA.AperFunction,ComponentPad*%
%ADD14C,2.100000*%
%TD*%
%TA.AperFunction,ViaPad*%
%ADD15C,0.609600*%
%TD*%
%TA.AperFunction,ViaPad*%
%ADD16C,1.016000*%
%TD*%
%TA.AperFunction,ViaPad*%
%ADD17C,0.762000*%
%TD*%
%TA.AperFunction,Conductor*%
%ADD18C,0.203200*%
%TD*%
%TA.AperFunction,Conductor*%
%ADD19C,0.635000*%
%TD*%
%TA.AperFunction,Conductor*%
%ADD20C,2.032000*%
%TD*%
%TA.AperFunction,Conductor*%
%ADD21C,1.143000*%
%TD*%
%TA.AperFunction,Conductor*%
%ADD22C,0.411480*%
%TD*%
G04 APERTURE END LIST*
D10*
%TO.N,GND*%
%TO.C,H2*%
X144200001Y-145800000D03*
X143555751Y-147355750D03*
X143555751Y-144244250D03*
X142000001Y-148000000D03*
D11*
X142000001Y-145800000D03*
D10*
X142000001Y-143600000D03*
X140444251Y-147355750D03*
X140444251Y-144244250D03*
X139800001Y-145800000D03*
%TD*%
D12*
%TO.N,/Burn Wires/VBURN3*%
%TO.C,JP5*%
X164000001Y-96100000D03*
X164000001Y-97499999D03*
%TO.N,Net-(JP5-B)*%
X164000001Y-102499999D03*
X164000001Y-103899998D03*
%TD*%
D10*
%TO.N,GND*%
%TO.C,H8*%
X212000000Y-121999999D03*
X211355750Y-123555749D03*
X211355750Y-120444249D03*
X209800000Y-124199999D03*
D11*
X209800000Y-121999999D03*
D10*
X209800000Y-119799999D03*
X208244250Y-123555749D03*
X208244250Y-120444249D03*
X207600000Y-121999999D03*
%TD*%
%TO.N,GND*%
%TO.C,H5*%
X144200001Y-54200000D03*
X143555751Y-55755750D03*
X143555751Y-52644250D03*
X142000001Y-56400000D03*
D11*
X142000001Y-54200000D03*
D10*
X142000001Y-52000000D03*
X140444251Y-55755750D03*
X140444251Y-52644250D03*
X139800001Y-54200000D03*
%TD*%
%TO.N,GND*%
%TO.C,H7*%
X212000000Y-78000000D03*
X211355750Y-79555750D03*
X211355750Y-76444250D03*
X209800000Y-80200000D03*
D11*
X209800000Y-78000000D03*
D10*
X209800000Y-75800000D03*
X208244250Y-79555750D03*
X208244250Y-76444250D03*
X207600000Y-78000000D03*
%TD*%
D13*
%TO.N,/Interfaces/GPS*%
%TO.C,AE3*%
X164000000Y-120400000D03*
%TD*%
D12*
%TO.N,/Burn Wires/VBURN1*%
%TO.C,JP1*%
X167900000Y-62789000D03*
X166500001Y-62789000D03*
%TO.N,Net-(JP1-B)*%
X161500001Y-62789000D03*
X160100002Y-62789000D03*
%TD*%
D10*
%TO.N,GND*%
%TO.C,H4*%
X120400001Y-78000000D03*
X119755751Y-79555750D03*
X119755751Y-76444250D03*
X118200001Y-80200000D03*
D11*
X118200001Y-78000000D03*
D10*
X118200001Y-75800000D03*
X116644251Y-79555750D03*
X116644251Y-76444250D03*
X116000001Y-78000000D03*
%TD*%
%TO.N,GND*%
%TO.C,H3*%
X120400001Y-121999999D03*
X119755751Y-123555749D03*
X119755751Y-120444249D03*
X118200001Y-124199999D03*
D11*
X118200001Y-121999999D03*
D10*
X118200001Y-119799999D03*
X116644251Y-123555749D03*
X116644251Y-120444249D03*
X116000001Y-121999999D03*
%TD*%
D12*
%TO.N,Net-(JP3-B)*%
%TO.C,JP4*%
X126789000Y-103899999D03*
X126789000Y-102500000D03*
%TO.N,Net-(JP4-B)*%
X126789000Y-97500000D03*
X126789000Y-96100001D03*
%TD*%
D10*
%TO.N,GND*%
%TO.C,H1*%
X188200000Y-145800000D03*
X187555750Y-147355750D03*
X187555750Y-144244250D03*
X186000000Y-148000000D03*
D11*
X186000000Y-145800000D03*
D10*
X186000000Y-143600000D03*
X184444250Y-147355750D03*
X184444250Y-144244250D03*
X183800000Y-145800000D03*
%TD*%
%TO.N,GND*%
%TO.C,H6*%
X188200000Y-54200000D03*
X187555750Y-55755750D03*
X187555750Y-52644250D03*
X186000000Y-56400000D03*
D11*
X186000000Y-54200000D03*
D10*
X186000000Y-52000000D03*
X184444250Y-55755750D03*
X184444250Y-52644250D03*
X183800000Y-54200000D03*
%TD*%
D14*
%TO.N,/Burn Wires/VBURN_A_IN*%
%TO.C,U2*%
X146793600Y-88417600D03*
%TO.N,GND*%
X139173600Y-80797600D03*
%TO.N,VBATT*%
X139173600Y-88417600D03*
X156953600Y-88417600D03*
%TO.N,Net-(D1-A)*%
X156953600Y-80797600D03*
%TD*%
D12*
%TO.N,/Burn Wires/VBURN2*%
%TO.C,JP3*%
X201211001Y-97500000D03*
X201211001Y-96100001D03*
%TO.N,Net-(JP3-B)*%
X201211001Y-103899999D03*
X201211001Y-102500000D03*
%TD*%
%TO.N,Net-(JP1-B)*%
%TO.C,JP2*%
X161500001Y-137211000D03*
X160100002Y-137211000D03*
%TO.N,Net-(JP2-B)*%
X167900000Y-137211000D03*
X166500001Y-137211000D03*
%TD*%
D15*
%TO.N,GND*%
X161400000Y-128372600D03*
X165100000Y-110900000D03*
X162900000Y-113000000D03*
X163600000Y-111600000D03*
X162200000Y-125972600D03*
X162200000Y-129172600D03*
X165100000Y-115900000D03*
X165000001Y-125972600D03*
X185670201Y-121018798D03*
X165800000Y-125972600D03*
X165500000Y-121200000D03*
X162500000Y-119600000D03*
X163000001Y-121968599D03*
X166600000Y-126772600D03*
X166600000Y-128372600D03*
X164400000Y-115900000D03*
X163000001Y-125171799D03*
X152888399Y-123395400D03*
X163000001Y-125972600D03*
X165000001Y-122769399D03*
X162900000Y-110900000D03*
X164000000Y-118600000D03*
X162925001Y-113756200D03*
X184243801Y-80213400D03*
X165100000Y-111600000D03*
X163000000Y-118900000D03*
X165000001Y-124370999D03*
X165000000Y-118900000D03*
X162900000Y-111600000D03*
X164000000Y-129172600D03*
X161400000Y-125972600D03*
X163600000Y-110900000D03*
X165875001Y-114391200D03*
X165875001Y-115026200D03*
X163000001Y-122769399D03*
X148920200Y-118719600D03*
X165800000Y-112300000D03*
X165800000Y-111600000D03*
X162925001Y-114391200D03*
X165000001Y-121968599D03*
X162200000Y-120400000D03*
X163000001Y-123570199D03*
X166600000Y-127572600D03*
X162925001Y-115026200D03*
X165000001Y-125171799D03*
X161400000Y-127572600D03*
X162900000Y-115900000D03*
X163000000Y-129172600D03*
X162500000Y-121200000D03*
X162900000Y-110200000D03*
X166600000Y-125972600D03*
X165500000Y-119600000D03*
X165000000Y-129172600D03*
X179265400Y-84379000D03*
X165800000Y-120400000D03*
X165000001Y-123570199D03*
X182165000Y-120497799D03*
X163000001Y-124370999D03*
X161400000Y-129172600D03*
X161400000Y-126772600D03*
X165875001Y-113756200D03*
X165900000Y-115900000D03*
X162900000Y-112300000D03*
X163703000Y-115900000D03*
X165800000Y-113000000D03*
X184228800Y-88820999D03*
X165800000Y-129172600D03*
X180281401Y-75514399D03*
X166600000Y-129172600D03*
D16*
%TO.N,Net-(AE1-Pad1)*%
X167300000Y-100000000D03*
%TO.N,Net-(AE2-Pad1)*%
X160700000Y-99999999D03*
D15*
%TO.N,BURN_RELAY_A*%
X148556800Y-112852399D03*
X152798600Y-77380800D03*
%TO.N,SDA*%
X182237201Y-89661200D03*
X182252200Y-74699600D03*
X141114601Y-119796799D03*
X150917600Y-124230600D03*
%TO.N,SCL*%
X150917599Y-117907000D03*
X182252201Y-81023200D03*
X141114601Y-117896800D03*
%TO.N,/Burn Wires/VBURN1*%
X173042401Y-74955600D03*
X173779001Y-74955600D03*
X173779000Y-76378000D03*
X173779001Y-75666799D03*
X173042400Y-76378000D03*
X173042401Y-75666799D03*
%TO.N,/Burn Wires/VBURN2*%
X173042400Y-83566200D03*
X173779001Y-82143800D03*
X173779000Y-83566200D03*
X173042401Y-82143800D03*
X173779001Y-82854999D03*
X173042401Y-82854999D03*
%TO.N,/Burn Wires/VBURN3*%
X173042400Y-90805200D03*
X173042401Y-89382800D03*
X173779000Y-89382799D03*
X173779001Y-90093999D03*
X173779000Y-90805200D03*
X173042401Y-90093999D03*
%TO.N,SCL_M*%
X182237200Y-84987599D03*
X179625001Y-120370803D03*
%TO.N,SDA_M*%
X182237200Y-88011199D03*
X179625001Y-121209000D03*
%TO.N,SCL_IO*%
X150926600Y-119565999D03*
X152925600Y-113258796D03*
%TO.N,BURN_EN1*%
X162984001Y-73660200D03*
X148048800Y-114554200D03*
%TO.N,BURN_EN2*%
X162984001Y-79743000D03*
X148559567Y-113977544D03*
%TO.N,SDA_IO*%
X152925600Y-114020800D03*
X150917599Y-122580599D03*
%TO.N,BURN_EN3*%
X148044222Y-113416236D03*
X162984001Y-86982000D03*
%TO.N,/Light Sensor/LS_3V3*%
X182262601Y-77861400D03*
X187687802Y-74699600D03*
X187750800Y-77861400D03*
X176753600Y-77861399D03*
X159529601Y-76885999D03*
X176816600Y-81023200D03*
X175353801Y-80985701D03*
%TO.N,COIL_DRIVER_EN*%
X141114601Y-120751799D03*
X173812200Y-117589800D03*
%TO.N,/GPIO Expander/GE_3V3*%
X145418999Y-121068800D03*
X157802401Y-114173301D03*
X156416200Y-121068800D03*
X156353200Y-117907000D03*
X150907199Y-121068799D03*
X145482000Y-124230600D03*
%TO.N,/Burn Wires/VBURN_A_IN*%
X151300001Y-77355399D03*
X173779001Y-71348799D03*
X173779000Y-78511599D03*
X173779000Y-87173000D03*
X173779000Y-72771199D03*
X173779001Y-79222800D03*
X173779000Y-79934000D03*
X173042401Y-71348799D03*
X173779001Y-86461800D03*
X173042401Y-86461800D03*
X173042400Y-72060000D03*
X173042401Y-87172999D03*
X173042401Y-79933999D03*
X173779000Y-72060000D03*
X173042400Y-78511599D03*
X173042401Y-72771200D03*
X173779000Y-85750600D03*
X173042400Y-85750600D03*
X173042401Y-79222800D03*
%TO.N,3V3_P*%
X175353801Y-79410698D03*
X138398801Y-122359991D03*
X180945800Y-125590000D03*
X138398801Y-121359989D03*
X177085200Y-121234401D03*
X181340000Y-116992600D03*
X176738601Y-86499399D03*
X140873001Y-121869400D03*
X157802401Y-112598298D03*
X187735801Y-86499399D03*
X143389601Y-118846800D03*
X176801600Y-89661200D03*
X182247600Y-86499399D03*
%TO.N,VBATT_M*%
X175308401Y-116306800D03*
X175308400Y-115375902D03*
X140835201Y-124612600D03*
X175308401Y-117246600D03*
X141546400Y-125323799D03*
X141546400Y-124612600D03*
X140835201Y-125323799D03*
%TO.N,/Light Sensor/I2C Protection/DEVICE*%
X182252201Y-76349600D03*
X169384801Y-77419400D03*
%TO.N,/Light Sensor/I2C Protection1/DEVICE*%
X182252201Y-79373200D03*
X168191001Y-77419400D03*
%TO.N,/Light Sensor/ADDR*%
X162118879Y-71401124D03*
X167454400Y-71399599D03*
D17*
%TO.N,/Coil Driver/coil*%
X188438800Y-123164801D03*
X188438801Y-117830802D03*
D15*
X212285401Y-66599000D03*
%TD*%
D18*
%TO.N,SCL_IO*%
X152036600Y-118455999D02*
X150926600Y-119565999D01*
X152646203Y-113258797D02*
X152036601Y-113868399D01*
X152925600Y-113258796D02*
X152646203Y-113258797D01*
X152036601Y-113868399D02*
X152036600Y-118455999D01*
%TO.N,SDA_IO*%
X152620801Y-120877398D02*
X150917599Y-122580599D01*
X152925600Y-114020800D02*
X152620801Y-114325600D01*
X152620801Y-114325600D02*
X152620801Y-120877398D01*
D19*
%TO.N,/GPIO Expander/GE_3V3*%
X157802401Y-116457799D02*
X156364698Y-117895502D01*
X156364698Y-117895502D02*
X156341702Y-117895501D01*
X156341702Y-117895501D02*
X156353200Y-117907000D01*
X157802401Y-114173301D02*
X157802401Y-116457799D01*
D20*
%TO.N,/Burn Wires/VBURN_A_IN*%
X171290800Y-84302800D02*
X171290800Y-86461799D01*
X171290800Y-79146600D02*
X171290800Y-84302800D01*
X146793601Y-84556800D02*
X146793601Y-88417600D01*
X171367000Y-79222800D02*
X173779001Y-79222800D01*
X173779000Y-72060000D02*
X171290800Y-72060000D01*
D19*
X151300001Y-77355399D02*
X151300001Y-84556800D01*
D20*
X171290800Y-84302800D02*
X171036801Y-84556800D01*
X171290800Y-79146600D02*
X171367000Y-79222800D01*
X171290800Y-72060000D02*
X171290800Y-79146600D01*
X171036801Y-84556800D02*
X151300001Y-84556800D01*
X151300001Y-84556800D02*
X146793601Y-84556800D01*
X171290800Y-86461799D02*
X173779001Y-86461800D01*
D21*
%TO.N,3V3_P*%
X135300000Y-92500000D02*
X135300000Y-107700000D01*
X192000000Y-92400000D02*
X192000000Y-107600000D01*
D22*
%TO.N,/Coil Driver/coil*%
X175417299Y-64741000D02*
X179887700Y-69211399D01*
X149814100Y-126716998D02*
X139120699Y-126717000D01*
X206481500Y-76628198D02*
X212285401Y-70824297D01*
X175417299Y-62810598D02*
X180446501Y-67839800D01*
X134447101Y-52345799D02*
X124033101Y-52345798D01*
X176788899Y-56460599D02*
X174439400Y-56460600D01*
X206202100Y-112213599D02*
X206202100Y-111379200D01*
X132211900Y-57832199D02*
X129519500Y-57832199D01*
X123601299Y-80234999D02*
X117708500Y-86127799D01*
X175087100Y-130780999D02*
X152912899Y-130781000D01*
X190479500Y-134946599D02*
X196372300Y-140839399D01*
X182961099Y-61667600D02*
X177068300Y-55774798D01*
X127462100Y-136572198D02*
X127462101Y-144268399D01*
X178770099Y-71954600D02*
X190276299Y-71954600D01*
X174020300Y-134895799D02*
X153979700Y-134895799D01*
X139222299Y-139061400D02*
X144784900Y-139061399D01*
X174807701Y-130095199D02*
X153192300Y-130095199D01*
X175417299Y-67636599D02*
X179049500Y-71268799D01*
X146461299Y-65096598D02*
X137545901Y-65096598D01*
X126776300Y-55088998D02*
X126776299Y-62759798D01*
X177042900Y-144268399D02*
X182935699Y-138375599D01*
X129697300Y-88616999D02*
X133888299Y-84425999D01*
X121823300Y-89027199D02*
X121823301Y-89027200D01*
X137317299Y-75129600D02*
X139120699Y-75129599D01*
X124033101Y-52345798D02*
X124033100Y-60041999D01*
X131576900Y-132457398D02*
X131576900Y-139950398D01*
X175391899Y-137232599D02*
X173740900Y-135581599D01*
X121137500Y-131542998D02*
X121137499Y-135200600D01*
X210316900Y-130145999D02*
X204424100Y-124253198D01*
X182097499Y-136318200D02*
X189920699Y-136318200D01*
X136707700Y-67153999D02*
X147299500Y-67153999D01*
X198988500Y-130399998D02*
X194391100Y-130399999D01*
X175391899Y-63775798D02*
X175417299Y-63775799D01*
X199267899Y-111426199D02*
X194822900Y-115871198D01*
X204669174Y-140681536D02*
X212369235Y-140681535D01*
X203306500Y-60727798D02*
X203306500Y-53031599D01*
X127385899Y-131085800D02*
X132948499Y-131085799D01*
X189590500Y-72640399D02*
X189590500Y-74443798D01*
X195762700Y-131771599D02*
X195762700Y-138299399D01*
X152883699Y-60604599D02*
X147020100Y-66468199D01*
X211688499Y-114448800D02*
X211688499Y-85594398D01*
X128757499Y-111426199D02*
X129824299Y-110359399D01*
X175391899Y-67636600D02*
X175417299Y-67636599D01*
X125404700Y-138629598D02*
X125404701Y-146325799D01*
X121823299Y-112239000D02*
X127716099Y-118131800D01*
X203306500Y-139315399D02*
X211002700Y-139315398D01*
X194060899Y-110842000D02*
X190708100Y-114194799D01*
X152608099Y-59914999D02*
X146740699Y-65782399D01*
X127385900Y-68957398D02*
X132948499Y-68957399D01*
X196372300Y-70328999D02*
X194822900Y-71878399D01*
X123349304Y-59361662D02*
X115649302Y-59361662D01*
X133888299Y-146325800D02*
X139781100Y-140432999D01*
X131830899Y-72437198D02*
X129036900Y-69643198D01*
X128732099Y-88617000D02*
X133202499Y-84146600D01*
X197337500Y-111426200D02*
X193451300Y-115312398D01*
X138384100Y-137003999D02*
X145623100Y-137003999D01*
X189641300Y-63039198D02*
X182402300Y-63039198D01*
X175391899Y-132406598D02*
X175137901Y-132152600D01*
X201198300Y-111426199D02*
X196194499Y-116429999D01*
X183215100Y-139061399D02*
X188803100Y-139061400D01*
X124604601Y-88883698D02*
X124604601Y-111159500D01*
X204093900Y-111426199D02*
X204093900Y-88616999D01*
X139501700Y-139747199D02*
X144505499Y-139747198D01*
X122229701Y-79676199D02*
X116336899Y-85568999D01*
X203395401Y-88883700D02*
X203395401Y-111159498D01*
X193019499Y-129028399D02*
X193019499Y-131695398D01*
X212272699Y-65528400D02*
X212272701Y-59361662D01*
X150677700Y-144954199D02*
X154271800Y-144954199D01*
X129519500Y-65528399D02*
X121823299Y-65528400D01*
X174829300Y-138760399D02*
X180700499Y-132889200D01*
X196194499Y-127606000D02*
X198988500Y-130399998D01*
X191393900Y-85568998D02*
X194746700Y-88921798D01*
X211586901Y-70557599D02*
X211586900Y-66214199D01*
X138434900Y-125599399D02*
X136631500Y-125599399D01*
X143667300Y-58238598D02*
X140339900Y-58238598D01*
X127792299Y-111426200D02*
X129138499Y-110080000D01*
X212369235Y-129315434D02*
X206481500Y-123427698D01*
X208843699Y-62785199D02*
X201249100Y-62785199D01*
X133888299Y-71700600D02*
X135691700Y-71700599D01*
X153141500Y-132838399D02*
X152608099Y-133371798D01*
X122229700Y-123694399D02*
X116336900Y-129587199D01*
X129036900Y-69643198D02*
X133634300Y-69643199D01*
X116336899Y-85568999D02*
X116336899Y-114474199D01*
X131653100Y-111451599D02*
X131653101Y-111426200D01*
X192079699Y-114753599D02*
X192079699Y-126285198D01*
X202366699Y-118944599D02*
X208259500Y-113051799D01*
X195534100Y-142896799D02*
X199191700Y-142896799D01*
X181818100Y-135632399D02*
X190200100Y-135632399D01*
X131653101Y-111426200D02*
X131881699Y-111197600D01*
X153700299Y-65833198D02*
X174299700Y-65833199D01*
X125658699Y-118969998D02*
X125658699Y-125091399D01*
X199191700Y-57146399D02*
X195534100Y-57146398D01*
X153420900Y-66518999D02*
X174579099Y-66519000D01*
X136707700Y-132889198D02*
X147299500Y-132889199D01*
X152544601Y-57146398D02*
X152544601Y-57146399D01*
X133888299Y-128342598D02*
X133888299Y-115617199D01*
X137545901Y-65096598D02*
X131653101Y-59203799D01*
X194746700Y-111121399D02*
X191393899Y-114474200D01*
X152074701Y-141525199D02*
X175925301Y-141525199D01*
X201680899Y-74672400D02*
X207472100Y-68881200D01*
X135005900Y-131695399D02*
X135005899Y-129028399D01*
X129138500Y-90013999D02*
X127766899Y-88642400D01*
X173740900Y-64461598D02*
X175391899Y-62810599D01*
X212369235Y-85309935D02*
X206481500Y-79422199D01*
X127030300Y-118411198D02*
X127030300Y-125650198D01*
X125734900Y-68271599D02*
X130459300Y-72995999D01*
X202976300Y-67585799D02*
X196448500Y-67585798D01*
X137749100Y-73757999D02*
X137749100Y-71954599D01*
X147858300Y-131517599D02*
X136148900Y-131517599D01*
X137063299Y-71268798D02*
X148975901Y-71268798D01*
X124871299Y-88617000D02*
X124604601Y-88883698D01*
X198251899Y-82774998D02*
X198251899Y-73275399D01*
X202290500Y-131771600D02*
X195762700Y-131771599D01*
X203738299Y-124532600D02*
X203738300Y-119503398D01*
X134320100Y-66696798D02*
X136148900Y-68525599D01*
X125734899Y-131771600D02*
X132262700Y-131771599D01*
X135259900Y-84984799D02*
X135259899Y-73072200D01*
X131932500Y-141525200D02*
X137825301Y-135632399D01*
X189933401Y-117830801D02*
X188438801Y-117830802D01*
X194975301Y-55774799D02*
X189082500Y-61667600D01*
X124718899Y-139315399D02*
X124718900Y-147011599D01*
X153188498Y-61265000D02*
X174836901Y-61265000D01*
X174820400Y-142210999D02*
X176204700Y-142210999D01*
X130459300Y-117014198D02*
X130459300Y-127047199D01*
X123194900Y-66899998D02*
X123194900Y-67661999D01*
X191393899Y-114474200D02*
X191393900Y-125599399D01*
X203306501Y-147011599D02*
X203306500Y-139315399D01*
X119765900Y-86965999D02*
X119765900Y-113077199D01*
X115649303Y-85304096D02*
X115649302Y-114739103D01*
X200309299Y-125929600D02*
X200309299Y-118106398D01*
X145902499Y-136318200D02*
X151795299Y-142211000D01*
X135005899Y-71014799D02*
X135005899Y-68347800D01*
X178185900Y-53031599D02*
X149839499Y-53031600D01*
X126776300Y-144954199D02*
X133329500Y-144954199D01*
X204830501Y-132381198D02*
X198937700Y-126488398D01*
X128147901Y-56460599D02*
X128147900Y-64156799D01*
X195813500Y-142210999D02*
X198505899Y-142211000D01*
X187406100Y-57552799D02*
X184637500Y-57552799D01*
X204424100Y-119782798D02*
X210316900Y-113889999D01*
X198937700Y-73554799D02*
X204728899Y-67763600D01*
X203992301Y-52345798D02*
X193578301Y-52345798D01*
X190708100Y-114194799D02*
X190708101Y-124913600D01*
X208157900Y-69160598D02*
X208157900Y-64817199D01*
X205109900Y-79980999D02*
X205109899Y-76069400D01*
X193375099Y-110426701D02*
X189933401Y-113868399D01*
X189933401Y-113868399D02*
X189933401Y-117830801D01*
X194137099Y-71599000D02*
X194137099Y-84451400D01*
X198937700Y-126488398D02*
X198937700Y-117547599D01*
X117022700Y-114194799D02*
X122915500Y-120087599D01*
X130205301Y-141525199D02*
X131932500Y-141525200D01*
X183240500Y-60981799D02*
X177347700Y-55088999D01*
X183494500Y-139747198D02*
X188523700Y-139747199D01*
X194391100Y-130399999D02*
X194391100Y-134997398D01*
X128401900Y-73834199D02*
X128401900Y-82190799D01*
X195254699Y-56460600D02*
X189361899Y-62353400D01*
X129824299Y-110359399D02*
X129824299Y-89734599D01*
X132948500Y-63394798D02*
X136707700Y-67153999D01*
X206202100Y-111379200D02*
X206202100Y-111379199D01*
X199877499Y-56460600D02*
X195254699Y-56460600D01*
X211586900Y-60041998D02*
X203992300Y-60041999D01*
X202366699Y-74951799D02*
X208157900Y-69160598D01*
X189361899Y-62353400D02*
X182681699Y-62353399D01*
X209529500Y-64410799D02*
X209529501Y-62099399D01*
X196194499Y-83613199D02*
X201172900Y-88591599D01*
X152633499Y-131466798D02*
X149255300Y-128088599D01*
X133939099Y-110841998D02*
X133939099Y-89201200D01*
X195762700Y-138299399D02*
X191038299Y-133574998D01*
X192333700Y-130145998D02*
X179582899Y-130145998D01*
X120451699Y-87245399D02*
X120451699Y-112797799D01*
X204728900Y-66214199D02*
X197820100Y-66214198D01*
X204830501Y-111654798D02*
X204830499Y-111197600D01*
X208259500Y-86991399D02*
X202366699Y-81098599D01*
X152862099Y-132152599D02*
X152608099Y-132406599D01*
X190758900Y-134260799D02*
X196448500Y-139950399D01*
X146181901Y-64410798D02*
X137825300Y-64410799D01*
X189920699Y-63725000D02*
X182122901Y-63724999D01*
X190962099Y-128774400D02*
X179024099Y-128774400D01*
X198175700Y-89709199D02*
X198175700Y-110333999D01*
X152354101Y-140839399D02*
X152862100Y-140839399D01*
X131195900Y-110918199D02*
X131195900Y-89175799D01*
X137825301Y-135632399D02*
X146181900Y-135632399D01*
X198302699Y-88617000D02*
X197489899Y-89429800D01*
X152608100Y-140128200D02*
X175391899Y-140128200D01*
X121823299Y-65528400D02*
X121823300Y-68220799D01*
X175137901Y-67890600D02*
X175391899Y-67636600D01*
X152608099Y-66671400D02*
X153141501Y-67204798D01*
X177068300Y-55774798D02*
X153636801Y-55774799D01*
X190200100Y-135632399D02*
X196092900Y-141525199D01*
X196372299Y-111426200D02*
X192765500Y-115032997D01*
X181538700Y-134946599D02*
X190479500Y-134946599D01*
X197134300Y-59203799D02*
X196372299Y-59203800D01*
X133329500Y-55088998D02*
X126776300Y-55088998D01*
X123906099Y-88616999D02*
X123906099Y-111426199D01*
X149534700Y-72640399D02*
X152912900Y-69262199D01*
X198937700Y-82495598D02*
X198937700Y-73554799D01*
X178465300Y-127402798D02*
X175087100Y-130780999D01*
X174261601Y-144268399D02*
X177042900Y-144268399D01*
X151236499Y-143582600D02*
X153979699Y-143582599D01*
X145343699Y-137689799D02*
X151236499Y-143582600D01*
X193857700Y-53031599D02*
X187964899Y-58924400D01*
X137063299Y-73072199D02*
X137063299Y-71268798D01*
X187685500Y-58238599D02*
X184358100Y-58238599D01*
X197820100Y-133828999D02*
X205516300Y-133828999D01*
X123194900Y-132381199D02*
X123194899Y-133143200D01*
X175391899Y-65706200D02*
X175417299Y-65706199D01*
X206887899Y-87550199D02*
X200995100Y-81657399D01*
X188244300Y-59610198D02*
X183799299Y-59610199D01*
X119080100Y-86686598D02*
X119080100Y-110083800D01*
X205109900Y-123973798D02*
X205109900Y-120062198D01*
X124972899Y-124812000D02*
X119080100Y-130704799D01*
X199623500Y-117827000D02*
X205516299Y-111934200D01*
X130662501Y-88617000D02*
X134574100Y-84705399D01*
X154271800Y-144954199D02*
X177322300Y-144954199D01*
X190276300Y-73757998D02*
X191393899Y-73758000D01*
X197566099Y-83054400D02*
X197566099Y-72996000D01*
X130510100Y-89455199D02*
X129697300Y-88642400D01*
X196804100Y-89150399D02*
X196804100Y-110892799D01*
X124033101Y-147697399D02*
X134447101Y-147697399D01*
X124083901Y-132457398D02*
X131576900Y-132457398D01*
X177347700Y-55088999D02*
X153662201Y-55088999D01*
X200995100Y-125650199D02*
X200995100Y-118385798D01*
X147858300Y-68525599D02*
X152608099Y-63775799D01*
X139120699Y-126717000D02*
X139120699Y-124913599D01*
X206202100Y-131822399D02*
X200309299Y-125929600D01*
X198505899Y-142211000D02*
X198505900Y-134514800D01*
X194975300Y-144268399D02*
X200563299Y-144268400D01*
X139501699Y-60296000D02*
X133608899Y-54403200D01*
X124287100Y-80514399D02*
X118394299Y-86407200D01*
X199877500Y-64156798D02*
X199877499Y-56460600D01*
X194391100Y-65071199D02*
X194391100Y-69643198D01*
X204708965Y-59361662D02*
X204669174Y-59321875D01*
X152891299Y-139446200D02*
X175108699Y-139446200D01*
X195813500Y-57832199D02*
X189920699Y-63725000D01*
X152608099Y-136267399D02*
X147858300Y-131517599D01*
X208157900Y-64817199D02*
X208843700Y-64131399D01*
X138663500Y-137689799D02*
X145343699Y-137689799D01*
X175671299Y-59203800D02*
X152354100Y-59203799D01*
X184612100Y-142490399D02*
X187406100Y-142490399D01*
X175366500Y-131466799D02*
X152633499Y-131466798D01*
X175925301Y-141525199D02*
X181818100Y-135632399D01*
X194137099Y-53717398D02*
X188244300Y-59610198D01*
X199623500Y-73834198D02*
X205414700Y-68042999D01*
X176484099Y-142896799D02*
X182376900Y-137003999D01*
X179862300Y-130831798D02*
X175391899Y-135302199D01*
X135005899Y-68347800D02*
X135869501Y-69211399D01*
X183519901Y-60295998D02*
X177627099Y-54403200D01*
X125184350Y-111739249D02*
X130459300Y-117014198D01*
X144784901Y-60981798D02*
X139222299Y-60981798D01*
X149560099Y-147697399D02*
X178439900Y-147697400D01*
X132338901Y-71014798D02*
X135005899Y-71014799D01*
X129773499Y-117293599D02*
X129773499Y-126767799D01*
X138434900Y-72640399D02*
X149534700Y-72640399D01*
X184637500Y-57552799D02*
X178746364Y-51661663D01*
X121823301Y-89027200D02*
X121823301Y-110845800D01*
X199623500Y-82216198D02*
X199623500Y-73834198D01*
X188904699Y-75129599D02*
X190022299Y-75129600D01*
X196880300Y-72716598D02*
X201325299Y-68271599D01*
X137063299Y-128774400D02*
X137063299Y-126970999D01*
X153700299Y-134210000D02*
X152608099Y-135302200D01*
X129087700Y-73554799D02*
X129087700Y-82470198D01*
X207472100Y-68881200D02*
X207472100Y-63471000D01*
X133050100Y-55774799D02*
X127462100Y-55774799D01*
X151515900Y-57146400D02*
X145623100Y-63039199D01*
X126344499Y-81352600D02*
X120451699Y-87245399D01*
X118394299Y-86407200D02*
X118394299Y-113635998D01*
X197489899Y-110613398D02*
X198302699Y-111426200D01*
X144226100Y-59610199D02*
X139781100Y-59610199D01*
X196372300Y-140839399D02*
X197134300Y-140839399D01*
X196880300Y-127326599D02*
X196880300Y-116709399D01*
X174299700Y-65833199D02*
X175391899Y-64740999D01*
X153662201Y-55088999D02*
X150677700Y-55088998D01*
X115649302Y-59361662D02*
X115649302Y-70733601D01*
X134167699Y-53031600D02*
X124718900Y-53031598D01*
X117022700Y-85848399D02*
X117022700Y-114194799D01*
X174858500Y-132838399D02*
X153141500Y-132838399D01*
X190682700Y-74443798D02*
X190708101Y-74469199D01*
X149255300Y-128088599D02*
X137749100Y-128088599D01*
X196092900Y-141525199D02*
X197820099Y-141525200D01*
X209631099Y-86432599D02*
X203738300Y-80539800D01*
X123349304Y-148381534D02*
X134728163Y-148381534D01*
X189590500Y-125624798D02*
X189590500Y-127402798D01*
X211688499Y-85594398D02*
X205795700Y-79701599D01*
X149839499Y-53031600D02*
X143946700Y-58924399D01*
X139120699Y-73326198D02*
X149814100Y-73326199D01*
X194416499Y-54403199D02*
X188523700Y-60295998D01*
X129519500Y-57832199D02*
X129519500Y-65528399D01*
X124287100Y-124532599D02*
X118394299Y-130425399D01*
X207573699Y-87270800D02*
X201680899Y-81378000D01*
X140339900Y-58238598D02*
X134447101Y-52345799D01*
X153979699Y-143582599D02*
X153979700Y-143582600D01*
X118394299Y-130425399D02*
X118394300Y-137943799D01*
X200309299Y-74113600D02*
X206100500Y-68322399D01*
X152608099Y-67636599D02*
X152862100Y-67890600D01*
X206887899Y-112492999D02*
X206887899Y-89459001D01*
X206481500Y-123427698D02*
X206481500Y-120620999D01*
X179608299Y-69897199D02*
X192333699Y-69897200D01*
X119080100Y-110083800D02*
X119080100Y-113356599D01*
X134320100Y-70328999D02*
X134320100Y-66696798D01*
X129087700Y-82470198D02*
X123194900Y-88362999D01*
X132948499Y-68957399D02*
X132948500Y-63394798D01*
X148696499Y-70583000D02*
X152608099Y-66671400D01*
X194822900Y-115871198D02*
X194822900Y-128164798D01*
X152862100Y-140839399D02*
X152862101Y-140839399D01*
X184078700Y-58924399D02*
X178185900Y-53031599D01*
X200309299Y-81936800D02*
X200309299Y-74113600D01*
X144226100Y-140432999D02*
X150118900Y-146325799D01*
X204830499Y-88388400D02*
X198937700Y-82495598D01*
X121137500Y-68500199D02*
X127030300Y-74392999D01*
X175137901Y-132152600D02*
X152862099Y-132152599D01*
X187685501Y-141804599D02*
X193578299Y-147697400D01*
X204669175Y-148381535D02*
X204669174Y-140681536D01*
X134447101Y-147697399D02*
X140339900Y-141804599D01*
X127716099Y-125929600D02*
X121823299Y-131822400D01*
X189590500Y-74443798D02*
X190682700Y-74443798D01*
X152159150Y-137748850D02*
X153170700Y-138760400D01*
X204424100Y-75790000D02*
X210215301Y-69998799D01*
X119080100Y-130704799D02*
X119080100Y-137257999D01*
X190276299Y-71954600D02*
X190276300Y-73757998D01*
X203052500Y-75231199D02*
X208843699Y-69440000D01*
X122509100Y-133828999D02*
X130205300Y-133828999D01*
X191038299Y-66468200D02*
X181005300Y-66468199D01*
X131145100Y-116734800D02*
X131145100Y-127326599D01*
X149560099Y-52345799D02*
X143667300Y-58238598D01*
X126056849Y-88396649D02*
X131145100Y-83308398D01*
X129138499Y-110080000D02*
X129138500Y-90013999D01*
X177627099Y-54403200D02*
X150398301Y-54403200D01*
X132770701Y-143582600D02*
X138663500Y-137689799D01*
X199191700Y-64842599D02*
X199191700Y-57146399D01*
X133888299Y-84425999D02*
X133888299Y-71700600D01*
X178185900Y-126716999D02*
X174807701Y-130095199D01*
X196118300Y-88870998D02*
X196118300Y-111172200D01*
X132516700Y-83867198D02*
X132516700Y-72157798D01*
X211586900Y-65248998D02*
X211586900Y-60041998D01*
X135005899Y-129028399D02*
X132338901Y-129028399D01*
X140339900Y-141804599D02*
X143667300Y-141804599D01*
X202620700Y-53717399D02*
X194137099Y-53717398D01*
X125404701Y-146325799D02*
X133888299Y-146325800D01*
X205414700Y-68042999D02*
X205414700Y-65528400D01*
X152608099Y-132406599D02*
X148975900Y-128774399D01*
X196194499Y-72437198D02*
X196194499Y-83613199D01*
X193705300Y-133346398D02*
X191876501Y-131517599D01*
X202620699Y-146325800D02*
X202620700Y-138629600D01*
X200995100Y-81657399D02*
X200995100Y-74392998D01*
X135945700Y-126285198D02*
X135945700Y-114778998D01*
X210901100Y-70278199D02*
X210901099Y-65934799D01*
X132948499Y-136648399D02*
X136707700Y-132889198D01*
X123194900Y-67661999D02*
X129087700Y-73554799D01*
X152608099Y-64741000D02*
X153700299Y-65833198D01*
X153170700Y-138760400D02*
X174829300Y-138760399D01*
X138434900Y-127402799D02*
X138434900Y-125599399D01*
X204093900Y-88616999D02*
X198251899Y-82774998D01*
X133888299Y-115617199D02*
X129722700Y-111451599D01*
X132567500Y-111400799D02*
X132567501Y-88642400D01*
X174858500Y-67204799D02*
X175391899Y-66671399D01*
X133939099Y-89201200D02*
X137317300Y-85822999D01*
X204669174Y-59321875D02*
X204669174Y-51661664D01*
X193705300Y-66722199D02*
X193705300Y-70328998D01*
X179887700Y-69211399D02*
X192181299Y-69211398D01*
X124604601Y-111159500D02*
X125184350Y-111739249D01*
X136987100Y-66468200D02*
X132262700Y-61743797D01*
X197820099Y-58518000D02*
X196092900Y-58517999D01*
X187964899Y-58924400D02*
X184078700Y-58924399D01*
X192333699Y-69897200D02*
X192333700Y-71700598D01*
X193451300Y-115312398D02*
X193451300Y-127656799D01*
X180979900Y-133574999D02*
X175637650Y-138917249D01*
X202768650Y-88256949D02*
X203395401Y-88883700D01*
X196448500Y-132457399D02*
X203941500Y-132457399D01*
X131627700Y-88616999D02*
X135259900Y-84984799D01*
X153357401Y-56460598D02*
X151236499Y-56460600D01*
X136428299Y-67839800D02*
X147578899Y-67839800D01*
X194746700Y-88921798D02*
X194746700Y-111121399D01*
X179049500Y-71268799D02*
X190962099Y-71268798D01*
X116336899Y-60042000D02*
X116336899Y-70456000D01*
X127030300Y-125650198D02*
X121137500Y-131542998D01*
X175391899Y-66671399D02*
X175417299Y-66671400D01*
X129519500Y-142210999D02*
X132211899Y-142211000D01*
X196372299Y-88617000D02*
X196118300Y-88870998D01*
X203738300Y-80539800D02*
X203738300Y-75510599D01*
X202620700Y-138629600D02*
X210316900Y-138629599D01*
X173740900Y-135581599D02*
X154259100Y-135581599D01*
X205516300Y-88108999D02*
X199623500Y-82216198D01*
X134574100Y-115337799D02*
X130687901Y-111451600D01*
X203052500Y-80819198D02*
X203052500Y-75231199D01*
X127030300Y-81631999D02*
X121137500Y-87524799D01*
X115649302Y-114739103D02*
X121543899Y-120633700D01*
X177906500Y-53717399D02*
X150118900Y-53717398D01*
X133634300Y-65045798D02*
X136428299Y-67839800D01*
X195076900Y-136648399D02*
X195076900Y-131085799D01*
X190962099Y-71268798D02*
X190962099Y-73072199D01*
X176204700Y-142210999D02*
X182097499Y-136318200D01*
X119765900Y-113077199D02*
X125658699Y-118969998D01*
X119080100Y-113356599D02*
X124972900Y-119249399D01*
X146740699Y-65782399D02*
X137266500Y-65782400D01*
X148417099Y-69897199D02*
X152608099Y-65706199D01*
X132516700Y-72157798D02*
X130687901Y-70328999D01*
X210215300Y-61413598D02*
X202620700Y-61413598D01*
X178746364Y-51661663D02*
X149279036Y-51661663D01*
X210215301Y-64690199D02*
X210215300Y-61413598D01*
X152608099Y-65706199D02*
X153420900Y-66518999D01*
X131576900Y-67585799D02*
X124083900Y-67585799D01*
X204043100Y-66899999D02*
X197134300Y-66899999D01*
X153192300Y-69947999D02*
X174833099Y-69948000D01*
X198251899Y-73275399D02*
X204043100Y-67484199D01*
X189361901Y-137689798D02*
X195254699Y-143582600D01*
X208843700Y-65096599D02*
X209529500Y-64410799D01*
X209529500Y-69719399D02*
X209529501Y-65375999D01*
X201680899Y-118665200D02*
X207573699Y-112772398D01*
X125404700Y-53717399D02*
X125404700Y-61413599D01*
X130687901Y-111451600D02*
X130687900Y-111426199D01*
X127766899Y-88616999D02*
X132516700Y-83867198D01*
X191901901Y-68525599D02*
X193705300Y-66722199D01*
X206887899Y-89459001D02*
X206887901Y-89458999D01*
X195762700Y-61743799D02*
X191038299Y-66468200D01*
X126776299Y-62759798D02*
X126750899Y-62785198D01*
X133202500Y-71878398D02*
X132338901Y-71014798D01*
X136631500Y-85543598D02*
X136631500Y-74443798D01*
X117022700Y-60727798D02*
X117022700Y-70176599D01*
X148417099Y-130145999D02*
X135691700Y-130145999D01*
X123194900Y-88362999D02*
X123194900Y-88896399D01*
X197566099Y-72996000D02*
X202976300Y-67585799D01*
X152608099Y-62810598D02*
X154259100Y-64461598D01*
X128401900Y-126208998D02*
X122509099Y-132101799D01*
X182935699Y-138375599D02*
X189082500Y-138375600D01*
X124718899Y-60727799D02*
X117022700Y-60727798D01*
X194060900Y-89201199D02*
X194060899Y-110842000D01*
X191647900Y-129460198D02*
X179303501Y-129460199D01*
X126801699Y-88617000D02*
X131830899Y-83587798D01*
X132338901Y-129028399D02*
X133202500Y-128164800D01*
X191876501Y-131517599D02*
X180141700Y-131517599D01*
X134728163Y-148381534D02*
X140619299Y-142490400D01*
X116336900Y-140001199D02*
X124033100Y-140001199D01*
X122915499Y-79955600D02*
X117022700Y-85848399D01*
X190962099Y-73072199D02*
X192079699Y-73072200D01*
X118394299Y-69617799D02*
X124287100Y-75510599D01*
X130459300Y-83028999D02*
X124871299Y-88617000D01*
X130891099Y-133143199D02*
X130891099Y-140839400D01*
X148696500Y-129460199D02*
X136377500Y-129460199D01*
X203738300Y-119503398D02*
X209631099Y-113610599D01*
X193451299Y-71700600D02*
X193451300Y-84730799D01*
X150398301Y-145640000D02*
X177601699Y-145639999D01*
X136631500Y-125599399D02*
X136631499Y-114499600D01*
X175391899Y-64740999D02*
X175417299Y-64741000D01*
X195534100Y-57146398D02*
X189641300Y-63039198D01*
X175637650Y-138917249D02*
X175391899Y-139162999D01*
X197566100Y-116988799D02*
X197566100Y-127047198D01*
X149279036Y-51661663D02*
X143387899Y-57552798D01*
X151795300Y-57832199D02*
X145902499Y-63725000D01*
X205516299Y-111934200D02*
X205516300Y-88108999D01*
X175417299Y-65706199D02*
X179608299Y-69897199D01*
X137266500Y-65782400D02*
X131576900Y-60092799D01*
X208843699Y-69440000D02*
X208843700Y-65096599D01*
X136631499Y-114499600D02*
X133253299Y-111121400D01*
X210316900Y-86153199D02*
X204424100Y-80260400D01*
X180167100Y-68525599D02*
X191901901Y-68525599D01*
X200233100Y-88617000D02*
X198861500Y-89988599D01*
X124972900Y-75231197D02*
X124972900Y-80793799D01*
X122915500Y-76069398D02*
X122915499Y-79955600D01*
X150118900Y-53717398D02*
X144226100Y-59610199D01*
X136631500Y-74443798D02*
X138434900Y-74443799D01*
X206202100Y-111379199D02*
X206202100Y-89078000D01*
X135945700Y-85264200D02*
X135945700Y-73758000D01*
X121137500Y-112518399D02*
X127030300Y-118411198D01*
X118394300Y-137943799D02*
X126090500Y-137943799D01*
X203992300Y-60041999D02*
X203992301Y-52345798D01*
X121823299Y-131822400D02*
X121823300Y-134514799D01*
X189082500Y-138375600D02*
X194975300Y-144268399D01*
X133329500Y-144954199D02*
X139222299Y-139061400D01*
X135259899Y-126971000D02*
X135259900Y-115058399D01*
X179328901Y-70582999D02*
X191647900Y-70582999D01*
X193857700Y-147011599D02*
X203306501Y-147011599D01*
X205414700Y-65528400D02*
X198505900Y-65528398D01*
X178465300Y-52345799D02*
X149560099Y-52345799D01*
X195076900Y-68957399D02*
X199674300Y-68957398D01*
X120451699Y-64156800D02*
X120451699Y-68779600D01*
X124972900Y-119249399D02*
X124972899Y-124812000D01*
X209631099Y-113610599D02*
X209631099Y-86432599D01*
X177881099Y-146325800D02*
X183773899Y-140433000D01*
X152074701Y-58517999D02*
X146181901Y-64410798D01*
X192155900Y-130831798D02*
X179862300Y-130831798D01*
X122509099Y-132101799D02*
X122509100Y-133828999D01*
X198505900Y-65528398D02*
X198505900Y-57832199D01*
X123601299Y-75790000D02*
X123601299Y-80234999D01*
X178744699Y-128088599D02*
X175366500Y-131466799D01*
X194721300Y-71014799D02*
X194137099Y-71599000D01*
X124718900Y-53031598D02*
X124718899Y-60727799D01*
X199877499Y-143582600D02*
X199877500Y-135886399D01*
X124972900Y-80793799D02*
X119080100Y-86686598D01*
X204424100Y-124253198D02*
X204424100Y-119782798D01*
X150957100Y-55774799D02*
X145064301Y-61667600D01*
X207573699Y-112772398D02*
X207573699Y-87270800D01*
X202620700Y-61413598D02*
X202620700Y-53717399D01*
X201680899Y-81378000D02*
X201680899Y-74672400D01*
X190276300Y-128088598D02*
X178744699Y-128088599D01*
X191647900Y-72386398D02*
X192765500Y-72386399D01*
X198251899Y-126767799D02*
X198251899Y-117268200D01*
X121137500Y-64842598D02*
X121137500Y-68500199D01*
X198505900Y-57832199D02*
X195813500Y-57832199D01*
X148975900Y-128774399D02*
X137063299Y-128774400D01*
X152544601Y-57146399D02*
X151515900Y-57146400D01*
X198505900Y-134514800D02*
X206202100Y-134514799D01*
X188244299Y-140433000D02*
X194137099Y-146325800D01*
X150957100Y-144268399D02*
X153941600Y-144268399D01*
X119080100Y-137257999D02*
X126776299Y-137257999D01*
X128401900Y-117852399D02*
X128401900Y-126208998D01*
X203941500Y-132457399D02*
X198251899Y-126767799D01*
X202735001Y-89188500D02*
X196880300Y-83333799D01*
X140619299Y-142490400D02*
X143387899Y-142490400D01*
X131195900Y-89175799D02*
X130662500Y-88642399D01*
X138434900Y-74443799D02*
X138434900Y-72640399D01*
X195508700Y-72157800D02*
X195508700Y-83892599D01*
X122509099Y-66214200D02*
X122509099Y-67941399D01*
X125658699Y-74951799D02*
X125658699Y-81073200D01*
X199191700Y-135200599D02*
X206887900Y-135200598D01*
X145902499Y-63725000D02*
X138104699Y-63725000D01*
X180725900Y-67153999D02*
X191317700Y-67153999D01*
X130459300Y-72995999D02*
X130459300Y-83028999D01*
X179582899Y-130145998D02*
X175391899Y-134336998D01*
X208259500Y-130984199D02*
X202366699Y-125091399D01*
X181005300Y-66468199D02*
X175141701Y-60604600D01*
X133050100Y-144268399D02*
X138942900Y-138375599D01*
X134320100Y-129714199D02*
X130687901Y-129714198D01*
X117022700Y-139315399D02*
X124718899Y-139315399D01*
X206786300Y-64156799D02*
X199877500Y-64156798D01*
X133608899Y-145640000D02*
X139501700Y-139747199D01*
X188904699Y-126717000D02*
X178185900Y-126716999D01*
X140060500Y-58924399D02*
X134167699Y-53031600D01*
X150677700Y-55088998D02*
X144784901Y-60981798D01*
X147299500Y-67153999D02*
X153188498Y-61265000D01*
X126090501Y-54403199D02*
X126090500Y-62099399D01*
X139781100Y-140432999D02*
X144226100Y-140432999D01*
X206100500Y-68322399D02*
X206100500Y-64842599D01*
X125658699Y-81073200D02*
X119765900Y-86965999D01*
X208259500Y-136572199D02*
X208259500Y-130984199D01*
X174299700Y-134209999D02*
X153700299Y-134210000D01*
X197489899Y-89429800D02*
X197489899Y-110613398D01*
X175671300Y-59203799D02*
X175671299Y-59203800D01*
X175391899Y-68576400D02*
X178770099Y-71954600D01*
X120451699Y-131263598D02*
X120451700Y-135886399D01*
X174020300Y-65147399D02*
X175391899Y-63775798D01*
X210316900Y-138629599D02*
X210316900Y-130145999D01*
X128757499Y-111451600D02*
X128757499Y-111426199D01*
X195432499Y-111400799D02*
X192079699Y-114753599D01*
X207573699Y-131263598D02*
X201680900Y-125370799D01*
X175391899Y-133371799D02*
X174858500Y-132838399D01*
X179024099Y-128774400D02*
X175391899Y-132406598D01*
X212369235Y-114733263D02*
X212369235Y-85309935D01*
X204830499Y-111197600D02*
X204830499Y-88388400D01*
X143667300Y-141804599D02*
X149560099Y-147697399D01*
X199623500Y-126209000D02*
X199623500Y-117827000D01*
X119765900Y-130984198D02*
X119765901Y-136572198D01*
X126750899Y-62785198D02*
X119080100Y-62785198D01*
X197134300Y-140839399D02*
X197134300Y-133143199D01*
X127792300Y-111451600D02*
X127792299Y-111426200D01*
X197134300Y-66899999D02*
X197134300Y-59203799D01*
X143946700Y-141118799D02*
X149839500Y-147011599D01*
X147578899Y-67839800D02*
X152608099Y-62810598D01*
X196804100Y-110892799D02*
X197337500Y-111426200D01*
X138663500Y-62353398D02*
X132770701Y-56460600D01*
X201172900Y-88642399D02*
X199547300Y-90267999D01*
X137749100Y-128088599D02*
X137749100Y-126285198D01*
X190022299Y-75129600D02*
X190022299Y-86127800D01*
X202366699Y-81098599D02*
X202366699Y-74951799D01*
X190708100Y-85848399D02*
X194060900Y-89201199D01*
X154259100Y-135581599D02*
X152608099Y-137232600D01*
X132262699Y-138299400D02*
X136987100Y-133574998D01*
X192333700Y-71700598D02*
X193451299Y-71700600D01*
X195076900Y-131085799D02*
X200639500Y-131085798D01*
X198861500Y-110054598D02*
X200233100Y-111426200D01*
X208259500Y-113051799D02*
X208259500Y-86991399D01*
X131830899Y-116455400D02*
X126827099Y-111451600D01*
X203992300Y-140001199D02*
X211688499Y-140001198D01*
X145343699Y-62353399D02*
X138663500Y-62353398D01*
X205109899Y-76069400D02*
X210901100Y-70278199D01*
X209631099Y-130425399D02*
X203738299Y-124532600D01*
X199191700Y-142896799D02*
X199191700Y-135200599D01*
X179303501Y-129460199D02*
X175391899Y-133371799D01*
X116336900Y-129587199D02*
X116336900Y-140001199D01*
X143946700Y-58924399D02*
X140060500Y-58924399D01*
X203738300Y-75510599D02*
X209529500Y-69719399D01*
X132211899Y-142211000D02*
X138104699Y-136318200D01*
X138104699Y-136318200D02*
X145902499Y-136318200D01*
X121823300Y-134514799D02*
X129519500Y-134514798D01*
X135259900Y-115058399D02*
X131653100Y-111451599D01*
X198302699Y-111426200D02*
X194137099Y-115591800D01*
X131830899Y-127606000D02*
X131830899Y-116455400D01*
X126344500Y-74672398D02*
X126344499Y-81352600D01*
X201249100Y-137257999D02*
X208945300Y-137257998D01*
X193019499Y-68373198D02*
X193019499Y-71014799D01*
X145623100Y-63039199D02*
X138384100Y-63039199D01*
X118394299Y-113635998D02*
X124287100Y-119528799D01*
X175391899Y-136267400D02*
X174020300Y-134895799D01*
X192333700Y-128342599D02*
X192333700Y-130145998D01*
X189641300Y-137003999D02*
X195534100Y-142896799D01*
X180700499Y-132889200D02*
X191317699Y-132889200D01*
X193451300Y-84730799D02*
X197337500Y-88617000D01*
X174439400Y-56460600D02*
X174439400Y-56460599D01*
X121543899Y-120633700D02*
X121543899Y-123415000D01*
X176230100Y-57832199D02*
X151795300Y-57832199D01*
X125404700Y-61413599D02*
X117708499Y-61413600D01*
X194137099Y-128342598D02*
X192333700Y-128342599D01*
X128833699Y-64842599D02*
X121137500Y-64842598D01*
X117022700Y-129866599D02*
X117022700Y-139315399D01*
X201325299Y-68271599D02*
X195762700Y-68271598D01*
X193019499Y-131695398D02*
X192155900Y-130831798D01*
X126344500Y-125370799D02*
X120451699Y-131263598D01*
X145623100Y-137003999D02*
X151515900Y-142896798D01*
X139781100Y-59610199D02*
X133888299Y-53717398D01*
X190276300Y-126285199D02*
X190276300Y-128088598D01*
X146740699Y-134260799D02*
X152608100Y-140128200D01*
X117708500Y-86127799D02*
X117708500Y-113915399D01*
X174439400Y-56460599D02*
X153357401Y-56460598D01*
X208945300Y-137257998D02*
X208945300Y-130704799D01*
X180446501Y-67839800D02*
X191622499Y-67839800D01*
X133202500Y-115896599D02*
X128757499Y-111451600D01*
X195508700Y-83892599D02*
X200233100Y-88617000D01*
X199547300Y-90267999D02*
X199547300Y-109775199D01*
X133608899Y-54403200D02*
X126090501Y-54403199D01*
X135869500Y-130831799D02*
X135005900Y-131695399D01*
X147578899Y-132203400D02*
X136428299Y-132203400D01*
X153979700Y-65147399D02*
X174020300Y-65147399D01*
X130687901Y-129714198D02*
X132516700Y-127885399D01*
X210215301Y-69998799D02*
X210215299Y-65655400D01*
X147020100Y-133574998D02*
X152891299Y-139446200D01*
X188523700Y-60295998D02*
X183519901Y-60295998D01*
X203306500Y-53031599D02*
X193857700Y-53031599D01*
X120451699Y-112797799D02*
X126344499Y-118690600D01*
X137317300Y-114220198D02*
X133939099Y-110841998D01*
X177601699Y-145639999D02*
X183494500Y-139747198D01*
X212285401Y-70824297D02*
X212285401Y-66599000D01*
X129087699Y-117573000D02*
X129087700Y-126488399D01*
X129722700Y-111426200D02*
X130510100Y-110638799D01*
X128452701Y-109800599D02*
X128452700Y-90293399D01*
X137063299Y-126970999D02*
X135259899Y-126971000D01*
X122229700Y-120366999D02*
X122229700Y-123694399D01*
X201249100Y-144954199D02*
X201249100Y-137257999D01*
X122229700Y-76348798D02*
X122229701Y-79676199D01*
X202768650Y-88256949D02*
X197566099Y-83054400D01*
X121823301Y-87804198D02*
X121823300Y-89027199D01*
X183773899Y-140433000D02*
X188244299Y-140433000D01*
X191393899Y-73758000D02*
X191393900Y-85568998D01*
X128147900Y-135886399D02*
X128147901Y-143582599D01*
X136987100Y-133574998D02*
X147020100Y-133574998D01*
X139120699Y-124913599D02*
X137317299Y-124913600D01*
X133634300Y-130399998D02*
X129036900Y-130399999D01*
X178720964Y-148381535D02*
X184612100Y-142490399D01*
X146461299Y-134946600D02*
X152354101Y-140839399D01*
X181259300Y-134260799D02*
X190758900Y-134260799D01*
X206100500Y-64842599D02*
X199191700Y-64842599D01*
X127462100Y-55774799D02*
X127462100Y-63470999D01*
X134574100Y-84705399D02*
X134574100Y-72386398D01*
X128833699Y-135200599D02*
X128833699Y-142896800D01*
X152354100Y-59203799D02*
X146461299Y-65096598D01*
X212272701Y-59361662D02*
X204708965Y-59361662D01*
X180141700Y-131517599D02*
X175391899Y-136267400D01*
X132948499Y-131085799D02*
X132948499Y-136648399D01*
X197566100Y-127047198D02*
X202290500Y-131771600D01*
X194137099Y-115591800D02*
X194137099Y-128342598D01*
X190479500Y-65096599D02*
X181564100Y-65096598D01*
X131881699Y-88870999D02*
X131627700Y-88616999D01*
X135945700Y-73758000D02*
X137749100Y-73757999D01*
X211002700Y-114169399D02*
X211002700Y-85873799D01*
X194416499Y-145639999D02*
X201934899Y-145640000D01*
X127766899Y-88642400D02*
X127766899Y-88616999D01*
X123906099Y-111426199D02*
X129773499Y-117293599D01*
X195076900Y-63394799D02*
X195076900Y-68957399D01*
X123349303Y-51661663D02*
X123349304Y-59361662D01*
X181564100Y-65096598D02*
X175671300Y-59203799D01*
X194822900Y-84171999D02*
X199267899Y-88616999D01*
X152862101Y-140839399D02*
X175645900Y-140839399D01*
X117708499Y-69897200D02*
X123601299Y-75790000D01*
X126136850Y-111726550D02*
X131145100Y-116734800D01*
X198175700Y-110333999D02*
X199267899Y-111426199D01*
X124033100Y-60041999D02*
X116336899Y-60042000D01*
X151795299Y-142211000D02*
X153420901Y-142210999D01*
X130891099Y-140839400D02*
X131653100Y-140839399D01*
X123349302Y-140681536D02*
X123349304Y-148381534D01*
X175108699Y-139446200D02*
X175637650Y-138917249D01*
X131145099Y-72716600D02*
X127385900Y-68957398D01*
X137545900Y-134946599D02*
X146461299Y-134946600D01*
X127716100Y-81911399D02*
X121823301Y-87804198D01*
X175417299Y-63775799D02*
X180167100Y-68525599D01*
X200233100Y-111426200D02*
X195508700Y-116150599D01*
X196448500Y-139950399D02*
X196448500Y-132457399D01*
X130891100Y-59203799D02*
X130891099Y-66899999D01*
X128452700Y-90293399D02*
X126801700Y-88642400D01*
X190758900Y-65782399D02*
X181284699Y-65782400D01*
X206202100Y-89078000D02*
X206202100Y-87829598D01*
X196372299Y-59203800D02*
X190479500Y-65096599D01*
X123601299Y-119808199D02*
X123601299Y-124253198D01*
X187406100Y-142490399D02*
X193297235Y-148381534D01*
X194391100Y-134997398D02*
X191597100Y-132203399D01*
X136148900Y-131517599D02*
X134320101Y-133346398D01*
X132770701Y-56460600D02*
X128147901Y-56460599D01*
X202735001Y-110854700D02*
X202735001Y-89188500D01*
X202366699Y-125091399D02*
X202366699Y-118944599D01*
X135869501Y-69211399D02*
X148137700Y-69211399D01*
X140060500Y-141118799D02*
X143946700Y-141118799D01*
X153192300Y-130095199D02*
X149814100Y-126716998D01*
X128833700Y-57146398D02*
X128833699Y-64842599D01*
X193705300Y-70328998D02*
X196372300Y-70328999D01*
X195508700Y-116150599D02*
X195508700Y-127885398D01*
X196448500Y-60092799D02*
X190758900Y-65782399D01*
X193375099Y-89480600D02*
X193375099Y-110426701D01*
X131653101Y-59203799D02*
X130891100Y-59203799D01*
X201249100Y-62785199D02*
X201249100Y-55088999D01*
X206887900Y-135200598D02*
X206887900Y-131542999D01*
X203992299Y-147697400D02*
X203992300Y-140001199D01*
X201934900Y-62099398D02*
X201934899Y-54403200D01*
X132262700Y-61743797D02*
X132262700Y-68271599D01*
X131830899Y-83587798D02*
X131830899Y-72437198D01*
X189590500Y-127402798D02*
X178465300Y-127402798D01*
X130662500Y-88642399D02*
X130662501Y-88617000D01*
X175417299Y-66671400D02*
X179328901Y-70582999D01*
X192079699Y-126285198D02*
X190276300Y-126285199D01*
X117708499Y-61413600D02*
X117708499Y-69897200D01*
X115649302Y-70733601D02*
X121543899Y-76628198D01*
X199547300Y-109775199D02*
X201198300Y-111426199D01*
X120451699Y-68779600D02*
X126344500Y-74672398D01*
X126090501Y-145639999D02*
X133608899Y-145640000D01*
X137317300Y-85822999D02*
X137317299Y-75129600D01*
X116336899Y-114474199D02*
X122229700Y-120366999D01*
X192181299Y-69211398D02*
X193019499Y-68373198D01*
X183799299Y-59610199D02*
X177906500Y-53717399D01*
X131576900Y-60092799D02*
X131576900Y-67585799D01*
X210901099Y-60727799D02*
X203306500Y-60727798D01*
X149279036Y-148381534D02*
X178720964Y-148381535D01*
X175112500Y-69262199D02*
X178490699Y-72640399D01*
X204669174Y-51661664D02*
X193297235Y-51661664D01*
X127462101Y-144268399D02*
X133050100Y-144268399D01*
X175950699Y-58518000D02*
X152074701Y-58517999D01*
X212369235Y-140681535D02*
X212369235Y-129315434D01*
X203052500Y-124811999D02*
X203052500Y-119223999D01*
X203395401Y-111159498D02*
X197566100Y-116988799D01*
X206481500Y-79422199D02*
X206481500Y-76628198D01*
X197337500Y-88617000D02*
X196804100Y-89150399D01*
X126090500Y-137943799D02*
X126090501Y-145639999D01*
X121543900Y-79409499D02*
X115649303Y-85304096D01*
X194137099Y-146325800D02*
X202620699Y-146325800D01*
X175141701Y-60604600D02*
X152883699Y-60604599D01*
X126344499Y-118690600D02*
X126344500Y-125370799D01*
X119765901Y-136572198D02*
X127462100Y-136572198D01*
X132567501Y-88642400D02*
X135945700Y-85264200D01*
X136377500Y-70582999D02*
X148696499Y-70583000D01*
X196448500Y-67585798D02*
X196448500Y-60092799D01*
X206202100Y-134514799D02*
X206202100Y-131822399D01*
X126801700Y-88642400D02*
X126801699Y-88617000D01*
X200563300Y-55774799D02*
X194975301Y-55774799D01*
X193451300Y-127656799D02*
X191647900Y-127656799D01*
X210215299Y-65655400D02*
X210901099Y-64969598D01*
X193019499Y-71014799D02*
X194721300Y-71014799D01*
X208945300Y-130704799D02*
X203052500Y-124811999D01*
X149255301Y-71954600D02*
X152633499Y-68576400D01*
X174998200Y-57146398D02*
X152544601Y-57146398D01*
X152608099Y-137232600D02*
X147578899Y-132203400D01*
X137749100Y-126285198D02*
X135945700Y-126285198D01*
X135691700Y-71700599D02*
X135691700Y-69897199D01*
X201571051Y-112018650D02*
X202735001Y-110854700D01*
X150118900Y-146325799D02*
X177881099Y-146325800D01*
X190708101Y-124913600D02*
X188904699Y-124913599D01*
X152608099Y-135302200D02*
X148137700Y-130831799D01*
X136148900Y-68525599D02*
X147858300Y-68525599D01*
X201680900Y-125370799D02*
X201680899Y-118665200D01*
X196092900Y-58517999D02*
X190200100Y-64410798D01*
X150398301Y-54403200D02*
X144505499Y-60296000D01*
X209631100Y-137943799D02*
X209631099Y-130425399D01*
X117022700Y-70176599D02*
X122915500Y-76069398D01*
X125290400Y-110880100D02*
X126136850Y-111726550D01*
X123194899Y-133143200D02*
X130891099Y-133143199D01*
X122915501Y-123973798D02*
X117022700Y-129866599D01*
X191317699Y-132889200D02*
X195076900Y-136648399D01*
X175391899Y-135302199D02*
X174299700Y-134209999D01*
X197337500Y-129714199D02*
X193705300Y-129714199D01*
X210901099Y-64969598D02*
X210901099Y-60727799D01*
X193297235Y-51661664D02*
X187406100Y-57552799D01*
X192765500Y-115032997D02*
X192765501Y-126971000D01*
X204728899Y-67763600D02*
X204728900Y-66214199D01*
X132491300Y-57146399D02*
X128833700Y-57146398D01*
X115649302Y-129309597D02*
X115649302Y-140681536D01*
X181843499Y-64410800D02*
X175950699Y-58518000D01*
X201934899Y-145640000D02*
X201934900Y-137943799D01*
X133202500Y-128164800D02*
X133202500Y-115896599D01*
X206786300Y-68601798D02*
X206786300Y-64156799D01*
X134728163Y-51661664D02*
X123349303Y-51661663D01*
X195762700Y-68271598D02*
X195762700Y-61743799D01*
X129036900Y-130399999D02*
X131830899Y-127606000D01*
X194695900Y-55088999D02*
X188803100Y-60981798D01*
X192765500Y-85010198D02*
X196372299Y-88617000D01*
X195686499Y-129028400D02*
X193019499Y-129028399D01*
X131653100Y-140839399D02*
X137545900Y-134946599D01*
X139222299Y-60981798D02*
X133329500Y-55088998D01*
X148975901Y-71268798D02*
X152608099Y-67636599D01*
X143387899Y-57552798D02*
X140619300Y-57552798D01*
X128147900Y-64156799D02*
X120451699Y-64156800D01*
X195254699Y-143582600D02*
X199877499Y-143582600D01*
X133634300Y-134997399D02*
X133634300Y-130399998D01*
X123194900Y-111680198D02*
X129087699Y-117573000D01*
X152912899Y-130781000D02*
X149534699Y-127402800D01*
X189082500Y-61667600D02*
X182961099Y-61667600D01*
X198023300Y-69643199D02*
X195508700Y-72157800D01*
X137317299Y-124913600D02*
X137317300Y-114220198D01*
X175417299Y-59914999D02*
X152608099Y-59914999D01*
X194695900Y-144954198D02*
X201249100Y-144954199D01*
X210901099Y-65934799D02*
X211586900Y-65248998D01*
X134320101Y-133346398D02*
X134320100Y-129714199D01*
X178439900Y-147697400D02*
X184332700Y-141804599D01*
X131881699Y-111197600D02*
X131881699Y-88870999D01*
X121823301Y-110845800D02*
X121823299Y-112239000D01*
X151236499Y-56460600D02*
X145343699Y-62353399D01*
X190962099Y-126970999D02*
X190962099Y-128774400D01*
X147020100Y-66468199D02*
X136987100Y-66468200D01*
X130205300Y-133828999D02*
X130205301Y-141525199D01*
X131932499Y-58517999D02*
X130205301Y-58517999D01*
X184332700Y-141804599D02*
X187685501Y-141804599D01*
X196194499Y-116429999D02*
X196194499Y-127606000D01*
X175391899Y-134336998D02*
X174579099Y-133524198D01*
X152608099Y-63775799D02*
X153979700Y-65147399D01*
X149534699Y-127402800D02*
X138434900Y-127402799D01*
X196880300Y-83333799D02*
X196880300Y-72716598D01*
X174836901Y-61265000D02*
X180725900Y-67153999D01*
X188803100Y-60981798D02*
X183240500Y-60981799D01*
X197820100Y-66214198D02*
X197820099Y-58518000D01*
X174833099Y-69948000D02*
X178211300Y-73326198D01*
X129773499Y-82749599D02*
X123906099Y-88616999D01*
X209529501Y-62099399D02*
X201934900Y-62099398D01*
X138942900Y-138375599D02*
X145064301Y-138375600D01*
X153979700Y-143582600D02*
X176763499Y-143582600D01*
X184358100Y-58238599D02*
X178465300Y-52345799D01*
X188904699Y-124913599D02*
X188904699Y-126717000D01*
X125658699Y-125091399D02*
X119765900Y-130984198D01*
X178490699Y-72640399D02*
X189590500Y-72640399D01*
X127716099Y-118131800D02*
X127716099Y-125929600D01*
X182376900Y-137003999D02*
X189641300Y-137003999D01*
X148137700Y-69211399D02*
X152608099Y-64741000D01*
X121823300Y-68220799D02*
X127716099Y-74113600D01*
X135691700Y-69897199D02*
X148417099Y-69897199D01*
X129773499Y-126767799D02*
X124083901Y-132457398D01*
X210316900Y-113889999D02*
X210316900Y-86153199D01*
X124033100Y-140001199D02*
X124033101Y-147697399D01*
X211002699Y-129866600D02*
X205109900Y-123973798D01*
X198251899Y-117268200D02*
X204093900Y-111426199D01*
X205516299Y-132101799D02*
X199623500Y-126209000D01*
X204424100Y-80260400D02*
X204424100Y-75790000D01*
X131576900Y-139950398D02*
X137266500Y-134260800D01*
X198861500Y-89988599D02*
X198861500Y-110054598D01*
X201249100Y-55088999D02*
X194695900Y-55088999D01*
X211688499Y-140001198D02*
X211688499Y-129587198D01*
X122509099Y-67941399D02*
X128401900Y-73834199D01*
X191597100Y-132203399D02*
X180421100Y-132203399D01*
X205516300Y-133828999D02*
X205516299Y-132101799D01*
X153141501Y-67204798D02*
X174858500Y-67204799D01*
X127716099Y-74113600D02*
X127716100Y-81911399D01*
X144505499Y-60296000D02*
X139501699Y-60296000D01*
X190200100Y-64410798D02*
X181843499Y-64410800D01*
X200639500Y-131085798D02*
X196880300Y-127326599D01*
X206887901Y-89458999D02*
X206887899Y-87550199D01*
X193578301Y-52345798D02*
X187685500Y-58238599D01*
X126776299Y-137257999D02*
X126776300Y-144954199D01*
X196118300Y-111172200D02*
X196372299Y-111426200D01*
X136377500Y-129460199D02*
X136377500Y-127656799D01*
X154259100Y-64461598D02*
X173740900Y-64461598D01*
X175391899Y-140128200D02*
X181259300Y-134260799D01*
X138384100Y-63039199D02*
X132491300Y-57146399D01*
X199877500Y-135886399D02*
X207573700Y-135886399D01*
X121137499Y-135200600D02*
X128833699Y-135200599D01*
X151515900Y-142896798D02*
X176484099Y-142896799D01*
X175391899Y-62810599D02*
X175417299Y-62810598D01*
X174579099Y-133524198D02*
X153420901Y-133524199D01*
X149814100Y-73326199D02*
X153192300Y-69947999D01*
X131145100Y-127326599D02*
X127385899Y-131085800D01*
X145064301Y-61667600D02*
X138942900Y-61667599D01*
X119765900Y-69059000D02*
X125658699Y-74951799D01*
X184053300Y-141118799D02*
X187964900Y-141118799D01*
X205109900Y-120062198D02*
X211002700Y-114169399D01*
X147299500Y-132889199D02*
X152159150Y-137748850D01*
X200563299Y-144268400D02*
X200563300Y-136572200D01*
X117708500Y-130145998D02*
X117708501Y-138629598D01*
X175645900Y-140839399D02*
X181538700Y-134946599D01*
X138942900Y-61667599D02*
X133050100Y-55774799D01*
X130510100Y-110638799D02*
X130510100Y-89455199D01*
X121137500Y-87524799D02*
X121137500Y-112518399D01*
X200563300Y-63470998D02*
X200563300Y-55774799D01*
X127462100Y-63470999D02*
X119765899Y-63471000D01*
X176509499Y-57146400D02*
X174998200Y-57146398D01*
X129697300Y-88642400D02*
X129697300Y-88616999D01*
X149839500Y-147011599D02*
X178160500Y-147011598D01*
X192765501Y-126971000D02*
X190962099Y-126970999D01*
X129773499Y-73275399D02*
X129773499Y-82749599D01*
X122915500Y-120087599D02*
X122915501Y-123973798D01*
X195432499Y-88642399D02*
X195432499Y-111400799D01*
X152912900Y-69262199D02*
X175112500Y-69262199D01*
X199267899Y-88616999D02*
X198175700Y-89709199D01*
X206887900Y-131542999D02*
X200995100Y-125650199D01*
X204043100Y-67484199D02*
X204043100Y-66899999D01*
X188904699Y-73326198D02*
X188904699Y-75129599D01*
X205795700Y-76348800D02*
X211586901Y-70557599D01*
X200995100Y-118385798D02*
X206887899Y-112492999D01*
X201934899Y-54403200D02*
X194416499Y-54403199D01*
X124287100Y-119528799D02*
X124287100Y-124532599D01*
X145064301Y-138375600D02*
X150957100Y-144268399D01*
X181284699Y-65782400D02*
X175417299Y-59914999D01*
X203052500Y-119223999D02*
X208945299Y-113331200D01*
X128147901Y-143582599D02*
X132770701Y-143582600D01*
X182122901Y-63724999D02*
X176230100Y-57832199D01*
X136377500Y-72386399D02*
X136377500Y-70582999D01*
X122509099Y-88083600D02*
X122509099Y-111959598D01*
X130459300Y-127047199D02*
X125734899Y-131771600D01*
X152633499Y-68576400D02*
X175391899Y-68576400D01*
X191038299Y-133574998D02*
X180979900Y-133574999D01*
X133202499Y-84146600D02*
X133202500Y-71878398D01*
X178211300Y-73326198D02*
X188904699Y-73326198D01*
X129824299Y-89734599D02*
X128732099Y-88642399D01*
X120451700Y-135886399D02*
X128147900Y-135886399D01*
X126090500Y-62099399D02*
X118394299Y-62099400D01*
X135691700Y-128342598D02*
X133888299Y-128342598D01*
X119765899Y-63471000D02*
X119765900Y-69059000D01*
X178160500Y-147011598D02*
X184053300Y-141118799D01*
X121543899Y-123415000D02*
X115649302Y-129309597D01*
X130687901Y-70328999D02*
X134320100Y-70328999D01*
X200309299Y-118106398D02*
X206202100Y-112213599D01*
X189920699Y-136318200D02*
X195813500Y-142210999D01*
X208945299Y-113331200D02*
X208945300Y-86711997D01*
X211002700Y-139315398D02*
X211002699Y-129866600D01*
X126827099Y-111451600D02*
X126827100Y-111426200D01*
X135691700Y-130145999D02*
X135691700Y-128342598D01*
X115649302Y-140681536D02*
X123349302Y-140681536D01*
X123194900Y-88896399D02*
X123194900Y-111680198D01*
X129087700Y-126488399D02*
X123194900Y-132381199D01*
X140619300Y-57552798D02*
X134728163Y-51661664D01*
X192079699Y-85289599D02*
X195432499Y-88642399D01*
X201172900Y-88591599D02*
X201172900Y-88642399D01*
X124718900Y-147011599D02*
X134167700Y-147011599D01*
X190022299Y-86127800D02*
X193375099Y-89480600D01*
X152608099Y-134336999D02*
X148417099Y-130145999D01*
X188523700Y-139747199D02*
X194416499Y-145639999D01*
X191393900Y-125599399D02*
X189615900Y-125599399D01*
X193297235Y-148381534D02*
X204669175Y-148381535D01*
X200563300Y-136572200D02*
X208259500Y-136572199D01*
X208945300Y-86711997D02*
X203052500Y-80819198D01*
X198937700Y-117547599D02*
X204830501Y-111654798D01*
X182656299Y-137689798D02*
X189361901Y-137689798D01*
X190708101Y-74469199D02*
X190708100Y-85848399D01*
X132516700Y-127885399D02*
X132516700Y-116175999D01*
X126827100Y-111426200D02*
X128452701Y-109800599D01*
X205795699Y-120341600D02*
X211688499Y-114448800D01*
X136377500Y-127656799D02*
X134574100Y-127656799D01*
X194822900Y-71878399D02*
X194822900Y-84171999D01*
X127030300Y-74392999D02*
X127030300Y-81631999D01*
X196880300Y-116709399D02*
X201571051Y-112018650D01*
X144784900Y-139061399D02*
X150677700Y-144954199D01*
X137266500Y-134260800D02*
X146740699Y-134260799D01*
X132491300Y-142896798D02*
X138384100Y-137003999D01*
X130891099Y-66899999D02*
X123194900Y-66899998D01*
X135259899Y-73072200D02*
X137063299Y-73072199D01*
X117708501Y-138629598D02*
X125404700Y-138629598D01*
X122509099Y-111959598D02*
X128401900Y-117852399D01*
X136428299Y-132203400D02*
X133634300Y-134997399D01*
X153979700Y-134895799D02*
X152608099Y-136267399D01*
X211688499Y-129587198D02*
X205795700Y-123694398D01*
X123601299Y-124253198D02*
X117708500Y-130145998D01*
X153636801Y-55774799D02*
X150957100Y-55774799D01*
X117708500Y-113915399D02*
X123601299Y-119808199D01*
X205795700Y-79701599D02*
X205795700Y-76348800D01*
X121543899Y-76628198D02*
X121543900Y-79409499D01*
X174579099Y-66519000D02*
X175391899Y-65706200D01*
X191622499Y-67839800D02*
X194391100Y-65071199D01*
X188803100Y-139061400D02*
X194695900Y-144954198D01*
X207472100Y-63471000D02*
X200563300Y-63470998D01*
X143387899Y-142490400D02*
X149279036Y-148381534D01*
X206481500Y-120620999D02*
X212369235Y-114733263D01*
X119080100Y-62785198D02*
X119080101Y-69338399D01*
X133253300Y-88921799D02*
X136631500Y-85543598D01*
X197134300Y-133143199D02*
X204830500Y-133143198D01*
X128401900Y-82190799D02*
X122509099Y-88083600D01*
X133253299Y-111121400D02*
X133253300Y-88921799D01*
X148137700Y-130831799D02*
X135869500Y-130831799D01*
X195508700Y-127885398D02*
X197337500Y-129714199D01*
X177322300Y-144954199D02*
X183215100Y-139061399D01*
X132262700Y-68271599D02*
X125734900Y-68271599D01*
X134574100Y-72386398D02*
X136377500Y-72386399D01*
X146181900Y-135632399D02*
X152074701Y-141525199D01*
X119080101Y-69338399D02*
X124972900Y-75231197D01*
X199674300Y-68957398D02*
X196194499Y-72437198D01*
X135945700Y-114778998D02*
X132567500Y-111400799D01*
X116336899Y-70456000D02*
X122229700Y-76348798D01*
X118394299Y-62099400D02*
X118394299Y-69617799D01*
X207573700Y-135886399D02*
X207573699Y-131263598D01*
X132262700Y-131771599D02*
X132262699Y-138299400D01*
X193578299Y-147697400D02*
X203992299Y-147697400D01*
X200995100Y-74392998D02*
X206786300Y-68601798D01*
X205795700Y-123694398D02*
X205795699Y-120341600D01*
X133634300Y-69643199D02*
X133634300Y-65045798D01*
X187964900Y-141118799D02*
X193857700Y-147011599D01*
X176763499Y-143582600D02*
X182656299Y-137689798D01*
X152862100Y-67890600D02*
X175137901Y-67890600D01*
X191647900Y-127656799D02*
X191647900Y-129460198D01*
X128732099Y-88642399D02*
X128732099Y-88617000D01*
X153941600Y-144268399D02*
X174261601Y-144268399D01*
X204830500Y-133143198D02*
X204830501Y-132381198D01*
X152608099Y-133371798D02*
X148696500Y-129460199D01*
X182402300Y-63039198D02*
X176509499Y-57146400D01*
X131145100Y-83308398D02*
X131145099Y-72716600D01*
X134574100Y-127656799D02*
X134574100Y-115337799D01*
X137749100Y-71954599D02*
X149255301Y-71954600D01*
X211002700Y-85873799D02*
X205109900Y-79980999D01*
X130205301Y-58517999D02*
X130205300Y-66214199D01*
X206202100Y-87829598D02*
X200309299Y-81936800D01*
X153420901Y-142210999D02*
X174820400Y-142210999D01*
X130687900Y-111426199D02*
X131195900Y-110918199D01*
X129722700Y-111451599D02*
X129722700Y-111426200D01*
X138104699Y-63725000D02*
X132211900Y-57832199D01*
X139120699Y-75129599D02*
X139120699Y-73326198D01*
X211586900Y-66214199D02*
X212272699Y-65528400D01*
X180421100Y-132203399D02*
X175391899Y-137232599D01*
X144505499Y-139747198D02*
X150398301Y-145640000D01*
X193705300Y-129714199D02*
X193705300Y-133346398D01*
X124083900Y-67585799D02*
X129773499Y-73275399D01*
X203128699Y-88617000D02*
X202768650Y-88256949D01*
X137825300Y-64410799D02*
X131932499Y-58517999D01*
X125290401Y-89163098D02*
X125290400Y-110880100D01*
X191647900Y-70582999D02*
X191647900Y-72386398D01*
X133888299Y-53717398D02*
X125404700Y-53717399D01*
X194822900Y-128164798D02*
X195686499Y-129028400D01*
X208843700Y-64131399D02*
X208843699Y-62785199D01*
X124287100Y-75510599D02*
X124287100Y-80514399D01*
X189615900Y-125599399D02*
X189590500Y-125624798D01*
X130205300Y-66214199D02*
X122509099Y-66214200D01*
X194391100Y-69643198D02*
X198023300Y-69643199D01*
X126056849Y-88396649D02*
X125290401Y-89163098D01*
X194137099Y-84451400D02*
X198302699Y-88617000D01*
X129519500Y-134514798D02*
X129519500Y-142210999D01*
X153420901Y-133524199D02*
X152608099Y-134336999D01*
X182681699Y-62353399D02*
X176788899Y-56460599D01*
X132516700Y-116175999D02*
X127792300Y-111451600D01*
X201934900Y-137943799D02*
X209631100Y-137943799D01*
X192079699Y-73072200D02*
X192079699Y-85289599D01*
X128833699Y-142896800D02*
X132491300Y-142896798D01*
X192765500Y-72386399D02*
X192765500Y-85010198D01*
X209529501Y-65375999D02*
X210215301Y-64690199D01*
X191317700Y-67153999D02*
X195076900Y-63394799D01*
X197820099Y-141525200D02*
X197820100Y-133828999D01*
X134167700Y-147011599D02*
X140060500Y-141118799D01*
%TD*%
%TA.AperFunction,Conductor*%
%TO.N,3V3_P*%
G36*
X192924190Y-107019213D02*
G01*
X192960735Y-107069513D01*
X192965659Y-107100600D01*
X192965659Y-110215435D01*
X192946446Y-110274566D01*
X192936194Y-110286570D01*
X189605765Y-113616999D01*
X189551863Y-113710362D01*
X189551861Y-113710367D01*
X189523961Y-113814490D01*
X189523961Y-117320761D01*
X189504748Y-117379892D01*
X189454448Y-117416437D01*
X189423361Y-117421361D01*
X188897920Y-117421361D01*
X188838789Y-117402148D01*
X188826785Y-117391896D01*
X188797815Y-117362926D01*
X188797816Y-117362926D01*
X188664490Y-117285950D01*
X188664487Y-117285949D01*
X188624645Y-117275273D01*
X188515780Y-117246102D01*
X188515778Y-117246102D01*
X188361824Y-117246102D01*
X188361821Y-117246102D01*
X188213111Y-117285950D01*
X188079786Y-117362926D01*
X187970925Y-117471787D01*
X187893949Y-117605112D01*
X187854101Y-117753822D01*
X187854101Y-117907781D01*
X187893949Y-118056491D01*
X187970925Y-118189816D01*
X188079786Y-118298677D01*
X188079785Y-118298677D01*
X188213111Y-118375653D01*
X188213112Y-118375653D01*
X188213115Y-118375655D01*
X188361824Y-118415502D01*
X188361826Y-118415502D01*
X188515776Y-118415502D01*
X188515778Y-118415502D01*
X188664487Y-118375655D01*
X188797815Y-118298678D01*
X188826786Y-118269706D01*
X188882182Y-118241480D01*
X188897921Y-118240241D01*
X189987303Y-118240241D01*
X189987305Y-118240241D01*
X190091439Y-118212338D01*
X190147761Y-118179820D01*
X190208576Y-118166894D01*
X190265375Y-118192183D01*
X190296462Y-118246027D01*
X190298660Y-118266943D01*
X190298660Y-124403559D01*
X190279447Y-124462690D01*
X190229147Y-124499235D01*
X190198060Y-124504159D01*
X188850790Y-124504159D01*
X188746667Y-124532059D01*
X188746662Y-124532061D01*
X188653299Y-124585963D01*
X188577063Y-124662199D01*
X188523161Y-124755562D01*
X188523159Y-124755567D01*
X188495259Y-124859690D01*
X188495259Y-126206959D01*
X188476046Y-126266090D01*
X188425746Y-126302635D01*
X188394659Y-126307559D01*
X178247920Y-126307559D01*
X178247908Y-126307558D01*
X178239804Y-126307558D01*
X178131996Y-126307558D01*
X178049869Y-126329565D01*
X178038865Y-126332513D01*
X178027861Y-126335462D01*
X178012450Y-126344360D01*
X177973170Y-126367038D01*
X177963536Y-126372600D01*
X177934501Y-126389362D01*
X174667570Y-129656294D01*
X174612172Y-129684520D01*
X174596435Y-129685759D01*
X167048838Y-129685759D01*
X166989707Y-129666546D01*
X166953162Y-129616246D01*
X166953162Y-129554072D01*
X166977703Y-129514024D01*
X167006901Y-129484826D01*
X167073847Y-129368874D01*
X167097714Y-129279801D01*
X167108499Y-129239550D01*
X167108500Y-129239543D01*
X167108500Y-129105656D01*
X167108499Y-129105649D01*
X167073848Y-128976329D01*
X167073848Y-128976328D01*
X167073847Y-128976326D01*
X167006901Y-128860374D01*
X166990262Y-128843735D01*
X166962036Y-128788337D01*
X166971762Y-128726929D01*
X166990262Y-128701465D01*
X166993322Y-128698405D01*
X167006901Y-128684826D01*
X167073847Y-128568874D01*
X167092131Y-128500636D01*
X167108499Y-128439550D01*
X167108500Y-128439543D01*
X167108500Y-128305656D01*
X167108499Y-128305649D01*
X167073848Y-128176329D01*
X167073848Y-128176328D01*
X167006900Y-128060373D01*
X166990262Y-128043735D01*
X166962036Y-127988337D01*
X166971762Y-127926929D01*
X166990262Y-127901465D01*
X167006901Y-127884826D01*
X167073847Y-127768874D01*
X167108500Y-127639545D01*
X167108500Y-127505655D01*
X167108499Y-127505653D01*
X167108499Y-127505649D01*
X167073848Y-127376329D01*
X167073848Y-127376328D01*
X167006900Y-127260373D01*
X166990262Y-127243735D01*
X166962036Y-127188337D01*
X166971762Y-127126929D01*
X166990262Y-127101465D01*
X167006901Y-127084826D01*
X167073847Y-126968874D01*
X167108500Y-126839545D01*
X167108500Y-126705655D01*
X167108499Y-126705653D01*
X167108499Y-126705649D01*
X167073848Y-126576329D01*
X167073848Y-126576328D01*
X167039606Y-126517020D01*
X167006901Y-126460374D01*
X166990262Y-126443735D01*
X166962036Y-126388337D01*
X166971762Y-126326929D01*
X166990262Y-126301465D01*
X167006901Y-126284826D01*
X167073847Y-126168874D01*
X167108500Y-126039545D01*
X167108500Y-125905655D01*
X167108499Y-125905653D01*
X167108499Y-125905649D01*
X167073848Y-125776329D01*
X167073848Y-125776328D01*
X167047504Y-125730699D01*
X167006901Y-125660374D01*
X166912226Y-125565699D01*
X166800277Y-125501064D01*
X166796271Y-125498751D01*
X166666950Y-125464100D01*
X166666945Y-125464100D01*
X166533055Y-125464100D01*
X166533049Y-125464100D01*
X166403729Y-125498751D01*
X166403728Y-125498751D01*
X166287773Y-125565699D01*
X166271135Y-125582338D01*
X166215737Y-125610564D01*
X166154329Y-125600838D01*
X166128865Y-125582338D01*
X166112226Y-125565699D01*
X165996271Y-125498751D01*
X165866950Y-125464100D01*
X165866945Y-125464100D01*
X165733055Y-125464100D01*
X165733049Y-125464100D01*
X165597357Y-125500459D01*
X165596842Y-125498537D01*
X165543992Y-125502687D01*
X165490986Y-125470192D01*
X165467203Y-125412747D01*
X165473230Y-125374733D01*
X165472142Y-125374442D01*
X165508500Y-125238749D01*
X165508501Y-125238742D01*
X165508501Y-125104855D01*
X165508500Y-125104848D01*
X165473849Y-124975528D01*
X165473849Y-124975527D01*
X165456690Y-124945807D01*
X165406902Y-124859573D01*
X165389863Y-124842534D01*
X165361637Y-124787136D01*
X165371363Y-124725728D01*
X165389863Y-124700264D01*
X165406902Y-124683225D01*
X165473848Y-124567273D01*
X165490759Y-124504159D01*
X165508500Y-124437949D01*
X165508501Y-124437942D01*
X165508501Y-124304055D01*
X165508500Y-124304048D01*
X165473849Y-124174728D01*
X165473849Y-124174727D01*
X165440180Y-124116412D01*
X165406902Y-124058773D01*
X165389863Y-124041734D01*
X165361637Y-123986336D01*
X165371363Y-123924928D01*
X165389863Y-123899464D01*
X165397184Y-123892143D01*
X165406902Y-123882425D01*
X165473848Y-123766473D01*
X165508501Y-123637144D01*
X165508501Y-123503254D01*
X165508500Y-123503252D01*
X165508500Y-123503248D01*
X165473849Y-123373928D01*
X165473849Y-123373927D01*
X165473848Y-123373925D01*
X165406902Y-123257973D01*
X165389863Y-123240934D01*
X165361637Y-123185536D01*
X165371363Y-123124128D01*
X165378713Y-123111923D01*
X165383713Y-123104813D01*
X165400706Y-123087821D01*
X187854100Y-123087821D01*
X187854100Y-123241780D01*
X187893948Y-123390490D01*
X187970924Y-123523815D01*
X188079785Y-123632676D01*
X188079784Y-123632676D01*
X188213110Y-123709652D01*
X188213111Y-123709652D01*
X188213114Y-123709654D01*
X188361823Y-123749501D01*
X188361825Y-123749501D01*
X188515775Y-123749501D01*
X188515777Y-123749501D01*
X188664486Y-123709654D01*
X188797814Y-123632677D01*
X188906676Y-123523815D01*
X188983653Y-123390487D01*
X189023500Y-123241778D01*
X189023500Y-123087824D01*
X188983653Y-122939115D01*
X188906676Y-122805787D01*
X188797814Y-122696925D01*
X188797815Y-122696925D01*
X188664489Y-122619949D01*
X188664486Y-122619948D01*
X188624644Y-122609272D01*
X188515779Y-122580101D01*
X188515777Y-122580101D01*
X188361823Y-122580101D01*
X188361820Y-122580101D01*
X188213110Y-122619949D01*
X188079785Y-122696925D01*
X187970924Y-122805786D01*
X187893948Y-122939111D01*
X187854100Y-123087821D01*
X165400706Y-123087821D01*
X165406902Y-123081625D01*
X165473848Y-122965673D01*
X165508501Y-122836344D01*
X165508501Y-122702454D01*
X165508500Y-122702452D01*
X165508500Y-122702448D01*
X165473849Y-122573128D01*
X165473849Y-122573127D01*
X165406901Y-122457172D01*
X165389863Y-122440134D01*
X165361637Y-122384736D01*
X165371363Y-122323328D01*
X165389863Y-122297864D01*
X165406902Y-122280825D01*
X165473848Y-122164873D01*
X165508501Y-122035544D01*
X165508501Y-121901654D01*
X165508499Y-121901648D01*
X165490165Y-121833221D01*
X165493419Y-121771132D01*
X165532546Y-121722814D01*
X165561301Y-121710012D01*
X165566944Y-121708500D01*
X165566945Y-121708500D01*
X165696270Y-121673848D01*
X165696271Y-121673848D01*
X165696271Y-121673847D01*
X165696274Y-121673847D01*
X165812226Y-121606901D01*
X165906901Y-121512226D01*
X165973847Y-121396274D01*
X165981777Y-121366678D01*
X166008499Y-121266950D01*
X166008500Y-121266943D01*
X166008500Y-121133056D01*
X166008499Y-121133049D01*
X165973848Y-121003729D01*
X165973847Y-121003726D01*
X165973519Y-121003158D01*
X165973421Y-121002697D01*
X165971324Y-120997635D01*
X165972261Y-120997246D01*
X165960586Y-120942344D01*
X165985869Y-120885542D01*
X166010336Y-120865728D01*
X166018465Y-120861035D01*
X166112226Y-120806901D01*
X166206901Y-120712226D01*
X166273847Y-120596274D01*
X166284765Y-120555527D01*
X166308499Y-120466950D01*
X166308500Y-120466943D01*
X166308500Y-120333056D01*
X166308498Y-120333047D01*
X166305887Y-120323300D01*
X166300676Y-120303852D01*
X179116501Y-120303852D01*
X179116501Y-120437753D01*
X179151152Y-120567073D01*
X179151152Y-120567074D01*
X179218100Y-120683029D01*
X179253837Y-120718766D01*
X179282063Y-120774164D01*
X179272337Y-120835572D01*
X179253838Y-120861035D01*
X179218100Y-120896773D01*
X179151152Y-121012728D01*
X179151152Y-121012729D01*
X179116501Y-121142049D01*
X179116501Y-121275950D01*
X179151152Y-121405270D01*
X179151152Y-121405271D01*
X179181934Y-121458586D01*
X179218100Y-121521226D01*
X179312775Y-121615901D01*
X179413139Y-121673847D01*
X179428729Y-121682848D01*
X179558050Y-121717499D01*
X179558054Y-121717499D01*
X179558056Y-121717500D01*
X179558058Y-121717500D01*
X179691944Y-121717500D01*
X179691946Y-121717500D01*
X179691948Y-121717499D01*
X179691951Y-121717499D01*
X179821271Y-121682848D01*
X179821272Y-121682848D01*
X179821272Y-121682847D01*
X179821275Y-121682847D01*
X179937227Y-121615901D01*
X180031902Y-121521226D01*
X180098848Y-121405274D01*
X180114777Y-121345826D01*
X180133500Y-121275950D01*
X180133501Y-121275943D01*
X180133501Y-121142056D01*
X180133500Y-121142049D01*
X180098849Y-121012729D01*
X180098849Y-121012728D01*
X180093324Y-121003158D01*
X180031902Y-120896774D01*
X179996163Y-120861035D01*
X179967938Y-120805638D01*
X179977664Y-120744230D01*
X179996162Y-120718768D01*
X180031902Y-120683029D01*
X180098848Y-120567077D01*
X180115449Y-120505119D01*
X180133500Y-120437753D01*
X180133501Y-120437746D01*
X180133501Y-120430848D01*
X181656500Y-120430848D01*
X181656500Y-120564749D01*
X181691151Y-120694069D01*
X181691151Y-120694070D01*
X181725553Y-120753655D01*
X181758099Y-120810025D01*
X181852774Y-120904700D01*
X181968726Y-120971646D01*
X181968728Y-120971647D01*
X182098049Y-121006298D01*
X182098053Y-121006298D01*
X182098055Y-121006299D01*
X182098057Y-121006299D01*
X182231943Y-121006299D01*
X182231945Y-121006299D01*
X182231947Y-121006298D01*
X182231950Y-121006298D01*
X182361270Y-120971647D01*
X182361271Y-120971647D01*
X182361271Y-120971646D01*
X182361274Y-120971646D01*
X182395566Y-120951847D01*
X185161701Y-120951847D01*
X185161701Y-121085748D01*
X185196352Y-121215068D01*
X185196352Y-121215069D01*
X185231502Y-121275950D01*
X185263300Y-121331024D01*
X185357975Y-121425699D01*
X185417557Y-121460099D01*
X185473929Y-121492646D01*
X185603250Y-121527297D01*
X185603254Y-121527297D01*
X185603256Y-121527298D01*
X185603258Y-121527298D01*
X185737144Y-121527298D01*
X185737146Y-121527298D01*
X185737148Y-121527297D01*
X185737151Y-121527297D01*
X185866471Y-121492646D01*
X185866472Y-121492646D01*
X185866472Y-121492645D01*
X185866475Y-121492645D01*
X185982427Y-121425699D01*
X186077102Y-121331024D01*
X186144048Y-121215072D01*
X186170838Y-121115089D01*
X186178700Y-121085748D01*
X186178701Y-121085741D01*
X186178701Y-120951854D01*
X186178700Y-120951847D01*
X186144049Y-120822527D01*
X186144049Y-120822526D01*
X186141868Y-120818749D01*
X186077102Y-120706572D01*
X185982427Y-120611897D01*
X185955368Y-120596274D01*
X185866472Y-120544949D01*
X185737151Y-120510298D01*
X185737146Y-120510298D01*
X185603256Y-120510298D01*
X185603250Y-120510298D01*
X185473930Y-120544949D01*
X185473929Y-120544949D01*
X185357974Y-120611897D01*
X185263300Y-120706571D01*
X185196352Y-120822526D01*
X185196352Y-120822527D01*
X185161701Y-120951847D01*
X182395566Y-120951847D01*
X182477226Y-120904700D01*
X182571901Y-120810025D01*
X182638847Y-120694073D01*
X182664081Y-120599896D01*
X182673499Y-120564749D01*
X182673500Y-120564742D01*
X182673500Y-120430855D01*
X182673499Y-120430848D01*
X182638848Y-120301528D01*
X182638848Y-120301527D01*
X182623128Y-120274299D01*
X182571901Y-120185573D01*
X182477226Y-120090898D01*
X182361271Y-120023950D01*
X182231950Y-119989299D01*
X182231945Y-119989299D01*
X182098055Y-119989299D01*
X182098049Y-119989299D01*
X181968729Y-120023950D01*
X181968728Y-120023950D01*
X181852773Y-120090898D01*
X181758099Y-120185572D01*
X181691151Y-120301527D01*
X181691151Y-120301528D01*
X181656500Y-120430848D01*
X180133501Y-120430848D01*
X180133501Y-120303859D01*
X180133500Y-120303852D01*
X180098849Y-120174532D01*
X180098849Y-120174531D01*
X180091081Y-120161077D01*
X180031902Y-120058577D01*
X179937227Y-119963902D01*
X179890419Y-119936877D01*
X179821272Y-119896954D01*
X179691951Y-119862303D01*
X179691946Y-119862303D01*
X179558056Y-119862303D01*
X179558050Y-119862303D01*
X179428730Y-119896954D01*
X179428729Y-119896954D01*
X179312774Y-119963902D01*
X179218100Y-120058576D01*
X179151152Y-120174531D01*
X179151152Y-120174532D01*
X179116501Y-120303852D01*
X166300676Y-120303852D01*
X166273848Y-120203729D01*
X166273848Y-120203728D01*
X166273832Y-120203700D01*
X166206901Y-120087774D01*
X166112226Y-119993099D01*
X166061656Y-119963902D01*
X166010335Y-119934271D01*
X165968733Y-119888066D01*
X165962235Y-119826232D01*
X165971388Y-119802391D01*
X165971324Y-119802365D01*
X165972346Y-119799896D01*
X165973519Y-119796840D01*
X165973847Y-119796274D01*
X165993474Y-119723023D01*
X166008499Y-119666950D01*
X166008500Y-119666943D01*
X166008500Y-119533056D01*
X166008499Y-119533049D01*
X165973848Y-119403729D01*
X165973848Y-119403728D01*
X165965863Y-119389898D01*
X165906901Y-119287774D01*
X165812226Y-119193099D01*
X165696274Y-119126153D01*
X165696271Y-119126151D01*
X165578448Y-119094581D01*
X165526304Y-119060719D01*
X165504023Y-119002674D01*
X165507316Y-118971362D01*
X165508500Y-118966945D01*
X165508500Y-118833055D01*
X165508499Y-118833053D01*
X165508499Y-118833049D01*
X165473848Y-118703729D01*
X165473848Y-118703728D01*
X165406900Y-118587773D01*
X165312226Y-118493099D01*
X165196271Y-118426151D01*
X165066950Y-118391500D01*
X165066945Y-118391500D01*
X164933055Y-118391500D01*
X164933049Y-118391500D01*
X164803729Y-118426151D01*
X164803728Y-118426151D01*
X164687772Y-118493099D01*
X164661150Y-118519722D01*
X164605752Y-118547948D01*
X164544343Y-118538221D01*
X164500380Y-118494256D01*
X164492844Y-118474623D01*
X164473848Y-118403729D01*
X164473848Y-118403728D01*
X164454749Y-118370648D01*
X164406901Y-118287774D01*
X164312226Y-118193099D01*
X164289228Y-118179821D01*
X164196271Y-118126151D01*
X164066950Y-118091500D01*
X164066945Y-118091500D01*
X163933055Y-118091500D01*
X163933049Y-118091500D01*
X163803729Y-118126151D01*
X163803728Y-118126151D01*
X163687773Y-118193099D01*
X163593099Y-118287773D01*
X163526152Y-118403728D01*
X163507155Y-118474624D01*
X163473292Y-118526767D01*
X163415247Y-118549048D01*
X163355192Y-118532956D01*
X163338848Y-118519721D01*
X163312226Y-118493099D01*
X163196271Y-118426151D01*
X163066950Y-118391500D01*
X163066945Y-118391500D01*
X162933055Y-118391500D01*
X162933049Y-118391500D01*
X162803729Y-118426151D01*
X162803728Y-118426151D01*
X162687773Y-118493099D01*
X162593099Y-118587773D01*
X162526151Y-118703728D01*
X162526151Y-118703729D01*
X162491500Y-118833049D01*
X162491500Y-118966945D01*
X162492686Y-118971370D01*
X162489433Y-119033459D01*
X162450306Y-119081778D01*
X162421551Y-119094581D01*
X162303729Y-119126151D01*
X162303728Y-119126151D01*
X162187773Y-119193099D01*
X162093099Y-119287773D01*
X162026151Y-119403728D01*
X162026151Y-119403729D01*
X161991500Y-119533049D01*
X161991500Y-119666950D01*
X162026151Y-119796270D01*
X162026151Y-119796271D01*
X162026483Y-119796845D01*
X162026581Y-119797309D01*
X162028676Y-119802365D01*
X162027739Y-119802753D01*
X162039412Y-119857660D01*
X162014126Y-119914460D01*
X161989664Y-119934270D01*
X161887778Y-119993095D01*
X161887774Y-119993099D01*
X161793099Y-120087773D01*
X161726151Y-120203728D01*
X161726151Y-120203729D01*
X161691500Y-120333049D01*
X161691500Y-120466950D01*
X161726151Y-120596270D01*
X161726151Y-120596271D01*
X161782616Y-120694069D01*
X161793099Y-120712226D01*
X161887774Y-120806901D01*
X161981537Y-120861036D01*
X161989664Y-120865728D01*
X162031266Y-120911933D01*
X162037764Y-120973767D01*
X162028612Y-120997612D01*
X162028675Y-120997639D01*
X162027682Y-121000033D01*
X162026490Y-121003142D01*
X162026154Y-121003723D01*
X162026150Y-121003732D01*
X161991500Y-121133049D01*
X161991500Y-121266950D01*
X162026151Y-121396270D01*
X162026151Y-121396271D01*
X162081794Y-121492645D01*
X162093099Y-121512226D01*
X162187774Y-121606901D01*
X162261550Y-121649496D01*
X162303728Y-121673848D01*
X162438701Y-121710013D01*
X162490844Y-121743875D01*
X162513126Y-121801919D01*
X162509836Y-121833221D01*
X162491502Y-121901646D01*
X162491501Y-121901655D01*
X162491501Y-122035549D01*
X162526152Y-122164869D01*
X162526152Y-122164870D01*
X162593100Y-122280825D01*
X162610139Y-122297864D01*
X162638365Y-122353262D01*
X162628639Y-122414670D01*
X162610139Y-122440134D01*
X162593100Y-122457172D01*
X162526152Y-122573127D01*
X162526152Y-122573128D01*
X162491501Y-122702448D01*
X162491501Y-122836349D01*
X162526152Y-122965669D01*
X162526152Y-122965670D01*
X162593100Y-123081625D01*
X162610139Y-123098664D01*
X162638365Y-123154062D01*
X162628639Y-123215470D01*
X162610139Y-123240934D01*
X162593100Y-123257972D01*
X162526152Y-123373927D01*
X162526152Y-123373928D01*
X162491501Y-123503248D01*
X162491501Y-123637149D01*
X162526152Y-123766469D01*
X162526152Y-123766470D01*
X162593100Y-123882425D01*
X162610139Y-123899464D01*
X162638365Y-123954862D01*
X162628639Y-124016270D01*
X162610139Y-124041734D01*
X162593100Y-124058772D01*
X162526152Y-124174727D01*
X162526152Y-124174728D01*
X162491501Y-124304048D01*
X162491501Y-124437949D01*
X162526152Y-124567269D01*
X162526152Y-124567270D01*
X162593100Y-124683225D01*
X162610139Y-124700264D01*
X162638365Y-124755662D01*
X162628639Y-124817070D01*
X162610139Y-124842534D01*
X162593100Y-124859572D01*
X162526152Y-124975527D01*
X162526152Y-124975528D01*
X162491501Y-125104848D01*
X162491501Y-125238749D01*
X162527860Y-125374442D01*
X162526120Y-125374908D01*
X162530330Y-125428350D01*
X162497848Y-125481364D01*
X162440408Y-125505161D01*
X162402970Y-125499236D01*
X162402643Y-125500459D01*
X162266950Y-125464100D01*
X162266945Y-125464100D01*
X162133055Y-125464100D01*
X162133049Y-125464100D01*
X162003729Y-125498751D01*
X162003728Y-125498751D01*
X161887773Y-125565699D01*
X161871135Y-125582338D01*
X161815737Y-125610564D01*
X161754329Y-125600838D01*
X161728865Y-125582338D01*
X161712226Y-125565699D01*
X161596271Y-125498751D01*
X161466950Y-125464100D01*
X161466945Y-125464100D01*
X161333055Y-125464100D01*
X161333049Y-125464100D01*
X161203729Y-125498751D01*
X161203728Y-125498751D01*
X161087773Y-125565699D01*
X160993099Y-125660373D01*
X160926151Y-125776328D01*
X160926151Y-125776329D01*
X160891500Y-125905649D01*
X160891500Y-126039550D01*
X160926151Y-126168870D01*
X160926151Y-126168871D01*
X160993099Y-126284826D01*
X161009738Y-126301465D01*
X161037964Y-126356863D01*
X161028238Y-126418271D01*
X161009738Y-126443735D01*
X160993099Y-126460373D01*
X160926151Y-126576328D01*
X160926151Y-126576329D01*
X160891500Y-126705649D01*
X160891500Y-126839550D01*
X160926151Y-126968870D01*
X160926151Y-126968871D01*
X160993099Y-127084826D01*
X161009738Y-127101465D01*
X161037964Y-127156863D01*
X161028238Y-127218271D01*
X161009738Y-127243735D01*
X160993099Y-127260373D01*
X160926151Y-127376328D01*
X160926151Y-127376329D01*
X160891500Y-127505649D01*
X160891500Y-127639550D01*
X160926151Y-127768870D01*
X160926151Y-127768871D01*
X160993099Y-127884826D01*
X161009738Y-127901465D01*
X161037964Y-127956863D01*
X161028238Y-128018271D01*
X161009738Y-128043735D01*
X160993099Y-128060373D01*
X160926151Y-128176328D01*
X160926151Y-128176329D01*
X160891500Y-128305649D01*
X160891500Y-128439550D01*
X160926151Y-128568870D01*
X160926151Y-128568871D01*
X160993099Y-128684826D01*
X161009738Y-128701465D01*
X161037964Y-128756863D01*
X161028238Y-128818271D01*
X161009738Y-128843735D01*
X160993099Y-128860373D01*
X160926151Y-128976328D01*
X160926151Y-128976329D01*
X160891500Y-129105649D01*
X160891500Y-129239550D01*
X160926151Y-129368870D01*
X160926151Y-129368871D01*
X160993099Y-129484826D01*
X161022297Y-129514024D01*
X161050523Y-129569422D01*
X161040797Y-129630830D01*
X160996833Y-129674794D01*
X160951162Y-129685759D01*
X153403566Y-129685759D01*
X153344435Y-129666546D01*
X153332431Y-129656294D01*
X151719872Y-128043735D01*
X150065502Y-126389364D01*
X150063723Y-126388337D01*
X149972836Y-126335864D01*
X149972138Y-126335461D01*
X149972137Y-126335460D01*
X149972136Y-126335460D01*
X149972131Y-126335458D01*
X149868008Y-126307558D01*
X149868004Y-126307558D01*
X149760196Y-126307558D01*
X149760195Y-126307558D01*
X139630739Y-126307558D01*
X139571608Y-126288345D01*
X139535063Y-126238045D01*
X139530139Y-126206958D01*
X139530139Y-124859696D01*
X139530138Y-124859690D01*
X139502238Y-124755567D01*
X139502236Y-124755562D01*
X139502236Y-124755561D01*
X139448333Y-124662197D01*
X139372101Y-124585965D01*
X139302271Y-124545649D01*
X140326701Y-124545649D01*
X140326701Y-124679550D01*
X140361352Y-124808870D01*
X140361354Y-124808875D01*
X140424300Y-124917899D01*
X140437227Y-124978714D01*
X140424300Y-125018499D01*
X140361354Y-125127523D01*
X140361352Y-125127528D01*
X140326701Y-125256848D01*
X140326701Y-125390749D01*
X140361352Y-125520069D01*
X140361352Y-125520070D01*
X140391449Y-125572199D01*
X140428300Y-125636025D01*
X140522975Y-125730700D01*
X140638927Y-125797646D01*
X140638929Y-125797647D01*
X140768250Y-125832298D01*
X140768254Y-125832298D01*
X140768256Y-125832299D01*
X140768258Y-125832299D01*
X140902144Y-125832299D01*
X140902146Y-125832299D01*
X140902148Y-125832298D01*
X140902151Y-125832298D01*
X141031471Y-125797647D01*
X141031472Y-125797647D01*
X141031472Y-125797646D01*
X141031475Y-125797646D01*
X141140501Y-125734698D01*
X141201314Y-125721772D01*
X141241099Y-125734698D01*
X141350126Y-125797646D01*
X141350128Y-125797647D01*
X141479449Y-125832298D01*
X141479453Y-125832298D01*
X141479455Y-125832299D01*
X141479457Y-125832299D01*
X141613343Y-125832299D01*
X141613345Y-125832299D01*
X141613347Y-125832298D01*
X141613350Y-125832298D01*
X141742670Y-125797647D01*
X141742671Y-125797647D01*
X141742671Y-125797646D01*
X141742674Y-125797646D01*
X141858626Y-125730700D01*
X141953301Y-125636025D01*
X142020247Y-125520073D01*
X142044824Y-125428350D01*
X142054899Y-125390749D01*
X142054900Y-125390742D01*
X142054900Y-125256855D01*
X142054899Y-125256848D01*
X142020248Y-125127528D01*
X142020248Y-125127527D01*
X142007158Y-125104855D01*
X141957299Y-125018498D01*
X141944373Y-124957684D01*
X141957300Y-124917899D01*
X142020247Y-124808874D01*
X142042526Y-124725728D01*
X142054899Y-124679550D01*
X142054900Y-124679543D01*
X142054900Y-124545656D01*
X142054899Y-124545649D01*
X142020248Y-124416329D01*
X142020248Y-124416328D01*
X141955426Y-124304055D01*
X141953301Y-124300374D01*
X141858626Y-124205699D01*
X141841896Y-124196040D01*
X141742671Y-124138751D01*
X141613350Y-124104100D01*
X141613345Y-124104100D01*
X141479455Y-124104100D01*
X141479449Y-124104100D01*
X141350129Y-124138751D01*
X141350124Y-124138753D01*
X141241100Y-124201699D01*
X141180285Y-124214626D01*
X141140500Y-124201699D01*
X141031476Y-124138753D01*
X141031471Y-124138751D01*
X140902151Y-124104100D01*
X140902146Y-124104100D01*
X140768256Y-124104100D01*
X140768250Y-124104100D01*
X140638930Y-124138751D01*
X140638929Y-124138751D01*
X140522974Y-124205699D01*
X140428300Y-124300373D01*
X140361352Y-124416328D01*
X140361352Y-124416329D01*
X140326701Y-124545649D01*
X139302271Y-124545649D01*
X139278737Y-124532062D01*
X139278736Y-124532061D01*
X139278735Y-124532061D01*
X139278730Y-124532059D01*
X139174607Y-124504159D01*
X139174603Y-124504159D01*
X139066795Y-124504159D01*
X139066794Y-124504159D01*
X137827339Y-124504159D01*
X137768208Y-124484946D01*
X137731663Y-124434646D01*
X137726739Y-124403559D01*
X137726740Y-119729848D01*
X140606101Y-119729848D01*
X140606101Y-119863749D01*
X140640752Y-119993069D01*
X140640752Y-119993070D01*
X140707700Y-120109025D01*
X140801839Y-120203164D01*
X140830065Y-120258562D01*
X140820339Y-120319970D01*
X140801839Y-120345434D01*
X140707700Y-120439572D01*
X140640752Y-120555527D01*
X140640752Y-120555528D01*
X140606101Y-120684848D01*
X140606101Y-120818749D01*
X140640752Y-120948069D01*
X140640752Y-120948070D01*
X140706184Y-121061399D01*
X140707700Y-121064025D01*
X140802375Y-121158700D01*
X140900013Y-121215072D01*
X140918329Y-121225647D01*
X141047650Y-121260298D01*
X141047654Y-121260298D01*
X141047656Y-121260299D01*
X141047658Y-121260299D01*
X141181544Y-121260299D01*
X141181546Y-121260299D01*
X141181548Y-121260298D01*
X141181551Y-121260298D01*
X141310871Y-121225647D01*
X141310872Y-121225647D01*
X141310872Y-121225646D01*
X141310875Y-121225646D01*
X141426827Y-121158700D01*
X141521502Y-121064025D01*
X141588448Y-120948073D01*
X141608262Y-120874124D01*
X141623100Y-120818749D01*
X141623101Y-120818742D01*
X141623101Y-120684855D01*
X141623100Y-120684848D01*
X141588449Y-120555528D01*
X141588449Y-120555527D01*
X141568644Y-120521224D01*
X141521502Y-120439573D01*
X141427363Y-120345434D01*
X141399137Y-120290036D01*
X141408863Y-120228628D01*
X141427363Y-120203164D01*
X141472420Y-120158107D01*
X141521502Y-120109025D01*
X141588448Y-119993073D01*
X141596264Y-119963902D01*
X141623100Y-119863749D01*
X141623101Y-119863742D01*
X141623101Y-119729855D01*
X141623100Y-119729848D01*
X141588449Y-119600528D01*
X141588449Y-119600527D01*
X141549494Y-119533056D01*
X141521502Y-119484573D01*
X141426827Y-119389898D01*
X141399026Y-119373847D01*
X141310872Y-119322950D01*
X141181551Y-119288299D01*
X141181546Y-119288299D01*
X141047656Y-119288299D01*
X141047650Y-119288299D01*
X140918330Y-119322950D01*
X140918329Y-119322950D01*
X140802374Y-119389898D01*
X140707700Y-119484572D01*
X140640752Y-119600527D01*
X140640752Y-119600528D01*
X140606101Y-119729848D01*
X137726740Y-119729848D01*
X137726740Y-119723260D01*
X137726740Y-117829849D01*
X140606101Y-117829849D01*
X140606101Y-117963750D01*
X140640752Y-118093070D01*
X140640752Y-118093071D01*
X140698504Y-118193099D01*
X140707700Y-118209026D01*
X140802375Y-118303701D01*
X140918327Y-118370647D01*
X140918329Y-118370648D01*
X141047650Y-118405299D01*
X141047654Y-118405299D01*
X141047656Y-118405300D01*
X141047658Y-118405300D01*
X141181544Y-118405300D01*
X141181546Y-118405300D01*
X141181548Y-118405299D01*
X141181551Y-118405299D01*
X141310871Y-118370648D01*
X141310872Y-118370648D01*
X141310872Y-118370647D01*
X141310875Y-118370647D01*
X141426827Y-118303701D01*
X141521502Y-118209026D01*
X141588448Y-118093074D01*
X141623101Y-117963745D01*
X141623101Y-117829855D01*
X141623100Y-117829853D01*
X141623100Y-117829849D01*
X141588449Y-117700529D01*
X141588449Y-117700528D01*
X141573513Y-117674659D01*
X141521502Y-117584574D01*
X141426827Y-117489899D01*
X141345379Y-117442874D01*
X141310872Y-117422951D01*
X141181551Y-117388300D01*
X141181546Y-117388300D01*
X141047656Y-117388300D01*
X141047650Y-117388300D01*
X140918330Y-117422951D01*
X140918329Y-117422951D01*
X140802374Y-117489899D01*
X140707700Y-117584573D01*
X140640752Y-117700528D01*
X140640752Y-117700529D01*
X140606101Y-117829849D01*
X137726740Y-117829849D01*
X137726740Y-116891995D01*
X144450099Y-116891995D01*
X144450099Y-124945807D01*
X144452668Y-124978439D01*
X144452670Y-124978456D01*
X144457588Y-125009505D01*
X144458377Y-125014151D01*
X144458378Y-125014156D01*
X144494879Y-125099554D01*
X144494880Y-125099556D01*
X144494881Y-125099557D01*
X144531426Y-125149857D01*
X144556043Y-125178033D01*
X144635776Y-125225671D01*
X144694907Y-125244884D01*
X144759394Y-125255098D01*
X144759396Y-125255099D01*
X144759399Y-125255099D01*
X157054989Y-125255099D01*
X157054999Y-125255099D01*
X157087649Y-125252529D01*
X157118736Y-125247605D01*
X157123351Y-125246821D01*
X157208757Y-125210317D01*
X157259057Y-125173772D01*
X157287233Y-125149155D01*
X157334871Y-125069422D01*
X157354084Y-125010291D01*
X157364299Y-124945799D01*
X157364299Y-117674659D01*
X157383512Y-117615528D01*
X157393758Y-117603530D01*
X157474439Y-117522849D01*
X173303700Y-117522849D01*
X173303700Y-117656750D01*
X173338351Y-117786070D01*
X173338351Y-117786071D01*
X173405299Y-117902026D01*
X173499974Y-117996701D01*
X173603532Y-118056491D01*
X173615928Y-118063648D01*
X173745249Y-118098299D01*
X173745253Y-118098299D01*
X173745255Y-118098300D01*
X173745257Y-118098300D01*
X173879143Y-118098300D01*
X173879145Y-118098300D01*
X173879147Y-118098299D01*
X173879150Y-118098299D01*
X174008470Y-118063648D01*
X174008471Y-118063648D01*
X174008471Y-118063647D01*
X174008474Y-118063647D01*
X174124426Y-117996701D01*
X174219101Y-117902026D01*
X174286047Y-117786074D01*
X174303631Y-117720448D01*
X174320699Y-117656750D01*
X174320700Y-117656743D01*
X174320700Y-117522856D01*
X174320699Y-117522849D01*
X174286048Y-117393529D01*
X174286048Y-117393528D01*
X174219100Y-117277573D01*
X174124426Y-117182899D01*
X174008471Y-117115951D01*
X173879150Y-117081300D01*
X173879145Y-117081300D01*
X173745255Y-117081300D01*
X173745249Y-117081300D01*
X173615929Y-117115951D01*
X173615928Y-117115951D01*
X173499973Y-117182899D01*
X173405299Y-117277573D01*
X173338351Y-117393528D01*
X173338351Y-117393529D01*
X173303700Y-117522849D01*
X157474439Y-117522849D01*
X158219465Y-116777824D01*
X158285165Y-116664027D01*
X158288082Y-116658975D01*
X158323601Y-116526416D01*
X158323601Y-114104684D01*
X158319062Y-114087745D01*
X158288083Y-113972128D01*
X158288083Y-113972127D01*
X158277534Y-113953856D01*
X158219464Y-113853277D01*
X158122425Y-113756238D01*
X158074316Y-113728462D01*
X158003574Y-113687618D01*
X157871022Y-113652101D01*
X157871018Y-113652101D01*
X157733784Y-113652101D01*
X157733779Y-113652101D01*
X157601228Y-113687618D01*
X157601227Y-113687618D01*
X157482376Y-113756238D01*
X157385338Y-113853276D01*
X157316718Y-113972127D01*
X157316718Y-113972128D01*
X157281201Y-114104679D01*
X157281201Y-116200240D01*
X157261988Y-116259371D01*
X157251736Y-116271375D01*
X156969876Y-116553235D01*
X156914478Y-116581461D01*
X156898741Y-116582700D01*
X153026701Y-116582700D01*
X152967570Y-116563487D01*
X152931025Y-116513187D01*
X152926101Y-116482100D01*
X152926101Y-114624297D01*
X152945314Y-114565166D01*
X152995614Y-114528621D01*
X153000664Y-114527125D01*
X153121870Y-114494648D01*
X153121871Y-114494648D01*
X153121871Y-114494647D01*
X153121874Y-114494647D01*
X153237826Y-114427701D01*
X153332501Y-114333026D01*
X153399447Y-114217074D01*
X153405492Y-114194512D01*
X153434099Y-114087750D01*
X153434100Y-114087743D01*
X153434100Y-113953856D01*
X153434099Y-113953849D01*
X153399448Y-113824529D01*
X153399448Y-113824528D01*
X153399447Y-113824526D01*
X153332501Y-113708574D01*
X153332499Y-113708572D01*
X153328487Y-113703343D01*
X153330288Y-113701960D01*
X153306634Y-113655535D01*
X153316360Y-113594127D01*
X153329038Y-113576676D01*
X153328487Y-113576253D01*
X153332495Y-113571027D01*
X153332501Y-113571022D01*
X153399447Y-113455070D01*
X153416010Y-113393255D01*
X153434099Y-113325746D01*
X153434100Y-113325739D01*
X153434100Y-113191852D01*
X153434099Y-113191845D01*
X153399448Y-113062525D01*
X153399448Y-113062524D01*
X153361350Y-112996537D01*
X153332501Y-112946570D01*
X153237826Y-112851895D01*
X153167882Y-112811512D01*
X153121871Y-112784947D01*
X152992550Y-112750296D01*
X152992545Y-112750296D01*
X152858655Y-112750296D01*
X152858649Y-112750296D01*
X152729329Y-112784947D01*
X152729328Y-112784947D01*
X152613373Y-112851895D01*
X152518700Y-112946568D01*
X152503326Y-112973196D01*
X152466509Y-113010013D01*
X152458746Y-113014495D01*
X152458743Y-113014497D01*
X151792301Y-113680940D01*
X151759279Y-113738136D01*
X151759278Y-113738135D01*
X151752108Y-113750555D01*
X151731301Y-113828203D01*
X151731300Y-113828207D01*
X151731300Y-116482100D01*
X151712087Y-116541231D01*
X151661787Y-116577776D01*
X151630700Y-116582700D01*
X144759390Y-116582700D01*
X144726758Y-116585269D01*
X144726741Y-116585271D01*
X144695692Y-116590189D01*
X144695670Y-116590192D01*
X144695662Y-116590194D01*
X144694009Y-116590474D01*
X144691046Y-116590978D01*
X144691041Y-116590979D01*
X144605643Y-116627480D01*
X144605639Y-116627483D01*
X144555349Y-116664020D01*
X144555340Y-116664027D01*
X144527165Y-116688644D01*
X144479528Y-116768374D01*
X144460313Y-116827507D01*
X144460313Y-116827509D01*
X144450099Y-116891995D01*
X137726740Y-116891995D01*
X137726740Y-114166295D01*
X137726739Y-114166289D01*
X137698839Y-114062166D01*
X137698837Y-114062161D01*
X137698837Y-114062160D01*
X137644934Y-113968796D01*
X137568702Y-113892564D01*
X137568701Y-113892563D01*
X137025423Y-113349285D01*
X147535722Y-113349285D01*
X147535722Y-113483186D01*
X147570373Y-113612506D01*
X147570373Y-113612507D01*
X147600864Y-113665318D01*
X147637321Y-113728462D01*
X147731996Y-113823137D01*
X147847948Y-113890083D01*
X147847950Y-113890084D01*
X147854041Y-113892607D01*
X147853002Y-113895113D01*
X147895508Y-113922694D01*
X147917811Y-113980731D01*
X147901742Y-114040792D01*
X147858212Y-114077012D01*
X147858237Y-114077056D01*
X147857986Y-114077200D01*
X147855859Y-114078971D01*
X147852534Y-114080348D01*
X147736573Y-114147299D01*
X147641899Y-114241973D01*
X147574951Y-114357928D01*
X147574951Y-114357929D01*
X147540300Y-114487249D01*
X147540300Y-114621150D01*
X147574951Y-114750470D01*
X147574951Y-114750471D01*
X147620827Y-114829929D01*
X147641899Y-114866426D01*
X147736574Y-114961101D01*
X147852526Y-115028047D01*
X147852528Y-115028048D01*
X147981849Y-115062699D01*
X147981853Y-115062699D01*
X147981855Y-115062700D01*
X147981857Y-115062700D01*
X148115743Y-115062700D01*
X148115745Y-115062700D01*
X148115747Y-115062699D01*
X148115750Y-115062699D01*
X148245070Y-115028048D01*
X148245071Y-115028048D01*
X148245071Y-115028047D01*
X148245074Y-115028047D01*
X148361026Y-114961101D01*
X148455701Y-114866426D01*
X148522647Y-114750474D01*
X148547318Y-114658399D01*
X148557299Y-114621150D01*
X148557300Y-114621143D01*
X148557300Y-114581782D01*
X148576513Y-114522651D01*
X148626813Y-114486106D01*
X148631864Y-114484610D01*
X148755836Y-114451393D01*
X148755838Y-114451392D01*
X148755838Y-114451391D01*
X148755841Y-114451391D01*
X148871793Y-114384445D01*
X148966468Y-114289770D01*
X149033414Y-114173818D01*
X149046762Y-114124001D01*
X149068066Y-114044494D01*
X149068067Y-114044487D01*
X149068067Y-113910600D01*
X149068066Y-113910593D01*
X149033415Y-113781273D01*
X149033415Y-113781272D01*
X149033414Y-113781270D01*
X148966468Y-113665318D01*
X148871793Y-113570643D01*
X148755841Y-113503697D01*
X148751679Y-113501294D01*
X148710077Y-113455089D01*
X148703579Y-113393255D01*
X148734666Y-113339411D01*
X148751680Y-113327050D01*
X148753071Y-113326246D01*
X148753074Y-113326246D01*
X148869026Y-113259300D01*
X148963701Y-113164625D01*
X149030647Y-113048673D01*
X149058005Y-112946569D01*
X149065299Y-112919349D01*
X149065300Y-112919342D01*
X149065300Y-112785455D01*
X149065299Y-112785448D01*
X149030648Y-112656128D01*
X149030648Y-112656127D01*
X148963700Y-112540172D01*
X148869026Y-112445498D01*
X148753071Y-112378550D01*
X148623750Y-112343899D01*
X148623745Y-112343899D01*
X148489855Y-112343899D01*
X148489849Y-112343899D01*
X148360529Y-112378550D01*
X148360528Y-112378550D01*
X148244573Y-112445498D01*
X148149899Y-112540172D01*
X148082951Y-112656127D01*
X148082951Y-112656128D01*
X148048300Y-112785448D01*
X148048300Y-112811512D01*
X148029087Y-112870643D01*
X147978787Y-112907188D01*
X147973737Y-112908684D01*
X147847951Y-112942387D01*
X147847950Y-112942387D01*
X147731995Y-113009335D01*
X147637321Y-113104009D01*
X147570373Y-113219964D01*
X147570373Y-113219965D01*
X147535722Y-113349285D01*
X137025423Y-113349285D01*
X134378004Y-110701866D01*
X134349778Y-110646468D01*
X134348539Y-110630731D01*
X134348539Y-110133049D01*
X162391500Y-110133049D01*
X162391500Y-110266950D01*
X162426151Y-110396270D01*
X162426153Y-110396275D01*
X162485866Y-110499700D01*
X162498793Y-110560515D01*
X162485866Y-110600300D01*
X162426153Y-110703724D01*
X162426151Y-110703729D01*
X162391500Y-110833049D01*
X162391500Y-110966950D01*
X162426151Y-111096270D01*
X162426153Y-111096275D01*
X162485866Y-111199700D01*
X162498793Y-111260515D01*
X162485866Y-111300300D01*
X162426153Y-111403724D01*
X162426151Y-111403729D01*
X162391500Y-111533049D01*
X162391500Y-111666950D01*
X162426151Y-111796270D01*
X162426153Y-111796275D01*
X162485866Y-111899700D01*
X162498793Y-111960515D01*
X162485866Y-112000300D01*
X162426153Y-112103724D01*
X162426151Y-112103729D01*
X162391500Y-112233049D01*
X162391500Y-112366950D01*
X162426151Y-112496270D01*
X162426153Y-112496275D01*
X162485866Y-112599700D01*
X162498793Y-112660515D01*
X162485866Y-112700300D01*
X162426153Y-112803724D01*
X162426151Y-112803729D01*
X162391500Y-112933049D01*
X162391500Y-113066950D01*
X162426151Y-113196270D01*
X162426151Y-113196271D01*
X162493099Y-113312226D01*
X162502588Y-113321715D01*
X162530814Y-113377113D01*
X162521088Y-113438521D01*
X162518575Y-113443150D01*
X162451154Y-113559924D01*
X162451152Y-113559929D01*
X162416501Y-113689249D01*
X162416501Y-113823150D01*
X162451152Y-113952470D01*
X162451154Y-113952475D01*
X162492103Y-114023400D01*
X162505030Y-114084215D01*
X162492103Y-114124000D01*
X162451154Y-114194924D01*
X162451152Y-114194929D01*
X162416501Y-114324249D01*
X162416501Y-114458150D01*
X162451152Y-114587470D01*
X162451154Y-114587475D01*
X162492103Y-114658400D01*
X162505030Y-114719215D01*
X162492103Y-114759000D01*
X162451154Y-114829924D01*
X162451152Y-114829929D01*
X162416501Y-114959249D01*
X162416501Y-115093150D01*
X162451152Y-115222470D01*
X162451152Y-115222471D01*
X162518100Y-115338426D01*
X162559138Y-115379464D01*
X162587364Y-115434862D01*
X162577638Y-115496270D01*
X162559138Y-115521733D01*
X162493102Y-115587769D01*
X162493100Y-115587772D01*
X162426151Y-115703728D01*
X162426151Y-115703729D01*
X162391500Y-115833049D01*
X162391500Y-115966950D01*
X162426151Y-116096270D01*
X162426151Y-116096271D01*
X162434383Y-116110529D01*
X162493099Y-116212226D01*
X162587774Y-116306901D01*
X162703558Y-116373750D01*
X162703728Y-116373848D01*
X162833049Y-116408499D01*
X162833053Y-116408499D01*
X162833055Y-116408500D01*
X162833057Y-116408500D01*
X162966943Y-116408500D01*
X162966945Y-116408500D01*
X162966947Y-116408499D01*
X162966950Y-116408499D01*
X163096270Y-116373848D01*
X163096271Y-116373848D01*
X163096271Y-116373847D01*
X163096274Y-116373847D01*
X163212226Y-116306901D01*
X163230365Y-116288762D01*
X163285763Y-116260536D01*
X163347171Y-116270262D01*
X163372635Y-116288762D01*
X163390774Y-116306901D01*
X163506558Y-116373750D01*
X163506728Y-116373848D01*
X163636049Y-116408499D01*
X163636053Y-116408499D01*
X163636055Y-116408500D01*
X163636057Y-116408500D01*
X163769943Y-116408500D01*
X163769945Y-116408500D01*
X163769947Y-116408499D01*
X163769950Y-116408499D01*
X163899270Y-116373848D01*
X163899271Y-116373848D01*
X163899271Y-116373847D01*
X163899274Y-116373847D01*
X164001200Y-116314998D01*
X164062015Y-116302072D01*
X164101798Y-116314998D01*
X164203558Y-116373750D01*
X164203728Y-116373848D01*
X164333049Y-116408499D01*
X164333053Y-116408499D01*
X164333055Y-116408500D01*
X164333057Y-116408500D01*
X164466943Y-116408500D01*
X164466945Y-116408500D01*
X164466947Y-116408499D01*
X164466950Y-116408499D01*
X164596270Y-116373848D01*
X164596271Y-116373848D01*
X164596271Y-116373847D01*
X164596274Y-116373847D01*
X164699700Y-116314132D01*
X164760515Y-116301206D01*
X164800298Y-116314132D01*
X164903558Y-116373750D01*
X164903728Y-116373848D01*
X165033049Y-116408499D01*
X165033053Y-116408499D01*
X165033055Y-116408500D01*
X165033057Y-116408500D01*
X165166943Y-116408500D01*
X165166945Y-116408500D01*
X165166947Y-116408499D01*
X165166950Y-116408499D01*
X165296270Y-116373848D01*
X165296271Y-116373848D01*
X165296271Y-116373847D01*
X165296274Y-116373847D01*
X165412226Y-116306901D01*
X165428865Y-116290262D01*
X165484263Y-116262036D01*
X165545671Y-116271762D01*
X165571135Y-116290262D01*
X165587774Y-116306901D01*
X165703558Y-116373750D01*
X165703728Y-116373848D01*
X165833049Y-116408499D01*
X165833053Y-116408499D01*
X165833055Y-116408500D01*
X165833057Y-116408500D01*
X165966943Y-116408500D01*
X165966945Y-116408500D01*
X165966947Y-116408499D01*
X165966950Y-116408499D01*
X166096270Y-116373848D01*
X166096271Y-116373848D01*
X166096271Y-116373847D01*
X166096274Y-116373847D01*
X166212226Y-116306901D01*
X166306901Y-116212226D01*
X166373847Y-116096274D01*
X166408500Y-115966945D01*
X166408500Y-115833055D01*
X166408499Y-115833053D01*
X166408499Y-115833049D01*
X166373848Y-115703729D01*
X166373848Y-115703728D01*
X166306900Y-115587773D01*
X166240862Y-115521735D01*
X166212636Y-115466337D01*
X166222362Y-115404929D01*
X166230398Y-115391761D01*
X166235131Y-115385196D01*
X166281902Y-115338426D01*
X166298920Y-115308951D01*
X174799900Y-115308951D01*
X174799900Y-115442852D01*
X174834551Y-115572172D01*
X174834551Y-115572173D01*
X174901499Y-115688128D01*
X174983587Y-115770216D01*
X175011813Y-115825614D01*
X175002087Y-115887022D01*
X174983587Y-115912486D01*
X174901500Y-115994573D01*
X174834552Y-116110528D01*
X174834552Y-116110529D01*
X174799901Y-116239849D01*
X174799901Y-116373750D01*
X174834552Y-116503070D01*
X174834552Y-116503071D01*
X174901500Y-116619026D01*
X174988039Y-116705565D01*
X175016265Y-116760963D01*
X175006539Y-116822371D01*
X174988039Y-116847835D01*
X174901500Y-116934373D01*
X174834552Y-117050328D01*
X174834552Y-117050329D01*
X174799901Y-117179649D01*
X174799901Y-117313550D01*
X174834552Y-117442870D01*
X174834552Y-117442871D01*
X174834554Y-117442874D01*
X174901500Y-117558826D01*
X174996175Y-117653501D01*
X175077627Y-117700528D01*
X175112129Y-117720448D01*
X175241450Y-117755099D01*
X175241454Y-117755099D01*
X175241456Y-117755100D01*
X175241458Y-117755100D01*
X175375344Y-117755100D01*
X175375346Y-117755100D01*
X175375348Y-117755099D01*
X175375351Y-117755099D01*
X175504671Y-117720448D01*
X175504672Y-117720448D01*
X175504672Y-117720447D01*
X175504675Y-117720447D01*
X175620627Y-117653501D01*
X175715302Y-117558826D01*
X175782248Y-117442874D01*
X175816901Y-117313545D01*
X175816901Y-117179655D01*
X175816900Y-117179653D01*
X175816900Y-117179649D01*
X175782249Y-117050329D01*
X175782249Y-117050328D01*
X175715301Y-116934373D01*
X175628763Y-116847835D01*
X175600537Y-116792437D01*
X175610263Y-116731029D01*
X175628763Y-116705565D01*
X175670316Y-116664012D01*
X175715302Y-116619026D01*
X175782248Y-116503074D01*
X175807589Y-116408499D01*
X175816900Y-116373750D01*
X175816901Y-116373743D01*
X175816901Y-116239856D01*
X175816900Y-116239849D01*
X175782249Y-116110529D01*
X175782249Y-116110528D01*
X175715301Y-115994573D01*
X175633213Y-115912485D01*
X175604987Y-115857087D01*
X175614713Y-115795679D01*
X175633210Y-115770218D01*
X175715301Y-115688128D01*
X175782247Y-115572176D01*
X175813407Y-115455883D01*
X175816899Y-115442852D01*
X175816900Y-115442845D01*
X175816900Y-115308958D01*
X175816899Y-115308951D01*
X175782248Y-115179631D01*
X175782248Y-115179630D01*
X175715300Y-115063675D01*
X175620626Y-114969001D01*
X175504671Y-114902053D01*
X175375350Y-114867402D01*
X175375345Y-114867402D01*
X175241455Y-114867402D01*
X175241449Y-114867402D01*
X175112129Y-114902053D01*
X175112128Y-114902053D01*
X174996173Y-114969001D01*
X174901499Y-115063675D01*
X174834551Y-115179630D01*
X174834551Y-115179631D01*
X174799900Y-115308951D01*
X166298920Y-115308951D01*
X166348848Y-115222474D01*
X166354893Y-115199912D01*
X166383500Y-115093150D01*
X166383501Y-115093143D01*
X166383501Y-114959256D01*
X166383500Y-114959249D01*
X166348849Y-114829929D01*
X166348849Y-114829928D01*
X166348847Y-114829924D01*
X166307897Y-114758998D01*
X166294971Y-114698186D01*
X166307898Y-114658400D01*
X166348848Y-114587474D01*
X166354893Y-114564912D01*
X166383500Y-114458150D01*
X166383501Y-114458143D01*
X166383501Y-114324256D01*
X166383500Y-114324249D01*
X166348849Y-114194929D01*
X166348849Y-114194928D01*
X166336659Y-114173815D01*
X166307897Y-114123998D01*
X166294971Y-114063186D01*
X166307898Y-114023400D01*
X166348848Y-113952474D01*
X166360070Y-113910593D01*
X166383500Y-113823150D01*
X166383501Y-113823143D01*
X166383501Y-113689256D01*
X166383500Y-113689249D01*
X166348849Y-113559929D01*
X166348849Y-113559928D01*
X166337785Y-113540765D01*
X166281902Y-113443974D01*
X166240714Y-113402786D01*
X166212488Y-113347388D01*
X166222214Y-113285980D01*
X166224718Y-113281366D01*
X166273847Y-113196274D01*
X166308500Y-113066945D01*
X166308500Y-112933055D01*
X166308499Y-112933053D01*
X166308499Y-112933049D01*
X166273848Y-112803729D01*
X166273848Y-112803728D01*
X166263005Y-112784947D01*
X166214132Y-112700299D01*
X166201206Y-112639485D01*
X166214133Y-112599700D01*
X166273847Y-112496274D01*
X166308500Y-112366945D01*
X166308500Y-112233055D01*
X166308499Y-112233053D01*
X166308499Y-112233049D01*
X166273848Y-112103729D01*
X166273848Y-112103728D01*
X166273846Y-112103724D01*
X166214132Y-112000299D01*
X166201206Y-111939485D01*
X166214133Y-111899700D01*
X166273847Y-111796274D01*
X166308500Y-111666945D01*
X166308500Y-111533055D01*
X166308499Y-111533053D01*
X166308499Y-111533049D01*
X166273848Y-111403729D01*
X166273848Y-111403728D01*
X166271070Y-111398916D01*
X166206901Y-111287774D01*
X166112226Y-111193099D01*
X165996274Y-111126153D01*
X165996271Y-111126151D01*
X165866950Y-111091500D01*
X165866945Y-111091500D01*
X165733055Y-111091500D01*
X165733049Y-111091500D01*
X165731213Y-111091993D01*
X165729853Y-111091921D01*
X165726516Y-111092361D01*
X165726434Y-111091742D01*
X165669124Y-111088737D01*
X165620807Y-111049608D01*
X165604717Y-110989551D01*
X165608010Y-110968772D01*
X165608500Y-110966945D01*
X165608500Y-110833055D01*
X165608499Y-110833053D01*
X165608499Y-110833049D01*
X165573848Y-110703729D01*
X165573848Y-110703728D01*
X165563095Y-110685104D01*
X165506901Y-110587774D01*
X165412226Y-110493099D01*
X165296274Y-110426153D01*
X165296271Y-110426151D01*
X165166950Y-110391500D01*
X165166945Y-110391500D01*
X165033055Y-110391500D01*
X165033049Y-110391500D01*
X164903729Y-110426151D01*
X164903728Y-110426151D01*
X164787773Y-110493099D01*
X164693099Y-110587773D01*
X164626151Y-110703728D01*
X164626151Y-110703729D01*
X164591500Y-110833049D01*
X164591500Y-110966950D01*
X164626151Y-111096270D01*
X164626153Y-111096275D01*
X164685866Y-111199700D01*
X164698793Y-111260515D01*
X164685866Y-111300300D01*
X164626153Y-111403724D01*
X164626151Y-111403729D01*
X164591500Y-111533049D01*
X164591500Y-111666950D01*
X164626151Y-111796270D01*
X164626151Y-111796271D01*
X164685866Y-111899699D01*
X164693099Y-111912226D01*
X164787774Y-112006901D01*
X164903726Y-112073847D01*
X164903728Y-112073848D01*
X165033049Y-112108499D01*
X165033053Y-112108499D01*
X165033055Y-112108500D01*
X165033057Y-112108500D01*
X165166943Y-112108500D01*
X165166945Y-112108500D01*
X165168773Y-112108010D01*
X165170127Y-112108080D01*
X165173484Y-112107639D01*
X165173565Y-112108260D01*
X165230862Y-112111257D01*
X165279184Y-112150379D01*
X165295283Y-112210433D01*
X165291993Y-112231213D01*
X165291500Y-112233049D01*
X165291500Y-112366950D01*
X165326151Y-112496270D01*
X165326153Y-112496275D01*
X165385866Y-112599700D01*
X165398793Y-112660515D01*
X165385866Y-112700300D01*
X165326153Y-112803724D01*
X165326151Y-112803729D01*
X165291500Y-112933049D01*
X165291500Y-113066950D01*
X165326151Y-113196270D01*
X165326153Y-113196275D01*
X165357345Y-113250300D01*
X165370272Y-113311115D01*
X165344984Y-113367914D01*
X165291139Y-113399002D01*
X165270223Y-113401200D01*
X163429777Y-113401200D01*
X163370646Y-113381987D01*
X163334101Y-113331687D01*
X163334101Y-113269513D01*
X163342655Y-113250300D01*
X163360169Y-113219964D01*
X163373847Y-113196274D01*
X163408500Y-113066945D01*
X163408500Y-112933055D01*
X163408499Y-112933053D01*
X163408499Y-112933049D01*
X163373848Y-112803729D01*
X163373848Y-112803728D01*
X163363005Y-112784947D01*
X163314132Y-112700299D01*
X163301206Y-112639485D01*
X163314133Y-112599700D01*
X163373847Y-112496274D01*
X163408500Y-112366945D01*
X163408500Y-112233055D01*
X163408009Y-112231222D01*
X163408080Y-112229866D01*
X163407639Y-112226516D01*
X163408259Y-112226434D01*
X163411258Y-112169134D01*
X163450382Y-112120813D01*
X163510436Y-112104716D01*
X163531220Y-112108008D01*
X163533055Y-112108500D01*
X163533057Y-112108500D01*
X163666943Y-112108500D01*
X163666945Y-112108500D01*
X163666947Y-112108499D01*
X163666950Y-112108499D01*
X163796270Y-112073848D01*
X163796271Y-112073848D01*
X163796271Y-112073847D01*
X163796274Y-112073847D01*
X163912226Y-112006901D01*
X164006901Y-111912226D01*
X164073847Y-111796274D01*
X164108500Y-111666945D01*
X164108500Y-111533055D01*
X164108499Y-111533053D01*
X164108499Y-111533049D01*
X164073848Y-111403729D01*
X164073848Y-111403728D01*
X164071070Y-111398916D01*
X164014132Y-111300299D01*
X164001206Y-111239485D01*
X164014133Y-111199700D01*
X164073847Y-111096274D01*
X164102443Y-110989551D01*
X164108499Y-110966950D01*
X164108500Y-110966943D01*
X164108500Y-110833056D01*
X164108499Y-110833049D01*
X164073848Y-110703729D01*
X164073848Y-110703728D01*
X164063095Y-110685104D01*
X164006901Y-110587774D01*
X163912226Y-110493099D01*
X163796274Y-110426153D01*
X163796271Y-110426151D01*
X163666950Y-110391500D01*
X163666945Y-110391500D01*
X163533055Y-110391500D01*
X163533049Y-110391500D01*
X163531213Y-110391993D01*
X163529853Y-110391921D01*
X163526516Y-110392361D01*
X163526434Y-110391742D01*
X163469124Y-110388737D01*
X163420807Y-110349608D01*
X163404717Y-110289551D01*
X163408010Y-110268772D01*
X163408500Y-110266945D01*
X163408500Y-110133055D01*
X163408499Y-110133053D01*
X163408499Y-110133049D01*
X163373848Y-110003729D01*
X163373848Y-110003728D01*
X163306900Y-109887773D01*
X163212226Y-109793099D01*
X163096271Y-109726151D01*
X162966950Y-109691500D01*
X162966945Y-109691500D01*
X162833055Y-109691500D01*
X162833049Y-109691500D01*
X162703729Y-109726151D01*
X162703728Y-109726151D01*
X162587773Y-109793099D01*
X162493099Y-109887773D01*
X162426151Y-110003728D01*
X162426151Y-110003729D01*
X162391500Y-110133049D01*
X134348539Y-110133049D01*
X134348539Y-107100600D01*
X134367752Y-107041469D01*
X134418052Y-107004924D01*
X134449139Y-107000000D01*
X192865059Y-107000000D01*
X192924190Y-107019213D01*
G37*
%TD.AperFunction*%
%TA.AperFunction,Conductor*%
G36*
X174680964Y-70376652D02*
G01*
X174692968Y-70386904D01*
X177160648Y-72854582D01*
X177509631Y-73203564D01*
X177537857Y-73258962D01*
X177528131Y-73320370D01*
X177484167Y-73364334D01*
X177438496Y-73375299D01*
X176089391Y-73375299D01*
X176056759Y-73377868D01*
X176056742Y-73377870D01*
X176025693Y-73382788D01*
X176025671Y-73382791D01*
X176025663Y-73382793D01*
X176024010Y-73383073D01*
X176021047Y-73383577D01*
X176021042Y-73383578D01*
X175935644Y-73420079D01*
X175935640Y-73420082D01*
X175885350Y-73456619D01*
X175885342Y-73456625D01*
X175857166Y-73481242D01*
X175809528Y-73560975D01*
X175809527Y-73560976D01*
X175790315Y-73620103D01*
X175790314Y-73620108D01*
X175780100Y-73684593D01*
X175780100Y-76310125D01*
X175780101Y-79306249D01*
X175780101Y-79904100D01*
X175760888Y-79963231D01*
X175710588Y-79999776D01*
X175679501Y-80004700D01*
X174971792Y-80004700D01*
X174939160Y-80007269D01*
X174939159Y-80007269D01*
X174939154Y-80007269D01*
X174939151Y-80007270D01*
X174926436Y-80009283D01*
X174865029Y-79999557D01*
X174821066Y-79955592D01*
X174811341Y-79894183D01*
X174821067Y-79864250D01*
X174848039Y-79811316D01*
X174909342Y-79691002D01*
X174968668Y-79508414D01*
X174998701Y-79318793D01*
X174998701Y-79126807D01*
X174968668Y-78937186D01*
X174967126Y-78932439D01*
X174909342Y-78754597D01*
X174822774Y-78584700D01*
X174822182Y-78583538D01*
X174737547Y-78467048D01*
X174709337Y-78428219D01*
X174573581Y-78292463D01*
X174475273Y-78221039D01*
X174418263Y-78179619D01*
X174418257Y-78179616D01*
X174418254Y-78179614D01*
X174247203Y-78092458D01*
X174064624Y-78033135D01*
X174064608Y-78033131D01*
X173875000Y-78003100D01*
X173874994Y-78003100D01*
X173845949Y-78003100D01*
X173845945Y-78003099D01*
X173712055Y-78003099D01*
X173712051Y-78003100D01*
X173115522Y-78003100D01*
X173115506Y-78003099D01*
X173109345Y-78003099D01*
X172975455Y-78003099D01*
X172969294Y-78003099D01*
X172969278Y-78003100D01*
X172611100Y-78003100D01*
X172551969Y-77983887D01*
X172515424Y-77933587D01*
X172510500Y-77902500D01*
X172510500Y-76808097D01*
X172529713Y-76748966D01*
X172580013Y-76712421D01*
X172642187Y-76712421D01*
X172682235Y-76736962D01*
X172730174Y-76784901D01*
X172846126Y-76851847D01*
X172846128Y-76851848D01*
X172975449Y-76886499D01*
X172975453Y-76886499D01*
X172975455Y-76886500D01*
X172975457Y-76886500D01*
X173109343Y-76886500D01*
X173109345Y-76886500D01*
X173109347Y-76886499D01*
X173109350Y-76886499D01*
X173238670Y-76851848D01*
X173238671Y-76851848D01*
X173238671Y-76851847D01*
X173238674Y-76851847D01*
X173354626Y-76784901D01*
X173354626Y-76784900D01*
X173360336Y-76781604D01*
X173362028Y-76784535D01*
X173407408Y-76768131D01*
X173460055Y-76783351D01*
X173461064Y-76781604D01*
X173466773Y-76784900D01*
X173466774Y-76784901D01*
X173582726Y-76851847D01*
X173582728Y-76851848D01*
X173712049Y-76886499D01*
X173712053Y-76886499D01*
X173712055Y-76886500D01*
X173712057Y-76886500D01*
X173845943Y-76886500D01*
X173845945Y-76886500D01*
X173845947Y-76886499D01*
X173845950Y-76886499D01*
X173975270Y-76851848D01*
X173975271Y-76851848D01*
X173975271Y-76851847D01*
X173975274Y-76851847D01*
X174091226Y-76784901D01*
X174185901Y-76690226D01*
X174252847Y-76574274D01*
X174287500Y-76444945D01*
X174287500Y-76311055D01*
X174287499Y-76311053D01*
X174287499Y-76311049D01*
X174252848Y-76181729D01*
X174252848Y-76181728D01*
X174250662Y-76177941D01*
X174189899Y-76072699D01*
X174176973Y-76011885D01*
X174189898Y-75972102D01*
X174252848Y-75863073D01*
X174287501Y-75733744D01*
X174287501Y-75599854D01*
X174287500Y-75599852D01*
X174287500Y-75599848D01*
X174252849Y-75470528D01*
X174252849Y-75470527D01*
X174201160Y-75381001D01*
X174189900Y-75361498D01*
X174176974Y-75300684D01*
X174189899Y-75260901D01*
X174252848Y-75151874D01*
X174287501Y-75022545D01*
X174287501Y-74888655D01*
X174287500Y-74888653D01*
X174287500Y-74888649D01*
X174252849Y-74759329D01*
X174252849Y-74759328D01*
X174185901Y-74643373D01*
X174091227Y-74548699D01*
X173975272Y-74481751D01*
X173845951Y-74447100D01*
X173845946Y-74447100D01*
X173712056Y-74447100D01*
X173712050Y-74447100D01*
X173582730Y-74481751D01*
X173582729Y-74481751D01*
X173461065Y-74551996D01*
X173459461Y-74549218D01*
X173412990Y-74565496D01*
X173361465Y-74550041D01*
X173360337Y-74551996D01*
X173238672Y-74481751D01*
X173109351Y-74447100D01*
X173109346Y-74447100D01*
X172975456Y-74447100D01*
X172975450Y-74447100D01*
X172846130Y-74481751D01*
X172846129Y-74481751D01*
X172730174Y-74548699D01*
X172682235Y-74596639D01*
X172626837Y-74624865D01*
X172565429Y-74615139D01*
X172521465Y-74571175D01*
X172510500Y-74525504D01*
X172510500Y-73380300D01*
X172529713Y-73321169D01*
X172580013Y-73284624D01*
X172611100Y-73279700D01*
X173874995Y-73279700D01*
X173874999Y-73279699D01*
X174064614Y-73249667D01*
X174247202Y-73190341D01*
X174418262Y-73103181D01*
X174573582Y-72990335D01*
X174709335Y-72854582D01*
X174822181Y-72699262D01*
X174909341Y-72528202D01*
X174968667Y-72345614D01*
X174998700Y-72155993D01*
X174998700Y-71964007D01*
X174990086Y-71909623D01*
X174968668Y-71774392D01*
X174968667Y-71774391D01*
X174968667Y-71774386D01*
X174968664Y-71774376D01*
X174909341Y-71591797D01*
X174822185Y-71420746D01*
X174822181Y-71420738D01*
X174709335Y-71265418D01*
X174573582Y-71129665D01*
X174573580Y-71129663D01*
X174474161Y-71057432D01*
X174418262Y-71016819D01*
X174418256Y-71016816D01*
X174418253Y-71016814D01*
X174247202Y-70929658D01*
X174064623Y-70870335D01*
X174064607Y-70870331D01*
X173874999Y-70840300D01*
X173874993Y-70840300D01*
X173845950Y-70840300D01*
X173845946Y-70840299D01*
X173712056Y-70840299D01*
X173712052Y-70840300D01*
X173115523Y-70840300D01*
X173115507Y-70840299D01*
X173109346Y-70840299D01*
X172975456Y-70840299D01*
X172969295Y-70840299D01*
X172969279Y-70840300D01*
X171194800Y-70840300D01*
X171005192Y-70870331D01*
X171005176Y-70870335D01*
X170822597Y-70929658D01*
X170651546Y-71016814D01*
X170651535Y-71016821D01*
X170496219Y-71129663D01*
X170360463Y-71265419D01*
X170247621Y-71420735D01*
X170247614Y-71420746D01*
X170160458Y-71591797D01*
X170101135Y-71774376D01*
X170101131Y-71774392D01*
X170071100Y-71964000D01*
X170071100Y-77251874D01*
X170051887Y-77311005D01*
X170001587Y-77347550D01*
X169939413Y-77347550D01*
X169889113Y-77311005D01*
X169873328Y-77277911D01*
X169858649Y-77223129D01*
X169858649Y-77223128D01*
X169844271Y-77198225D01*
X169791702Y-77107174D01*
X169697027Y-77012499D01*
X169608455Y-76961361D01*
X169581072Y-76945551D01*
X169451751Y-76910900D01*
X169451746Y-76910900D01*
X169317856Y-76910900D01*
X169317850Y-76910900D01*
X169188530Y-76945551D01*
X169188529Y-76945551D01*
X169072574Y-77012499D01*
X168977900Y-77107173D01*
X168910952Y-77223128D01*
X168910952Y-77223129D01*
X168885073Y-77319715D01*
X168851211Y-77371859D01*
X168793166Y-77394140D01*
X168733111Y-77378049D01*
X168693983Y-77329730D01*
X168690729Y-77319715D01*
X168664849Y-77223129D01*
X168664849Y-77223128D01*
X168650471Y-77198225D01*
X168597902Y-77107174D01*
X168503227Y-77012499D01*
X168414655Y-76961361D01*
X168387272Y-76945551D01*
X168257951Y-76910900D01*
X168257946Y-76910900D01*
X168124056Y-76910900D01*
X168124050Y-76910900D01*
X167994730Y-76945551D01*
X167994729Y-76945551D01*
X167878774Y-77012499D01*
X167784100Y-77107173D01*
X167717152Y-77223128D01*
X167717152Y-77223129D01*
X167682501Y-77352449D01*
X167682501Y-77486350D01*
X167717152Y-77615670D01*
X167717152Y-77615671D01*
X167756189Y-77683284D01*
X167784100Y-77731626D01*
X167878775Y-77826301D01*
X167927871Y-77854647D01*
X167994729Y-77893248D01*
X168124050Y-77927899D01*
X168124054Y-77927899D01*
X168124056Y-77927900D01*
X168124058Y-77927900D01*
X168257944Y-77927900D01*
X168257946Y-77927900D01*
X168257948Y-77927899D01*
X168257951Y-77927899D01*
X168387271Y-77893248D01*
X168387272Y-77893248D01*
X168387272Y-77893247D01*
X168387275Y-77893247D01*
X168503227Y-77826301D01*
X168597902Y-77731626D01*
X168664848Y-77615674D01*
X168664849Y-77615670D01*
X168690729Y-77519084D01*
X168724591Y-77466941D01*
X168782635Y-77444659D01*
X168842691Y-77460750D01*
X168881819Y-77509069D01*
X168885073Y-77519084D01*
X168910952Y-77615671D01*
X168949989Y-77683284D01*
X168977900Y-77731626D01*
X169072575Y-77826301D01*
X169121671Y-77854647D01*
X169188529Y-77893248D01*
X169317850Y-77927899D01*
X169317854Y-77927899D01*
X169317856Y-77927900D01*
X169317858Y-77927900D01*
X169451744Y-77927900D01*
X169451746Y-77927900D01*
X169451748Y-77927899D01*
X169451751Y-77927899D01*
X169581071Y-77893248D01*
X169581072Y-77893248D01*
X169581072Y-77893247D01*
X169581075Y-77893247D01*
X169697027Y-77826301D01*
X169791702Y-77731626D01*
X169858648Y-77615674D01*
X169858649Y-77615670D01*
X169873328Y-77560888D01*
X169907190Y-77508745D01*
X169965234Y-77486463D01*
X170025290Y-77502554D01*
X170064418Y-77550873D01*
X170071100Y-77586925D01*
X170071100Y-79050601D01*
X170071099Y-79050608D01*
X170071099Y-79242592D01*
X170071100Y-79242598D01*
X170071100Y-83236500D01*
X170051887Y-83295631D01*
X170001587Y-83332176D01*
X169970500Y-83337100D01*
X151921801Y-83337100D01*
X151862670Y-83317887D01*
X151826125Y-83267587D01*
X151821201Y-83236500D01*
X151821201Y-80698925D01*
X155699900Y-80698925D01*
X155699900Y-80896274D01*
X155730768Y-81091169D01*
X155730772Y-81091185D01*
X155791749Y-81278854D01*
X155881339Y-81454682D01*
X155997329Y-81614329D01*
X155997331Y-81614331D01*
X156136869Y-81753869D01*
X156285731Y-81862024D01*
X156296517Y-81869860D01*
X156296516Y-81869860D01*
X156472345Y-81959450D01*
X156660014Y-82020427D01*
X156660017Y-82020427D01*
X156660024Y-82020430D01*
X156660029Y-82020430D01*
X156660030Y-82020431D01*
X156854925Y-82051299D01*
X156854930Y-82051300D01*
X156854932Y-82051300D01*
X157052270Y-82051300D01*
X157052274Y-82051299D01*
X157075010Y-82047698D01*
X157247176Y-82020430D01*
X157434854Y-81959450D01*
X157610682Y-81869861D01*
X157770331Y-81753869D01*
X157909869Y-81614331D01*
X158025861Y-81454682D01*
X158115450Y-81278854D01*
X158176430Y-81091176D01*
X158207300Y-80896268D01*
X158207300Y-80698932D01*
X158185139Y-80559014D01*
X158176431Y-80504030D01*
X158176430Y-80504029D01*
X158176430Y-80504024D01*
X158156440Y-80442500D01*
X158115450Y-80316345D01*
X158047382Y-80182755D01*
X158025861Y-80140518D01*
X157930514Y-80009284D01*
X157909870Y-79980870D01*
X157770329Y-79841329D01*
X157645792Y-79750848D01*
X157610682Y-79725339D01*
X157610681Y-79725338D01*
X157610679Y-79725337D01*
X157513947Y-79676049D01*
X162475501Y-79676049D01*
X162475501Y-79809950D01*
X162510152Y-79939270D01*
X162510152Y-79939271D01*
X162549412Y-80007270D01*
X162577100Y-80055226D01*
X162671775Y-80149901D01*
X162764705Y-80203555D01*
X162787729Y-80216848D01*
X162917050Y-80251499D01*
X162917054Y-80251499D01*
X162917056Y-80251500D01*
X162917058Y-80251500D01*
X163050944Y-80251500D01*
X163050946Y-80251500D01*
X163050948Y-80251499D01*
X163050951Y-80251499D01*
X163180271Y-80216848D01*
X163180272Y-80216848D01*
X163180272Y-80216847D01*
X163180275Y-80216847D01*
X163296227Y-80149901D01*
X163390902Y-80055226D01*
X163457848Y-79939274D01*
X163476811Y-79868502D01*
X163492500Y-79809950D01*
X163492501Y-79809943D01*
X163492501Y-79676056D01*
X163492500Y-79676049D01*
X163457849Y-79546729D01*
X163457849Y-79546728D01*
X163418615Y-79478774D01*
X163390902Y-79430774D01*
X163296227Y-79336099D01*
X163202644Y-79282068D01*
X163180272Y-79269151D01*
X163050951Y-79234500D01*
X163050946Y-79234500D01*
X162917056Y-79234500D01*
X162917050Y-79234500D01*
X162787730Y-79269151D01*
X162787729Y-79269151D01*
X162671774Y-79336099D01*
X162577100Y-79430773D01*
X162510152Y-79546728D01*
X162510152Y-79546729D01*
X162475501Y-79676049D01*
X157513947Y-79676049D01*
X157434854Y-79635749D01*
X157247185Y-79574772D01*
X157247169Y-79574768D01*
X157052274Y-79543900D01*
X157052268Y-79543900D01*
X156854932Y-79543900D01*
X156854925Y-79543900D01*
X156660030Y-79574768D01*
X156660014Y-79574772D01*
X156472345Y-79635749D01*
X156296517Y-79725339D01*
X156136870Y-79841329D01*
X155997329Y-79980870D01*
X155881339Y-80140517D01*
X155791749Y-80316345D01*
X155730772Y-80504014D01*
X155730768Y-80504030D01*
X155699900Y-80698925D01*
X151821201Y-80698925D01*
X151821201Y-77313849D01*
X152290100Y-77313849D01*
X152290100Y-77447750D01*
X152324751Y-77577070D01*
X152324751Y-77577071D01*
X152347037Y-77615670D01*
X152391699Y-77693026D01*
X152486374Y-77787701D01*
X152602326Y-77854647D01*
X152602328Y-77854648D01*
X152731649Y-77889299D01*
X152731653Y-77889299D01*
X152731655Y-77889300D01*
X152731657Y-77889300D01*
X152865543Y-77889300D01*
X152865545Y-77889300D01*
X152865547Y-77889299D01*
X152865550Y-77889299D01*
X152994870Y-77854648D01*
X152994871Y-77854648D01*
X152994871Y-77854647D01*
X152994874Y-77854647D01*
X153110826Y-77787701D01*
X153205501Y-77693026D01*
X153272447Y-77577074D01*
X153290669Y-77509069D01*
X153307099Y-77447750D01*
X153307100Y-77447743D01*
X153307100Y-77313856D01*
X153307099Y-77313849D01*
X153272448Y-77184529D01*
X153272448Y-77184528D01*
X153227787Y-77107174D01*
X153205501Y-77068574D01*
X153110826Y-76973899D01*
X152994874Y-76906953D01*
X152994868Y-76906950D01*
X152865550Y-76872300D01*
X152865545Y-76872300D01*
X152731655Y-76872300D01*
X152731649Y-76872300D01*
X152602329Y-76906951D01*
X152602328Y-76906951D01*
X152486373Y-76973899D01*
X152391699Y-77068573D01*
X152324751Y-77184528D01*
X152324751Y-77184529D01*
X152290100Y-77313849D01*
X151821201Y-77313849D01*
X151821201Y-77286783D01*
X151821200Y-77286777D01*
X151785683Y-77154226D01*
X151785683Y-77154225D01*
X151744139Y-77082270D01*
X151717064Y-77035375D01*
X151620025Y-76938336D01*
X151581581Y-76916140D01*
X151501174Y-76869716D01*
X151368622Y-76834199D01*
X151368618Y-76834199D01*
X151231384Y-76834199D01*
X151231379Y-76834199D01*
X151098828Y-76869716D01*
X151098827Y-76869716D01*
X150979976Y-76938336D01*
X150882938Y-77035374D01*
X150814318Y-77154225D01*
X150814318Y-77154226D01*
X150778801Y-77286777D01*
X150778801Y-83236500D01*
X150759588Y-83295631D01*
X150709288Y-83332176D01*
X150678201Y-83337100D01*
X146697601Y-83337100D01*
X146507993Y-83367131D01*
X146507977Y-83367135D01*
X146325398Y-83426458D01*
X146154347Y-83513614D01*
X146154336Y-83513621D01*
X145999020Y-83626463D01*
X145863264Y-83762219D01*
X145750422Y-83917535D01*
X145750415Y-83917546D01*
X145663259Y-84088597D01*
X145603936Y-84271176D01*
X145603932Y-84271192D01*
X145573901Y-84460800D01*
X145573901Y-88099076D01*
X145571123Y-88122555D01*
X145570768Y-88124031D01*
X145539900Y-88318925D01*
X145539900Y-88516274D01*
X145570768Y-88711169D01*
X145570772Y-88711185D01*
X145631749Y-88898854D01*
X145721339Y-89074682D01*
X145837329Y-89234329D01*
X145976870Y-89373870D01*
X146136517Y-89489860D01*
X146136516Y-89489860D01*
X146312345Y-89579450D01*
X146500014Y-89640427D01*
X146500017Y-89640427D01*
X146500024Y-89640430D01*
X146500029Y-89640430D01*
X146500030Y-89640431D01*
X146694925Y-89671299D01*
X146694930Y-89671300D01*
X146694932Y-89671300D01*
X146892270Y-89671300D01*
X146892274Y-89671299D01*
X147025515Y-89650196D01*
X147087176Y-89640430D01*
X147274854Y-89579450D01*
X147450682Y-89489861D01*
X147610331Y-89373869D01*
X147749869Y-89234331D01*
X147865861Y-89074682D01*
X147955450Y-88898854D01*
X148016430Y-88711176D01*
X148047300Y-88516268D01*
X148047300Y-88318932D01*
X148047299Y-88318925D01*
X155699900Y-88318925D01*
X155699900Y-88516274D01*
X155730768Y-88711169D01*
X155730772Y-88711185D01*
X155791749Y-88898854D01*
X155881339Y-89074682D01*
X155997329Y-89234329D01*
X156136870Y-89373870D01*
X156296517Y-89489860D01*
X156296516Y-89489860D01*
X156472345Y-89579450D01*
X156660014Y-89640427D01*
X156660017Y-89640427D01*
X156660024Y-89640430D01*
X156660029Y-89640430D01*
X156660030Y-89640431D01*
X156854925Y-89671299D01*
X156854930Y-89671300D01*
X156854932Y-89671300D01*
X157052270Y-89671300D01*
X157052274Y-89671299D01*
X157185515Y-89650196D01*
X157247176Y-89640430D01*
X157434854Y-89579450D01*
X157610682Y-89489861D01*
X157770331Y-89373869D01*
X157909869Y-89234331D01*
X158025861Y-89074682D01*
X158115450Y-88898854D01*
X158117090Y-88893807D01*
X158162501Y-88754048D01*
X183720300Y-88754048D01*
X183720300Y-88887949D01*
X183754951Y-89017269D01*
X183754951Y-89017270D01*
X183785726Y-89070572D01*
X183821899Y-89133225D01*
X183916574Y-89227900D01*
X183927713Y-89234331D01*
X184032528Y-89294847D01*
X184161849Y-89329498D01*
X184161853Y-89329498D01*
X184161855Y-89329499D01*
X184161857Y-89329499D01*
X184295743Y-89329499D01*
X184295745Y-89329499D01*
X184295747Y-89329498D01*
X184295750Y-89329498D01*
X184425070Y-89294847D01*
X184425071Y-89294847D01*
X184425071Y-89294846D01*
X184425074Y-89294846D01*
X184541026Y-89227900D01*
X184635701Y-89133225D01*
X184702647Y-89017273D01*
X184731671Y-88908952D01*
X184737299Y-88887949D01*
X184737300Y-88887942D01*
X184737300Y-88754055D01*
X184737299Y-88754048D01*
X184702648Y-88624728D01*
X184702648Y-88624727D01*
X184702647Y-88624725D01*
X184635701Y-88508773D01*
X184541026Y-88414098D01*
X184425074Y-88347152D01*
X184425071Y-88347150D01*
X184295750Y-88312499D01*
X184295745Y-88312499D01*
X184161855Y-88312499D01*
X184161849Y-88312499D01*
X184032529Y-88347150D01*
X184032528Y-88347150D01*
X183916573Y-88414098D01*
X183821899Y-88508772D01*
X183754951Y-88624727D01*
X183754951Y-88624728D01*
X183720300Y-88754048D01*
X158162501Y-88754048D01*
X158174742Y-88716373D01*
X158176427Y-88711185D01*
X158176430Y-88711176D01*
X158207300Y-88516268D01*
X158207300Y-88318932D01*
X158176430Y-88124024D01*
X158168324Y-88099076D01*
X158125978Y-87968747D01*
X158118018Y-87944248D01*
X181728700Y-87944248D01*
X181728700Y-88078149D01*
X181763351Y-88207469D01*
X181763351Y-88207470D01*
X181763353Y-88207473D01*
X181830299Y-88323425D01*
X181924974Y-88418100D01*
X182040926Y-88485046D01*
X182040928Y-88485047D01*
X182170249Y-88519698D01*
X182170253Y-88519698D01*
X182170255Y-88519699D01*
X182170257Y-88519699D01*
X182304143Y-88519699D01*
X182304145Y-88519699D01*
X182304147Y-88519698D01*
X182304150Y-88519698D01*
X182433470Y-88485047D01*
X182433471Y-88485047D01*
X182433471Y-88485046D01*
X182433474Y-88485046D01*
X182549426Y-88418100D01*
X182644101Y-88323425D01*
X182711047Y-88207473D01*
X182733405Y-88124030D01*
X182745699Y-88078149D01*
X182745700Y-88078142D01*
X182745700Y-87944255D01*
X182745699Y-87944248D01*
X182711048Y-87814928D01*
X182711048Y-87814927D01*
X182711047Y-87814925D01*
X182644101Y-87698973D01*
X182549426Y-87604298D01*
X182433474Y-87537352D01*
X182433471Y-87537350D01*
X182304150Y-87502699D01*
X182304145Y-87502699D01*
X182170255Y-87502699D01*
X182170249Y-87502699D01*
X182040929Y-87537350D01*
X182040928Y-87537350D01*
X181924973Y-87604298D01*
X181830299Y-87698972D01*
X181763351Y-87814927D01*
X181763351Y-87814928D01*
X181728700Y-87944248D01*
X158118018Y-87944248D01*
X158115450Y-87936345D01*
X158025860Y-87760517D01*
X157909870Y-87600870D01*
X157770329Y-87461329D01*
X157610682Y-87345339D01*
X157610683Y-87345339D01*
X157434854Y-87255749D01*
X157247185Y-87194772D01*
X157247169Y-87194768D01*
X157052274Y-87163900D01*
X157052268Y-87163900D01*
X156854932Y-87163900D01*
X156854925Y-87163900D01*
X156660030Y-87194768D01*
X156660014Y-87194772D01*
X156472345Y-87255749D01*
X156296517Y-87345339D01*
X156136870Y-87461329D01*
X155997329Y-87600870D01*
X155881339Y-87760517D01*
X155791749Y-87936345D01*
X155730772Y-88124014D01*
X155730768Y-88124030D01*
X155699900Y-88318925D01*
X148047299Y-88318925D01*
X148046281Y-88312499D01*
X148016431Y-88124029D01*
X148016080Y-88122567D01*
X148013301Y-88099085D01*
X148013301Y-86915049D01*
X162475501Y-86915049D01*
X162475501Y-87048950D01*
X162510152Y-87178270D01*
X162510152Y-87178271D01*
X162555249Y-87256379D01*
X162577100Y-87294226D01*
X162671775Y-87388901D01*
X162787727Y-87455847D01*
X162787729Y-87455848D01*
X162917050Y-87490499D01*
X162917054Y-87490499D01*
X162917056Y-87490500D01*
X162917058Y-87490500D01*
X163050944Y-87490500D01*
X163050946Y-87490500D01*
X163050948Y-87490499D01*
X163050951Y-87490499D01*
X163180271Y-87455848D01*
X163180272Y-87455848D01*
X163180272Y-87455847D01*
X163180275Y-87455847D01*
X163296227Y-87388901D01*
X163390902Y-87294226D01*
X163457848Y-87178274D01*
X163492501Y-87048945D01*
X163492501Y-86915055D01*
X163492500Y-86915053D01*
X163492500Y-86915049D01*
X163457849Y-86785729D01*
X163457849Y-86785728D01*
X163435728Y-86747414D01*
X163390902Y-86669774D01*
X163296227Y-86575099D01*
X163180275Y-86508153D01*
X163180272Y-86508151D01*
X163050951Y-86473500D01*
X163050946Y-86473500D01*
X162917056Y-86473500D01*
X162917050Y-86473500D01*
X162787730Y-86508151D01*
X162787729Y-86508151D01*
X162671774Y-86575099D01*
X162577100Y-86669773D01*
X162510152Y-86785728D01*
X162510152Y-86785729D01*
X162475501Y-86915049D01*
X148013301Y-86915049D01*
X148013301Y-85877100D01*
X148032514Y-85817969D01*
X148082814Y-85781424D01*
X148113901Y-85776500D01*
X151204008Y-85776500D01*
X169970500Y-85776500D01*
X170029631Y-85795713D01*
X170066176Y-85846013D01*
X170071100Y-85877100D01*
X170071100Y-86557798D01*
X170101131Y-86747406D01*
X170101135Y-86747422D01*
X170160458Y-86930001D01*
X170247614Y-87101052D01*
X170247619Y-87101061D01*
X170293274Y-87163900D01*
X170360463Y-87256379D01*
X170496219Y-87392135D01*
X170535048Y-87420345D01*
X170651538Y-87504980D01*
X170651546Y-87504984D01*
X170822597Y-87592140D01*
X171005176Y-87651463D01*
X171005179Y-87651463D01*
X171005186Y-87651466D01*
X171005191Y-87651466D01*
X171005192Y-87651467D01*
X171194800Y-87681498D01*
X171194805Y-87681499D01*
X171194807Y-87681499D01*
X173712054Y-87681499D01*
X173712055Y-87681500D01*
X173845945Y-87681500D01*
X173845945Y-87681499D01*
X173874994Y-87681500D01*
X174064615Y-87651467D01*
X174247203Y-87592141D01*
X174418263Y-87504981D01*
X174573583Y-87392135D01*
X174709336Y-87256382D01*
X174822182Y-87101062D01*
X174909342Y-86930002D01*
X174968668Y-86747414D01*
X174998701Y-86557793D01*
X174998701Y-86365807D01*
X174968668Y-86176186D01*
X174935597Y-86074402D01*
X174909342Y-85993597D01*
X174822186Y-85822546D01*
X174822182Y-85822538D01*
X174709336Y-85667218D01*
X174573583Y-85531465D01*
X174573581Y-85531463D01*
X174477211Y-85461447D01*
X174418263Y-85418619D01*
X174418257Y-85418616D01*
X174418254Y-85418614D01*
X174247203Y-85331458D01*
X174064624Y-85272135D01*
X174064608Y-85272131D01*
X173875000Y-85242100D01*
X173874995Y-85242099D01*
X172611100Y-85242099D01*
X172551969Y-85222886D01*
X172515424Y-85172586D01*
X172510500Y-85141499D01*
X172510500Y-84920648D01*
X181728700Y-84920648D01*
X181728700Y-85054549D01*
X181763351Y-85183869D01*
X181763351Y-85183870D01*
X181796970Y-85242099D01*
X181830299Y-85299825D01*
X181924974Y-85394500D01*
X182040926Y-85461446D01*
X182040928Y-85461447D01*
X182170249Y-85496098D01*
X182170253Y-85496098D01*
X182170255Y-85496099D01*
X182170257Y-85496099D01*
X182304143Y-85496099D01*
X182304145Y-85496099D01*
X182304147Y-85496098D01*
X182304150Y-85496098D01*
X182433470Y-85461447D01*
X182433471Y-85461447D01*
X182433471Y-85461446D01*
X182433474Y-85461446D01*
X182549426Y-85394500D01*
X182644101Y-85299825D01*
X182711047Y-85183873D01*
X182745700Y-85054544D01*
X182745700Y-84920654D01*
X182745699Y-84920652D01*
X182745699Y-84920648D01*
X182711048Y-84791328D01*
X182711048Y-84791327D01*
X182682785Y-84742375D01*
X182644101Y-84675373D01*
X182549426Y-84580698D01*
X182433474Y-84513752D01*
X182433471Y-84513750D01*
X182304150Y-84479099D01*
X182304145Y-84479099D01*
X182170255Y-84479099D01*
X182170249Y-84479099D01*
X182040929Y-84513750D01*
X182040928Y-84513750D01*
X181924973Y-84580698D01*
X181830299Y-84675372D01*
X181763351Y-84791327D01*
X181763351Y-84791328D01*
X181728700Y-84920648D01*
X172510500Y-84920648D01*
X172510500Y-84404965D01*
X172510500Y-84398792D01*
X172510501Y-84398789D01*
X172510501Y-84312049D01*
X178756900Y-84312049D01*
X178756900Y-84445950D01*
X178791551Y-84575270D01*
X178791551Y-84575271D01*
X178849346Y-84675372D01*
X178858499Y-84691226D01*
X178953174Y-84785901D01*
X179069126Y-84852847D01*
X179069128Y-84852848D01*
X179198449Y-84887499D01*
X179198453Y-84887499D01*
X179198455Y-84887500D01*
X179198457Y-84887500D01*
X179332343Y-84887500D01*
X179332345Y-84887500D01*
X179332347Y-84887499D01*
X179332350Y-84887499D01*
X179461670Y-84852848D01*
X179461671Y-84852848D01*
X179461671Y-84852847D01*
X179461674Y-84852847D01*
X179577626Y-84785901D01*
X179672301Y-84691226D01*
X179739247Y-84575274D01*
X179745292Y-84552712D01*
X179773899Y-84445950D01*
X179773900Y-84445943D01*
X179773900Y-84312056D01*
X179773899Y-84312049D01*
X179739248Y-84182729D01*
X179739248Y-84182728D01*
X179684901Y-84088598D01*
X179672301Y-84066774D01*
X179577626Y-83972099D01*
X179573651Y-83969804D01*
X179461671Y-83905151D01*
X179332350Y-83870500D01*
X179332345Y-83870500D01*
X179198455Y-83870500D01*
X179198449Y-83870500D01*
X179069129Y-83905151D01*
X179069128Y-83905151D01*
X178953173Y-83972099D01*
X178858499Y-84066773D01*
X178791551Y-84182728D01*
X178791551Y-84182729D01*
X178756900Y-84312049D01*
X172510501Y-84312049D01*
X172510501Y-84206805D01*
X172510501Y-84203250D01*
X172510500Y-84203220D01*
X172510500Y-83996297D01*
X172529713Y-83937166D01*
X172580013Y-83900621D01*
X172642187Y-83900621D01*
X172682235Y-83925162D01*
X172730174Y-83973101D01*
X172846126Y-84040047D01*
X172846128Y-84040048D01*
X172975449Y-84074699D01*
X172975453Y-84074699D01*
X172975455Y-84074700D01*
X172975457Y-84074700D01*
X173109343Y-84074700D01*
X173109345Y-84074700D01*
X173109347Y-84074699D01*
X173109350Y-84074699D01*
X173238670Y-84040048D01*
X173238671Y-84040048D01*
X173238671Y-84040047D01*
X173238674Y-84040047D01*
X173354626Y-83973101D01*
X173354626Y-83973100D01*
X173360336Y-83969804D01*
X173362028Y-83972735D01*
X173407408Y-83956331D01*
X173460055Y-83971551D01*
X173461064Y-83969804D01*
X173582728Y-84040048D01*
X173712049Y-84074699D01*
X173712053Y-84074699D01*
X173712055Y-84074700D01*
X173712057Y-84074700D01*
X173845943Y-84074700D01*
X173845945Y-84074700D01*
X173845947Y-84074699D01*
X173845950Y-84074699D01*
X173975270Y-84040048D01*
X173975271Y-84040048D01*
X173975271Y-84040047D01*
X173975274Y-84040047D01*
X174091226Y-83973101D01*
X174185901Y-83878426D01*
X174252847Y-83762474D01*
X174287500Y-83633145D01*
X174287500Y-83499255D01*
X174287499Y-83499253D01*
X174287499Y-83499249D01*
X174252848Y-83369929D01*
X174252848Y-83369928D01*
X174252847Y-83369926D01*
X174189899Y-83260899D01*
X174176973Y-83200085D01*
X174189898Y-83160302D01*
X174252848Y-83051273D01*
X174287501Y-82921944D01*
X174287501Y-82788054D01*
X174287500Y-82788052D01*
X174287500Y-82788048D01*
X174252849Y-82658728D01*
X174252849Y-82658727D01*
X174189901Y-82549700D01*
X174176974Y-82488884D01*
X174189899Y-82449101D01*
X174252848Y-82340074D01*
X174287501Y-82210745D01*
X174287501Y-82076855D01*
X174287500Y-82076853D01*
X174287500Y-82076849D01*
X174252849Y-81947529D01*
X174252849Y-81947528D01*
X174249515Y-81941754D01*
X174185902Y-81831574D01*
X174091227Y-81736899D01*
X173975275Y-81669953D01*
X173975272Y-81669951D01*
X173845951Y-81635300D01*
X173845946Y-81635300D01*
X173712056Y-81635300D01*
X173712050Y-81635300D01*
X173582730Y-81669951D01*
X173582729Y-81669951D01*
X173461065Y-81740196D01*
X173459461Y-81737418D01*
X173412990Y-81753696D01*
X173361465Y-81738241D01*
X173360337Y-81740196D01*
X173238672Y-81669951D01*
X173109351Y-81635300D01*
X173109346Y-81635300D01*
X172975456Y-81635300D01*
X172975450Y-81635300D01*
X172846130Y-81669951D01*
X172846129Y-81669951D01*
X172730174Y-81736899D01*
X172682235Y-81784839D01*
X172626837Y-81813065D01*
X172565429Y-81803339D01*
X172521465Y-81759375D01*
X172510500Y-81713704D01*
X172510500Y-80543100D01*
X172529713Y-80483969D01*
X172580013Y-80447424D01*
X172611100Y-80442500D01*
X173874996Y-80442500D01*
X173875000Y-80442499D01*
X174064615Y-80412467D01*
X174247203Y-80353141D01*
X174418263Y-80265981D01*
X174506370Y-80201967D01*
X174565500Y-80182755D01*
X174624631Y-80201968D01*
X174661176Y-80252268D01*
X174664862Y-80299090D01*
X174662500Y-80313998D01*
X174662500Y-81738407D01*
X174664151Y-81759375D01*
X174665070Y-81771049D01*
X174669994Y-81802136D01*
X174670778Y-81806751D01*
X174670779Y-81806756D01*
X174707280Y-81892154D01*
X174707281Y-81892156D01*
X174707282Y-81892157D01*
X174743827Y-81942457D01*
X174768444Y-81970633D01*
X174848177Y-82018271D01*
X174907308Y-82037484D01*
X174971795Y-82047698D01*
X174971797Y-82047699D01*
X174971800Y-82047699D01*
X188384991Y-82047699D01*
X188385001Y-82047699D01*
X188417651Y-82045129D01*
X188448738Y-82040205D01*
X188453353Y-82039421D01*
X188538759Y-82002917D01*
X188589059Y-81966372D01*
X188617235Y-81941755D01*
X188664873Y-81862022D01*
X188684086Y-81802891D01*
X188694301Y-81738399D01*
X188694300Y-75628209D01*
X188713513Y-75569079D01*
X188763813Y-75532534D01*
X188820939Y-75531039D01*
X188830080Y-75533488D01*
X188850789Y-75539038D01*
X188850793Y-75539038D01*
X188850795Y-75539039D01*
X189512259Y-75539039D01*
X189571390Y-75558252D01*
X189607935Y-75608552D01*
X189612859Y-75639639D01*
X189612859Y-86181708D01*
X189640759Y-86285831D01*
X189640761Y-86285836D01*
X189640762Y-86285838D01*
X189694665Y-86379202D01*
X192936195Y-89620732D01*
X192964420Y-89676128D01*
X192965659Y-89691865D01*
X192965659Y-92899400D01*
X192946446Y-92958531D01*
X192896146Y-92995076D01*
X192865059Y-93000000D01*
X134449139Y-93000000D01*
X134390008Y-92980787D01*
X134353463Y-92930487D01*
X134348539Y-92899400D01*
X134348539Y-90738249D01*
X172533900Y-90738249D01*
X172533900Y-90872150D01*
X172568551Y-91001470D01*
X172568551Y-91001471D01*
X172568553Y-91001474D01*
X172635499Y-91117426D01*
X172730174Y-91212101D01*
X172846126Y-91279047D01*
X172846128Y-91279048D01*
X172975449Y-91313699D01*
X172975453Y-91313699D01*
X172975455Y-91313700D01*
X172975457Y-91313700D01*
X173109343Y-91313700D01*
X173109345Y-91313700D01*
X173109347Y-91313699D01*
X173109350Y-91313699D01*
X173238670Y-91279048D01*
X173238671Y-91279048D01*
X173238671Y-91279047D01*
X173238674Y-91279047D01*
X173354626Y-91212101D01*
X173354626Y-91212100D01*
X173360336Y-91208804D01*
X173362028Y-91211735D01*
X173407408Y-91195331D01*
X173460055Y-91210551D01*
X173461064Y-91208804D01*
X173582728Y-91279048D01*
X173712049Y-91313699D01*
X173712053Y-91313699D01*
X173712055Y-91313700D01*
X173712057Y-91313700D01*
X173845943Y-91313700D01*
X173845945Y-91313700D01*
X173845947Y-91313699D01*
X173845950Y-91313699D01*
X173975270Y-91279048D01*
X173975271Y-91279048D01*
X173975271Y-91279047D01*
X173975274Y-91279047D01*
X174091226Y-91212101D01*
X174185901Y-91117426D01*
X174252847Y-91001474D01*
X174287500Y-90872145D01*
X174287500Y-90738255D01*
X174287499Y-90738253D01*
X174287499Y-90738249D01*
X174252848Y-90608929D01*
X174252848Y-90608928D01*
X174189900Y-90499901D01*
X174176973Y-90439085D01*
X174189898Y-90399302D01*
X174252848Y-90290273D01*
X174287501Y-90160944D01*
X174287501Y-90027054D01*
X174287500Y-90027052D01*
X174287500Y-90027048D01*
X174252849Y-89897728D01*
X174252849Y-89897727D01*
X174252847Y-89897723D01*
X174189899Y-89788696D01*
X174186009Y-89770393D01*
X174177590Y-89753682D01*
X174179872Y-89741522D01*
X174176973Y-89727883D01*
X174187596Y-89692318D01*
X174188692Y-89690190D01*
X174244085Y-89594249D01*
X181728701Y-89594249D01*
X181728701Y-89728150D01*
X181763352Y-89857470D01*
X181763352Y-89857471D01*
X181763354Y-89857474D01*
X181830300Y-89973426D01*
X181924975Y-90068101D01*
X182040927Y-90135047D01*
X182040929Y-90135048D01*
X182170250Y-90169699D01*
X182170254Y-90169699D01*
X182170256Y-90169700D01*
X182170258Y-90169700D01*
X182304144Y-90169700D01*
X182304146Y-90169700D01*
X182304148Y-90169699D01*
X182304151Y-90169699D01*
X182433471Y-90135048D01*
X182433472Y-90135048D01*
X182433472Y-90135047D01*
X182433475Y-90135047D01*
X182549427Y-90068101D01*
X182644102Y-89973426D01*
X182711048Y-89857474D01*
X182742117Y-89741522D01*
X182745700Y-89728150D01*
X182745701Y-89728143D01*
X182745701Y-89594256D01*
X182745700Y-89594249D01*
X182711049Y-89464929D01*
X182711049Y-89464928D01*
X182702283Y-89449745D01*
X182644102Y-89348974D01*
X182549427Y-89254299D01*
X182514839Y-89234329D01*
X182433472Y-89187351D01*
X182304151Y-89152700D01*
X182304146Y-89152700D01*
X182170256Y-89152700D01*
X182170250Y-89152700D01*
X182040930Y-89187351D01*
X182040929Y-89187351D01*
X181924974Y-89254299D01*
X181830300Y-89348973D01*
X181763352Y-89464928D01*
X181763352Y-89464929D01*
X181728701Y-89594249D01*
X174244085Y-89594249D01*
X174252847Y-89579073D01*
X174283432Y-89464926D01*
X174287499Y-89449749D01*
X174287500Y-89449742D01*
X174287500Y-89315855D01*
X174287499Y-89315848D01*
X174252848Y-89186528D01*
X174252848Y-89186527D01*
X174233318Y-89152700D01*
X174185901Y-89070573D01*
X174091226Y-88975898D01*
X173975274Y-88908952D01*
X173975271Y-88908950D01*
X173845950Y-88874299D01*
X173845945Y-88874299D01*
X173712055Y-88874299D01*
X173712049Y-88874299D01*
X173582729Y-88908950D01*
X173582728Y-88908950D01*
X173461064Y-88979195D01*
X173459531Y-88976540D01*
X173412226Y-88992709D01*
X173361552Y-88977090D01*
X173360337Y-88979196D01*
X173238672Y-88908951D01*
X173109351Y-88874300D01*
X173109346Y-88874300D01*
X172975456Y-88874300D01*
X172975450Y-88874300D01*
X172846130Y-88908951D01*
X172846129Y-88908951D01*
X172730174Y-88975899D01*
X172635500Y-89070573D01*
X172568552Y-89186528D01*
X172568552Y-89186529D01*
X172533901Y-89315849D01*
X172533901Y-89449750D01*
X172568552Y-89579070D01*
X172568554Y-89579075D01*
X172631500Y-89688099D01*
X172644427Y-89748914D01*
X172631500Y-89788699D01*
X172568554Y-89897723D01*
X172568552Y-89897728D01*
X172533901Y-90027048D01*
X172533901Y-90160949D01*
X172568552Y-90290269D01*
X172568554Y-90290274D01*
X172631500Y-90399298D01*
X172644427Y-90460113D01*
X172631500Y-90499898D01*
X172568553Y-90608924D01*
X172568551Y-90608929D01*
X172533900Y-90738249D01*
X134348539Y-90738249D01*
X134348539Y-89412466D01*
X134367752Y-89353335D01*
X134378004Y-89341331D01*
X135400410Y-88318925D01*
X137919900Y-88318925D01*
X137919900Y-88516274D01*
X137950768Y-88711169D01*
X137950772Y-88711185D01*
X138011749Y-88898854D01*
X138101339Y-89074682D01*
X138217329Y-89234329D01*
X138356870Y-89373870D01*
X138516517Y-89489860D01*
X138516516Y-89489860D01*
X138692345Y-89579450D01*
X138880014Y-89640427D01*
X138880017Y-89640427D01*
X138880024Y-89640430D01*
X138880029Y-89640430D01*
X138880030Y-89640431D01*
X139074925Y-89671299D01*
X139074930Y-89671300D01*
X139074932Y-89671300D01*
X139272270Y-89671300D01*
X139272274Y-89671299D01*
X139405515Y-89650196D01*
X139467176Y-89640430D01*
X139654854Y-89579450D01*
X139830682Y-89489861D01*
X139990331Y-89373869D01*
X140129869Y-89234331D01*
X140245861Y-89074682D01*
X140335450Y-88898854D01*
X140396430Y-88711176D01*
X140427300Y-88516268D01*
X140427300Y-88318932D01*
X140396430Y-88124024D01*
X140388324Y-88099076D01*
X140335450Y-87936345D01*
X140245860Y-87760517D01*
X140129870Y-87600870D01*
X139990329Y-87461329D01*
X139830682Y-87345339D01*
X139830683Y-87345339D01*
X139654854Y-87255749D01*
X139467185Y-87194772D01*
X139467169Y-87194768D01*
X139272274Y-87163900D01*
X139272268Y-87163900D01*
X139074932Y-87163900D01*
X139074925Y-87163900D01*
X138880030Y-87194768D01*
X138880014Y-87194772D01*
X138692345Y-87255749D01*
X138516517Y-87345339D01*
X138356870Y-87461329D01*
X138217329Y-87600870D01*
X138101339Y-87760517D01*
X138011749Y-87936345D01*
X137950772Y-88124014D01*
X137950768Y-88124030D01*
X137919900Y-88318925D01*
X135400410Y-88318925D01*
X135475491Y-88243844D01*
X136555435Y-87163900D01*
X137644934Y-86074401D01*
X137656193Y-86054899D01*
X137698837Y-85981037D01*
X137713128Y-85927703D01*
X137726741Y-85876903D01*
X137726741Y-85769095D01*
X137726741Y-85757391D01*
X137726739Y-85757373D01*
X137726739Y-80954942D01*
X137745952Y-80895811D01*
X137796252Y-80859266D01*
X137858426Y-80859266D01*
X137908726Y-80895811D01*
X137926700Y-80939205D01*
X137950768Y-81091169D01*
X137950772Y-81091185D01*
X138011749Y-81278854D01*
X138101339Y-81454682D01*
X138217329Y-81614329D01*
X138217331Y-81614331D01*
X138356869Y-81753869D01*
X138505731Y-81862024D01*
X138516517Y-81869860D01*
X138516516Y-81869860D01*
X138692345Y-81959450D01*
X138880014Y-82020427D01*
X138880017Y-82020427D01*
X138880024Y-82020430D01*
X138880029Y-82020430D01*
X138880030Y-82020431D01*
X139074925Y-82051299D01*
X139074930Y-82051300D01*
X139074932Y-82051300D01*
X139272270Y-82051300D01*
X139272274Y-82051299D01*
X139295010Y-82047698D01*
X139467176Y-82020430D01*
X139654854Y-81959450D01*
X139830682Y-81869861D01*
X139990331Y-81753869D01*
X140129869Y-81614331D01*
X140245861Y-81454682D01*
X140335450Y-81278854D01*
X140396430Y-81091176D01*
X140427300Y-80896268D01*
X140427300Y-80698932D01*
X140405139Y-80559014D01*
X140396431Y-80504030D01*
X140396430Y-80504029D01*
X140396430Y-80504024D01*
X140376440Y-80442500D01*
X140335450Y-80316345D01*
X140267382Y-80182755D01*
X140245861Y-80140518D01*
X140150514Y-80009284D01*
X140129870Y-79980870D01*
X139990329Y-79841329D01*
X139830682Y-79725339D01*
X139830683Y-79725339D01*
X139654854Y-79635749D01*
X139467185Y-79574772D01*
X139467169Y-79574768D01*
X139272274Y-79543900D01*
X139272268Y-79543900D01*
X139074932Y-79543900D01*
X139074925Y-79543900D01*
X138880030Y-79574768D01*
X138880014Y-79574772D01*
X138692345Y-79635749D01*
X138516517Y-79725339D01*
X138356870Y-79841329D01*
X138217329Y-79980870D01*
X138101339Y-80140517D01*
X138011749Y-80316345D01*
X137950772Y-80504014D01*
X137950768Y-80504030D01*
X137926700Y-80655994D01*
X137898474Y-80711392D01*
X137843076Y-80739618D01*
X137781668Y-80729892D01*
X137737704Y-80685928D01*
X137726739Y-80640257D01*
X137726739Y-76819048D01*
X159021101Y-76819048D01*
X159021101Y-76952949D01*
X159055752Y-77082269D01*
X159055752Y-77082270D01*
X159055754Y-77082273D01*
X159122700Y-77198225D01*
X159217375Y-77292900D01*
X159320526Y-77352455D01*
X159333329Y-77359847D01*
X159462650Y-77394498D01*
X159462654Y-77394498D01*
X159462656Y-77394499D01*
X159462658Y-77394499D01*
X159596544Y-77394499D01*
X159596546Y-77394499D01*
X159596548Y-77394498D01*
X159596551Y-77394498D01*
X159725871Y-77359847D01*
X159725872Y-77359847D01*
X159725872Y-77359846D01*
X159725875Y-77359846D01*
X159841827Y-77292900D01*
X159936502Y-77198225D01*
X160003448Y-77082273D01*
X160016014Y-77035374D01*
X160038100Y-76952949D01*
X160038101Y-76952942D01*
X160038101Y-76819055D01*
X160038100Y-76819048D01*
X160003449Y-76689728D01*
X160003449Y-76689727D01*
X159992024Y-76669939D01*
X159936502Y-76573773D01*
X159841827Y-76479098D01*
X159725875Y-76412152D01*
X159725872Y-76412150D01*
X159596551Y-76377499D01*
X159596546Y-76377499D01*
X159462656Y-76377499D01*
X159462650Y-76377499D01*
X159333330Y-76412150D01*
X159333329Y-76412150D01*
X159217374Y-76479098D01*
X159122700Y-76573772D01*
X159055752Y-76689727D01*
X159055752Y-76689728D01*
X159021101Y-76819048D01*
X137726739Y-76819048D01*
X137726739Y-75639639D01*
X137745952Y-75580508D01*
X137796252Y-75543963D01*
X137827339Y-75539039D01*
X139174601Y-75539039D01*
X139174603Y-75539039D01*
X139278737Y-75511136D01*
X139372101Y-75457233D01*
X139448333Y-75381001D01*
X139502236Y-75287637D01*
X139507545Y-75267826D01*
X139530138Y-75183507D01*
X139530139Y-75183501D01*
X139530139Y-73836238D01*
X139549352Y-73777107D01*
X139599652Y-73740562D01*
X139630739Y-73735638D01*
X149740183Y-73735638D01*
X149740187Y-73735639D01*
X149760196Y-73735639D01*
X149868002Y-73735639D01*
X149868004Y-73735639D01*
X149972138Y-73707736D01*
X150065502Y-73653833D01*
X150126086Y-73593249D01*
X162475501Y-73593249D01*
X162475501Y-73727150D01*
X162510152Y-73856470D01*
X162510152Y-73856471D01*
X162510154Y-73856474D01*
X162577100Y-73972426D01*
X162671775Y-74067101D01*
X162787727Y-74134047D01*
X162787729Y-74134048D01*
X162917050Y-74168699D01*
X162917054Y-74168699D01*
X162917056Y-74168700D01*
X162917058Y-74168700D01*
X163050944Y-74168700D01*
X163050946Y-74168700D01*
X163050948Y-74168699D01*
X163050951Y-74168699D01*
X163180271Y-74134048D01*
X163180272Y-74134048D01*
X163180272Y-74134047D01*
X163180275Y-74134047D01*
X163296227Y-74067101D01*
X163390902Y-73972426D01*
X163457848Y-73856474D01*
X163490225Y-73735639D01*
X163492500Y-73727150D01*
X163492501Y-73727143D01*
X163492501Y-73593256D01*
X163492500Y-73593249D01*
X163457849Y-73463929D01*
X163457849Y-73463928D01*
X163432534Y-73420082D01*
X163390902Y-73347974D01*
X163296227Y-73253299D01*
X163210085Y-73203564D01*
X163180272Y-73186351D01*
X163050951Y-73151700D01*
X163050946Y-73151700D01*
X162917056Y-73151700D01*
X162917050Y-73151700D01*
X162787730Y-73186351D01*
X162787729Y-73186351D01*
X162671774Y-73253299D01*
X162577100Y-73347973D01*
X162510152Y-73463928D01*
X162510152Y-73463929D01*
X162475501Y-73593249D01*
X150126086Y-73593249D01*
X150141734Y-73577601D01*
X150141735Y-73577600D01*
X152385161Y-71334173D01*
X161610379Y-71334173D01*
X161610379Y-71468074D01*
X161645030Y-71597394D01*
X161645030Y-71597395D01*
X161645032Y-71597398D01*
X161711978Y-71713350D01*
X161806653Y-71808025D01*
X161922605Y-71874971D01*
X161922607Y-71874972D01*
X162051928Y-71909623D01*
X162051932Y-71909623D01*
X162051934Y-71909624D01*
X162051936Y-71909624D01*
X162185822Y-71909624D01*
X162185824Y-71909624D01*
X162185826Y-71909623D01*
X162185829Y-71909623D01*
X162315149Y-71874972D01*
X162315150Y-71874972D01*
X162315150Y-71874971D01*
X162315153Y-71874971D01*
X162431105Y-71808025D01*
X162525780Y-71713350D01*
X162592726Y-71597398D01*
X162627379Y-71468069D01*
X162627379Y-71334179D01*
X162627377Y-71334173D01*
X162626968Y-71332648D01*
X166945900Y-71332648D01*
X166945900Y-71466549D01*
X166980551Y-71595869D01*
X166980551Y-71595870D01*
X166981433Y-71597398D01*
X167047499Y-71711825D01*
X167142174Y-71806500D01*
X167258126Y-71873446D01*
X167258128Y-71873447D01*
X167387449Y-71908098D01*
X167387453Y-71908098D01*
X167387455Y-71908099D01*
X167387457Y-71908099D01*
X167521343Y-71908099D01*
X167521345Y-71908099D01*
X167521347Y-71908098D01*
X167521350Y-71908098D01*
X167644979Y-71874972D01*
X167650670Y-71873447D01*
X167650671Y-71873447D01*
X167650671Y-71873446D01*
X167650674Y-71873446D01*
X167766626Y-71806500D01*
X167861301Y-71711825D01*
X167928247Y-71595873D01*
X167962490Y-71468074D01*
X167962899Y-71466549D01*
X167962900Y-71466542D01*
X167962900Y-71332655D01*
X167962899Y-71332648D01*
X167928248Y-71203328D01*
X167928248Y-71203327D01*
X167918792Y-71186949D01*
X167861301Y-71087373D01*
X167766626Y-70992698D01*
X167764591Y-70991523D01*
X167650671Y-70925750D01*
X167521350Y-70891099D01*
X167521345Y-70891099D01*
X167387455Y-70891099D01*
X167387449Y-70891099D01*
X167258129Y-70925750D01*
X167258128Y-70925750D01*
X167142173Y-70992698D01*
X167047499Y-71087372D01*
X166980551Y-71203327D01*
X166980551Y-71203328D01*
X166945900Y-71332648D01*
X162626968Y-71332648D01*
X162592727Y-71204853D01*
X162592727Y-71204852D01*
X162591847Y-71203327D01*
X162525780Y-71088898D01*
X162431105Y-70994223D01*
X162373380Y-70960895D01*
X162315150Y-70927275D01*
X162185829Y-70892624D01*
X162185824Y-70892624D01*
X162051934Y-70892624D01*
X162051928Y-70892624D01*
X161922608Y-70927275D01*
X161922607Y-70927275D01*
X161806652Y-70994223D01*
X161711978Y-71088897D01*
X161645030Y-71204852D01*
X161645030Y-71204853D01*
X161610379Y-71334173D01*
X152385161Y-71334173D01*
X153332430Y-70386903D01*
X153387828Y-70358678D01*
X153403565Y-70357439D01*
X174621833Y-70357439D01*
X174680964Y-70376652D01*
G37*
%TD.AperFunction*%
%TD*%
%TA.AperFunction,Conductor*%
%TO.N,/Light Sensor/LS_3V3*%
G36*
X176090401Y-81838999D02*
G01*
X175988801Y-81838999D01*
X174971800Y-81838999D01*
X174912669Y-81819786D01*
X174876124Y-81769486D01*
X174871200Y-81738399D01*
X174871201Y-80314000D01*
X174890414Y-80254869D01*
X174940714Y-80218324D01*
X174971801Y-80213400D01*
X175988801Y-80213400D01*
X176090400Y-80213400D01*
X176090401Y-81838999D01*
G37*
%TD.AperFunction*%
%TD*%
%TA.AperFunction,Conductor*%
%TO.N,/Light Sensor/LS_3V3*%
G36*
X177849472Y-73584349D02*
G01*
X177850559Y-73584022D01*
X177878948Y-73593926D01*
X177907526Y-73603212D01*
X177908881Y-73604369D01*
X177909264Y-73604503D01*
X177914700Y-73608634D01*
X177959898Y-73653832D01*
X178013802Y-73684953D01*
X178053263Y-73707736D01*
X178157396Y-73735639D01*
X178271366Y-73735639D01*
X178271382Y-73735638D01*
X188385000Y-73735638D01*
X188444131Y-73754851D01*
X188480676Y-73805151D01*
X188485600Y-73836238D01*
X188485601Y-81738399D01*
X188466388Y-81797530D01*
X188416088Y-81834075D01*
X188385001Y-81838999D01*
X176090401Y-81838999D01*
X176090400Y-80956249D01*
X181743701Y-80956249D01*
X181743701Y-81090150D01*
X181778352Y-81219470D01*
X181778352Y-81219471D01*
X181778354Y-81219474D01*
X181845300Y-81335426D01*
X181939975Y-81430101D01*
X182055927Y-81497047D01*
X182055929Y-81497048D01*
X182185250Y-81531699D01*
X182185254Y-81531699D01*
X182185256Y-81531700D01*
X182185258Y-81531700D01*
X182319144Y-81531700D01*
X182319146Y-81531700D01*
X182319148Y-81531699D01*
X182319151Y-81531699D01*
X182448471Y-81497048D01*
X182448472Y-81497048D01*
X182448472Y-81497047D01*
X182448475Y-81497047D01*
X182564427Y-81430101D01*
X182659102Y-81335426D01*
X182726048Y-81219474D01*
X182760701Y-81090145D01*
X182760701Y-80956255D01*
X182760700Y-80956253D01*
X182760700Y-80956249D01*
X182726049Y-80826929D01*
X182726049Y-80826928D01*
X182665410Y-80721900D01*
X182659102Y-80710974D01*
X182564427Y-80616299D01*
X182448475Y-80549353D01*
X182448472Y-80549351D01*
X182319151Y-80514700D01*
X182319146Y-80514700D01*
X182185256Y-80514700D01*
X182185250Y-80514700D01*
X182055930Y-80549351D01*
X182055929Y-80549351D01*
X181939974Y-80616299D01*
X181845300Y-80710973D01*
X181778352Y-80826928D01*
X181778352Y-80826929D01*
X181743701Y-80956249D01*
X176090400Y-80956249D01*
X176090400Y-80213400D01*
X175988801Y-80213400D01*
X175988801Y-80146449D01*
X183735301Y-80146449D01*
X183735301Y-80280350D01*
X183769952Y-80409670D01*
X183769952Y-80409671D01*
X183769954Y-80409674D01*
X183836900Y-80525626D01*
X183931575Y-80620301D01*
X184047527Y-80687247D01*
X184047529Y-80687248D01*
X184176850Y-80721899D01*
X184176854Y-80721899D01*
X184176856Y-80721900D01*
X184176858Y-80721900D01*
X184310744Y-80721900D01*
X184310746Y-80721900D01*
X184310748Y-80721899D01*
X184310751Y-80721899D01*
X184440071Y-80687248D01*
X184440072Y-80687248D01*
X184440072Y-80687247D01*
X184440075Y-80687247D01*
X184556027Y-80620301D01*
X184650702Y-80525626D01*
X184717648Y-80409674D01*
X184752301Y-80280345D01*
X184752301Y-80146455D01*
X184752300Y-80146453D01*
X184752300Y-80146449D01*
X184717649Y-80017129D01*
X184717649Y-80017128D01*
X184650701Y-79901173D01*
X184556027Y-79806499D01*
X184440072Y-79739551D01*
X184310751Y-79704900D01*
X184310746Y-79704900D01*
X184176856Y-79704900D01*
X184176850Y-79704900D01*
X184047530Y-79739551D01*
X184047529Y-79739551D01*
X183931574Y-79806499D01*
X183836900Y-79901173D01*
X183769952Y-80017128D01*
X183769952Y-80017129D01*
X183735301Y-80146449D01*
X175988801Y-80146449D01*
X175988801Y-79306249D01*
X181743701Y-79306249D01*
X181743701Y-79440150D01*
X181778352Y-79569470D01*
X181778352Y-79569471D01*
X181778354Y-79569474D01*
X181845300Y-79685426D01*
X181939975Y-79780101D01*
X182055927Y-79847047D01*
X182055929Y-79847048D01*
X182185250Y-79881699D01*
X182185254Y-79881699D01*
X182185256Y-79881700D01*
X182185258Y-79881700D01*
X182319144Y-79881700D01*
X182319146Y-79881700D01*
X182319148Y-79881699D01*
X182319151Y-79881699D01*
X182448471Y-79847048D01*
X182448472Y-79847048D01*
X182448472Y-79847047D01*
X182448475Y-79847047D01*
X182564427Y-79780101D01*
X182659102Y-79685426D01*
X182726048Y-79569474D01*
X182760701Y-79440145D01*
X182760701Y-79306255D01*
X182760700Y-79306253D01*
X182760700Y-79306249D01*
X182726049Y-79176929D01*
X182726049Y-79176928D01*
X182726048Y-79176926D01*
X182659102Y-79060974D01*
X182564427Y-78966299D01*
X182448472Y-78899351D01*
X182319151Y-78864700D01*
X182319146Y-78864700D01*
X182185256Y-78864700D01*
X182185250Y-78864700D01*
X182055930Y-78899351D01*
X182055929Y-78899351D01*
X181939974Y-78966299D01*
X181845300Y-79060973D01*
X181778352Y-79176928D01*
X181778352Y-79176929D01*
X181743701Y-79306249D01*
X175988801Y-79306249D01*
X175988800Y-76282649D01*
X181743701Y-76282649D01*
X181743701Y-76416550D01*
X181778352Y-76545870D01*
X181778352Y-76545871D01*
X181778354Y-76545874D01*
X181845300Y-76661826D01*
X181939975Y-76756501D01*
X182055927Y-76823447D01*
X182055929Y-76823448D01*
X182185250Y-76858099D01*
X182185254Y-76858099D01*
X182185256Y-76858100D01*
X182185258Y-76858100D01*
X182319144Y-76858100D01*
X182319146Y-76858100D01*
X182319148Y-76858099D01*
X182319151Y-76858099D01*
X182448471Y-76823448D01*
X182448472Y-76823448D01*
X182448472Y-76823447D01*
X182448475Y-76823447D01*
X182564427Y-76756501D01*
X182659102Y-76661826D01*
X182726048Y-76545874D01*
X182760701Y-76416545D01*
X182760701Y-76282655D01*
X182760700Y-76282653D01*
X182760700Y-76282649D01*
X182726049Y-76153329D01*
X182726049Y-76153328D01*
X182659101Y-76037373D01*
X182564427Y-75942699D01*
X182448472Y-75875751D01*
X182319151Y-75841100D01*
X182319146Y-75841100D01*
X182185256Y-75841100D01*
X182185250Y-75841100D01*
X182055930Y-75875751D01*
X182055929Y-75875751D01*
X181939974Y-75942699D01*
X181845300Y-76037373D01*
X181778352Y-76153328D01*
X181778352Y-76153329D01*
X181743701Y-76282649D01*
X175988800Y-76282649D01*
X175988800Y-75447448D01*
X179772901Y-75447448D01*
X179772901Y-75581349D01*
X179807552Y-75710669D01*
X179807552Y-75710670D01*
X179807554Y-75710673D01*
X179874500Y-75826625D01*
X179969175Y-75921300D01*
X180006239Y-75942699D01*
X180085129Y-75988247D01*
X180214450Y-76022898D01*
X180214454Y-76022898D01*
X180214456Y-76022899D01*
X180214458Y-76022899D01*
X180348344Y-76022899D01*
X180348346Y-76022899D01*
X180348348Y-76022898D01*
X180348351Y-76022898D01*
X180477671Y-75988247D01*
X180477672Y-75988247D01*
X180477672Y-75988246D01*
X180477675Y-75988246D01*
X180593627Y-75921300D01*
X180688302Y-75826625D01*
X180755248Y-75710673D01*
X180789901Y-75581344D01*
X180789901Y-75447454D01*
X180789900Y-75447452D01*
X180789900Y-75447448D01*
X180755249Y-75318128D01*
X180755249Y-75318127D01*
X180688301Y-75202172D01*
X180593627Y-75107498D01*
X180477672Y-75040550D01*
X180348351Y-75005899D01*
X180348346Y-75005899D01*
X180214456Y-75005899D01*
X180214450Y-75005899D01*
X180085130Y-75040550D01*
X180085129Y-75040550D01*
X179969174Y-75107498D01*
X179874500Y-75202172D01*
X179807552Y-75318127D01*
X179807552Y-75318128D01*
X179772901Y-75447448D01*
X175988800Y-75447448D01*
X175988800Y-74632649D01*
X181743700Y-74632649D01*
X181743700Y-74766550D01*
X181778351Y-74895870D01*
X181778351Y-74895871D01*
X181778353Y-74895874D01*
X181845299Y-75011826D01*
X181939974Y-75106501D01*
X182055926Y-75173447D01*
X182055928Y-75173448D01*
X182185249Y-75208099D01*
X182185253Y-75208099D01*
X182185255Y-75208100D01*
X182185257Y-75208100D01*
X182319143Y-75208100D01*
X182319145Y-75208100D01*
X182319147Y-75208099D01*
X182319150Y-75208099D01*
X182448470Y-75173448D01*
X182448471Y-75173448D01*
X182448471Y-75173447D01*
X182448474Y-75173447D01*
X182564426Y-75106501D01*
X182659101Y-75011826D01*
X182726047Y-74895874D01*
X182760700Y-74766545D01*
X182760700Y-74632655D01*
X182760699Y-74632653D01*
X182760699Y-74632649D01*
X182726048Y-74503329D01*
X182726048Y-74503328D01*
X182659100Y-74387373D01*
X182564426Y-74292699D01*
X182448471Y-74225751D01*
X182319150Y-74191100D01*
X182319145Y-74191100D01*
X182185255Y-74191100D01*
X182185249Y-74191100D01*
X182055929Y-74225751D01*
X182055928Y-74225751D01*
X181939973Y-74292699D01*
X181845299Y-74387373D01*
X181778351Y-74503328D01*
X181778351Y-74503329D01*
X181743700Y-74632649D01*
X175988800Y-74632649D01*
X175988800Y-73684598D01*
X176008013Y-73625468D01*
X176058313Y-73588923D01*
X176089400Y-73583999D01*
X177848395Y-73583999D01*
X177849472Y-73584349D01*
G37*
%TD.AperFunction*%
%TD*%
%TA.AperFunction,Conductor*%
%TO.N,/GPIO Expander/GE_3V3*%
G36*
X151689831Y-116810613D02*
G01*
X151726376Y-116860913D01*
X151731300Y-116892000D01*
X151731300Y-118287869D01*
X151712087Y-118347000D01*
X151701835Y-118359004D01*
X151032805Y-119028034D01*
X150977407Y-119056260D01*
X150961670Y-119057499D01*
X150859649Y-119057499D01*
X150730329Y-119092150D01*
X150730328Y-119092150D01*
X150614373Y-119159098D01*
X150519699Y-119253772D01*
X150452751Y-119369727D01*
X150452751Y-119369728D01*
X150418100Y-119499048D01*
X150418100Y-119632949D01*
X150452751Y-119762269D01*
X150452751Y-119762270D01*
X150452753Y-119762273D01*
X150519699Y-119878225D01*
X150614374Y-119972900D01*
X150730326Y-120039846D01*
X150730328Y-120039847D01*
X150859649Y-120074498D01*
X150859653Y-120074498D01*
X150859655Y-120074499D01*
X150859657Y-120074499D01*
X150993543Y-120074499D01*
X150993545Y-120074499D01*
X150993547Y-120074498D01*
X150993550Y-120074498D01*
X151122870Y-120039847D01*
X151122871Y-120039847D01*
X151122871Y-120039846D01*
X151122874Y-120039846D01*
X151238826Y-119972900D01*
X151333501Y-119878225D01*
X151400447Y-119762273D01*
X151435100Y-119632944D01*
X151435100Y-119530927D01*
X151454313Y-119471796D01*
X151464565Y-119459792D01*
X151832207Y-119092150D01*
X152143767Y-118780590D01*
X152199164Y-118752365D01*
X152260572Y-118762091D01*
X152304536Y-118806055D01*
X152315501Y-118851726D01*
X152315501Y-120709267D01*
X152296288Y-120768398D01*
X152286036Y-120780402D01*
X151023804Y-122042634D01*
X150968406Y-122070860D01*
X150952669Y-122072099D01*
X150850648Y-122072099D01*
X150721328Y-122106750D01*
X150721327Y-122106750D01*
X150605372Y-122173698D01*
X150510698Y-122268372D01*
X150443750Y-122384327D01*
X150443750Y-122384328D01*
X150409099Y-122513648D01*
X150409099Y-122647549D01*
X150443750Y-122776869D01*
X150443750Y-122776870D01*
X150443752Y-122776873D01*
X150510698Y-122892825D01*
X150605373Y-122987500D01*
X150721325Y-123054446D01*
X150721327Y-123054447D01*
X150850648Y-123089098D01*
X150850652Y-123089098D01*
X150850654Y-123089099D01*
X150850656Y-123089099D01*
X150984542Y-123089099D01*
X150984544Y-123089099D01*
X150984546Y-123089098D01*
X150984549Y-123089098D01*
X151113869Y-123054447D01*
X151113870Y-123054447D01*
X151113870Y-123054446D01*
X151113873Y-123054446D01*
X151229825Y-122987500D01*
X151324500Y-122892825D01*
X151391446Y-122776873D01*
X151426099Y-122647544D01*
X151426099Y-122545527D01*
X151445312Y-122486396D01*
X151455564Y-122474392D01*
X151661584Y-122268372D01*
X152865102Y-121064857D01*
X152905295Y-120995239D01*
X152926101Y-120917591D01*
X152926101Y-116892000D01*
X152945314Y-116832869D01*
X152995614Y-116796324D01*
X153026701Y-116791400D01*
X157054999Y-116791400D01*
X157114130Y-116810613D01*
X157150675Y-116860913D01*
X157155599Y-116892000D01*
X157155599Y-124945799D01*
X157136386Y-125004930D01*
X157086086Y-125041475D01*
X157054999Y-125046399D01*
X144759399Y-125046399D01*
X144700268Y-125027186D01*
X144663723Y-124976886D01*
X144658799Y-124945799D01*
X144658799Y-124163649D01*
X150409100Y-124163649D01*
X150409100Y-124297550D01*
X150443751Y-124426870D01*
X150443751Y-124426871D01*
X150443753Y-124426874D01*
X150510699Y-124542826D01*
X150605374Y-124637501D01*
X150721326Y-124704447D01*
X150721328Y-124704448D01*
X150850649Y-124739099D01*
X150850653Y-124739099D01*
X150850655Y-124739100D01*
X150850657Y-124739100D01*
X150984543Y-124739100D01*
X150984545Y-124739100D01*
X150984547Y-124739099D01*
X150984550Y-124739099D01*
X151113870Y-124704448D01*
X151113871Y-124704448D01*
X151113871Y-124704447D01*
X151113874Y-124704447D01*
X151229826Y-124637501D01*
X151324501Y-124542826D01*
X151391447Y-124426874D01*
X151426100Y-124297545D01*
X151426100Y-124163655D01*
X151426099Y-124163653D01*
X151426099Y-124163649D01*
X151391448Y-124034329D01*
X151391448Y-124034328D01*
X151324500Y-123918373D01*
X151229826Y-123823699D01*
X151113871Y-123756751D01*
X150984550Y-123722100D01*
X150984545Y-123722100D01*
X150850655Y-123722100D01*
X150850649Y-123722100D01*
X150721329Y-123756751D01*
X150721328Y-123756751D01*
X150605373Y-123823699D01*
X150510699Y-123918373D01*
X150443751Y-124034328D01*
X150443751Y-124034329D01*
X150409100Y-124163649D01*
X144658799Y-124163649D01*
X144658799Y-123328449D01*
X152379899Y-123328449D01*
X152379899Y-123462350D01*
X152414550Y-123591670D01*
X152414550Y-123591671D01*
X152414552Y-123591674D01*
X152481498Y-123707626D01*
X152576173Y-123802301D01*
X152613235Y-123823699D01*
X152692127Y-123869248D01*
X152821448Y-123903899D01*
X152821452Y-123903899D01*
X152821454Y-123903900D01*
X152821456Y-123903900D01*
X152955342Y-123903900D01*
X152955344Y-123903900D01*
X152955346Y-123903899D01*
X152955349Y-123903899D01*
X153084669Y-123869248D01*
X153084670Y-123869248D01*
X153084670Y-123869247D01*
X153084673Y-123869247D01*
X153200625Y-123802301D01*
X153295300Y-123707626D01*
X153362246Y-123591674D01*
X153396899Y-123462345D01*
X153396899Y-123328455D01*
X153396898Y-123328453D01*
X153396898Y-123328449D01*
X153362247Y-123199129D01*
X153362247Y-123199128D01*
X153362246Y-123199126D01*
X153295300Y-123083174D01*
X153200625Y-122988499D01*
X153084673Y-122921553D01*
X153084670Y-122921551D01*
X152955349Y-122886900D01*
X152955344Y-122886900D01*
X152821454Y-122886900D01*
X152821448Y-122886900D01*
X152692128Y-122921551D01*
X152692127Y-122921551D01*
X152576172Y-122988499D01*
X152481498Y-123083173D01*
X152414550Y-123199128D01*
X152414550Y-123199129D01*
X152379899Y-123328449D01*
X144658799Y-123328449D01*
X144658799Y-118652649D01*
X148411700Y-118652649D01*
X148411700Y-118786550D01*
X148446351Y-118915870D01*
X148446351Y-118915871D01*
X148446353Y-118915874D01*
X148513299Y-119031826D01*
X148607974Y-119126501D01*
X148664433Y-119159098D01*
X148723928Y-119193448D01*
X148853249Y-119228099D01*
X148853253Y-119228099D01*
X148853255Y-119228100D01*
X148853257Y-119228100D01*
X148987143Y-119228100D01*
X148987145Y-119228100D01*
X148987147Y-119228099D01*
X148987150Y-119228099D01*
X149116470Y-119193448D01*
X149116471Y-119193448D01*
X149116471Y-119193447D01*
X149116474Y-119193447D01*
X149232426Y-119126501D01*
X149327101Y-119031826D01*
X149394047Y-118915874D01*
X149411235Y-118851726D01*
X149428699Y-118786550D01*
X149428700Y-118786543D01*
X149428700Y-118652656D01*
X149428699Y-118652649D01*
X149394048Y-118523329D01*
X149394048Y-118523328D01*
X149394047Y-118523326D01*
X149327101Y-118407374D01*
X149232426Y-118312699D01*
X149116474Y-118245753D01*
X149116471Y-118245751D01*
X148987150Y-118211100D01*
X148987145Y-118211100D01*
X148853255Y-118211100D01*
X148853249Y-118211100D01*
X148723929Y-118245751D01*
X148723928Y-118245751D01*
X148607973Y-118312699D01*
X148513299Y-118407373D01*
X148446351Y-118523328D01*
X148446351Y-118523329D01*
X148411700Y-118652649D01*
X144658799Y-118652649D01*
X144658799Y-117840049D01*
X150409099Y-117840049D01*
X150409099Y-117973950D01*
X150443750Y-118103270D01*
X150443750Y-118103271D01*
X150443752Y-118103274D01*
X150510698Y-118219226D01*
X150605373Y-118313901D01*
X150721325Y-118380847D01*
X150721327Y-118380848D01*
X150850648Y-118415499D01*
X150850652Y-118415499D01*
X150850654Y-118415500D01*
X150850656Y-118415500D01*
X150984542Y-118415500D01*
X150984544Y-118415500D01*
X150984546Y-118415499D01*
X150984549Y-118415499D01*
X151113869Y-118380848D01*
X151113870Y-118380848D01*
X151113870Y-118380847D01*
X151113873Y-118380847D01*
X151229825Y-118313901D01*
X151324500Y-118219226D01*
X151391446Y-118103274D01*
X151426099Y-117973945D01*
X151426099Y-117840055D01*
X151426098Y-117840053D01*
X151426098Y-117840049D01*
X151391447Y-117710729D01*
X151391447Y-117710728D01*
X151324499Y-117594773D01*
X151229825Y-117500099D01*
X151113870Y-117433151D01*
X150984549Y-117398500D01*
X150984544Y-117398500D01*
X150850654Y-117398500D01*
X150850648Y-117398500D01*
X150721328Y-117433151D01*
X150721327Y-117433151D01*
X150605372Y-117500099D01*
X150510698Y-117594773D01*
X150443750Y-117710728D01*
X150443750Y-117710729D01*
X150409099Y-117840049D01*
X144658799Y-117840049D01*
X144658799Y-116892000D01*
X144678012Y-116832869D01*
X144728312Y-116796324D01*
X144759399Y-116791400D01*
X151630700Y-116791400D01*
X151689831Y-116810613D01*
G37*
%TD.AperFunction*%
%TD*%
M02*
