%TF.GenerationSoftware,KiCad,Pcbnew,9.0.1*%
%TF.CreationDate,2025-06-25T17:22:12-04:00*%
%TF.ProjectId,-Z,2d5a2e6b-6963-4616-945f-706362585858,rev?*%
%TF.SameCoordinates,Original*%
%TF.FileFunction,Soldermask,Top*%
%TF.FilePolarity,Negative*%
%FSLAX46Y46*%
G04 Gerber Fmt 4.6, Leading zero omitted, Abs format (unit mm)*
G04 Created by KiCad (PCBNEW 9.0.1) date 2025-06-25 17:22:12*
%MOMM*%
%LPD*%
G01*
G04 APERTURE LIST*
G04 Aperture macros list*
%AMRoundRect*
0 Rectangle with rounded corners*
0 $1 Rounding radius*
0 $2 $3 $4 $5 $6 $7 $8 $9 X,Y pos of 4 corners*
0 Add a 4 corners polygon primitive as box body*
4,1,4,$2,$3,$4,$5,$6,$7,$8,$9,$2,$3,0*
0 Add four circle primitives for the rounded corners*
1,1,$1+$1,$2,$3*
1,1,$1+$1,$4,$5*
1,1,$1+$1,$6,$7*
1,1,$1+$1,$8,$9*
0 Add four rect primitives between the rounded corners*
20,1,$1+$1,$2,$3,$4,$5,0*
20,1,$1+$1,$4,$5,$6,$7,0*
20,1,$1+$1,$6,$7,$8,$9,0*
20,1,$1+$1,$8,$9,$2,$3,0*%
G04 Aperture macros list end*
%ADD10C,0.762000*%
%ADD11C,3.800000*%
%ADD12C,5.600000*%
%ADD13RoundRect,0.200000X0.275000X-0.200000X0.275000X0.200000X-0.275000X0.200000X-0.275000X-0.200000X0*%
%ADD14C,1.500000*%
%ADD15R,0.660400X0.254000*%
%ADD16R,0.762000X1.447800*%
%ADD17C,1.727200*%
%ADD18RoundRect,0.225000X-0.250000X0.225000X-0.250000X-0.225000X0.250000X-0.225000X0.250000X0.225000X0*%
%ADD19RoundRect,0.250000X-0.362500X-1.425000X0.362500X-1.425000X0.362500X1.425000X-0.362500X1.425000X0*%
%ADD20C,2.304000*%
G04 APERTURE END LIST*
D10*
%TO.C,H2*%
X144200001Y-145800000D03*
X143555751Y-147355750D03*
X143555751Y-144244250D03*
X142000001Y-148000000D03*
D11*
X142000001Y-145800000D03*
D12*
X142000001Y-145800000D03*
D10*
X142000001Y-143600000D03*
X140444251Y-147355750D03*
X140444251Y-144244250D03*
X139800001Y-145800000D03*
%TD*%
D13*
%TO.C,R1*%
X166692401Y-71399600D03*
X166692401Y-69749600D03*
%TD*%
%TO.C,R2*%
X166692400Y-73050600D03*
X166692400Y-71400600D03*
%TD*%
D14*
%TO.C,JP5*%
X164000001Y-96100000D03*
X164000001Y-97499999D03*
X164000001Y-102499999D03*
X164000001Y-103899998D03*
%TD*%
D10*
%TO.C,H8*%
X212000000Y-121999999D03*
X211355750Y-123555749D03*
X211355750Y-120444249D03*
X209800000Y-124199999D03*
D11*
X209800000Y-121999999D03*
D12*
X209800000Y-121999999D03*
D10*
X209800000Y-119799999D03*
X208244250Y-123555749D03*
X208244250Y-120444249D03*
X207600000Y-121999999D03*
%TD*%
%TO.C,H5*%
X144200001Y-54200000D03*
X143555751Y-55755750D03*
X143555751Y-52644250D03*
X142000001Y-56400000D03*
D11*
X142000001Y-54200000D03*
D12*
X142000001Y-54200000D03*
D10*
X142000001Y-52000000D03*
X140444251Y-55755750D03*
X140444251Y-52644250D03*
X139800001Y-54200000D03*
%TD*%
D15*
%TO.C,U1*%
X162971301Y-70749601D03*
X162971301Y-71399600D03*
X162971301Y-72049599D03*
X165028701Y-72049599D03*
X165028701Y-71399600D03*
X165028701Y-70749601D03*
D16*
X164000001Y-71399600D03*
%TD*%
D10*
%TO.C,H7*%
X212000000Y-78000000D03*
X211355750Y-79555750D03*
X211355750Y-76444250D03*
X209800000Y-80200000D03*
D11*
X209800000Y-78000000D03*
D12*
X209800000Y-78000000D03*
D10*
X209800000Y-75800000D03*
X208244250Y-79555750D03*
X208244250Y-76444250D03*
X207600000Y-78000000D03*
%TD*%
D17*
%TO.C,AE3*%
X164000000Y-120400000D03*
%TD*%
D18*
%TO.C,C1*%
X161307600Y-70624599D03*
X161307600Y-72174599D03*
%TD*%
D14*
%TO.C,JP1*%
X167900000Y-62789000D03*
X166500001Y-62789000D03*
X161500001Y-62789000D03*
X160100002Y-62789000D03*
%TD*%
D10*
%TO.C,H4*%
X120400001Y-78000000D03*
X119755751Y-79555750D03*
X119755751Y-76444250D03*
X118200001Y-80200000D03*
D11*
X118200001Y-78000000D03*
D12*
X118200001Y-78000000D03*
D10*
X118200001Y-75800000D03*
X116644251Y-79555750D03*
X116644251Y-76444250D03*
X116000001Y-78000000D03*
%TD*%
D19*
%TO.C,R36*%
X161037501Y-108788400D03*
X166962501Y-108788400D03*
%TD*%
D10*
%TO.C,H3*%
X120400001Y-121999999D03*
X119755751Y-123555749D03*
X119755751Y-120444249D03*
X118200001Y-124199999D03*
D11*
X118200001Y-121999999D03*
D12*
X118200001Y-121999999D03*
D10*
X118200001Y-119799999D03*
X116644251Y-123555749D03*
X116644251Y-120444249D03*
X116000001Y-121999999D03*
%TD*%
D14*
%TO.C,JP4*%
X126789000Y-103899999D03*
X126789000Y-102500000D03*
X126789000Y-97500000D03*
X126789000Y-96100001D03*
%TD*%
D10*
%TO.C,H1*%
X188200000Y-145800000D03*
X187555750Y-147355750D03*
X187555750Y-144244250D03*
X186000000Y-148000000D03*
D11*
X186000000Y-145800000D03*
D12*
X186000000Y-145800000D03*
D10*
X186000000Y-143600000D03*
X184444250Y-147355750D03*
X184444250Y-144244250D03*
X183800000Y-145800000D03*
%TD*%
%TO.C,H6*%
X188200000Y-54200000D03*
X187555750Y-55755750D03*
X187555750Y-52644250D03*
X186000000Y-56400000D03*
D11*
X186000000Y-54200000D03*
D12*
X186000000Y-54200000D03*
D10*
X186000000Y-52000000D03*
X184444250Y-55755750D03*
X184444250Y-52644250D03*
X183800000Y-54200000D03*
%TD*%
D20*
%TO.C,U2*%
X146793600Y-88417600D03*
X139173600Y-80797600D03*
X139173600Y-88417600D03*
X156953600Y-88417600D03*
X156953600Y-80797600D03*
%TD*%
D14*
%TO.C,JP3*%
X201211001Y-97500000D03*
X201211001Y-96100001D03*
X201211001Y-103899999D03*
X201211001Y-102500000D03*
%TD*%
%TO.C,JP2*%
X161500001Y-137211000D03*
X160100002Y-137211000D03*
X167900000Y-137211000D03*
X166500001Y-137211000D03*
%TD*%
M02*
